<svg width="225" height="60" viewBox="0 0 225 60" fill="none" xmlns="http://www.w3.org/2000/svg">
<path fill-rule="evenodd" clip-rule="evenodd" d="M77.5104 51.5952H81.2804L78.9625 57.8571H75.4374L77.5104 51.5952ZM69.3151 51.5952H74.9614L72.885 57.8571H67.2387L69.3151 51.5952ZM57.9707 51.5952H65.7659L63.6895 57.8571H55.8943L57.9707 51.5952ZM2.32131 51.5952H53.773L51.6966 57.8571H0L2.32131 51.5952Z" fill="#F02801"/>
<path fill-rule="evenodd" clip-rule="evenodd" d="M79.2392 1.47729C77.5077 2.48864 74.6952 5.69022 72.307 9.18032C71.3405 10.5919 70.6188 11.2589 69.2621 11.5257C66.1739 12.1337 60.5581 12.1058 56.3888 12.568C50.4075 13.235 31.178 17.3642 27.4114 15.3167C28.6907 15.1336 29.4837 14.9816 29.7965 14.8544C34.7712 11.0262 38.9404 8.26824 42.3012 6.58058C50.6522 2.38316 70.0179 1.61689 79.2392 1.47729ZM44.4695 33.9584C42.2486 32.4693 41.9079 32.2367 41.9079 32.2367C46.0678 31.6752 48.5861 31.4456 49.4627 31.548C51.9717 31.548 52.424 37.0763 50.6646 37.188C48.806 37.2655 47.5887 37.3182 47.0095 37.3431C45.5908 37.4051 44.6585 35.0598 44.4695 33.9584ZM111.5 10.3313C103.202 3.5217 92.3851 0.118473 81.835 0.00679015C70.9657 -0.107995 53.4802 1.2353 45.47 3.82573C40.7927 5.33655 36.7195 7.90527 32.0732 11.4109C29.6664 13.2257 28.889 14.0354 25.7016 14.749C21.1451 15.5028 16.7033 16.4769 12.3791 17.6713C11.4375 17.9443 10.5113 18.45 9.59757 19.1853C13.1845 20.6061 20.1694 20.5658 30.5554 19.0643C44.8505 16.5793 53.5267 15.5245 56.5808 15.8999C57.2592 16.2226 57.5225 16.6134 57.3707 17.0695C54.7533 19.421 51.4018 21.2452 47.3099 22.5389C46.6161 22.6878 45.7829 22.6195 44.804 22.331C36.1527 21.9991 27.0366 26.9659 17.9516 26.5191C12.9367 26.2709 10.152 24.8842 6.41641 24.9804C6.0509 24.453 5.86814 24.1893 5.86814 24.1893C3.45207 26.1841 2.6746 30.2419 3.53261 36.3627C3.87334 33.3535 4.4216 31.2377 5.1774 30.0185C5.95488 28.7621 6.75404 28.7 8.16961 28.9327C15.0616 29.8014 23.8307 29.2957 34.4707 27.4188C35.5827 27.2326 36.4283 27.4281 37.0107 28.0051C40.3374 33.7599 42.9486 37.3245 44.835 38.705C45.628 39.282 46.6254 39.4899 47.6011 39.4309C52.8545 39.1176 55.2737 38.7701 55.2737 38.7701C56.045 38.6926 56.4786 38.373 56.5777 37.8084C58.8699 26.9379 62.7387 21.7509 68.1842 22.2472C73.8433 23.575 76.6125 29.2616 76.4917 39.3037C77.2444 28.1695 73.261 19.7189 67.289 19.8181C65.0804 19.8554 62.2307 20.755 59.9417 24.5864C62.3763 20.0291 66.1429 17.9754 71.2042 19.601C72.2202 18.6579 74.1066 18.0219 75.4417 17.9754C75.3178 17.358 75.0762 16.8461 74.7106 16.4397C75.324 16.6321 75.7948 16.9981 76.12 17.5317C76.1975 17.6589 76.6125 19.2752 77.4272 27.9865L77.3528 17.9102L93.0418 17.3673C94.9189 15.6238 95.8574 14.7552 95.8574 14.7552C81.4354 15.1678 74.2274 15.3725 74.2274 15.3725C73.4438 15.1492 73.1898 14.5752 73.4716 13.6538C76.7488 6.29207 79.9764 2.39557 83.1545 1.96125C92.9799 0.655178 104.475 6.31378 111.5 10.3313Z" fill="#121212"/>
<path fill-rule="evenodd" clip-rule="evenodd" d="M11.7378 20.87C11.5241 21.872 11.4187 23.1036 11.428 24.5679C10.0868 24.2174 8.86638 23.9754 7.76986 23.8451C7.76986 23.8451 7.79154 23.5349 7.83801 22.9175C7.83801 22.9175 7.31762 23.085 6.27686 23.417C7.2278 21.6425 8.11988 20.4605 8.95621 19.8741C9.7213 20.234 10.6475 20.566 11.7378 20.87Z" fill="#121212"/>
<path fill-rule="evenodd" clip-rule="evenodd" d="M45.092 21.0871C45.6217 21.3911 46.2226 21.4749 46.6811 21.3104C47.4585 19.7748 48.5922 18.6176 50.079 17.839C50.079 17.839 49.3635 18.9496 47.9325 21.1739C51.2344 19.9082 53.8332 18.5525 55.7351 17.1068C55.6484 16.8772 55.54 16.7966 54.9453 16.8059C49.1901 17.172 42.6883 18.022 37.9151 19.1357C36.803 19.477 35.3379 20.9847 34.5264 22.5079C39.6776 21.2856 43.5433 21.1057 45.092 21.0871Z" fill="#121212"/>
<path fill-rule="evenodd" clip-rule="evenodd" d="M33.8048 21.0281C33.2999 21.6237 33.049 21.9215 33.049 21.9215C25.2525 23.6619 18.4906 24.1428 12.7571 23.3672C12.7571 23.3672 12.6084 23.1252 12.311 22.6444C17.9299 23.4882 25.0945 22.9515 33.8048 21.0281Z" fill="#121212"/>
<path fill-rule="evenodd" clip-rule="evenodd" d="M105.989 9.57758C107.591 9.66754 108.393 9.71408 108.393 9.71408C96.226 3.79798 89.9318 2.57877 85.1152 2.63461C80.8003 2.68425 78.883 6.01924 76.6497 9.52484C80.0569 4.80623 82.6031 3.20544 88.2809 3.91587C89.3247 5.5694 90.1673 8.50108 91.2266 13.4275C90.8735 9.97157 90.4925 6.86616 89.8668 4.23851C95.2441 5.15679 100.358 6.87237 105.989 9.57758Z" fill="#F02801"/>
<path fill-rule="evenodd" clip-rule="evenodd" d="M80.2737 11.2961C77.6315 12.6425 76.5195 12.931 76.9439 12.1554C77.2846 10.0427 77.9382 8.95382 78.9015 8.88867C83.9195 8.75217 86.6546 9.28887 87.1069 10.505C87.3361 11.3829 87.2927 12.2206 86.9706 13.0147C86.9272 11.8979 86.7197 11.2216 86.3542 10.9858C82.2995 11.1937 80.2737 11.2961 80.2737 11.2961Z" fill="#121212"/>
<path fill-rule="evenodd" clip-rule="evenodd" d="M41.8181 40.0795C43.1191 40.7961 43.3948 41.1963 42.6421 41.2832C29.1431 42.2697 16.691 42.5458 5.28591 42.1084C4.35356 41.9502 4.60446 41.3793 6.04171 40.3897C6.08817 40.7558 6.10985 40.9388 6.10985 40.9388C15.5666 41.1715 27.4704 40.883 41.8181 40.0795Z" fill="#121212"/>
<path fill-rule="evenodd" clip-rule="evenodd" d="M66.5053 27.0807C69.482 27.0807 71.895 31.4891 71.895 36.9306C71.895 42.3689 69.482 46.7804 66.5053 46.7804C63.5286 46.7804 61.1156 42.3689 61.1156 36.9306C61.1156 31.4922 63.5286 27.0807 66.5053 27.0807ZM66.8491 25.3248C70.3586 25.3248 73.2021 30.5212 73.2021 36.9306C73.2021 43.3399 70.3586 48.5363 66.8491 48.5363C63.3427 48.5363 60.4961 43.3399 60.4961 36.9306C60.4961 30.5212 63.3396 25.3248 66.8491 25.3248Z" fill="#F02801"/>
<path fill-rule="evenodd" clip-rule="evenodd" d="M34.325 32.7981C35.1334 33.3472 36.4995 34.2655 37.8964 36.1331C36.6203 33.6264 35.3162 31.762 33.9874 30.4807C33.7086 31.3463 33.4422 31.8861 32.9869 32.6927C26.3055 33.096 18.1002 33.279 8.36773 33.2418C8.23763 33.2107 7.7792 32.6368 6.99552 31.5231C6.35124 33.2821 6.01981 35.1838 6.00122 37.2313C6.7787 34.8922 7.16898 33.7226 7.16898 33.7226C7.78849 34.2717 8.09515 34.5478 8.09515 34.5478C20.2498 34.3772 29.3132 34.1973 33.8851 33.8684C34.0338 33.4838 34.1608 33.1394 34.325 32.7981Z" fill="#F02801"/>
<path d="M94.3462 44.5321L100.782 14.3965H109.679L107.408 25.0188L118.907 14.3965H129.035L115.642 26.7502L123.356 44.5321H113.891L108.969 32.3656L105.089 35.8283L103.243 44.5321H94.3462Z" fill="#121212"/>
<path d="M125.47 44.5321L143.595 14.3965H153.012L158.265 44.5321H148.99L147.901 38.1213H138.626L134.745 44.5321H125.47ZM141.134 31.804H147.949L146.434 22.9599L141.134 31.804Z" fill="#121212"/>
<path d="M163.526 44.5321L169.962 14.3965H185.816C188.718 14.3965 190.927 15.1296 192.441 16.5959C193.955 18.0309 194.713 19.9495 194.713 22.3516C194.713 23.1939 194.618 24.1142 194.429 25.1124C193.987 27.1402 193.088 28.934 191.731 30.4938C190.374 32.0224 188.75 33.1923 186.857 34.0034C187.172 34.2841 187.409 34.6273 187.567 35.0328C187.724 35.4072 187.882 35.9375 188.04 36.6238L189.885 44.5321H180.61L178.906 37.279C178.78 36.7174 178.559 36.3275 178.244 36.1091C177.928 35.8595 177.439 35.7347 176.777 35.7347H174.269L172.423 44.5321H163.526ZM175.736 28.9964H180.421C183.134 28.9964 184.774 27.7017 185.342 25.1124C185.405 24.8317 185.453 24.5665 185.484 24.3169C185.516 24.0674 185.532 23.8334 185.532 23.615C185.532 22.8039 185.295 22.1956 184.822 21.79C184.349 21.3533 183.544 21.1349 182.408 21.1349H177.439L175.736 28.9964Z" fill="#121212"/>
<path d="M205.348 45C203.297 45 201.389 44.844 199.622 44.5321C197.855 44.1889 196.404 43.721 195.268 43.1282L196.83 35.8751C198.123 36.5302 199.59 37.0606 201.231 37.4661C202.872 37.8717 204.449 38.0745 205.963 38.0745C207.541 38.0745 208.756 37.9497 209.607 37.7001C210.459 37.4193 210.996 36.811 211.216 35.8751C211.248 35.7503 211.264 35.5944 211.264 35.4072C211.264 34.6273 210.775 34.0501 209.797 33.6758C208.819 33.3014 207.367 32.7867 205.443 32.1316C203.297 31.3829 201.673 30.4782 200.568 29.4175C199.464 28.3256 198.912 26.9218 198.912 25.206C198.912 24.8629 198.928 24.5197 198.959 24.1765C198.991 23.8022 199.054 23.4122 199.149 23.0067C199.78 20.043 201.263 17.7969 203.597 16.2683C205.963 14.7085 209.371 13.9286 213.819 13.9286C215.491 13.9286 217.179 14.069 218.883 14.3497C220.618 14.6305 221.99 14.9425 223 15.2856L221.438 22.5855C220.082 21.9928 218.757 21.5717 217.463 21.3221C216.17 21.0725 214.923 20.9477 213.725 20.9477C212.336 20.9477 211.122 21.0569 210.081 21.2753C209.071 21.4937 208.456 22.0552 208.235 22.9599C208.203 23.0535 208.188 23.1939 208.188 23.381C208.188 23.9738 208.582 24.4261 209.371 24.7381C210.159 25.05 211.469 25.4868 213.299 26.0483C216.043 26.8594 217.952 27.8577 219.025 29.0432C220.098 30.2286 220.634 31.6324 220.634 33.2546C220.634 33.6602 220.602 34.0813 220.539 34.5181C220.476 34.9548 220.397 35.4072 220.303 35.8751C219.924 37.6845 219.183 39.2755 218.078 40.6481C217.006 42.0208 215.444 43.097 213.393 43.877C211.343 44.6257 208.661 45 205.348 45Z" fill="#121212"/>
<path d="M96.5583 58.1167C95.387 58.1167 94.4992 57.7877 93.8951 57.1297C93.2984 56.4718 93 55.5831 93 54.4638C93 53.6621 93.1252 52.9739 93.3757 52.3991C93.6336 51.8167 94.024 51.3705 94.5471 51.0604C95.0702 50.7428 95.7369 50.5839 96.5473 50.5839C96.9599 50.5839 97.3356 50.618 97.6745 50.686C98.0207 50.7466 98.3412 50.8297 98.6359 50.9356V52.0134C98.3412 51.8923 98.0244 51.8016 97.6855 51.7411C97.354 51.673 97.0041 51.639 96.6357 51.639C95.7516 51.639 95.1254 51.881 94.7571 52.365C94.3961 52.8491 94.2156 53.5487 94.2156 54.4638C94.2156 55.3184 94.4145 55.9688 94.8123 56.415C95.2102 56.8537 95.8253 57.073 96.6578 57.073C96.9967 57.073 97.3356 57.0466 97.6745 56.9936C98.0207 56.9331 98.3449 56.8424 98.6469 56.7213V57.8104C98.3523 57.9087 98.0318 57.9844 97.6855 58.0373C97.3466 58.0902 96.9709 58.1167 96.5583 58.1167Z" fill="#F02801"/>
<path d="M101.45 58.1167C101.119 58.1167 100.809 58.0562 100.522 57.9352C100.242 57.8142 100.017 57.6327 99.8479 57.3907C99.6785 57.1411 99.5938 56.8348 99.5938 56.4718C99.5938 55.9575 99.7632 55.5453 100.102 55.2352C100.448 54.9176 100.979 54.7587 101.693 54.7587H103.373V54.5205C103.373 54.2634 103.333 54.0592 103.252 53.9079C103.178 53.7566 103.038 53.647 102.832 53.5789C102.633 53.5108 102.338 53.4768 101.948 53.4768C101.329 53.4768 100.75 53.5713 100.213 53.7604V52.8415C100.448 52.7432 100.736 52.6638 101.075 52.6033C101.413 52.5428 101.778 52.5125 102.169 52.5125C102.935 52.5125 103.517 52.6713 103.915 52.989C104.32 53.3066 104.522 53.8247 104.522 54.5432V58.0033H103.495L103.417 57.4587C103.204 57.6705 102.938 57.8331 102.622 57.9466C102.312 58.06 101.922 58.1167 101.45 58.1167ZM101.771 57.2318C102.132 57.2318 102.445 57.1713 102.71 57.0503C102.983 56.9218 103.204 56.7516 103.373 56.5398V55.5982H101.716C101.362 55.5982 101.104 55.6701 100.942 55.8138C100.787 55.9499 100.71 56.1617 100.71 56.4491C100.71 56.7289 100.802 56.9293 100.986 57.0503C101.17 57.1713 101.432 57.2318 101.771 57.2318Z" fill="#F02801"/>
<path d="M105.858 58.0033V52.626H106.963L107.03 53.2499C107.28 53.0835 107.578 52.9323 107.925 52.7961C108.271 52.66 108.614 52.5655 108.952 52.5125V53.4541C108.746 53.4919 108.521 53.5487 108.278 53.6243C108.043 53.6923 107.818 53.7718 107.604 53.8625C107.391 53.9457 107.21 54.0327 107.063 54.1234V58.0033H105.858Z" fill="#F02801"/>
<path d="M112.376 58.0033V50.6974H115.261C116.314 50.6974 117.095 50.9848 117.603 51.5596C118.112 52.1268 118.366 53.0722 118.366 54.3957C118.366 55.6436 118.115 56.5587 117.614 57.1411C117.114 57.7159 116.329 58.0033 115.261 58.0033H112.376ZM113.581 57.0503H115.073C115.537 57.0503 115.924 56.9823 116.233 56.8461C116.543 56.7024 116.775 56.4377 116.929 56.052C117.084 55.6663 117.161 55.1142 117.161 54.3957C117.161 53.6772 117.091 53.1213 116.951 52.7281C116.811 52.3348 116.587 52.0587 116.277 51.8999C115.975 51.7411 115.574 51.6617 115.073 51.6617H113.581V57.0503Z" fill="#F02801"/>
<path d="M122.205 58.1167C121.292 58.1167 120.584 57.886 120.083 57.4247C119.582 56.9634 119.332 56.2562 119.332 55.3033C119.332 54.4411 119.546 53.7604 119.973 53.2613C120.4 52.7621 121.048 52.5125 121.918 52.5125C122.713 52.5125 123.31 52.7281 123.708 53.1592C124.113 53.5827 124.316 54.131 124.316 54.8041V55.8024H120.481C120.54 56.3243 120.724 56.6835 121.034 56.8802C121.343 57.0768 121.815 57.1751 122.448 57.1751C122.713 57.1751 122.986 57.1487 123.266 57.0957C123.546 57.0428 123.789 56.9747 123.995 56.8915V57.7991C123.76 57.905 123.487 57.9844 123.178 58.0373C122.876 58.0902 122.551 58.1167 122.205 58.1167ZM120.481 54.997H123.255V54.6226C123.255 54.252 123.155 53.9646 122.957 53.7604C122.758 53.5487 122.422 53.4428 121.951 53.4428C121.391 53.4428 121.004 53.5676 120.791 53.8171C120.584 54.0667 120.481 54.46 120.481 54.997Z" fill="#F02801"/>
<path d="M127.124 58.1167C126.792 58.1167 126.483 58.0562 126.196 57.9352C125.916 57.8142 125.691 57.6327 125.522 57.3907C125.352 57.1411 125.267 56.8348 125.267 56.4718C125.267 55.9575 125.437 55.5453 125.776 55.2352C126.122 54.9176 126.652 54.7587 127.367 54.7587H129.047V54.5205C129.047 54.2634 129.006 54.0592 128.925 53.9079C128.852 53.7566 128.712 53.647 128.505 53.5789C128.306 53.5108 128.012 53.4768 127.621 53.4768C127.002 53.4768 126.424 53.5713 125.886 53.7604V52.8415C126.122 52.7432 126.409 52.6638 126.748 52.6033C127.087 52.5428 127.452 52.5125 127.842 52.5125C128.608 52.5125 129.19 52.6713 129.588 52.989C129.993 53.3066 130.196 53.8247 130.196 54.5432V58.0033H129.168L129.091 57.4587C128.877 57.6705 128.612 57.8331 128.295 57.9466C127.986 58.06 127.595 58.1167 127.124 58.1167ZM127.444 57.2318C127.805 57.2318 128.118 57.1713 128.384 57.0503C128.656 56.9218 128.877 56.7516 129.047 56.5398V55.5982H127.389C127.036 55.5982 126.778 55.6701 126.616 55.8138C126.461 55.9499 126.384 56.1617 126.384 56.4491C126.384 56.7289 126.476 56.9293 126.66 57.0503C126.844 57.1713 127.105 57.2318 127.444 57.2318Z" fill="#F02801"/>
<path d="M132.836 58.1167C132.408 58.1167 132.084 58.0108 131.863 57.7991C131.642 57.5797 131.532 57.2205 131.532 56.7213V50.3571H132.736V56.6079C132.736 56.8197 132.773 56.9634 132.847 57.039C132.921 57.1146 133.031 57.1524 133.178 57.1524C133.355 57.1524 133.525 57.1297 133.687 57.0844V57.9806C133.547 58.0335 133.41 58.0676 133.278 58.0827C133.153 58.1054 133.005 58.1167 132.836 58.1167Z" fill="#F02801"/>
<path d="M137.281 58.1167C136.368 58.1167 135.66 57.886 135.159 57.4247C134.659 56.9634 134.408 56.2562 134.408 55.3033C134.408 54.4411 134.622 53.7604 135.049 53.2613C135.476 52.7621 136.125 52.5125 136.994 52.5125C137.79 52.5125 138.386 52.7281 138.784 53.1592C139.189 53.5827 139.392 54.131 139.392 54.8041V55.8024H135.557C135.616 56.3243 135.8 56.6835 136.11 56.8802C136.419 57.0768 136.891 57.1751 137.524 57.1751C137.79 57.1751 138.062 57.1487 138.342 57.0957C138.622 57.0428 138.865 56.9747 139.071 56.8915V57.7991C138.836 57.905 138.563 57.9844 138.254 58.0373C137.952 58.0902 137.627 58.1167 137.281 58.1167ZM135.557 54.997H138.331V54.6226C138.331 54.252 138.232 53.9646 138.033 53.7604C137.834 53.5487 137.499 53.4428 137.027 53.4428C136.467 53.4428 136.08 53.5676 135.867 53.8171C135.66 54.0667 135.557 54.46 135.557 54.997Z" fill="#F02801"/>
<path d="M140.565 58.0033V52.626H141.67L141.736 53.2499C141.986 53.0835 142.285 52.9323 142.631 52.7961C142.977 52.66 143.32 52.5655 143.659 52.5125V53.4541C143.452 53.4919 143.228 53.5487 142.985 53.6243C142.749 53.6923 142.524 53.7718 142.311 53.8625C142.097 53.9457 141.916 54.0327 141.769 54.1234V58.0033H140.565Z" fill="#F02801"/>
<path d="M143.268 59.3646L143.6 57.2205H144.649L144.141 59.3646H143.268Z" fill="#F02801"/>
<path d="M148.367 58.0033V50.6974H151.638C152.434 50.6974 153.012 50.9092 153.373 51.3327C153.741 51.7487 153.925 52.3159 153.925 53.0344C153.925 53.5487 153.8 53.9873 153.55 54.3503C153.299 54.7134 152.938 54.9667 152.467 55.1104C152.599 55.2087 152.703 55.3146 152.776 55.4281C152.85 55.5415 152.924 55.6928 152.997 55.8818L153.892 58.0033H152.655L151.782 55.9613C151.701 55.7646 151.601 55.6247 151.483 55.5415C151.373 55.4583 151.181 55.4167 150.909 55.4167H149.571V58.0033H148.367ZM149.571 54.4184H151.318C151.752 54.4184 152.095 54.3087 152.345 54.0894C152.596 53.8701 152.721 53.5184 152.721 53.0344C152.721 52.1192 152.29 51.6617 151.428 51.6617H149.571V54.4184Z" fill="#F02801"/>
<path d="M157.602 58.1167C156.689 58.1167 155.981 57.886 155.48 57.4247C154.979 56.9634 154.729 56.2562 154.729 55.3033C154.729 54.4411 154.943 53.7604 155.37 53.2613C155.797 52.7621 156.445 52.5125 157.315 52.5125C158.11 52.5125 158.707 52.7281 159.105 53.1592C159.51 53.5827 159.713 54.131 159.713 54.8041V55.8024H155.878C155.937 56.3243 156.121 56.6835 156.431 56.8802C156.74 57.0768 157.212 57.1751 157.845 57.1751C158.11 57.1751 158.383 57.1487 158.663 57.0957C158.943 57.0428 159.186 56.9747 159.392 56.8915V57.7991C159.157 57.905 158.884 57.9844 158.575 58.0373C158.273 58.0902 157.948 58.1167 157.602 58.1167ZM155.878 54.997H158.652V54.6226C158.652 54.252 158.552 53.9646 158.354 53.7604C158.155 53.5487 157.819 53.4428 157.348 53.4428C156.788 53.4428 156.401 53.5676 156.188 53.8171C155.981 54.0667 155.878 54.46 155.878 54.997Z" fill="#F02801"/>
<path d="M160.885 58.0033V52.626H161.99L162.046 53.1932C162.281 53.0041 162.561 52.8453 162.886 52.7167C163.217 52.5806 163.582 52.5125 163.98 52.5125C164.657 52.5125 165.151 52.6751 165.46 53.0003C165.77 53.3255 165.925 53.8323 165.925 54.5205V58.0033H164.731V54.5772C164.731 54.1613 164.646 53.8701 164.477 53.7037C164.315 53.5373 164.005 53.4541 163.549 53.4541C163.276 53.4541 163.007 53.5108 162.742 53.6243C162.484 53.7377 162.267 53.8852 162.09 54.0667V58.0033H160.885Z" fill="#F02801"/>
<path d="M169.274 58.1167C168.714 58.1167 168.294 57.9655 168.015 57.6629C167.742 57.3529 167.606 56.9331 167.606 56.4037V53.5902H166.832V52.626H167.606V51.3894L168.799 51.015V52.626H170.192L170.114 53.5902H168.799V56.3356C168.799 56.6457 168.869 56.865 169.009 56.9936C169.149 57.1146 169.377 57.1751 169.694 57.1751C169.893 57.1751 170.103 57.1373 170.324 57.0617V57.9352C170.037 58.0562 169.687 58.1167 169.274 58.1167Z" fill="#F02801"/>
<path d="M172.881 58.1167C172.549 58.1167 172.24 58.0562 171.953 57.9352C171.673 57.8142 171.448 57.6327 171.279 57.3907C171.109 57.1411 171.024 56.8348 171.024 56.4718C171.024 55.9575 171.194 55.5453 171.533 55.2352C171.879 54.9176 172.41 54.7587 173.124 54.7587H174.804V54.5205C174.804 54.2634 174.763 54.0592 174.682 53.9079C174.609 53.7566 174.469 53.647 174.262 53.5789C174.063 53.5108 173.769 53.4768 173.378 53.4768C172.759 53.4768 172.181 53.5713 171.643 53.7604V52.8415C171.879 52.7432 172.166 52.6638 172.505 52.6033C172.844 52.5428 173.209 52.5125 173.599 52.5125C174.366 52.5125 174.948 52.6713 175.345 52.989C175.751 53.3066 175.953 53.8247 175.953 54.5432V58.0033H174.925L174.848 57.4587C174.634 57.6705 174.369 57.8331 174.052 57.9466C173.743 58.06 173.353 58.1167 172.881 58.1167ZM173.201 57.2318C173.562 57.2318 173.876 57.1713 174.141 57.0503C174.413 56.9218 174.634 56.7516 174.804 56.5398V55.5982H173.146C172.793 55.5982 172.535 55.6701 172.373 55.8138C172.218 55.9499 172.141 56.1617 172.141 56.4491C172.141 56.7289 172.233 56.9293 172.417 57.0503C172.601 57.1713 172.863 57.2318 173.201 57.2318Z" fill="#F02801"/>
<path d="M178.593 58.1167C178.166 58.1167 177.841 58.0108 177.62 57.7991C177.399 57.5797 177.289 57.2205 177.289 56.7213V50.3571H178.493V56.6079C178.493 56.8197 178.53 56.9634 178.604 57.039C178.678 57.1146 178.788 57.1524 178.935 57.1524C179.112 57.1524 179.282 57.1297 179.444 57.0844V57.9806C179.304 58.0335 179.168 58.0676 179.035 58.0827C178.91 58.1054 178.762 58.1167 178.593 58.1167Z" fill="#F02801"/>
<path d="M185.254 58.1167C184.487 58.1167 183.872 57.9466 183.408 57.6062C182.944 57.2583 182.712 56.797 182.712 56.2222C182.712 55.7079 182.859 55.273 183.154 54.9176C183.456 54.5621 183.865 54.2407 184.381 53.9533C184.093 53.6886 183.861 53.4276 183.684 53.1705C183.515 52.9134 183.43 52.6108 183.43 52.2629C183.43 51.7865 183.596 51.3894 183.928 51.0718C184.259 50.7466 184.716 50.5839 185.298 50.5839C185.872 50.5839 186.322 50.739 186.646 51.0491C186.978 51.3516 187.143 51.7562 187.143 52.2629C187.143 52.6562 187.051 52.9928 186.867 53.2726C186.683 53.5524 186.388 53.8285 185.983 54.1008L187.619 55.8138C187.736 55.5566 187.795 55.2541 187.795 54.9062V54.7134H188.713V54.9289C188.713 55.2163 188.676 55.4999 188.602 55.7797C188.528 56.052 188.429 56.2902 188.304 56.4945L189.199 57.4247L188.469 58.1054L187.674 57.2886C187.401 57.576 187.059 57.7877 186.646 57.9239C186.233 58.0524 185.769 58.1167 185.254 58.1167ZM185.232 53.5676C185.548 53.3558 185.784 53.1667 185.939 53.0003C186.094 52.8339 186.171 52.6071 186.171 52.3197C186.171 52.055 186.101 51.847 185.961 51.6957C185.828 51.5369 185.607 51.4575 185.298 51.4575C184.981 51.4575 184.753 51.5407 184.613 51.7071C184.473 51.8734 184.403 52.0776 184.403 52.3197C184.403 52.5541 184.469 52.7659 184.602 52.955C184.742 53.1365 184.952 53.3407 185.232 53.5676ZM185.254 57.2545C185.99 57.2545 186.554 57.039 186.944 56.6079L185.099 54.6907C184.686 54.8646 184.377 55.0726 184.171 55.3146C183.972 55.5491 183.872 55.844 183.872 56.1995C183.872 56.5474 184.001 56.8121 184.259 56.9936C184.517 57.1676 184.848 57.2545 185.254 57.2545Z" fill="#F02801"/>
<path d="M192.861 58.0033V50.6974H194.066V57.0503H197.713V58.0033H192.861Z" fill="#F02801"/>
<path d="M198.721 51.5029V50.4818H200.036V51.5029H198.721ZM198.82 58.0033V53.5676H198.025L198.135 52.626H200.025V58.0033H198.82Z" fill="#F02801"/>
<path d="M203.176 58.1167C202.815 58.1167 202.469 58.0902 202.137 58.0373C201.813 57.9844 201.544 57.9201 201.331 57.8445V56.8008C201.581 56.8991 201.857 56.9747 202.159 57.0276C202.461 57.0806 202.749 57.1071 203.021 57.1071C203.434 57.1071 203.729 57.0692 203.905 56.9936C204.082 56.918 204.171 56.7705 204.171 56.5512C204.171 56.3923 204.115 56.2676 204.005 56.1768C203.902 56.086 203.743 56.0029 203.53 55.9272C203.323 55.8516 203.058 55.7608 202.734 55.655C202.425 55.5491 202.156 55.4356 201.927 55.3146C201.699 55.186 201.522 55.0234 201.397 54.8268C201.272 54.6302 201.209 54.373 201.209 54.0554C201.209 53.5638 201.382 53.1856 201.728 52.9209C202.075 52.6487 202.631 52.5125 203.397 52.5125C203.699 52.5125 203.986 52.5352 204.259 52.5806C204.532 52.626 204.764 52.6827 204.955 52.7508V53.7831C204.749 53.6999 204.521 53.6356 204.27 53.5902C204.027 53.5449 203.799 53.5222 203.585 53.5222C203.202 53.5222 202.911 53.5562 202.712 53.6243C202.52 53.6923 202.425 53.8285 202.425 54.0327C202.425 54.2445 202.524 54.3957 202.723 54.4865C202.929 54.5697 203.257 54.6869 203.707 54.8381C204.119 54.9667 204.447 55.1029 204.69 55.2466C204.933 55.3902 205.106 55.5642 205.209 55.7684C205.32 55.965 205.375 56.2222 205.375 56.5398C205.375 57.0692 205.187 57.4663 204.812 57.731C204.436 57.9881 203.891 58.1167 203.176 58.1167Z" fill="#F02801"/>
<path d="M208.394 58.1167C207.835 58.1167 207.415 57.9655 207.135 57.6629C206.862 57.3529 206.726 56.9331 206.726 56.4037V53.5902H205.952V52.626H206.726V51.3894L207.919 51.015V52.626H209.312L209.234 53.5902H207.919V56.3356C207.919 56.6457 207.989 56.865 208.129 56.9936C208.269 57.1146 208.498 57.1751 208.814 57.1751C209.013 57.1751 209.223 57.1373 209.444 57.0617V57.9352C209.157 58.0562 208.807 58.1167 208.394 58.1167Z" fill="#F02801"/>
<path d="M210.808 51.5029V50.4818H212.123V51.5029H210.808ZM210.907 58.0033V53.5676H210.112L210.222 52.626H212.112V58.0033H210.907Z" fill="#F02801"/>
<path d="M213.517 58.0033V52.626H214.622L214.677 53.1932C214.913 53.0041 215.193 52.8453 215.517 52.7167C215.849 52.5806 216.213 52.5125 216.611 52.5125C217.289 52.5125 217.782 52.6751 218.092 53.0003C218.401 53.3255 218.556 53.8323 218.556 54.5205V58.0033H217.363V54.5772C217.363 54.1613 217.278 53.8701 217.108 53.7037C216.946 53.5373 216.637 53.4541 216.18 53.4541C215.908 53.4541 215.639 53.5108 215.373 53.6243C215.116 53.7377 214.898 53.8852 214.721 54.0667V58.0033H213.517Z" fill="#F02801"/>
<path d="M222.027 59.9999C221.637 59.9999 221.246 59.9734 220.856 59.9205C220.465 59.8751 220.134 59.8033 219.861 59.705V58.752C220.156 58.8503 220.495 58.926 220.878 58.9789C221.261 59.0318 221.626 59.0583 221.972 59.0583C222.503 59.0583 222.889 59.0281 223.132 58.9676C223.376 58.9071 223.497 58.7709 223.497 58.5592C223.497 58.4003 223.438 58.2869 223.32 58.2188C223.202 58.1583 222.978 58.1281 222.646 58.1281H221.232C220.281 58.1281 219.806 57.7839 219.806 57.0957C219.806 56.8764 219.869 56.6722 219.994 56.4831C220.119 56.294 220.318 56.1503 220.591 56.052C220.289 55.9008 220.064 55.6928 219.917 55.4281C219.777 55.1634 219.707 54.8457 219.707 54.4751C219.707 53.7869 219.906 53.2877 220.303 52.9776C220.709 52.6676 221.313 52.5125 222.116 52.5125C222.285 52.5125 222.462 52.5276 222.646 52.5579C222.83 52.5806 222.974 52.6033 223.077 52.626H225L224.967 53.4314H224.083C224.223 53.5524 224.326 53.7037 224.392 53.8852C224.459 54.0667 224.492 54.2634 224.492 54.4751C224.492 55.0499 224.322 55.5037 223.983 55.8365C223.644 56.1617 223.132 56.3243 222.447 56.3243C222.329 56.3243 222.219 56.3205 222.116 56.3129C222.02 56.2978 221.913 56.2827 221.795 56.2676C221.574 56.2902 221.375 56.3508 221.199 56.4491C221.022 56.5474 220.933 56.6797 220.933 56.8461C220.933 56.9596 220.978 57.0428 221.066 57.0957C221.154 57.1411 221.302 57.1638 221.508 57.1638H222.978C223.501 57.1638 223.902 57.281 224.182 57.5155C224.47 57.7424 224.613 58.0751 224.613 58.5138C224.613 59.0432 224.389 59.4213 223.939 59.6482C223.497 59.8827 222.86 59.9999 222.027 59.9999ZM222.116 55.5415C222.595 55.5415 222.926 55.4583 223.11 55.2919C223.302 55.1255 223.398 54.8419 223.398 54.4411C223.398 54.0402 223.302 53.7491 223.11 53.5676C222.926 53.386 222.595 53.2953 222.116 53.2953C221.666 53.2953 221.339 53.3823 221.132 53.5562C220.926 53.7302 220.823 54.0251 220.823 54.4411C220.823 54.8268 220.919 55.1066 221.11 55.2806C221.309 55.4545 221.644 55.5415 222.116 55.5415Z" fill="#F02801"/>
</svg>
