<svg width="187" height="51" viewBox="0 0 187 51" fill="none" xmlns="http://www.w3.org/2000/svg">
<path fill-rule="evenodd" clip-rule="evenodd" d="M64.6499 42.996H67.7944L65.8611 48.2143H62.9209L64.6499 42.996ZM57.8144 42.996H62.5239L60.792 48.2143H56.0825L57.8144 42.996ZM48.3522 42.996H54.854L53.1222 48.2143H46.6203L48.3522 42.996ZM1.93616 42.996H44.851L43.1191 48.2143H0L1.93616 42.996Z" fill="#F02801"/>
<path fill-rule="evenodd" clip-rule="evenodd" d="M66.092 1.23108C64.6478 2.07387 62.3019 4.74185 60.3099 7.65026C59.5039 8.82655 58.9019 9.38238 57.7703 9.60472C55.1944 10.1114 50.5104 10.0882 47.0329 10.4734C42.044 11.0292 26.0051 14.4702 22.8634 12.7639C23.9305 12.6114 24.5919 12.4847 24.8528 12.3787C29.002 9.18849 32.4795 6.8902 35.2827 5.48382C42.2481 1.98597 58.4007 1.34741 66.092 1.23108ZM37.0913 28.2987C35.2388 27.0578 34.9546 26.8639 34.9546 26.8639C38.4244 26.396 40.5248 26.2046 41.256 26.29C43.3487 26.29 43.7259 30.8969 42.2584 30.99C40.7083 31.0546 39.6929 31.0985 39.2098 31.1192C38.0265 31.1709 37.2489 29.2165 37.0913 28.2987ZM93.0001 8.60939C86.0786 2.93475 77.0567 0.0987277 68.2571 0.00565846C59.1912 -0.089996 44.6069 1.02942 37.9258 3.18811C34.0245 4.44713 30.6271 6.58772 26.7517 9.50906C24.7443 11.0214 24.0958 11.6962 21.4373 12.2908C17.6368 12.919 13.932 13.7308 10.3253 14.7261C9.53989 14.9536 8.7674 15.375 8.00524 15.9877C10.997 17.1718 16.823 17.1382 25.4858 15.8869C37.409 13.8161 44.6457 12.9371 47.1931 13.2499C47.7589 13.5188 47.9785 13.8445 47.8519 14.2246C45.6688 16.1842 42.8733 17.7043 39.4604 18.7824C38.8817 18.9065 38.1867 18.8496 37.3703 18.6092C30.1543 18.3325 22.5508 22.4715 14.9732 22.0993C10.7903 21.8924 8.4677 20.7368 5.3519 20.817C5.04703 20.3775 4.8946 20.1577 4.8946 20.1577C2.8794 21.8201 2.23092 25.2016 2.94658 30.3023C3.23077 27.7946 3.68807 26.0314 4.31846 25.0154C4.96694 23.9684 5.63351 23.9167 6.81421 24.1106C12.5627 24.8345 19.8768 24.4131 28.7514 22.849C29.6789 22.6939 30.3843 22.8567 30.87 23.3376C33.6448 28.1332 35.8227 31.1037 37.3961 32.2542C38.0575 32.735 38.8894 32.9082 39.7033 32.8591C44.085 32.598 46.1028 32.3084 46.1028 32.3084C46.7461 32.2438 47.1078 31.9775 47.1905 31.507C49.1023 22.4483 52.3292 18.1257 56.8712 18.5394C61.5914 19.6458 63.9011 24.3846 63.8004 32.7531C64.4282 23.4746 61.1057 16.4324 56.1245 16.5151C54.2824 16.5461 51.9055 17.2959 49.9963 20.4886C52.027 16.6909 55.1686 14.9795 59.3902 16.3341C60.2376 15.5482 61.811 15.0182 62.9245 14.9795C62.8212 14.465 62.6197 14.0384 62.3148 13.6998C62.8264 13.86 63.2191 14.1651 63.4903 14.6098C63.5549 14.7158 63.9011 16.0627 64.5806 23.3221L64.5186 14.9252L77.6045 14.4728C79.1701 13.0198 79.9529 12.296 79.9529 12.296C67.9238 12.6398 61.9118 12.8104 61.9118 12.8104C61.2581 12.6243 61.0463 12.146 61.2814 11.3782C64.0148 5.24339 66.7069 1.99631 69.3577 1.63437C77.5528 0.545982 87.1405 5.26148 93.0001 8.60939Z" fill="white"/>
<path fill-rule="evenodd" clip-rule="evenodd" d="M9.79021 17.3917C9.61194 18.2267 9.5241 19.2531 9.53185 20.4733C8.41316 20.1812 7.39523 19.9795 6.48064 19.8709C6.48064 19.8709 6.49872 19.6124 6.53748 19.0979C6.53748 19.0979 6.10344 19.2375 5.23535 19.5142C6.02851 18.0354 6.77258 17.0504 7.47015 16.5618C8.1083 16.8617 8.88079 17.1383 9.79021 17.3917Z" fill="white"/>
<path fill-rule="evenodd" clip-rule="evenodd" d="M37.6103 17.5725C38.0521 17.8259 38.5534 17.8957 38.9357 17.7587C39.5842 16.479 40.5298 15.5147 41.7699 14.8658C41.7699 14.8658 41.1731 15.7913 39.9795 17.6449C42.7336 16.5902 44.9012 15.4604 46.4875 14.2557C46.4152 14.0644 46.3248 13.9971 45.8287 14.0049C41.0284 14.31 35.6055 15.0183 31.6242 15.9464C30.6967 16.2308 29.4746 17.4872 28.7977 18.7566C33.0942 17.738 36.3186 17.5881 37.6103 17.5725Z" fill="white"/>
<path fill-rule="evenodd" clip-rule="evenodd" d="M28.1959 17.5234C27.7748 18.0198 27.5655 18.268 27.5655 18.268C21.0627 19.7183 15.4227 20.119 10.6405 19.4727C10.6405 19.4727 10.5165 19.271 10.2684 18.8703C14.9551 19.5735 20.9309 19.1263 28.1959 17.5234Z" fill="white"/>
<path fill-rule="evenodd" clip-rule="evenodd" d="M88.4037 7.9813C89.7395 8.05628 90.4086 8.09506 90.4086 8.09506C80.2603 3.16497 75.0104 2.14897 70.9929 2.1955C67.394 2.23686 65.7948 5.01602 63.932 7.93736C66.774 4.00519 68.8977 2.67119 73.6334 3.26321C74.504 4.64115 75.2068 7.08422 76.0904 11.1896C75.7958 8.30963 75.478 5.72179 74.9562 3.53208C79.4413 4.29732 83.7068 5.72696 88.4037 7.9813Z" fill="#F02801"/>
<path fill-rule="evenodd" clip-rule="evenodd" d="M66.9548 9.41338C64.751 10.5354 63.8235 10.7758 64.1775 10.1295C64.4617 8.36893 65.0068 7.46151 65.8103 7.40722C69.9957 7.29347 72.277 7.74071 72.6542 8.75413C72.8454 9.48576 72.8092 10.1838 72.5405 10.8456C72.5044 9.91492 72.3313 9.35133 72.0264 9.15485C68.6445 9.32806 66.9548 9.41338 66.9548 9.41338Z" fill="white"/>
<path fill-rule="evenodd" clip-rule="evenodd" d="M34.8796 33.3996C35.9647 33.9968 36.1946 34.3303 35.5668 34.4026C24.3075 35.2248 13.9215 35.4548 4.40875 35.0903C3.6311 34.9585 3.84037 34.4828 5.03915 33.6581C5.0779 33.9632 5.09599 34.1157 5.09599 34.1157C12.9837 34.3096 22.9124 34.0691 34.8796 33.3996Z" fill="white"/>
<path fill-rule="evenodd" clip-rule="evenodd" d="M55.4707 22.5673C57.9535 22.5673 59.9661 26.2409 59.9661 30.7755C59.9661 35.3074 57.9535 38.9837 55.4707 38.9837C52.9878 38.9837 50.9752 35.3074 50.9752 30.7755C50.9752 26.2435 52.9878 22.5673 55.4707 22.5673ZM55.7574 21.104C58.6846 21.104 61.0564 25.4343 61.0564 30.7755C61.0564 36.1166 58.6846 40.4469 55.7574 40.4469C52.8328 40.4469 50.4585 36.1166 50.4585 30.7755C50.4585 25.4343 52.8302 21.104 55.7574 21.104Z" fill="#F02801"/>
<path fill-rule="evenodd" clip-rule="evenodd" d="M28.6298 27.3318C29.3041 27.7894 30.4435 28.5546 31.6087 30.1109C30.5442 28.022 29.4566 26.4683 28.3482 25.4006C28.1157 26.1219 27.8935 26.5717 27.5137 27.2439C21.9409 27.58 15.097 27.7325 6.97935 27.7015C6.87084 27.6756 6.48847 27.1974 5.83482 26.2692C5.29744 27.7351 5.02099 29.3199 5.00549 31.0261C5.65397 29.0768 5.9795 28.1022 5.9795 28.1022C6.49622 28.5598 6.752 28.7899 6.752 28.7899C16.89 28.6477 24.4496 28.4977 28.2629 28.2237C28.3869 27.9031 28.4929 27.6162 28.6298 27.3318Z" fill="#F02801"/>
<path d="M78.6924 37.1101L84.0606 11.9971H91.4813L89.5867 20.849L99.1783 11.9971H107.625L96.4548 22.2919L102.889 37.1101H94.9943L90.8892 26.9713L87.6525 29.8569L86.1131 37.1101H78.6924Z" fill="white"/>
<path d="M104.652 37.1101L119.77 11.9971H127.625L132.006 37.1101H124.27L123.362 31.7677H115.625L112.389 37.1101H104.652ZM117.717 26.5033H123.401L122.138 19.1332L117.717 26.5033Z" fill="white"/>
<path d="M136.394 37.1101L141.762 11.9971H154.985C157.406 11.9971 159.248 12.608 160.511 13.8299C161.774 15.0257 162.406 16.6245 162.406 18.6263C162.406 19.3282 162.327 20.0951 162.169 20.927C161.801 22.6168 161.051 24.1116 159.919 25.4115C158.788 26.6853 157.433 27.6602 155.854 28.3361C156.117 28.5701 156.314 28.8561 156.446 29.194C156.577 29.506 156.709 29.9479 156.84 30.5199L158.38 37.1101H150.643L149.222 31.0658C149.117 30.5978 148.933 30.2729 148.67 30.0909C148.407 29.8829 147.999 29.7789 147.446 29.7789H145.354L143.815 37.1101H136.394ZM146.578 24.1636H150.485C152.749 24.1636 154.117 23.0848 154.591 20.927C154.643 20.693 154.683 20.4721 154.709 20.2641C154.735 20.0561 154.748 19.8611 154.748 19.6792C154.748 19.0032 154.551 18.4963 154.156 18.1584C153.762 17.7944 153.091 17.6124 152.143 17.6124H147.999L146.578 24.1636Z" fill="white"/>
<path d="M171.277 37.5C169.567 37.5 167.975 37.37 166.501 37.1101C165.027 36.8241 163.817 36.4341 162.869 35.9402L164.172 29.8959C165.251 30.4419 166.475 30.8838 167.843 31.2218C169.211 31.5597 170.527 31.7287 171.79 31.7287C173.106 31.7287 174.119 31.6247 174.829 31.4167C175.54 31.1828 175.987 30.6758 176.172 29.8959C176.198 29.7919 176.211 29.662 176.211 29.506C176.211 28.8561 175.803 28.3751 174.987 28.0632C174.172 27.7512 172.961 27.3222 171.356 26.7763C169.567 26.1524 168.211 25.3985 167.29 24.5146C166.369 23.6047 165.909 22.4348 165.909 21.005C165.909 20.719 165.922 20.4331 165.948 20.1471C165.975 19.8351 166.027 19.5102 166.106 19.1722C166.632 16.7025 167.869 14.8308 169.817 13.5569C171.79 12.2571 174.632 11.6071 178.342 11.6071C179.737 11.6071 181.145 11.7241 182.566 11.9581C184.013 12.1921 185.158 12.452 186 12.738L184.697 18.8213C183.566 18.3273 182.461 17.9764 181.382 17.7684C180.303 17.5604 179.264 17.4564 178.264 17.4564C177.106 17.4564 176.093 17.5474 175.224 17.7294C174.382 17.9114 173.869 18.3793 173.685 19.1332C173.658 19.2112 173.645 19.3282 173.645 19.4842C173.645 19.9781 173.974 20.3551 174.632 20.6151C175.29 20.875 176.382 21.239 177.908 21.7069C180.198 22.3828 181.79 23.2147 182.684 24.2026C183.579 25.1905 184.026 26.3604 184.026 27.7122C184.026 28.0501 184 28.4011 183.948 28.7651C183.895 29.129 183.829 29.506 183.75 29.8959C183.434 31.4037 182.816 32.7296 181.895 33.8734C181 35.0173 179.698 35.9142 177.987 36.5641C176.277 37.188 174.04 37.5 171.277 37.5Z" fill="white"/>
<mask id="path-12-outside-1_367_2133" maskUnits="userSpaceOnUse" x="71" y="41" width="116" height="10" fill="black">
<rect fill="white" x="71" y="41" width="116" height="10"/>
<path d="M74.6654 42.1H75.8225L78.426 48H77.3825L76.618 46.2091H73.746L72.9918 48H72L74.6654 42.1ZM76.3701 45.6L75.2336 42.9364H75.1407L74.0042 45.6H76.3701Z"/>
<path d="M81.126 48.0909C80.4854 48.0909 80.0343 47.9909 79.7726 47.7909C79.5177 47.5848 79.3903 47.2636 79.3903 46.8273V43.6H80.3201V46.7818C80.3201 46.897 80.3305 46.9909 80.3511 47.0636C80.3787 47.1303 80.4234 47.2 80.4854 47.2727C80.6094 47.4303 80.9124 47.5091 81.3946 47.5091C81.9042 47.5091 82.2624 47.4667 82.469 47.3818C82.6687 47.297 82.7686 47.1424 82.7686 46.9182V43.6H83.6984V48H82.7686V47.4636C82.6791 47.8818 82.1315 48.0909 81.126 48.0909Z"/>
<path d="M87.4098 48.0909C86.9828 48.0909 86.6487 48.0515 86.4077 47.9727C86.1666 47.8879 85.991 47.7485 85.8808 47.5545C85.7775 47.3545 85.7258 47.0758 85.7258 46.7182V44.1364H84.6101V43.6H85.7258V42.2364H86.6659V43.6H88.4532V44.1364H86.6659V46.7636C86.6659 46.9818 86.6935 47.1455 86.7486 47.2545C86.8106 47.3636 86.9139 47.4424 87.0585 47.4909C87.2101 47.5333 87.427 47.5545 87.7094 47.5545C87.7989 47.5545 88.0469 47.5303 88.4532 47.4818V48.0182C88.102 48.0667 87.7542 48.0909 87.4098 48.0909Z"/>
<path d="M91.5871 48.0909C91.1463 48.0909 90.8157 48.0758 90.5953 48.0455C90.3749 48.0212 90.1545 47.9636 89.9341 47.8727C89.7069 47.7818 89.5416 47.6364 89.4382 47.4364C89.3349 47.2303 89.2833 46.9545 89.2833 46.6091V45.0818C89.2833 44.8091 89.3212 44.5697 89.3969 44.3636C89.4727 44.1576 89.5726 43.997 89.6965 43.8818C89.7998 43.7788 89.9548 43.7 90.1614 43.6455C90.3749 43.5848 90.5919 43.5455 90.8123 43.5273C91.0602 43.5152 91.3185 43.5091 91.5871 43.5091C91.9453 43.5091 92.2139 43.5182 92.393 43.5364C92.5789 43.5485 92.7752 43.5788 92.9818 43.6273C93.1953 43.6818 93.3606 43.7636 93.4777 43.8727C93.5948 43.9818 93.6947 44.1394 93.7773 44.3455C93.8531 44.5576 93.891 44.803 93.891 45.0818V46.6091C93.891 47.1242 93.7567 47.5 93.4881 47.7364C93.3779 47.8333 93.2194 47.9091 93.0128 47.9636C92.8062 48.0182 92.5927 48.0545 92.3723 48.0727C92.1106 48.0848 91.8488 48.0909 91.5871 48.0909ZM91.5871 47.5545C91.8764 47.5545 92.0865 47.5485 92.2173 47.5364C92.3482 47.5242 92.4756 47.4909 92.5996 47.4364C92.7236 47.3879 92.8096 47.3091 92.8579 47.2C92.913 47.0848 92.9405 46.9273 92.9405 46.7273V44.9455C92.9405 44.6727 92.9026 44.4758 92.8269 44.3545C92.7511 44.2273 92.6202 44.1455 92.4343 44.1091C92.2552 44.0667 91.9728 44.0455 91.5871 44.0455C91.2014 44.0455 90.9156 44.0667 90.7296 44.1091C90.5506 44.1455 90.4232 44.2273 90.3474 44.3545C90.2716 44.4758 90.2337 44.6727 90.2337 44.9455V46.7273C90.2337 46.9273 90.2579 47.0848 90.3061 47.2C90.3612 47.3091 90.4507 47.3879 90.5747 47.4364C90.6986 47.4909 90.8261 47.5242 90.9569 47.5364C91.0878 47.5485 91.2979 47.5545 91.5871 47.5545Z"/>
<path d="M97.784 42.1H100.14C100.732 42.1 101.193 42.1333 101.524 42.2C101.861 42.2606 102.106 42.3727 102.257 42.5364C102.416 42.7 102.495 42.9394 102.495 43.2545V44.2727C102.495 44.6242 102.33 44.897 101.999 45.0909C101.675 45.2788 101.262 45.3727 100.759 45.3727L102.908 48H101.679L99.7573 45.4818H98.7862V48H97.784V42.1ZM100.098 44.9C100.594 44.9 100.949 44.8485 101.162 44.7455C101.383 44.6364 101.493 44.4424 101.493 44.1636V43.3455C101.493 42.903 101.059 42.6818 100.191 42.6818H98.7862V44.9H100.098Z"/>
<path d="M106.357 48.0909C104.828 48.0909 104.064 47.6424 104.064 46.7455V45.0091C104.064 44.4758 104.236 44.0939 104.58 43.8636C104.931 43.6273 105.496 43.5091 106.275 43.5091C107.012 43.5091 107.542 43.6212 107.866 43.8455C108.196 44.0697 108.361 44.4576 108.361 45.0091V45.9818H105.004V46.6455C105.004 46.9485 105.124 47.1667 105.365 47.3C105.606 47.4333 105.978 47.5 106.481 47.5C106.956 47.5 107.518 47.4273 108.165 47.2818V47.9091C107.532 48.0303 106.929 48.0909 106.357 48.0909ZM107.432 45.4455V44.7545C107.432 44.4879 107.339 44.3061 107.153 44.2091C106.974 44.1061 106.664 44.0545 106.223 44.0545C105.796 44.0545 105.486 44.1061 105.293 44.2091C105.1 44.3061 105.004 44.4879 105.004 44.7545V45.4455H107.432Z"/>
<path d="M109.778 43.6H110.698V44.0727H110.708C110.784 43.697 111.352 43.5091 112.413 43.5091C113.047 43.5091 113.525 43.6273 113.849 43.8636C114.173 44.0939 114.334 44.3909 114.334 44.7545V46.5636C114.334 46.8242 114.29 47.0515 114.2 47.2455C114.118 47.4394 114.007 47.5909 113.87 47.7C113.746 47.803 113.573 47.8848 113.353 47.9455C113.139 48.0061 112.926 48.0455 112.712 48.0636C112.52 48.0818 112.285 48.0909 112.01 48.0909C111.707 48.0909 111.428 48.0606 111.173 48C110.925 47.9333 110.77 47.8394 110.708 47.7182V49.8909H109.778V43.6ZM112.031 47.5364C112.389 47.5364 112.661 47.5152 112.847 47.4727C113.04 47.4242 113.177 47.3394 113.26 47.2182C113.343 47.097 113.384 46.9121 113.384 46.6636V45.0455C113.384 44.7727 113.343 44.5697 113.26 44.4364C113.177 44.303 113.04 44.2152 112.847 44.1727C112.661 44.1242 112.385 44.1 112.02 44.1C111.655 44.1 111.383 44.1242 111.204 44.1727C111.025 44.2152 110.898 44.303 110.822 44.4364C110.746 44.5636 110.708 44.7667 110.708 45.0455V46.6636C110.708 46.9121 110.746 47.097 110.822 47.2182C110.905 47.3394 111.039 47.4242 111.225 47.4727C111.411 47.5152 111.679 47.5364 112.031 47.5364Z"/>
<path d="M117.301 48.0909C116.825 48.0909 116.457 48.0515 116.195 47.9727C115.94 47.8939 115.754 47.7545 115.637 47.5545C115.527 47.3545 115.472 47.0667 115.472 46.6909C115.472 46.3576 115.524 46.1 115.627 45.9182C115.737 45.7303 115.92 45.597 116.174 45.5182C116.436 45.4394 116.805 45.4 117.28 45.4H118.778V44.7C118.778 44.5364 118.74 44.4121 118.664 44.3273C118.595 44.2364 118.475 44.1727 118.303 44.1364C118.137 44.1 117.893 44.0818 117.569 44.0818C117.053 44.0818 116.481 44.1182 115.854 44.1909V43.5909C116.536 43.5364 117.152 43.5091 117.703 43.5091C118.282 43.5091 118.709 43.5485 118.985 43.6273C119.26 43.7 119.449 43.8303 119.553 44.0182C119.656 44.2061 119.708 44.497 119.708 44.8909V48H118.809V47.5818C118.733 47.9212 118.23 48.0909 117.301 48.0909ZM117.456 47.5545C117.793 47.5545 118.079 47.5333 118.313 47.4909C118.623 47.4364 118.778 47.3091 118.778 47.1091V45.9091H117.342C117.046 45.9091 116.832 45.9303 116.701 45.9727C116.57 46.0091 116.484 46.0818 116.443 46.1909C116.402 46.3 116.381 46.4758 116.381 46.7182C116.381 46.9364 116.405 47.1061 116.453 47.2273C116.502 47.3424 116.588 47.4273 116.712 47.4818C116.836 47.5303 117.022 47.5545 117.27 47.5545H117.456Z"/>
<path d="M121.32 42.0091H122.25V42.8636H121.32V42.0091ZM121.32 43.6H122.25V48H121.32V43.6Z"/>
<path d="M123.863 43.6H124.741V44.3182C124.741 44.1788 124.81 44.0485 124.947 43.9273C125.085 43.8 125.261 43.7 125.474 43.6273C125.688 43.5485 125.898 43.5091 126.105 43.5091H126.559V44.2091H126.043C125.602 44.2091 125.281 44.2606 125.082 44.3636C124.889 44.4606 124.792 44.6394 124.792 44.9V48H123.863V43.6Z"/>
<path d="M131.932 48.0909C130.43 48.0909 129.68 47.7424 129.68 47.0455V46.0545C129.68 45.5939 129.996 45.2394 130.63 44.9909L131.116 44.7909L130.713 44.3727C130.499 44.1606 130.393 43.9515 130.393 43.7455V42.8636C130.393 42.2879 130.964 42 132.107 42C132.569 42 133.037 42.0455 133.513 42.1364V42.8C133.003 42.6485 132.528 42.5727 132.087 42.5727C131.791 42.5727 131.581 42.6 131.457 42.6545C131.333 42.7091 131.271 42.803 131.271 42.9364V43.6091C131.271 43.7061 131.305 43.7879 131.374 43.8545L133.874 46.5182C133.895 46.4091 133.905 46.2818 133.905 46.1364V45.2636H134.69V46.1C134.69 46.5121 134.618 46.8515 134.473 47.1182C134.756 47.3485 134.962 47.4636 135.093 47.4636H135.362V48H134.701C134.46 48 134.208 47.897 133.946 47.6909C133.506 47.9576 132.834 48.0909 131.932 48.0909ZM132.118 47.5273C132.793 47.5273 133.247 47.4424 133.482 47.2727L131.488 45.1818L131.126 45.3182C130.981 45.3788 130.864 45.4697 130.775 45.5909C130.692 45.7121 130.651 45.8394 130.651 45.9727V47.0818C130.651 47.3788 131.102 47.5273 132.004 47.5273H132.118Z"/>
<path d="M141.49 48.0909C139.61 48.0909 138.67 47.5576 138.67 46.4909V43.6909C138.67 42.5636 139.61 42 141.49 42C142.131 42 142.744 42.0576 143.329 42.1727V42.8273C142.668 42.6818 142.062 42.6091 141.511 42.6091C141.242 42.6091 141.008 42.6242 140.809 42.6545C140.609 42.6788 140.416 42.7242 140.23 42.7909C139.83 42.9424 139.631 43.2394 139.631 43.6818V46.4455C139.631 47.1242 140.271 47.4636 141.552 47.4636C142.103 47.4636 142.709 47.3909 143.371 47.2455V47.9182C142.785 48.0333 142.158 48.0909 141.49 48.0909Z"/>
<path d="M146.185 48.0909C145.71 48.0909 145.342 48.0515 145.08 47.9727C144.825 47.8939 144.639 47.7545 144.522 47.5545C144.412 47.3545 144.357 47.0667 144.357 46.6909C144.357 46.3576 144.408 46.1 144.512 45.9182C144.622 45.7303 144.804 45.597 145.059 45.5182C145.321 45.4394 145.689 45.4 146.165 45.4H147.663V44.7C147.663 44.5364 147.625 44.4121 147.549 44.3273C147.48 44.2364 147.36 44.1727 147.187 44.1364C147.022 44.1 146.778 44.0818 146.454 44.0818C145.937 44.0818 145.366 44.1182 144.739 44.1909V43.5909C145.421 43.5364 146.037 43.5091 146.588 43.5091C147.167 43.5091 147.594 43.5485 147.869 43.6273C148.145 43.7 148.334 43.8303 148.438 44.0182C148.541 44.2061 148.593 44.497 148.593 44.8909V48H147.694V47.5818C147.618 47.9212 147.115 48.0909 146.185 48.0909ZM146.34 47.5545C146.678 47.5545 146.964 47.5333 147.198 47.4909C147.508 47.4364 147.663 47.3091 147.663 47.1091V45.9091H146.227C145.931 45.9091 145.717 45.9303 145.586 45.9727C145.455 46.0091 145.369 46.0818 145.328 46.1909C145.287 46.3 145.266 46.4758 145.266 46.7182C145.266 46.9364 145.29 47.1061 145.338 47.2273C145.386 47.3424 145.473 47.4273 145.596 47.4818C145.72 47.5303 145.906 47.5545 146.154 47.5545H146.34Z"/>
<path d="M150.205 43.6H151.083V44.3182C151.083 44.1788 151.152 44.0485 151.29 43.9273C151.428 43.8 151.603 43.7 151.817 43.6273C152.03 43.5485 152.24 43.5091 152.447 43.5091H152.902V44.2091H152.385C151.944 44.2091 151.624 44.2606 151.424 44.3636C151.231 44.4606 151.135 44.6394 151.135 44.9V48H150.205V43.6Z"/>
<path d="M156.27 42.1H157.272V47.3818H160.568V48H156.27V42.1Z"/>
<path d="M161.575 42.0091H162.505V42.8636H161.575V42.0091ZM161.575 43.6H162.505V48H161.575V43.6Z"/>
<path d="M165.647 48.0909C165.117 48.0909 164.545 48.0545 163.932 47.9818V47.3545C164.738 47.4697 165.316 47.5273 165.667 47.5273C166.108 47.5273 166.425 47.4909 166.618 47.4182C166.811 47.3394 166.907 47.197 166.907 46.9909V46.5455C166.907 46.3576 166.835 46.2242 166.69 46.1455C166.546 46.0667 166.311 46.0273 165.988 46.0273H165.42C164.903 46.0273 164.507 45.9333 164.231 45.7455C163.963 45.5576 163.829 45.2939 163.829 44.9545V44.5455C163.829 43.8545 164.572 43.5091 166.06 43.5091C166.17 43.5091 166.677 43.5333 167.579 43.5818V44.1727C166.966 44.0879 166.446 44.0455 166.019 44.0455C165.53 44.0455 165.196 44.0879 165.017 44.1727C164.838 44.2576 164.748 44.4 164.748 44.6V44.9727C164.748 45.2697 165.055 45.4182 165.667 45.4182H166.246C167.3 45.4182 167.827 45.7636 167.827 46.4545V46.8364C167.827 47.2909 167.648 47.6152 167.289 47.8091C166.931 47.997 166.384 48.0909 165.647 48.0909Z"/>
<path d="M171.209 48.0909C170.782 48.0909 170.448 48.0515 170.207 47.9727C169.966 47.8879 169.79 47.7485 169.68 47.5545C169.577 47.3545 169.525 47.0758 169.525 46.7182V44.1364H168.409V43.6H169.525V42.2364H170.465V43.6H172.253V44.1364H170.465V46.7636C170.465 46.9818 170.493 47.1455 170.548 47.2545C170.61 47.3636 170.713 47.4424 170.858 47.4909C171.009 47.5333 171.226 47.5545 171.509 47.5545C171.598 47.5545 171.846 47.5303 172.253 47.4818V48.0182C171.901 48.0667 171.553 48.0909 171.209 48.0909Z"/>
<path d="M173.269 42.0091H174.198V42.8636H173.269V42.0091ZM173.269 43.6H174.198V48H173.269V43.6Z"/>
<path d="M175.811 43.6H176.741V44.1364C176.837 43.7182 177.385 43.5091 178.383 43.5091C179.024 43.5091 179.472 43.6121 179.726 43.8182C179.988 44.0182 180.119 44.3364 180.119 44.7727V48H179.189V44.8182C179.189 44.703 179.179 44.6091 179.158 44.5364C179.138 44.4636 179.096 44.3909 179.034 44.3182C178.897 44.1667 178.59 44.0909 178.115 44.0909C177.75 44.0909 177.467 44.1152 177.268 44.1636C177.075 44.2061 176.937 44.2788 176.854 44.3818C176.779 44.4848 176.741 44.6303 176.741 44.8182V48H175.811V43.6Z"/>
<path d="M183.624 50C182.942 50 182.367 49.9667 181.899 49.9V49.3182C182.725 49.403 183.328 49.4455 183.706 49.4455C184.182 49.4455 184.526 49.3788 184.74 49.2455C184.96 49.1121 185.07 48.8909 185.07 48.5818V47.5273C185.056 47.7212 184.905 47.8636 184.616 47.9545C184.333 48.0455 183.975 48.0909 183.541 48.0909C183.025 48.0909 182.622 48.0485 182.332 47.9636C182.05 47.8788 181.847 47.7394 181.723 47.5455C181.606 47.3515 181.547 47.0879 181.547 46.7545V44.9636C181.547 44.4424 181.706 44.0697 182.023 43.8455C182.346 43.6212 182.873 43.5091 183.603 43.5091C184.471 43.5091 184.981 43.6818 185.132 44.0273V43.6H186V48.4182C186 48.8242 185.914 49.1424 185.742 49.3727C185.57 49.603 185.311 49.7636 184.967 49.8545C184.623 49.9515 184.175 50 183.624 50ZM183.737 47.5455C184.226 47.5455 184.571 47.4939 184.771 47.3909C184.97 47.2879 185.07 47.0939 185.07 46.8091V44.8182C185.07 44.6182 185.032 44.4667 184.957 44.3636C184.888 44.2606 184.757 44.1879 184.564 44.1455C184.371 44.097 184.089 44.0727 183.717 44.0727C183.366 44.0727 183.1 44.0939 182.921 44.1364C182.749 44.1788 182.629 44.2545 182.56 44.3636C182.498 44.4667 182.467 44.6182 182.467 44.8182V46.8091C182.467 47.0152 182.501 47.1697 182.57 47.2727C182.639 47.3758 182.763 47.4485 182.942 47.4909C183.121 47.5273 183.386 47.5455 183.737 47.5455Z"/>
</mask>
<path d="M74.6654 42.1H75.8225L78.426 48H77.3825L76.618 46.2091H73.746L72.9918 48H72L74.6654 42.1ZM76.3701 45.6L75.2336 42.9364H75.1407L74.0042 45.6H76.3701Z" fill="#F02801"/>
<path d="M81.126 48.0909C80.4854 48.0909 80.0343 47.9909 79.7726 47.7909C79.5177 47.5848 79.3903 47.2636 79.3903 46.8273V43.6H80.3201V46.7818C80.3201 46.897 80.3305 46.9909 80.3511 47.0636C80.3787 47.1303 80.4234 47.2 80.4854 47.2727C80.6094 47.4303 80.9124 47.5091 81.3946 47.5091C81.9042 47.5091 82.2624 47.4667 82.469 47.3818C82.6687 47.297 82.7686 47.1424 82.7686 46.9182V43.6H83.6984V48H82.7686V47.4636C82.6791 47.8818 82.1315 48.0909 81.126 48.0909Z" fill="#F02801"/>
<path d="M87.4098 48.0909C86.9828 48.0909 86.6487 48.0515 86.4077 47.9727C86.1666 47.8879 85.991 47.7485 85.8808 47.5545C85.7775 47.3545 85.7258 47.0758 85.7258 46.7182V44.1364H84.6101V43.6H85.7258V42.2364H86.6659V43.6H88.4532V44.1364H86.6659V46.7636C86.6659 46.9818 86.6935 47.1455 86.7486 47.2545C86.8106 47.3636 86.9139 47.4424 87.0585 47.4909C87.2101 47.5333 87.427 47.5545 87.7094 47.5545C87.7989 47.5545 88.0469 47.5303 88.4532 47.4818V48.0182C88.102 48.0667 87.7542 48.0909 87.4098 48.0909Z" fill="#F02801"/>
<path d="M91.5871 48.0909C91.1463 48.0909 90.8157 48.0758 90.5953 48.0455C90.3749 48.0212 90.1545 47.9636 89.9341 47.8727C89.7069 47.7818 89.5416 47.6364 89.4382 47.4364C89.3349 47.2303 89.2833 46.9545 89.2833 46.6091V45.0818C89.2833 44.8091 89.3212 44.5697 89.3969 44.3636C89.4727 44.1576 89.5726 43.997 89.6965 43.8818C89.7998 43.7788 89.9548 43.7 90.1614 43.6455C90.3749 43.5848 90.5919 43.5455 90.8123 43.5273C91.0602 43.5152 91.3185 43.5091 91.5871 43.5091C91.9453 43.5091 92.2139 43.5182 92.393 43.5364C92.5789 43.5485 92.7752 43.5788 92.9818 43.6273C93.1953 43.6818 93.3606 43.7636 93.4777 43.8727C93.5948 43.9818 93.6947 44.1394 93.7773 44.3455C93.8531 44.5576 93.891 44.803 93.891 45.0818V46.6091C93.891 47.1242 93.7567 47.5 93.4881 47.7364C93.3779 47.8333 93.2194 47.9091 93.0128 47.9636C92.8062 48.0182 92.5927 48.0545 92.3723 48.0727C92.1106 48.0848 91.8488 48.0909 91.5871 48.0909ZM91.5871 47.5545C91.8764 47.5545 92.0865 47.5485 92.2173 47.5364C92.3482 47.5242 92.4756 47.4909 92.5996 47.4364C92.7236 47.3879 92.8096 47.3091 92.8579 47.2C92.913 47.0848 92.9405 46.9273 92.9405 46.7273V44.9455C92.9405 44.6727 92.9026 44.4758 92.8269 44.3545C92.7511 44.2273 92.6202 44.1455 92.4343 44.1091C92.2552 44.0667 91.9728 44.0455 91.5871 44.0455C91.2014 44.0455 90.9156 44.0667 90.7296 44.1091C90.5506 44.1455 90.4232 44.2273 90.3474 44.3545C90.2716 44.4758 90.2337 44.6727 90.2337 44.9455V46.7273C90.2337 46.9273 90.2579 47.0848 90.3061 47.2C90.3612 47.3091 90.4507 47.3879 90.5747 47.4364C90.6986 47.4909 90.8261 47.5242 90.9569 47.5364C91.0878 47.5485 91.2979 47.5545 91.5871 47.5545Z" fill="#F02801"/>
<path d="M97.784 42.1H100.14C100.732 42.1 101.193 42.1333 101.524 42.2C101.861 42.2606 102.106 42.3727 102.257 42.5364C102.416 42.7 102.495 42.9394 102.495 43.2545V44.2727C102.495 44.6242 102.33 44.897 101.999 45.0909C101.675 45.2788 101.262 45.3727 100.759 45.3727L102.908 48H101.679L99.7573 45.4818H98.7862V48H97.784V42.1ZM100.098 44.9C100.594 44.9 100.949 44.8485 101.162 44.7455C101.383 44.6364 101.493 44.4424 101.493 44.1636V43.3455C101.493 42.903 101.059 42.6818 100.191 42.6818H98.7862V44.9H100.098Z" fill="#F02801"/>
<path d="M106.357 48.0909C104.828 48.0909 104.064 47.6424 104.064 46.7455V45.0091C104.064 44.4758 104.236 44.0939 104.58 43.8636C104.931 43.6273 105.496 43.5091 106.275 43.5091C107.012 43.5091 107.542 43.6212 107.866 43.8455C108.196 44.0697 108.361 44.4576 108.361 45.0091V45.9818H105.004V46.6455C105.004 46.9485 105.124 47.1667 105.365 47.3C105.606 47.4333 105.978 47.5 106.481 47.5C106.956 47.5 107.518 47.4273 108.165 47.2818V47.9091C107.532 48.0303 106.929 48.0909 106.357 48.0909ZM107.432 45.4455V44.7545C107.432 44.4879 107.339 44.3061 107.153 44.2091C106.974 44.1061 106.664 44.0545 106.223 44.0545C105.796 44.0545 105.486 44.1061 105.293 44.2091C105.1 44.3061 105.004 44.4879 105.004 44.7545V45.4455H107.432Z" fill="#F02801"/>
<path d="M109.778 43.6H110.698V44.0727H110.708C110.784 43.697 111.352 43.5091 112.413 43.5091C113.047 43.5091 113.525 43.6273 113.849 43.8636C114.173 44.0939 114.334 44.3909 114.334 44.7545V46.5636C114.334 46.8242 114.29 47.0515 114.2 47.2455C114.118 47.4394 114.007 47.5909 113.87 47.7C113.746 47.803 113.573 47.8848 113.353 47.9455C113.139 48.0061 112.926 48.0455 112.712 48.0636C112.52 48.0818 112.285 48.0909 112.01 48.0909C111.707 48.0909 111.428 48.0606 111.173 48C110.925 47.9333 110.77 47.8394 110.708 47.7182V49.8909H109.778V43.6ZM112.031 47.5364C112.389 47.5364 112.661 47.5152 112.847 47.4727C113.04 47.4242 113.177 47.3394 113.26 47.2182C113.343 47.097 113.384 46.9121 113.384 46.6636V45.0455C113.384 44.7727 113.343 44.5697 113.26 44.4364C113.177 44.303 113.04 44.2152 112.847 44.1727C112.661 44.1242 112.385 44.1 112.02 44.1C111.655 44.1 111.383 44.1242 111.204 44.1727C111.025 44.2152 110.898 44.303 110.822 44.4364C110.746 44.5636 110.708 44.7667 110.708 45.0455V46.6636C110.708 46.9121 110.746 47.097 110.822 47.2182C110.905 47.3394 111.039 47.4242 111.225 47.4727C111.411 47.5152 111.679 47.5364 112.031 47.5364Z" fill="#F02801"/>
<path d="M117.301 48.0909C116.825 48.0909 116.457 48.0515 116.195 47.9727C115.94 47.8939 115.754 47.7545 115.637 47.5545C115.527 47.3545 115.472 47.0667 115.472 46.6909C115.472 46.3576 115.524 46.1 115.627 45.9182C115.737 45.7303 115.92 45.597 116.174 45.5182C116.436 45.4394 116.805 45.4 117.28 45.4H118.778V44.7C118.778 44.5364 118.74 44.4121 118.664 44.3273C118.595 44.2364 118.475 44.1727 118.303 44.1364C118.137 44.1 117.893 44.0818 117.569 44.0818C117.053 44.0818 116.481 44.1182 115.854 44.1909V43.5909C116.536 43.5364 117.152 43.5091 117.703 43.5091C118.282 43.5091 118.709 43.5485 118.985 43.6273C119.26 43.7 119.449 43.8303 119.553 44.0182C119.656 44.2061 119.708 44.497 119.708 44.8909V48H118.809V47.5818C118.733 47.9212 118.23 48.0909 117.301 48.0909ZM117.456 47.5545C117.793 47.5545 118.079 47.5333 118.313 47.4909C118.623 47.4364 118.778 47.3091 118.778 47.1091V45.9091H117.342C117.046 45.9091 116.832 45.9303 116.701 45.9727C116.57 46.0091 116.484 46.0818 116.443 46.1909C116.402 46.3 116.381 46.4758 116.381 46.7182C116.381 46.9364 116.405 47.1061 116.453 47.2273C116.502 47.3424 116.588 47.4273 116.712 47.4818C116.836 47.5303 117.022 47.5545 117.27 47.5545H117.456Z" fill="#F02801"/>
<path d="M121.32 42.0091H122.25V42.8636H121.32V42.0091ZM121.32 43.6H122.25V48H121.32V43.6Z" fill="#F02801"/>
<path d="M123.863 43.6H124.741V44.3182C124.741 44.1788 124.81 44.0485 124.947 43.9273C125.085 43.8 125.261 43.7 125.474 43.6273C125.688 43.5485 125.898 43.5091 126.105 43.5091H126.559V44.2091H126.043C125.602 44.2091 125.281 44.2606 125.082 44.3636C124.889 44.4606 124.792 44.6394 124.792 44.9V48H123.863V43.6Z" fill="#F02801"/>
<path d="M131.932 48.0909C130.43 48.0909 129.68 47.7424 129.68 47.0455V46.0545C129.68 45.5939 129.996 45.2394 130.63 44.9909L131.116 44.7909L130.713 44.3727C130.499 44.1606 130.393 43.9515 130.393 43.7455V42.8636C130.393 42.2879 130.964 42 132.107 42C132.569 42 133.037 42.0455 133.513 42.1364V42.8C133.003 42.6485 132.528 42.5727 132.087 42.5727C131.791 42.5727 131.581 42.6 131.457 42.6545C131.333 42.7091 131.271 42.803 131.271 42.9364V43.6091C131.271 43.7061 131.305 43.7879 131.374 43.8545L133.874 46.5182C133.895 46.4091 133.905 46.2818 133.905 46.1364V45.2636H134.69V46.1C134.69 46.5121 134.618 46.8515 134.473 47.1182C134.756 47.3485 134.962 47.4636 135.093 47.4636H135.362V48H134.701C134.46 48 134.208 47.897 133.946 47.6909C133.506 47.9576 132.834 48.0909 131.932 48.0909ZM132.118 47.5273C132.793 47.5273 133.247 47.4424 133.482 47.2727L131.488 45.1818L131.126 45.3182C130.981 45.3788 130.864 45.4697 130.775 45.5909C130.692 45.7121 130.651 45.8394 130.651 45.9727V47.0818C130.651 47.3788 131.102 47.5273 132.004 47.5273H132.118Z" fill="#F02801"/>
<path d="M141.49 48.0909C139.61 48.0909 138.67 47.5576 138.67 46.4909V43.6909C138.67 42.5636 139.61 42 141.49 42C142.131 42 142.744 42.0576 143.329 42.1727V42.8273C142.668 42.6818 142.062 42.6091 141.511 42.6091C141.242 42.6091 141.008 42.6242 140.809 42.6545C140.609 42.6788 140.416 42.7242 140.23 42.7909C139.83 42.9424 139.631 43.2394 139.631 43.6818V46.4455C139.631 47.1242 140.271 47.4636 141.552 47.4636C142.103 47.4636 142.709 47.3909 143.371 47.2455V47.9182C142.785 48.0333 142.158 48.0909 141.49 48.0909Z" fill="#F02801"/>
<path d="M146.185 48.0909C145.71 48.0909 145.342 48.0515 145.08 47.9727C144.825 47.8939 144.639 47.7545 144.522 47.5545C144.412 47.3545 144.357 47.0667 144.357 46.6909C144.357 46.3576 144.408 46.1 144.512 45.9182C144.622 45.7303 144.804 45.597 145.059 45.5182C145.321 45.4394 145.689 45.4 146.165 45.4H147.663V44.7C147.663 44.5364 147.625 44.4121 147.549 44.3273C147.48 44.2364 147.36 44.1727 147.187 44.1364C147.022 44.1 146.778 44.0818 146.454 44.0818C145.937 44.0818 145.366 44.1182 144.739 44.1909V43.5909C145.421 43.5364 146.037 43.5091 146.588 43.5091C147.167 43.5091 147.594 43.5485 147.869 43.6273C148.145 43.7 148.334 43.8303 148.438 44.0182C148.541 44.2061 148.593 44.497 148.593 44.8909V48H147.694V47.5818C147.618 47.9212 147.115 48.0909 146.185 48.0909ZM146.34 47.5545C146.678 47.5545 146.964 47.5333 147.198 47.4909C147.508 47.4364 147.663 47.3091 147.663 47.1091V45.9091H146.227C145.931 45.9091 145.717 45.9303 145.586 45.9727C145.455 46.0091 145.369 46.0818 145.328 46.1909C145.287 46.3 145.266 46.4758 145.266 46.7182C145.266 46.9364 145.29 47.1061 145.338 47.2273C145.386 47.3424 145.473 47.4273 145.596 47.4818C145.72 47.5303 145.906 47.5545 146.154 47.5545H146.34Z" fill="#F02801"/>
<path d="M150.205 43.6H151.083V44.3182C151.083 44.1788 151.152 44.0485 151.29 43.9273C151.428 43.8 151.603 43.7 151.817 43.6273C152.03 43.5485 152.24 43.5091 152.447 43.5091H152.902V44.2091H152.385C151.944 44.2091 151.624 44.2606 151.424 44.3636C151.231 44.4606 151.135 44.6394 151.135 44.9V48H150.205V43.6Z" fill="#F02801"/>
<path d="M156.27 42.1H157.272V47.3818H160.568V48H156.27V42.1Z" fill="#F02801"/>
<path d="M161.575 42.0091H162.505V42.8636H161.575V42.0091ZM161.575 43.6H162.505V48H161.575V43.6Z" fill="#F02801"/>
<path d="M165.647 48.0909C165.117 48.0909 164.545 48.0545 163.932 47.9818V47.3545C164.738 47.4697 165.316 47.5273 165.667 47.5273C166.108 47.5273 166.425 47.4909 166.618 47.4182C166.811 47.3394 166.907 47.197 166.907 46.9909V46.5455C166.907 46.3576 166.835 46.2242 166.69 46.1455C166.546 46.0667 166.311 46.0273 165.988 46.0273H165.42C164.903 46.0273 164.507 45.9333 164.231 45.7455C163.963 45.5576 163.829 45.2939 163.829 44.9545V44.5455C163.829 43.8545 164.572 43.5091 166.06 43.5091C166.17 43.5091 166.677 43.5333 167.579 43.5818V44.1727C166.966 44.0879 166.446 44.0455 166.019 44.0455C165.53 44.0455 165.196 44.0879 165.017 44.1727C164.838 44.2576 164.748 44.4 164.748 44.6V44.9727C164.748 45.2697 165.055 45.4182 165.667 45.4182H166.246C167.3 45.4182 167.827 45.7636 167.827 46.4545V46.8364C167.827 47.2909 167.648 47.6152 167.289 47.8091C166.931 47.997 166.384 48.0909 165.647 48.0909Z" fill="#F02801"/>
<path d="M171.209 48.0909C170.782 48.0909 170.448 48.0515 170.207 47.9727C169.966 47.8879 169.79 47.7485 169.68 47.5545C169.577 47.3545 169.525 47.0758 169.525 46.7182V44.1364H168.409V43.6H169.525V42.2364H170.465V43.6H172.253V44.1364H170.465V46.7636C170.465 46.9818 170.493 47.1455 170.548 47.2545C170.61 47.3636 170.713 47.4424 170.858 47.4909C171.009 47.5333 171.226 47.5545 171.509 47.5545C171.598 47.5545 171.846 47.5303 172.253 47.4818V48.0182C171.901 48.0667 171.553 48.0909 171.209 48.0909Z" fill="#F02801"/>
<path d="M173.269 42.0091H174.198V42.8636H173.269V42.0091ZM173.269 43.6H174.198V48H173.269V43.6Z" fill="#F02801"/>
<path d="M175.811 43.6H176.741V44.1364C176.837 43.7182 177.385 43.5091 178.383 43.5091C179.024 43.5091 179.472 43.6121 179.726 43.8182C179.988 44.0182 180.119 44.3364 180.119 44.7727V48H179.189V44.8182C179.189 44.703 179.179 44.6091 179.158 44.5364C179.138 44.4636 179.096 44.3909 179.034 44.3182C178.897 44.1667 178.59 44.0909 178.115 44.0909C177.75 44.0909 177.467 44.1152 177.268 44.1636C177.075 44.2061 176.937 44.2788 176.854 44.3818C176.779 44.4848 176.741 44.6303 176.741 44.8182V48H175.811V43.6Z" fill="#F02801"/>
<path d="M183.624 50C182.942 50 182.367 49.9667 181.899 49.9V49.3182C182.725 49.403 183.328 49.4455 183.706 49.4455C184.182 49.4455 184.526 49.3788 184.74 49.2455C184.96 49.1121 185.07 48.8909 185.07 48.5818V47.5273C185.056 47.7212 184.905 47.8636 184.616 47.9545C184.333 48.0455 183.975 48.0909 183.541 48.0909C183.025 48.0909 182.622 48.0485 182.332 47.9636C182.05 47.8788 181.847 47.7394 181.723 47.5455C181.606 47.3515 181.547 47.0879 181.547 46.7545V44.9636C181.547 44.4424 181.706 44.0697 182.023 43.8455C182.346 43.6212 182.873 43.5091 183.603 43.5091C184.471 43.5091 184.981 43.6818 185.132 44.0273V43.6H186V48.4182C186 48.8242 185.914 49.1424 185.742 49.3727C185.57 49.603 185.311 49.7636 184.967 49.8545C184.623 49.9515 184.175 50 183.624 50ZM183.737 47.5455C184.226 47.5455 184.571 47.4939 184.771 47.3909C184.97 47.2879 185.07 47.0939 185.07 46.8091V44.8182C185.07 44.6182 185.032 44.4667 184.957 44.3636C184.888 44.2606 184.757 44.1879 184.564 44.1455C184.371 44.097 184.089 44.0727 183.717 44.0727C183.366 44.0727 183.1 44.0939 182.921 44.1364C182.749 44.1788 182.629 44.2545 182.56 44.3636C182.498 44.4667 182.467 44.6182 182.467 44.8182V46.8091C182.467 47.0152 182.501 47.1697 182.57 47.2727C182.639 47.3758 182.763 47.4485 182.942 47.4909C183.121 47.5273 183.386 47.5455 183.737 47.5455Z" fill="#F02801"/>
<path d="M74.6654 42.1H75.8225L78.426 48H77.3825L76.618 46.2091H73.746L72.9918 48H72L74.6654 42.1ZM76.3701 45.6L75.2336 42.9364H75.1407L74.0042 45.6H76.3701Z" stroke="#F02801" stroke-width="0.2" mask="url(#path-12-outside-1_367_2133)"/>
<path d="M81.126 48.0909C80.4854 48.0909 80.0343 47.9909 79.7726 47.7909C79.5177 47.5848 79.3903 47.2636 79.3903 46.8273V43.6H80.3201V46.7818C80.3201 46.897 80.3305 46.9909 80.3511 47.0636C80.3787 47.1303 80.4234 47.2 80.4854 47.2727C80.6094 47.4303 80.9124 47.5091 81.3946 47.5091C81.9042 47.5091 82.2624 47.4667 82.469 47.3818C82.6687 47.297 82.7686 47.1424 82.7686 46.9182V43.6H83.6984V48H82.7686V47.4636C82.6791 47.8818 82.1315 48.0909 81.126 48.0909Z" stroke="#F02801" stroke-width="0.2" mask="url(#path-12-outside-1_367_2133)"/>
<path d="M87.4098 48.0909C86.9828 48.0909 86.6487 48.0515 86.4077 47.9727C86.1666 47.8879 85.991 47.7485 85.8808 47.5545C85.7775 47.3545 85.7258 47.0758 85.7258 46.7182V44.1364H84.6101V43.6H85.7258V42.2364H86.6659V43.6H88.4532V44.1364H86.6659V46.7636C86.6659 46.9818 86.6935 47.1455 86.7486 47.2545C86.8106 47.3636 86.9139 47.4424 87.0585 47.4909C87.2101 47.5333 87.427 47.5545 87.7094 47.5545C87.7989 47.5545 88.0469 47.5303 88.4532 47.4818V48.0182C88.102 48.0667 87.7542 48.0909 87.4098 48.0909Z" stroke="#F02801" stroke-width="0.2" mask="url(#path-12-outside-1_367_2133)"/>
<path d="M91.5871 48.0909C91.1463 48.0909 90.8157 48.0758 90.5953 48.0455C90.3749 48.0212 90.1545 47.9636 89.9341 47.8727C89.7069 47.7818 89.5416 47.6364 89.4382 47.4364C89.3349 47.2303 89.2833 46.9545 89.2833 46.6091V45.0818C89.2833 44.8091 89.3212 44.5697 89.3969 44.3636C89.4727 44.1576 89.5726 43.997 89.6965 43.8818C89.7998 43.7788 89.9548 43.7 90.1614 43.6455C90.3749 43.5848 90.5919 43.5455 90.8123 43.5273C91.0602 43.5152 91.3185 43.5091 91.5871 43.5091C91.9453 43.5091 92.2139 43.5182 92.393 43.5364C92.5789 43.5485 92.7752 43.5788 92.9818 43.6273C93.1953 43.6818 93.3606 43.7636 93.4777 43.8727C93.5948 43.9818 93.6947 44.1394 93.7773 44.3455C93.8531 44.5576 93.891 44.803 93.891 45.0818V46.6091C93.891 47.1242 93.7567 47.5 93.4881 47.7364C93.3779 47.8333 93.2194 47.9091 93.0128 47.9636C92.8062 48.0182 92.5927 48.0545 92.3723 48.0727C92.1106 48.0848 91.8488 48.0909 91.5871 48.0909ZM91.5871 47.5545C91.8764 47.5545 92.0865 47.5485 92.2173 47.5364C92.3482 47.5242 92.4756 47.4909 92.5996 47.4364C92.7236 47.3879 92.8096 47.3091 92.8579 47.2C92.913 47.0848 92.9405 46.9273 92.9405 46.7273V44.9455C92.9405 44.6727 92.9026 44.4758 92.8269 44.3545C92.7511 44.2273 92.6202 44.1455 92.4343 44.1091C92.2552 44.0667 91.9728 44.0455 91.5871 44.0455C91.2014 44.0455 90.9156 44.0667 90.7296 44.1091C90.5506 44.1455 90.4232 44.2273 90.3474 44.3545C90.2716 44.4758 90.2337 44.6727 90.2337 44.9455V46.7273C90.2337 46.9273 90.2579 47.0848 90.3061 47.2C90.3612 47.3091 90.4507 47.3879 90.5747 47.4364C90.6986 47.4909 90.8261 47.5242 90.9569 47.5364C91.0878 47.5485 91.2979 47.5545 91.5871 47.5545Z" stroke="#F02801" stroke-width="0.2" mask="url(#path-12-outside-1_367_2133)"/>
<path d="M97.784 42.1H100.14C100.732 42.1 101.193 42.1333 101.524 42.2C101.861 42.2606 102.106 42.3727 102.257 42.5364C102.416 42.7 102.495 42.9394 102.495 43.2545V44.2727C102.495 44.6242 102.33 44.897 101.999 45.0909C101.675 45.2788 101.262 45.3727 100.759 45.3727L102.908 48H101.679L99.7573 45.4818H98.7862V48H97.784V42.1ZM100.098 44.9C100.594 44.9 100.949 44.8485 101.162 44.7455C101.383 44.6364 101.493 44.4424 101.493 44.1636V43.3455C101.493 42.903 101.059 42.6818 100.191 42.6818H98.7862V44.9H100.098Z" stroke="#F02801" stroke-width="0.2" mask="url(#path-12-outside-1_367_2133)"/>
<path d="M106.357 48.0909C104.828 48.0909 104.064 47.6424 104.064 46.7455V45.0091C104.064 44.4758 104.236 44.0939 104.58 43.8636C104.931 43.6273 105.496 43.5091 106.275 43.5091C107.012 43.5091 107.542 43.6212 107.866 43.8455C108.196 44.0697 108.361 44.4576 108.361 45.0091V45.9818H105.004V46.6455C105.004 46.9485 105.124 47.1667 105.365 47.3C105.606 47.4333 105.978 47.5 106.481 47.5C106.956 47.5 107.518 47.4273 108.165 47.2818V47.9091C107.532 48.0303 106.929 48.0909 106.357 48.0909ZM107.432 45.4455V44.7545C107.432 44.4879 107.339 44.3061 107.153 44.2091C106.974 44.1061 106.664 44.0545 106.223 44.0545C105.796 44.0545 105.486 44.1061 105.293 44.2091C105.1 44.3061 105.004 44.4879 105.004 44.7545V45.4455H107.432Z" stroke="#F02801" stroke-width="0.2" mask="url(#path-12-outside-1_367_2133)"/>
<path d="M109.778 43.6H110.698V44.0727H110.708C110.784 43.697 111.352 43.5091 112.413 43.5091C113.047 43.5091 113.525 43.6273 113.849 43.8636C114.173 44.0939 114.334 44.3909 114.334 44.7545V46.5636C114.334 46.8242 114.29 47.0515 114.2 47.2455C114.118 47.4394 114.007 47.5909 113.87 47.7C113.746 47.803 113.573 47.8848 113.353 47.9455C113.139 48.0061 112.926 48.0455 112.712 48.0636C112.52 48.0818 112.285 48.0909 112.01 48.0909C111.707 48.0909 111.428 48.0606 111.173 48C110.925 47.9333 110.77 47.8394 110.708 47.7182V49.8909H109.778V43.6ZM112.031 47.5364C112.389 47.5364 112.661 47.5152 112.847 47.4727C113.04 47.4242 113.177 47.3394 113.26 47.2182C113.343 47.097 113.384 46.9121 113.384 46.6636V45.0455C113.384 44.7727 113.343 44.5697 113.26 44.4364C113.177 44.303 113.04 44.2152 112.847 44.1727C112.661 44.1242 112.385 44.1 112.02 44.1C111.655 44.1 111.383 44.1242 111.204 44.1727C111.025 44.2152 110.898 44.303 110.822 44.4364C110.746 44.5636 110.708 44.7667 110.708 45.0455V46.6636C110.708 46.9121 110.746 47.097 110.822 47.2182C110.905 47.3394 111.039 47.4242 111.225 47.4727C111.411 47.5152 111.679 47.5364 112.031 47.5364Z" stroke="#F02801" stroke-width="0.2" mask="url(#path-12-outside-1_367_2133)"/>
<path d="M117.301 48.0909C116.825 48.0909 116.457 48.0515 116.195 47.9727C115.94 47.8939 115.754 47.7545 115.637 47.5545C115.527 47.3545 115.472 47.0667 115.472 46.6909C115.472 46.3576 115.524 46.1 115.627 45.9182C115.737 45.7303 115.92 45.597 116.174 45.5182C116.436 45.4394 116.805 45.4 117.28 45.4H118.778V44.7C118.778 44.5364 118.74 44.4121 118.664 44.3273C118.595 44.2364 118.475 44.1727 118.303 44.1364C118.137 44.1 117.893 44.0818 117.569 44.0818C117.053 44.0818 116.481 44.1182 115.854 44.1909V43.5909C116.536 43.5364 117.152 43.5091 117.703 43.5091C118.282 43.5091 118.709 43.5485 118.985 43.6273C119.26 43.7 119.449 43.8303 119.553 44.0182C119.656 44.2061 119.708 44.497 119.708 44.8909V48H118.809V47.5818C118.733 47.9212 118.23 48.0909 117.301 48.0909ZM117.456 47.5545C117.793 47.5545 118.079 47.5333 118.313 47.4909C118.623 47.4364 118.778 47.3091 118.778 47.1091V45.9091H117.342C117.046 45.9091 116.832 45.9303 116.701 45.9727C116.57 46.0091 116.484 46.0818 116.443 46.1909C116.402 46.3 116.381 46.4758 116.381 46.7182C116.381 46.9364 116.405 47.1061 116.453 47.2273C116.502 47.3424 116.588 47.4273 116.712 47.4818C116.836 47.5303 117.022 47.5545 117.27 47.5545H117.456Z" stroke="#F02801" stroke-width="0.2" mask="url(#path-12-outside-1_367_2133)"/>
<path d="M121.32 42.0091H122.25V42.8636H121.32V42.0091ZM121.32 43.6H122.25V48H121.32V43.6Z" stroke="#F02801" stroke-width="0.2" mask="url(#path-12-outside-1_367_2133)"/>
<path d="M123.863 43.6H124.741V44.3182C124.741 44.1788 124.81 44.0485 124.947 43.9273C125.085 43.8 125.261 43.7 125.474 43.6273C125.688 43.5485 125.898 43.5091 126.105 43.5091H126.559V44.2091H126.043C125.602 44.2091 125.281 44.2606 125.082 44.3636C124.889 44.4606 124.792 44.6394 124.792 44.9V48H123.863V43.6Z" stroke="#F02801" stroke-width="0.2" mask="url(#path-12-outside-1_367_2133)"/>
<path d="M131.932 48.0909C130.43 48.0909 129.68 47.7424 129.68 47.0455V46.0545C129.68 45.5939 129.996 45.2394 130.63 44.9909L131.116 44.7909L130.713 44.3727C130.499 44.1606 130.393 43.9515 130.393 43.7455V42.8636C130.393 42.2879 130.964 42 132.107 42C132.569 42 133.037 42.0455 133.513 42.1364V42.8C133.003 42.6485 132.528 42.5727 132.087 42.5727C131.791 42.5727 131.581 42.6 131.457 42.6545C131.333 42.7091 131.271 42.803 131.271 42.9364V43.6091C131.271 43.7061 131.305 43.7879 131.374 43.8545L133.874 46.5182C133.895 46.4091 133.905 46.2818 133.905 46.1364V45.2636H134.69V46.1C134.69 46.5121 134.618 46.8515 134.473 47.1182C134.756 47.3485 134.962 47.4636 135.093 47.4636H135.362V48H134.701C134.46 48 134.208 47.897 133.946 47.6909C133.506 47.9576 132.834 48.0909 131.932 48.0909ZM132.118 47.5273C132.793 47.5273 133.247 47.4424 133.482 47.2727L131.488 45.1818L131.126 45.3182C130.981 45.3788 130.864 45.4697 130.775 45.5909C130.692 45.7121 130.651 45.8394 130.651 45.9727V47.0818C130.651 47.3788 131.102 47.5273 132.004 47.5273H132.118Z" stroke="#F02801" stroke-width="0.2" mask="url(#path-12-outside-1_367_2133)"/>
<path d="M141.49 48.0909C139.61 48.0909 138.67 47.5576 138.67 46.4909V43.6909C138.67 42.5636 139.61 42 141.49 42C142.131 42 142.744 42.0576 143.329 42.1727V42.8273C142.668 42.6818 142.062 42.6091 141.511 42.6091C141.242 42.6091 141.008 42.6242 140.809 42.6545C140.609 42.6788 140.416 42.7242 140.23 42.7909C139.83 42.9424 139.631 43.2394 139.631 43.6818V46.4455C139.631 47.1242 140.271 47.4636 141.552 47.4636C142.103 47.4636 142.709 47.3909 143.371 47.2455V47.9182C142.785 48.0333 142.158 48.0909 141.49 48.0909Z" stroke="#F02801" stroke-width="0.2" mask="url(#path-12-outside-1_367_2133)"/>
<path d="M146.185 48.0909C145.71 48.0909 145.342 48.0515 145.08 47.9727C144.825 47.8939 144.639 47.7545 144.522 47.5545C144.412 47.3545 144.357 47.0667 144.357 46.6909C144.357 46.3576 144.408 46.1 144.512 45.9182C144.622 45.7303 144.804 45.597 145.059 45.5182C145.321 45.4394 145.689 45.4 146.165 45.4H147.663V44.7C147.663 44.5364 147.625 44.4121 147.549 44.3273C147.48 44.2364 147.36 44.1727 147.187 44.1364C147.022 44.1 146.778 44.0818 146.454 44.0818C145.937 44.0818 145.366 44.1182 144.739 44.1909V43.5909C145.421 43.5364 146.037 43.5091 146.588 43.5091C147.167 43.5091 147.594 43.5485 147.869 43.6273C148.145 43.7 148.334 43.8303 148.438 44.0182C148.541 44.2061 148.593 44.497 148.593 44.8909V48H147.694V47.5818C147.618 47.9212 147.115 48.0909 146.185 48.0909ZM146.34 47.5545C146.678 47.5545 146.964 47.5333 147.198 47.4909C147.508 47.4364 147.663 47.3091 147.663 47.1091V45.9091H146.227C145.931 45.9091 145.717 45.9303 145.586 45.9727C145.455 46.0091 145.369 46.0818 145.328 46.1909C145.287 46.3 145.266 46.4758 145.266 46.7182C145.266 46.9364 145.29 47.1061 145.338 47.2273C145.386 47.3424 145.473 47.4273 145.596 47.4818C145.72 47.5303 145.906 47.5545 146.154 47.5545H146.34Z" stroke="#F02801" stroke-width="0.2" mask="url(#path-12-outside-1_367_2133)"/>
<path d="M150.205 43.6H151.083V44.3182C151.083 44.1788 151.152 44.0485 151.29 43.9273C151.428 43.8 151.603 43.7 151.817 43.6273C152.03 43.5485 152.24 43.5091 152.447 43.5091H152.902V44.2091H152.385C151.944 44.2091 151.624 44.2606 151.424 44.3636C151.231 44.4606 151.135 44.6394 151.135 44.9V48H150.205V43.6Z" stroke="#F02801" stroke-width="0.2" mask="url(#path-12-outside-1_367_2133)"/>
<path d="M156.27 42.1H157.272V47.3818H160.568V48H156.27V42.1Z" stroke="#F02801" stroke-width="0.2" mask="url(#path-12-outside-1_367_2133)"/>
<path d="M161.575 42.0091H162.505V42.8636H161.575V42.0091ZM161.575 43.6H162.505V48H161.575V43.6Z" stroke="#F02801" stroke-width="0.2" mask="url(#path-12-outside-1_367_2133)"/>
<path d="M165.647 48.0909C165.117 48.0909 164.545 48.0545 163.932 47.9818V47.3545C164.738 47.4697 165.316 47.5273 165.667 47.5273C166.108 47.5273 166.425 47.4909 166.618 47.4182C166.811 47.3394 166.907 47.197 166.907 46.9909V46.5455C166.907 46.3576 166.835 46.2242 166.69 46.1455C166.546 46.0667 166.311 46.0273 165.988 46.0273H165.42C164.903 46.0273 164.507 45.9333 164.231 45.7455C163.963 45.5576 163.829 45.2939 163.829 44.9545V44.5455C163.829 43.8545 164.572 43.5091 166.06 43.5091C166.17 43.5091 166.677 43.5333 167.579 43.5818V44.1727C166.966 44.0879 166.446 44.0455 166.019 44.0455C165.53 44.0455 165.196 44.0879 165.017 44.1727C164.838 44.2576 164.748 44.4 164.748 44.6V44.9727C164.748 45.2697 165.055 45.4182 165.667 45.4182H166.246C167.3 45.4182 167.827 45.7636 167.827 46.4545V46.8364C167.827 47.2909 167.648 47.6152 167.289 47.8091C166.931 47.997 166.384 48.0909 165.647 48.0909Z" stroke="#F02801" stroke-width="0.2" mask="url(#path-12-outside-1_367_2133)"/>
<path d="M171.209 48.0909C170.782 48.0909 170.448 48.0515 170.207 47.9727C169.966 47.8879 169.79 47.7485 169.68 47.5545C169.577 47.3545 169.525 47.0758 169.525 46.7182V44.1364H168.409V43.6H169.525V42.2364H170.465V43.6H172.253V44.1364H170.465V46.7636C170.465 46.9818 170.493 47.1455 170.548 47.2545C170.61 47.3636 170.713 47.4424 170.858 47.4909C171.009 47.5333 171.226 47.5545 171.509 47.5545C171.598 47.5545 171.846 47.5303 172.253 47.4818V48.0182C171.901 48.0667 171.553 48.0909 171.209 48.0909Z" stroke="#F02801" stroke-width="0.2" mask="url(#path-12-outside-1_367_2133)"/>
<path d="M173.269 42.0091H174.198V42.8636H173.269V42.0091ZM173.269 43.6H174.198V48H173.269V43.6Z" stroke="#F02801" stroke-width="0.2" mask="url(#path-12-outside-1_367_2133)"/>
<path d="M175.811 43.6H176.741V44.1364C176.837 43.7182 177.385 43.5091 178.383 43.5091C179.024 43.5091 179.472 43.6121 179.726 43.8182C179.988 44.0182 180.119 44.3364 180.119 44.7727V48H179.189V44.8182C179.189 44.703 179.179 44.6091 179.158 44.5364C179.138 44.4636 179.096 44.3909 179.034 44.3182C178.897 44.1667 178.59 44.0909 178.115 44.0909C177.75 44.0909 177.467 44.1152 177.268 44.1636C177.075 44.2061 176.937 44.2788 176.854 44.3818C176.779 44.4848 176.741 44.6303 176.741 44.8182V48H175.811V43.6Z" stroke="#F02801" stroke-width="0.2" mask="url(#path-12-outside-1_367_2133)"/>
<path d="M183.624 50C182.942 50 182.367 49.9667 181.899 49.9V49.3182C182.725 49.403 183.328 49.4455 183.706 49.4455C184.182 49.4455 184.526 49.3788 184.74 49.2455C184.96 49.1121 185.07 48.8909 185.07 48.5818V47.5273C185.056 47.7212 184.905 47.8636 184.616 47.9545C184.333 48.0455 183.975 48.0909 183.541 48.0909C183.025 48.0909 182.622 48.0485 182.332 47.9636C182.05 47.8788 181.847 47.7394 181.723 47.5455C181.606 47.3515 181.547 47.0879 181.547 46.7545V44.9636C181.547 44.4424 181.706 44.0697 182.023 43.8455C182.346 43.6212 182.873 43.5091 183.603 43.5091C184.471 43.5091 184.981 43.6818 185.132 44.0273V43.6H186V48.4182C186 48.8242 185.914 49.1424 185.742 49.3727C185.57 49.603 185.311 49.7636 184.967 49.8545C184.623 49.9515 184.175 50 183.624 50ZM183.737 47.5455C184.226 47.5455 184.571 47.4939 184.771 47.3909C184.97 47.2879 185.07 47.0939 185.07 46.8091V44.8182C185.07 44.6182 185.032 44.4667 184.957 44.3636C184.888 44.2606 184.757 44.1879 184.564 44.1455C184.371 44.097 184.089 44.0727 183.717 44.0727C183.366 44.0727 183.1 44.0939 182.921 44.1364C182.749 44.1788 182.629 44.2545 182.56 44.3636C182.498 44.4667 182.467 44.6182 182.467 44.8182V46.8091C182.467 47.0152 182.501 47.1697 182.57 47.2727C182.639 47.3758 182.763 47.4485 182.942 47.4909C183.121 47.5273 183.386 47.5455 183.737 47.5455Z" stroke="#F02801" stroke-width="0.2" mask="url(#path-12-outside-1_367_2133)"/>
</svg>
