<svg width="50" height="50" viewBox="0 0 50 50" fill="none" xmlns="http://www.w3.org/2000/svg">
<path d="M12.439 43.9117C12.439 43.4138 12.0022 43.0098 11.4634 43.0098C10.9246 43.0098 10.4878 43.4138 10.4878 43.9117V45.039C10.4878 45.5373 10.9246 45.9409 11.4634 45.9409C12.0022 45.9409 12.439 45.5373 12.439 45.039V43.9117Z" fill="#F02801"/>
<path fill-rule="evenodd" clip-rule="evenodd" d="M9.26829 1.34016C9.26829 0.577081 8.55659 -0.0961787 7.65151 0.0113414C3.33502 0.524113 0 3.93222 0 8.06189V9.86569C0 13.2304 2.21415 16.1149 5.36585 17.3459V44.3631C5.36585 47.4765 8.09581 50 11.4634 50C14.831 50 17.561 47.4765 17.561 44.3631V17.3459C20.7127 16.1149 22.9268 13.2304 22.9268 9.86569V8.06189C22.9268 3.93222 19.5918 0.524113 15.2753 0.0113414C14.3702 -0.0961787 13.6585 0.577077 13.6585 1.34016V8.51284H9.26829V1.34016ZM1.95122 8.06189C1.95122 5.0398 4.24893 2.51258 7.31707 1.89365V8.96379C7.31707 9.71092 7.97224 10.3166 8.78049 10.3166H14.1463C14.9546 10.3166 15.6098 9.71092 15.6098 8.96379V1.89365C18.6779 2.51258 20.9756 5.0398 20.9756 8.06189V9.86569C20.9756 12.5613 19.1477 14.8646 16.5718 15.7695C16.0206 15.9631 15.6098 16.4551 15.6098 17.0481V44.3631C15.6098 46.4799 13.7534 48.1962 11.4634 48.1962C9.17346 48.1962 7.31707 46.4799 7.31707 44.3631V17.0481C7.31707 16.4551 6.90624 15.9631 6.35507 15.7695C3.77917 14.8646 1.95122 12.5613 1.95122 9.86569V8.06189Z" fill="#F02801"/>
<path d="M35.9028 12.2604C35.6878 12.1599 35.4644 12.1199 35.2577 12.1199H23.6586C23.1197 12.1199 22.683 12.5237 22.683 13.0218C22.683 13.5198 23.1197 13.9237 23.6586 13.9237H35.1312C36.1804 14.4637 38.2883 16.2138 38.7903 19.4626C38.8345 19.7483 39.019 19.9835 39.2701 20.1171C38.1524 21.2481 36.7674 21.7156 36.0319 21.8153H19.5122C18.9734 21.8153 18.5366 22.2191 18.5366 22.7172C18.5366 23.2153 18.9734 23.6191 19.5122 23.6191H36.1583L36.2186 23.6121C37.6877 23.4424 40.6683 22.35 42.124 19.3351H46.5854C47.3937 19.3351 48.0488 19.9407 48.0488 20.6879V20.7828C48.0488 21.4505 47.522 22.0184 46.8078 22.1199L43.3181 22.6162C42.2404 22.7695 41.7161 23.9194 42.3499 24.7397L43.601 26.3592C43.9556 26.8181 44.1464 27.3679 44.1464 27.9319V33.3145C44.1464 34.8089 42.836 36.0202 41.2195 36.0202H19.5122C18.9734 36.0202 18.5366 36.424 18.5366 36.9221C18.5366 37.4202 18.9734 37.824 19.5122 37.824H41.2195C41.8202 37.824 42.3955 37.7237 42.9269 37.5401V39.8533C42.9269 40.3514 42.4901 40.7552 41.9513 40.7552H35.6098C35.071 40.7552 34.6342 40.3514 34.6342 39.8533V39.6278C34.6342 39.1297 34.1974 38.7259 33.6586 38.7259C33.1197 38.7259 32.683 39.1297 32.683 39.6278V39.8533C32.683 41.3476 33.9934 42.5589 35.6098 42.5589H41.9513C43.5678 42.5589 44.8781 41.3476 44.8781 39.8533V36.4712C44.8781 36.4172 44.8727 36.3643 44.863 36.313C45.6308 35.5161 46.0976 34.4657 46.0976 33.3145V27.9319C46.0976 26.9919 45.78 26.0756 45.1888 25.3108L44.3986 24.2876L47.1044 23.9028C48.7703 23.6658 50 22.3408 50 20.7828V20.6879C50 18.9446 48.4713 17.5313 46.5854 17.5313H41.8086C41.2507 17.5313 40.7747 17.819 40.5227 18.2296C39.6555 14.8269 37.2804 12.9045 35.9028 12.2604Z" fill="#F02801"/>
<path d="M42.1162 26.1052C41.7157 25.772 41.0989 25.802 40.7384 26.1722L38.834 28.1284H33.9026C33.3638 28.1284 32.927 28.5322 32.927 29.0303C32.927 29.5284 33.3638 29.9322 33.9026 29.9322H39.0512C39.4661 29.9322 39.8614 29.7695 40.139 29.4844L42.1888 27.3789C42.5492 27.0087 42.5168 26.4384 42.1162 26.1052Z" fill="#F02801"/>
<path d="M34.3903 33.089C34.3903 32.5909 33.9535 32.1871 33.4147 32.1871H19.5122C18.9734 32.1871 18.5366 32.5909 18.5366 33.089C18.5366 33.5871 18.9734 33.9909 19.5122 33.9909H33.4147C33.9535 33.9909 34.3903 33.5871 34.3903 33.089Z" fill="#F02801"/>
</svg>
