<svg width="25" height="18" viewBox="0 0 25 18" fill="none" xmlns="http://www.w3.org/2000/svg">
<path fill-rule="evenodd" clip-rule="evenodd" d="M14.4928 0.000980204C13.5158 -0.0442387 13.5158 1.49034 14.4928 1.44384H15.5372L16.3161 3.48888H12.9761C11.962 3.48888 11.1702 4.23308 10.9173 5.20338C10.7529 5.83517 10.2992 5.81192 9.6087 5.81192H8.39864C7.71125 5.81192 7.37002 5.50367 6.80966 5.16039C6.31544 4.85851 5.99554 4.73431 5.25313 4.73431H2.17684C1.5151 4.73431 0.98101 5.28331 0.98101 5.96669V7.02264C0.98101 7.42898 1.18037 7.78563 1.4607 8.00791C1.25918 8.14547 1.06292 8.29482 0.874686 8.45404C0.67502 8.62473 0.488335 8.81229 0.304741 9.00113C-0.570885 9.90328 0.652457 11.0726 1.31574 10.3281C2.31871 9.20398 3.66754 8.54703 5.14835 8.54703C6.50212 8.54703 7.80243 9.1008 8.76058 10.088C9.39605 10.7443 9.83402 11.5601 10.0739 12.4397C10.132 12.6521 10.1703 12.9021 10.204 13.0992L5.52821 13.1358C4.68998 13.1425 4.68998 14.5439 5.51677 14.5439H7.1073C6.8143 15.3665 6.04963 15.9569 5.14835 15.9569C3.99733 15.9569 3.06205 14.9949 3.06205 13.8074C3.06205 12.6215 3.99733 11.6582 5.14835 11.6582C5.66853 11.6582 6.13988 11.8585 6.50521 12.184H8.8975C8.69598 11.6881 8.40297 11.2302 8.02651 10.8424C7.2637 10.0561 6.22859 9.61349 5.14835 9.61349C2.90133 9.61349 1.07899 11.4926 1.07899 13.8074C1.07899 16.1228 2.90133 18 5.14835 18C7.15088 18 8.81343 16.5075 9.15342 14.5439H12.8714C15.0028 14.5439 15.336 13.9969 15.9507 12.4527L17.8822 7.60189L20.3082 13.9666C20.6509 14.8643 21.9565 14.3347 21.6137 13.4377L20.9328 11.6582C22.0838 11.6598 23.0154 12.6215 23.0154 13.8074C23.0154 14.9949 22.0804 15.9569 20.9294 15.9569C19.7768 15.9569 18.8431 14.9949 18.8431 13.8074C18.8431 13.5472 18.8882 13.3001 18.9701 13.0696L18.1022 10.7991C17.3379 11.5601 16.8597 12.625 16.8597 13.8074C16.8597 16.1228 18.6821 18 20.9291 18C23.1761 18 25 16.1228 25 13.8074C25 12.6967 24.5704 11.6299 23.8073 10.8424C23.0429 10.0561 22.0078 9.61349 20.9291 9.61349C20.6732 9.61349 20.4219 9.64183 20.1786 9.68833L19.0842 6.82266H19.6109C20.145 6.82266 20.4636 6.66344 20.4636 6.14406V4.16653C20.4636 3.64779 20.1446 3.48856 19.6109 3.48856H19.2869C18.7869 3.48856 18.3436 3.72358 18.0491 4.09074L16.6666 0.45699C16.5364 0.114982 16.2753 0.000980204 16.0132 0.000980204H14.4928Z" fill="#FE8900"/>
</svg>
