<svg width="25" height="17" viewBox="0 0 25 17" fill="none" xmlns="http://www.w3.org/2000/svg">
<g clip-path="url(#clip0_296_1187)">
<path d="M21.0938 3.8125H20.3125C19.8813 3.8125 19.5312 4.1625 19.5312 4.59375V6.9375H17.1875V5.375C17.1875 4.51172 16.4883 3.8125 15.625 3.8125H12.5V2.25H15.625C16.0562 2.25 16.4062 1.9 16.4062 1.46875V0.6875C16.4062 0.25625 16.0562 -0.09375 15.625 -0.09375H7.03125C6.6 -0.09375 6.25 0.25625 6.25 0.6875V1.46875C6.25 1.9 6.6 2.25 7.03125 2.25H10.1562V3.8125H7.03125C6.16797 3.8125 5.46875 4.51172 5.46875 5.375V8.5H3.90625V6.15625C3.90625 5.725 3.55625 5.375 3.125 5.375H2.34375C1.9125 5.375 1.5625 5.725 1.5625 6.15625V13.1875C1.5625 13.6187 1.9125 13.9688 2.34375 13.9688H3.125C3.55625 13.9688 3.90625 13.6187 3.90625 13.1875V10.8438H5.46875V12.8687C5.46875 13.3195 5.66328 13.7477 6.00234 14.0445L8.15234 15.9258C8.43672 16.175 8.80234 16.3125 9.18047 16.3125H15.625C16.4883 16.3125 17.1875 15.6133 17.1875 14.75V12.4062H19.5312V14.75C19.5312 15.1812 19.8813 15.5312 20.3125 15.5312H21.0938C22.3883 15.5312 23.4375 14.482 23.4375 13.1875V6.15625C23.4375 4.86172 22.3883 3.8125 21.0938 3.8125ZM13.9313 10.4961L12.3687 12.8398C12.1289 13.1992 11.7188 13.1875 11.7188 13.1875V10.8438H10.1562C9.86797 10.8438 9.60312 10.6852 9.46719 10.4312C9.33125 10.1773 9.34609 9.86875 9.50625 9.62969L11.0688 7.28594C11.3078 6.92578 11.7188 6.9375 11.7188 6.9375V9.28125H13.2812C13.5695 9.28125 13.8344 9.43984 13.9703 9.69375C14.1062 9.94766 14.0914 10.2563 13.9313 10.4961Z" fill="#FE8900"/>
</g>
<defs>
<clipPath id="clip0_296_1187">
<rect width="25" height="17" fill="white"/>
</clipPath>
</defs>
</svg>
