<svg width="14" height="14" viewBox="0 0 14 14" fill="none" xmlns="http://www.w3.org/2000/svg">
<g clip-path="url(#clip0_583_1892)">
<path d="M7 4.26562C5.49224 4.26562 4.26562 5.49227 4.26562 7C4.26562 8.50773 5.49224 9.73438 7 9.73438C8.50776 9.73438 9.73438 8.50773 9.73438 7C9.73438 5.49227 8.50776 4.26562 7 4.26562ZM7 8.64062C6.09536 8.64062 5.35938 7.90464 5.35938 7C5.35938 6.09536 6.09536 5.35938 7 5.35938C7.90464 5.35938 8.64062 6.09536 8.64062 7C8.64062 7.90464 7.90464 8.64062 7 8.64062Z" fill="#121212"/>
<path d="M7 7.54688C7.30203 7.54688 7.54688 7.30203 7.54688 7C7.54688 6.69797 7.30203 6.45312 7 6.45312C6.69797 6.45312 6.45312 6.69797 6.45312 7C6.45312 7.30203 6.69797 7.54688 7 7.54688Z" fill="#121212"/>
<path d="M13.4531 5.35938C13.1511 5.35938 12.9062 5.60421 12.9062 5.90625V6.45312H11.8913C11.7861 5.50523 11.4106 4.63777 10.8438 3.92963L11.6404 3.13299L12.0271 3.51971C12.1339 3.62649 12.2738 3.67989 12.4138 3.67989C12.5538 3.67989 12.6937 3.62649 12.8005 3.51971C13.0141 3.30613 13.0141 2.95988 12.8005 2.74632L12.0275 1.97334C12.0274 1.97321 12.0273 1.97307 12.0271 1.97293C12.027 1.9728 12.0268 1.97269 12.0267 1.97255L11.2537 1.19952C11.0401 0.985934 10.6938 0.985934 10.4803 1.19952C10.2667 1.4131 10.2667 1.75935 10.4803 1.97291L10.867 2.3596L10.0704 3.15623C9.36223 2.5894 8.49477 2.21394 7.54688 2.10867V1.09375H8.09375C8.39579 1.09375 8.64062 0.848914 8.64062 0.546875C8.64062 0.244836 8.39579 0 8.09375 0H5.90625C5.60421 0 5.35938 0.244836 5.35938 0.546875C5.35938 0.848914 5.60421 1.09375 5.90625 1.09375H6.45312V2.10867C5.50523 2.21394 4.63777 2.5894 3.92963 3.15623L3.13299 2.3596L3.51971 1.97291C3.7333 1.75935 3.73332 1.41307 3.51974 1.19952C3.30613 0.985961 2.95988 0.985961 2.74635 1.19952L1.97332 1.97255C1.97318 1.97269 1.97304 1.9728 1.97291 1.97293C1.97277 1.97307 1.97266 1.97321 1.97252 1.97334L1.19952 2.74632C0.985934 2.95988 0.985906 3.30616 1.19949 3.51971C1.30629 3.62652 1.44621 3.67989 1.58621 3.67989C1.72616 3.67989 1.86613 3.62649 1.97291 3.51971L2.35963 3.13299L3.15626 3.92963C2.58943 4.63777 2.21394 5.50523 2.10867 6.45312H1.09375V5.90625C1.09375 5.60421 0.848914 5.35938 0.546875 5.35938C0.244836 5.35938 0 5.60421 0 5.90625V8.09375C0 8.39579 0.244836 8.64062 0.546875 8.64062C0.848914 8.64062 1.09375 8.39579 1.09375 8.09375V7.54688H2.10867C2.21394 8.49477 2.58943 9.36223 3.15623 10.0704L2.3596 10.867L1.97288 10.4803C1.7593 10.2667 1.41304 10.2667 1.19949 10.4803C0.985934 10.6939 0.985934 11.0401 1.19952 11.2537L1.97252 12.0267C1.97266 12.0268 1.97277 12.0269 1.97291 12.0271C1.97304 12.0272 1.97318 12.0273 1.97332 12.0274L2.74635 12.8005C2.85313 12.9073 2.99307 12.9607 3.13305 12.9607C3.27302 12.9607 3.41297 12.9073 3.51977 12.8005C3.73335 12.5869 3.73332 12.2406 3.51974 12.0271L3.13302 11.6404L3.92965 10.8438C4.6378 11.4106 5.50525 11.7861 6.45315 11.8913V12.9062H5.90628C5.60424 12.9062 5.3594 13.1511 5.3594 13.4531C5.3594 13.7552 5.60424 14 5.90628 14H8.09378C8.39582 14 8.64065 13.7552 8.64065 13.4531C8.64065 13.1511 8.39582 12.9062 8.09378 12.9062H7.5469V11.8913C8.4948 11.7861 9.36225 11.4106 10.0704 10.8438L10.867 11.6404L10.4803 12.0271C10.2667 12.2406 10.2667 12.5869 10.4803 12.8005C10.5871 12.9073 10.727 12.9607 10.867 12.9607C11.007 12.9607 11.1469 12.9073 11.2537 12.8005L12.0267 12.0274C12.0269 12.0273 12.027 12.0272 12.0271 12.0271C12.0273 12.0269 12.0274 12.0268 12.0275 12.0267L12.8005 11.2537C13.0141 11.0401 13.0141 10.6938 12.8006 10.4803C12.587 10.2667 12.2407 10.2667 12.0272 10.4803L11.6405 10.867L10.8438 10.0704C11.4106 9.36223 11.7861 8.49477 11.8914 7.54688H12.9062V8.09375C12.9062 8.39579 13.1511 8.64062 13.4531 8.64062C13.7552 8.64062 14 8.39579 14 8.09375V5.90625C14 5.60421 13.7552 5.35938 13.4531 5.35938ZM7 10.8281C4.88917 10.8281 3.17188 9.11083 3.17188 7C3.17188 4.88917 4.88917 3.17188 7 3.17188C9.11083 3.17188 10.8281 4.88917 10.8281 7C10.8281 9.11083 9.11083 10.8281 7 10.8281Z" fill="#121212"/>
</g>
<defs>
<clipPath id="clip0_583_1892">
<rect width="14" height="14" fill="white"/>
</clipPath>
</defs>
</svg>
