<svg width="16" height="14" viewBox="0 0 16 14" fill="none" xmlns="http://www.w3.org/2000/svg">
<path fill-rule="evenodd" clip-rule="evenodd" d="M0.158055 0.0387124C-0.0248964 0.126482 -0.0558521 0.368633 0.101146 0.483432C0.158305 0.525195 0.251703 0.541557 0.513044 0.555507C0.698965 0.565418 0.914373 0.592156 0.991762 0.614941C1.21771 0.681408 1.39825 0.754297 1.39825 0.77903C1.39825 0.791672 1.30576 0.904668 1.19272 1.03019C0.920595 1.3323 0.866563 1.4339 0.867189 1.64231C0.868064 1.9239 0.915686 1.97403 1.81853 2.64373C2.67378 3.27814 2.77084 3.33098 3.02345 3.29947C3.21606 3.27547 3.35239 3.1779 3.61102 2.87905L3.84966 2.60327L3.91072 2.67192C4.01094 2.7846 4.20067 3.19023 4.26233 3.42357C4.33866 3.71254 4.3391 4.29726 4.26324 4.65613C4.15211 5.1819 3.82523 5.95988 3.51396 6.43948C3.45452 6.53103 3.32125 6.76289 3.21778 6.9547C2.53129 8.22748 2.21035 9.4276 2.34215 10.2294C2.42394 10.7271 2.56365 10.9907 2.91373 11.3082C3.29514 11.6541 3.88977 11.8375 4.56201 11.8165C4.91706 11.8055 4.93457 11.8018 5.19153 11.6834C5.75199 11.4253 6.04572 10.9646 6.16833 10.1516C6.25466 9.57908 6.20425 8.93359 6.0113 8.14076C5.87653 7.58694 5.9244 7.1698 6.17342 6.72801C6.37748 6.36598 6.81111 6.01156 7.21003 5.88075L7.33923 5.83837V8.84108V11.8438L7.1393 11.8587C6.79304 11.8846 6.57366 12.0517 6.49386 12.3506C6.47075 12.4371 6.46159 12.6789 6.4685 13.019C6.47916 13.5422 6.48095 13.5545 6.56706 13.6907C6.61531 13.7669 6.71277 13.865 6.78366 13.9086L6.91254 13.9879L11.183 13.9959C15.9505 14.0048 15.6109 14.0192 15.8245 13.7993C15.8846 13.7375 15.9488 13.6369 15.967 13.5758C16.0121 13.4249 16.0105 12.4112 15.965 12.2848C15.8734 12.0307 15.6507 11.8831 15.3217 11.8585L15.1257 11.8439L15.1175 6.20238L15.1094 0.560884L15.0312 0.43138C14.9882 0.360176 14.8921 0.262089 14.8175 0.213409L14.6819 0.124942H11.2321H7.78237L7.64679 0.213409C7.57221 0.262089 7.47603 0.360176 7.43304 0.43138L7.35487 0.560884L7.34633 2.92012L7.33782 5.27935L7.17435 5.32847C6.85467 5.42455 6.46922 5.63659 6.21448 5.85654C5.49118 6.4811 5.2315 7.33996 5.47423 8.3049C5.60684 8.83225 5.65968 9.2815 5.64183 9.7302C5.60253 10.7184 5.2965 11.1852 4.61104 11.3026C4.42981 11.3336 4.37534 11.3305 4.1145 11.2744C3.75644 11.1974 3.54151 11.1075 3.36897 10.9626C3.06041 10.7035 2.93515 10.4274 2.90867 9.94817C2.8673 9.2001 3.17726 8.19604 3.7834 7.11455C4.38734 6.03702 4.52067 5.77281 4.658 5.3813C4.85806 4.81115 4.91615 4.49006 4.91497 3.96123C4.91393 3.5048 4.88379 3.31735 4.75653 2.97568C4.59565 2.54381 4.39988 2.29248 3.80807 1.75804C2.84269 0.886242 1.91046 0.306933 1.13247 0.0953558C0.768287 -0.00366121 0.302796 -0.0307477 0.158055 0.0387124ZM14.5247 0.668417C14.5793 0.71916 14.5793 11.7662 14.5247 11.8169C14.496 11.8436 13.718 11.8518 11.2136 11.8518C8.25736 11.8518 7.93818 11.8473 7.92104 11.8058C7.9106 11.7805 7.90206 9.27212 7.90206 6.23156C7.90206 1.97055 7.91066 0.6953 7.93958 0.668417C7.99402 0.617818 14.4703 0.617818 14.5247 0.668417ZM2.71177 1.62025C3.08139 1.8942 3.40092 2.14091 3.42187 2.16846C3.45452 2.21136 3.42756 2.25693 3.23426 2.48563C3.11013 2.63251 2.98402 2.76065 2.95401 2.77036C2.8879 2.79175 1.42952 1.72889 1.42952 1.65934C1.42952 1.60924 1.84889 1.10956 1.9073 1.09006C1.96649 1.07033 1.99679 1.09026 2.71177 1.62025ZM9.01209 1.53147C8.9433 1.56105 8.84905 1.6229 8.80268 1.66887C8.61598 1.85395 8.62117 1.78946 8.62192 3.90944C8.62258 5.73659 8.62598 5.85712 8.68052 5.96657C8.71235 6.03051 8.77889 6.1181 8.82835 6.1612C9.02747 6.33474 8.95809 6.32991 11.239 6.32921C13.2048 6.3286 13.3344 6.32544 13.4522 6.27475C13.521 6.24516 13.6152 6.18332 13.6616 6.13734C13.8482 5.95239 13.843 6.01589 13.843 3.90311C13.843 1.79033 13.8482 1.85383 13.6616 1.66887C13.6152 1.6229 13.521 1.56105 13.4522 1.53147C13.3344 1.48078 13.2054 1.47764 11.2321 1.47764C9.25886 1.47764 9.1299 1.48078 9.01209 1.53147ZM13.2612 2.04547C13.2717 2.07076 13.2802 2.91169 13.2802 3.91421C13.2802 5.29315 13.2711 5.74546 13.2427 5.77185C13.1885 5.82224 9.2758 5.82224 9.22158 5.77185C9.19319 5.74546 9.18406 5.29315 9.18406 3.91421C9.18406 2.91169 9.1926 2.07076 9.20304 2.04547C9.22008 2.0042 9.42802 1.99949 11.2321 1.99949C13.0363 1.99949 13.2442 2.0042 13.2612 2.04547ZM9.63745 7.34545C9.4434 7.41927 9.39147 7.65416 9.54249 7.77491L9.62532 7.84112H11.2441H12.8628L12.9285 7.77573C13.0763 7.6285 13.0308 7.41241 12.8387 7.35019C12.721 7.31206 9.73692 7.30764 9.63745 7.34545ZM15.3994 12.3993C15.4298 12.4172 15.4372 12.5464 15.4307 12.9438L15.4221 13.4648L11.2824 13.4722C8.24898 13.4776 7.13133 13.4708 7.10025 13.4468C7.04296 13.4026 7.03852 12.4626 7.09534 12.4098C7.12414 12.383 8.08808 12.375 11.2462 12.3754C13.5086 12.3756 15.3775 12.3864 15.3994 12.3993Z" fill="#121212"/>
</svg>
