<svg width="14" height="14" viewBox="0 0 14 14" fill="none" xmlns="http://www.w3.org/2000/svg">
<g clip-path="url(#clip0_583_1898)">
<path d="M12.7482 1.83545L11.5815 0.668773C11.4676 0.554832 11.283 0.554832 11.1691 0.668773C11.0552 0.782715 11.0552 0.967285 11.1691 1.0812L12.1296 2.04165L11.1691 3.0021C11.1144 3.05679 11.0837 3.13083 11.0837 3.20832V4.08332C11.0837 4.72678 11.6069 5.25 12.2503 5.25V10.2083C12.2503 10.3692 12.1196 10.5 11.9587 10.5C11.7977 10.5 11.667 10.3693 11.667 10.2083V9.625C11.667 9.14249 11.2745 8.75 10.792 8.75H10.5003V1.16668C10.5003 0.523223 9.97712 0 9.33367 0H3.50034C2.85692 0 2.33367 0.523223 2.33367 1.16668V11.6667C1.69024 11.6667 1.16699 12.1899 1.16699 12.8334V13.7084C1.16699 13.8696 1.29745 14 1.45867 14H11.3753C11.5366 14 11.667 13.8696 11.667 13.7084V12.8334C11.667 12.1899 11.1438 11.6667 10.5003 11.6667V9.33335H10.792C10.9529 9.33335 11.0837 9.46408 11.0837 9.62503V10.2084C11.0837 10.6909 11.4762 11.0834 11.9587 11.0834C12.4412 11.0834 12.8337 10.6909 12.8337 10.2084V2.04168C12.8337 1.96418 12.8029 1.89014 12.7482 1.83545ZM9.33367 4.96374C9.33367 5.12496 9.20321 5.25541 9.04199 5.25541H3.79199C3.63077 5.25541 3.50032 5.12496 3.50032 4.96374V1.45832C3.50032 1.29711 3.63077 1.16665 3.79199 1.16665H9.04199C9.20321 1.16665 9.33367 1.29711 9.33367 1.45832V4.96374Z" fill="#121212"/>
</g>
<defs>
<clipPath id="clip0_583_1898">
<rect width="14" height="14" fill="white"/>
</clipPath>
</defs>
</svg>
