<svg width="16" height="14" viewBox="0 0 16 14" fill="none" xmlns="http://www.w3.org/2000/svg">
<path fill-rule="evenodd" clip-rule="evenodd" d="M7.05453 0.0434392C4.01099 0.418236 1.42969 2.53763 0.432124 5.48078C-0.159176 7.22538 -0.142937 9.2207 0.47649 10.9333C0.84008 11.9385 1.60377 13.1654 2.28211 13.8343C2.42863 13.9788 2.5723 14.0269 2.73487 13.986C2.79172 13.9717 3.06233 13.7212 3.50398 13.274C4.24048 12.5282 4.28795 12.459 4.21573 12.2364C4.14997 12.0336 3.97563 11.9361 3.75437 11.9783C3.6586 11.9966 3.54972 12.0897 3.12859 12.5131C2.82094 12.8225 2.60785 13.0139 2.59123 12.9958C2.34766 12.7305 1.94768 12.1608 1.72094 11.7563C1.22789 10.8765 0.885634 9.76785 0.818085 8.83151L0.795996 8.52556L1.51207 8.52544C2.1671 8.52534 2.23668 8.52002 2.32829 8.46318C2.43858 8.39481 2.52537 8.251 2.52537 8.13673C2.52537 8.01797 2.4194 7.85071 2.30442 7.78797C2.21028 7.7366 2.11601 7.72982 1.49718 7.72982H0.796497L0.818585 7.43539C0.92199 6.05617 1.53344 4.5637 2.45842 3.43278C2.53717 3.3365 2.60609 3.25122 2.61154 3.24333C2.61701 3.2354 2.84272 3.45229 3.11314 3.7253C3.38355 3.99833 3.63554 4.23757 3.67312 4.25695C3.71072 4.27634 3.7982 4.29219 3.86757 4.29219C4.02153 4.29219 4.19712 4.15188 4.22581 4.00594C4.26827 3.78991 4.22803 3.72698 3.6968 3.17814L3.18845 2.65295L3.43418 2.45162C4.16489 1.85294 4.89592 1.4457 5.75814 1.15707C6.20552 1.00728 6.80013 0.873945 7.17154 0.840109C7.292 0.829128 7.43633 0.812927 7.49224 0.804078L7.59392 0.788004V1.45392C7.59392 1.82015 7.60306 2.16621 7.6142 2.22293C7.62534 2.27962 7.68212 2.37453 7.74038 2.4338C7.83211 2.52713 7.86697 2.54154 8.00066 2.54154C8.13435 2.54154 8.1692 2.52713 8.26094 2.4338C8.31919 2.37453 8.37598 2.27962 8.38712 2.22293C8.39826 2.16621 8.40739 1.82015 8.40739 1.45392V0.788004L8.50908 0.804078C8.56502 0.812927 8.70932 0.829128 8.82977 0.840109C9.20118 0.873945 9.7958 1.00728 10.2432 1.15707C11.1054 1.4457 11.8364 1.85294 12.5671 2.45162L12.8129 2.65295L12.3045 3.17814C11.7733 3.72698 11.7331 3.78991 11.7755 4.00594C11.8042 4.15188 11.9798 4.29219 12.1337 4.29219C12.2031 4.29219 12.2906 4.27634 12.3282 4.25695C12.3658 4.23757 12.6178 3.99833 12.8882 3.7253C13.1586 3.45229 13.3843 3.2354 13.3898 3.24333C13.3952 3.25122 13.4641 3.3365 13.5429 3.43278C14.4679 4.5637 15.0793 6.05617 15.1827 7.43539L15.2048 7.72982H14.5041C13.717 7.72982 13.6425 7.74704 13.5331 7.9546C13.4598 8.0937 13.461 8.19775 13.5373 8.32507C13.6501 8.51328 13.7087 8.52556 14.4955 8.52556H15.2053L15.1832 8.83151C15.1157 9.76785 14.7734 10.8765 14.2804 11.7563C14.0536 12.1608 13.6537 12.7305 13.4101 12.9958C13.3935 13.0139 13.1804 12.8225 12.8727 12.5131C12.3341 11.9715 12.2664 11.9278 12.0431 11.9777C11.8651 12.0175 11.7384 12.2334 11.7739 12.4366C11.7908 12.5333 11.9012 12.662 12.4551 13.2308C12.8187 13.6041 13.1542 13.93 13.2006 13.9549C13.3087 14.0129 13.4553 14.0128 13.5659 13.9546C13.7551 13.8551 14.3585 13.1254 14.7258 12.552C14.9857 12.1464 15.3613 11.3854 15.5248 10.9333C16.2237 9.00107 16.1476 6.70187 15.3233 4.84033C14.1461 2.18206 11.7357 0.378162 8.91181 0.0421023C8.43546 -0.0145867 7.52037 -0.0139183 7.05453 0.0434392ZM9.5735 3.51882C9.38509 3.55584 9.32477 3.67571 8.73563 5.18342L8.16973 6.63168L7.92094 6.65177C7.19319 6.7105 6.65915 7.21564 6.5554 7.94336C6.5254 8.15373 6.52821 8.22856 6.57386 8.43669C6.64182 8.74634 6.78649 9.04289 6.95044 9.2086C7.292 9.55376 7.94703 9.7012 8.44453 9.54488C9.14262 9.32554 9.58943 8.54969 9.4303 7.83326C9.36257 7.52836 9.21846 7.23836 9.04528 7.05856L8.90461 6.91249L9.48687 5.42928C10.0446 4.00852 10.0677 3.94085 10.0364 3.8226C10.0184 3.75474 9.97192 3.66886 9.93299 3.63175C9.86548 3.56742 9.71014 3.49157 9.66468 3.50077C9.65288 3.50316 9.61186 3.51127 9.5735 3.51882ZM8.35787 7.53756C8.55163 7.63299 8.65691 7.83969 8.65738 8.12559C8.65825 8.66186 8.16135 8.96905 7.66973 8.73618C7.4556 8.63474 7.37088 8.48912 7.35098 8.18839C7.33367 7.92726 7.37795 7.80102 7.54427 7.637C7.75145 7.43272 8.06674 7.39417 8.35787 7.53756Z" fill="#121212"/>
</svg>
