<svg width="20" height="20" viewBox="0 0 20 20" fill="none" xmlns="http://www.w3.org/2000/svg">
<path d="M4.5 6.65625H17.4062H18C18.2187 6.65625 18.4375 6.71875 18.6562 6.8125V5.375C18.6562 3.96875 17.5312 2.8125 16.125 2.75V4V4.1875C16.125 4.53125 15.8438 4.8125 15.5 4.8125C15.1562 4.8125 14.875 4.5 14.875 4.1875C14.875 4.125 14.875 4.0625 14.875 4C14.875 3.59375 14.875 3.1875 14.875 2.75H7.15625V4V4.125C7.15625 4.46875 6.875 4.75 6.53125 4.75C6.1875 4.75 5.90625 4.4375 5.90625 4.125C5.90625 4.09375 5.90625 4.03125 5.90625 4C5.90625 3.96875 5.90625 3.96875 5.90625 3.9375C5.90625 3.53125 5.90625 3.15625 5.90625 2.75C4.46875 2.75 3.28125 3.9375 3.28125 5.375V7.46875C3.46875 6.96875 3.9375 6.65625 4.5 6.65625Z" fill="#FE8900"/>
<path d="M17.4062 14.9688C16.9688 15.8438 16.0938 16.375 15.1562 16.375H4.84375H3.4375C3.8125 17.4063 4.78125 18.125 5.90625 18.125H16.0312C17.4688 18.125 18.6562 16.9375 18.6562 15.5V11.7188C18.5625 12.0625 18.4375 12.4375 18.3125 12.7813C18.0625 13.5 17.75 14.25 17.4062 14.9688Z" fill="#FE8900"/>
<path d="M18 7.90625H4.50001C4.43751 7.90625 4.40626 7.9375 4.40626 8C4.21876 9.53125 3.84376 11.0313 3.34376 12.4688C3.09376 13.125 2.81251 13.8125 2.50001 14.4688C2.37501 14.75 2.56251 15.125 2.90626 15.125H15.1875C15.6563 15.125 16.0938 14.8438 16.3125 14.4375C16.625 13.7813 16.9063 13.0625 17.1563 12.375C17.6563 10.9687 17.9688 9.5 18.125 8.03125C18.125 8 18.125 7.96875 18.0938 7.9375C18.0625 7.90625 18.0313 7.90625 18 7.90625ZM13.25 10.4375C12.4063 11.2813 11.5625 12.125 10.6875 13C10.4375 13.25 10.0313 13.25 9.81251 13C9.21876 12.4062 8.62501 11.8125 8.03126 11.2188C7.46876 10.6563 8.34376 9.75 8.90626 10.3437C9.34376 10.7812 9.81251 11.25 10.25 11.6875C10.9688 10.9688 11.6563 10.2813 12.375 9.5625C12.9375 9 13.8125 9.875 13.25 10.4375Z" fill="#FE8900"/>
</svg>
