<svg width="18" height="17" viewBox="0 0 18 17" fill="none" xmlns="http://www.w3.org/2000/svg">
<path d="M8.47265 0.23584C6.43984 0.352523 4.53353 1.14245 3.01193 2.49853L5.36515 4.85175C6.25074 4.11449 7.32603 3.66895 8.47265 3.56419V0.23584Z" fill="#FE8900"/>
<path d="M4.61915 5.59732L2.26597 3.24414C0.908729 4.76532 0.117819 6.67177 0.000396729 8.70507H3.32889C3.43435 7.55823 3.88084 6.48284 4.61915 5.59732Z" fill="#FE8900"/>
<path d="M14.6711 8.70507H17.9996C17.8822 6.67177 17.0913 4.76532 15.734 3.24414L13.3809 5.59732C14.1192 6.4828 14.5657 7.55823 14.6711 8.70507Z" fill="#FE8900"/>
<path d="M14.6704 9.75977C14.5965 10.572 14.3647 11.2494 14.0905 11.7929C14.358 12.2053 14.5809 12.5538 14.7282 12.7853C15.1294 13.4157 15.0406 14.2249 14.5122 14.7533C14.3839 14.8816 14.2374 14.9849 14.0786 15.0613L14.6267 15.6094C14.7298 15.7126 14.865 15.7641 15.0002 15.7641C15.1354 15.7641 15.2706 15.7126 15.3737 15.6094C16.9531 14.0302 17.874 11.9695 18 9.75977H14.6704Z" fill="#FE8900"/>
<path d="M3.32965 9.75977H0C0.126035 11.9695 1.04695 14.0302 2.62628 15.6094C2.72943 15.7126 2.8646 15.7642 2.99978 15.7642C3.13495 15.7642 3.27016 15.7126 3.37331 15.6094L4.97334 14.0093C5.17961 13.803 5.17961 13.4685 4.97334 13.2622C4.55579 12.8447 3.50402 11.6757 3.32965 9.75977Z" fill="#FE8900"/>
<path d="M14.9881 2.49853C13.4665 1.14241 11.5601 0.352523 9.52734 0.23584V3.56419C10.6739 3.66895 11.7493 4.11449 12.6348 4.85175L14.9881 2.49853Z" fill="#FE8900"/>
<path d="M10.1718 8.06951C9.5257 7.42344 8.47446 7.42344 7.82839 8.06951C7.18232 8.71558 7.18232 9.76682 7.82839 10.4129C8.64458 11.2291 12.6557 13.7902 13.1104 14.0795C13.319 14.2123 13.5917 14.1823 13.7665 14.0075C13.9412 13.8328 13.9712 13.5601 13.8385 13.3515C13.5491 12.8969 10.988 8.88566 10.1718 8.06951Z" fill="#FE8900"/>
</svg>
