<svg width="18" height="18" viewBox="0 0 18 18" fill="none" xmlns="http://www.w3.org/2000/svg">
<g clip-path="url(#clip0_294_1154)">
<path d="M17.1547 8.56509L14.9929 7.48877L10.2399 9.85533C9.85546 10.0468 9.42369 10.148 8.99121 10.148C8.55873 10.148 8.12696 10.0468 7.74248 9.85533L2.98948 7.48877L0.827682 8.56509C0.659798 8.64872 0.553711 8.82011 0.553711 9.00766C0.553711 9.19532 0.659798 9.36661 0.827682 9.45024L8.1832 13.1126C8.43616 13.2387 8.71363 13.3016 8.99121 13.3016C9.26868 13.3016 9.54626 13.2387 9.79922 13.1128L17.1547 9.45024C17.3226 9.36661 17.4287 9.19532 17.4287 9.00766C17.4287 8.82011 17.3226 8.64872 17.1547 8.56509Z" fill="#FE8900"/>
<path d="M17.1547 12.7087L14.9929 11.6323L10.2399 13.999C9.85546 14.1905 9.42369 14.2915 8.99121 14.2915C8.55873 14.2915 8.12696 14.1905 7.74248 13.999L2.98948 11.6323L0.827682 12.7087C0.659798 12.7923 0.553711 12.9638 0.553711 13.1512C0.553711 13.3388 0.659798 13.5102 0.827682 13.5939L8.1832 17.2563C8.43616 17.3822 8.71363 17.4453 8.99121 17.4453C9.26868 17.4452 9.54626 17.3822 9.79922 17.2563L17.1547 13.5939C17.3226 13.5102 17.4287 13.3388 17.4287 13.1512C17.4287 12.9637 17.3226 12.7923 17.1547 12.7087Z" fill="#FE8900"/>
<path d="M0.827682 5.30788L8.1832 8.97035C8.43616 9.09621 8.71363 9.15934 8.99121 9.15934C9.26879 9.15934 9.54626 9.09621 9.79922 8.97035L17.1547 5.30788C17.3226 5.22435 17.4287 5.05286 17.4287 4.86541C17.4287 4.67775 17.3226 4.50626 17.1547 4.42273L9.79922 0.76016C9.2932 0.508332 8.68922 0.508332 8.1832 0.76016L0.827682 4.42273C0.659798 4.50626 0.553711 4.67775 0.553711 4.86541C0.553711 5.05286 0.659798 5.22435 0.827682 5.30788Z" fill="#FE8900"/>
</g>
<defs>
<clipPath id="clip0_294_1154">
<rect width="18" height="18" fill="white"/>
</clipPath>
</defs>
</svg>
