<svg width="14" height="14" viewBox="0 0 14 14" fill="none" xmlns="http://www.w3.org/2000/svg">
<path d="M2.10583 10.3838C2.5848 10.2077 3.09423 10.1293 3.60401 10.1533C4.11378 10.1774 4.61357 10.3034 5.07383 10.5238C5.10133 10.5372 5.13138 10.5445 5.16194 10.5452C5.1925 10.546 5.22287 10.5402 5.251 10.5282C5.27959 10.5169 5.30537 10.4995 5.32653 10.4773C5.34769 10.455 5.36371 10.4283 5.37348 10.3992C5.63929 9.65735 5.82337 8.88874 5.92247 8.107C6.15786 6.11639 5.86361 4.09893 5.06946 2.25848C5.04901 2.21355 5.01404 2.1768 4.97018 2.15415C4.92631 2.13151 4.87611 2.12427 4.82763 2.13361C4.77916 2.14296 4.73524 2.16833 4.70293 2.20566C4.67063 2.24299 4.65182 2.2901 4.64953 2.33941C4.59262 5.144 3.61245 7.85155 1.86086 10.0426C1.83236 10.0801 1.81661 10.1256 1.81594 10.1726C1.81527 10.2197 1.82971 10.2657 1.85714 10.3039C1.88456 10.3421 1.92353 10.3705 1.9683 10.3849C2.01307 10.3993 2.06128 10.3989 2.10583 10.3838Z" fill="#121212"/>
<path d="M12.8187 10.9483C12.7972 10.9231 12.7703 10.9031 12.74 10.8898C12.7097 10.8766 12.6768 10.8704 12.6437 10.8718L1.34033 11.318C1.30393 11.3197 1.26852 11.3304 1.23724 11.3491C1.20595 11.3678 1.17976 11.3939 1.16098 11.4251C1.14191 11.4565 1.13111 11.4923 1.12958 11.529C1.12805 11.5657 1.13584 11.6022 1.15223 11.6351L1.83682 13.0043C1.85522 13.0406 1.88338 13.0712 1.91815 13.0924C1.95291 13.1136 1.99291 13.1248 2.03366 13.1246H10.5265C11.0188 13.1073 11.495 12.9453 11.8957 12.6587C12.3955 12.287 12.7412 11.7444 12.8668 11.1342C12.8732 11.1016 12.8722 11.068 12.8639 11.0358C12.8556 11.0036 12.8401 10.9737 12.8187 10.9483Z" fill="#121212"/>
<path d="M6.37286 4.43713C6.83956 6.38643 6.72782 8.4295 6.05134 10.3163C6.03793 10.3575 6.03693 10.4017 6.04847 10.4434C6.06 10.4851 6.08355 10.5225 6.1162 10.551C6.14884 10.5794 6.18913 10.5976 6.23205 10.6034C6.27497 10.6091 6.31862 10.602 6.35757 10.5831C7.42343 10.0412 8.59621 9.74239 9.79144 9.70825C10.5537 9.68585 11.3153 9.77276 12.053 9.96634C12.0872 9.97484 12.1229 9.97504 12.1571 9.96694C12.1914 9.95884 12.2232 9.94267 12.25 9.91977C12.2767 9.89687 12.2976 9.86791 12.3109 9.8353C12.3242 9.80269 12.3295 9.76738 12.3264 9.73231C11.9503 5.48418 8.70775 1.97895 5.18515 0.887405C5.14195 0.874123 5.09571 0.874461 5.05271 0.888375C5.00971 0.902289 4.97204 0.929102 4.94481 0.965173C4.91759 1.00124 4.90212 1.04482 4.90053 1.08999C4.89893 1.13515 4.91128 1.17971 4.93589 1.21762C5.60152 2.19736 6.08805 3.28742 6.37286 4.43713Z" fill="#121212"/>
</svg>
