<svg width="14" height="14" viewBox="0 0 14 14" fill="none" xmlns="http://www.w3.org/2000/svg">
<path fill-rule="evenodd" clip-rule="evenodd" d="M6.33315 0.0300122C4.18127 0.233738 2.22315 1.44838 1.05795 3.30228C-0.27399 5.42147 -0.354364 8.16795 0.851431 10.3608C1.39379 11.3472 2.20311 12.2285 3.13302 12.8454C4.02641 13.438 5.01142 13.8048 6.14152 13.9657C6.46107 14.0112 7.54324 14.0115 7.86616 13.9662C9.59247 13.724 11.0193 12.9815 12.1833 11.7196C13.1377 10.6849 13.7505 9.35882 13.9622 7.86967C14.0161 7.49016 14.0079 6.49365 13.9473 6.0629C13.8877 5.63908 13.7266 4.98739 13.5883 4.61024C13.4649 4.27363 13.1298 3.58627 12.9552 3.3117C12.4184 2.46714 11.6681 1.69809 10.8501 1.15374C10.4862 0.911603 9.77835 0.556848 9.37286 0.413429C8.39557 0.0676804 7.34067 -0.065363 6.33315 0.0300122ZM7.78839 0.753265C8.74909 0.879191 9.70167 1.22965 10.4668 1.73866C11.8658 2.66931 12.855 4.12589 13.1751 5.72671C13.2833 6.26794 13.3087 6.58248 13.2927 7.1843C13.2665 8.16773 13.0854 8.90839 12.6562 9.7867C11.7759 11.5882 10.0623 12.872 8.07148 13.2214C7.64026 13.2971 6.76609 13.326 6.34585 13.2783C5.09538 13.1366 3.91124 12.6366 2.97605 11.8554C1.73885 10.8219 0.960795 9.40175 0.74976 7.79189C0.696734 7.38734 0.695283 6.65166 0.746749 6.2398C1.04831 3.82556 2.70969 1.7933 5.00545 1.03038C5.4206 0.89244 5.79186 0.805962 6.19627 0.753046C6.58626 0.701991 7.39821 0.702101 7.78839 0.753265ZM6.62059 1.41136C6.56789 1.41752 6.40901 1.43606 6.26753 1.45254C4.8345 1.61958 3.41572 2.4522 2.52198 3.65063C2.13133 4.17445 1.77518 4.86721 1.77518 5.10324C1.77518 5.25383 1.87042 5.37754 2.02112 5.42268C2.11909 5.45205 2.15359 5.44384 2.53637 5.30018C3.85178 4.80649 5.2938 4.57117 7.00384 4.57117C8.73965 4.57117 10.2537 4.82376 11.5461 5.32895C11.9096 5.47105 11.9956 5.47037 12.1416 5.32435C12.2738 5.1921 12.2673 5.06113 12.1108 4.70816C11.3489 2.98987 9.7138 1.75013 7.83008 1.46258C7.56638 1.42231 6.80335 1.39001 6.62059 1.41136ZM7.84848 2.17226C9.02118 2.39205 10.0162 2.96439 10.7437 3.83766C10.9549 4.09115 11.177 4.40369 11.1588 4.42184C11.1528 4.42786 10.8838 4.3666 10.561 4.28571C9.92565 4.12649 9.20787 3.99766 8.53685 3.92238C7.99529 3.86166 6.13846 3.85307 5.60771 3.90886C4.78913 3.99487 4.08461 4.11978 3.39032 4.30194C2.83665 4.44722 2.83364 4.44782 2.84607 4.41114C2.88346 4.30101 3.26023 3.82602 3.51351 3.56971C3.90494 3.17356 4.35193 2.84421 4.80852 2.61549C5.21663 2.41102 5.8059 2.22474 6.23734 2.16374C6.35026 2.14778 6.47345 2.12944 6.51109 2.12298C6.66836 2.09599 7.63063 2.13144 7.84848 2.17226ZM6.65549 5.65334C6.03717 5.81987 5.60771 6.37484 5.60771 7.00735C5.60771 7.91084 6.47616 8.58785 7.34488 8.36157C8.40061 8.08659 8.75528 6.76831 7.9781 6.00815C7.63435 5.67193 7.10935 5.53109 6.65549 5.65334ZM7.33235 6.40047C7.82272 6.64246 7.81839 7.36895 7.32506 7.62039C6.90606 7.83397 6.42045 7.60322 6.32193 7.14376C6.24511 6.78561 6.46754 6.43373 6.8342 6.33329C6.99933 6.28806 7.14417 6.30758 7.33235 6.40047ZM1.61958 7.08791C1.41424 7.18118 1.38861 7.29632 1.46173 7.79772C1.78925 10.0442 3.45604 11.8972 5.63711 12.4395C5.89474 12.5036 5.93826 12.5077 6.03304 12.4764C6.10008 12.4543 6.16271 12.4069 6.20211 12.3483C6.27851 12.2348 6.28207 12.1041 6.22182 11.6294C6.03547 10.1618 5.58731 9.12271 4.80052 8.33389C4.15461 7.68631 3.33915 7.28592 2.32553 7.11863C1.80141 7.03215 1.74756 7.02979 1.61958 7.08791ZM11.9314 7.07559C11.3318 7.16062 10.7648 7.32452 10.3151 7.54286C9.26599 8.05218 8.50964 8.95077 8.10342 10.1704C7.92201 10.715 7.78499 11.4247 7.75214 11.9896C7.73804 12.2322 7.74147 12.2562 7.8026 12.3455C7.84437 12.4065 7.90717 12.4542 7.97561 12.4767C8.07287 12.5088 8.11426 12.5042 8.4126 12.428C8.59388 12.3817 8.9024 12.2791 9.09821 12.2C10.9393 11.4562 12.2581 9.77227 12.546 7.79772C12.5986 7.43643 12.5992 7.32662 12.5487 7.22906C12.4605 7.05854 12.312 7.02161 11.9314 7.07559ZM2.54982 7.88081C3.85556 8.21057 4.70008 8.96604 5.18222 10.2357C5.31797 10.5932 5.41803 11.0046 5.51351 11.5984L5.52764 11.6863L5.37127 11.6325C5.17031 11.5633 4.69313 11.3354 4.47615 11.2049C3.33904 10.521 2.50087 9.34752 2.21606 8.04076C2.17521 7.8534 2.17157 7.80123 2.19928 7.80123C2.21877 7.80123 2.3765 7.83704 2.54982 7.88081ZM11.7916 8.04076C11.5083 9.34067 10.658 10.5322 9.53605 11.2013C9.16268 11.424 8.4821 11.7236 8.4821 11.6653C8.4821 11.6532 8.50718 11.5026 8.53781 11.3306C8.84611 9.59937 9.6251 8.53935 10.9626 8.0311C11.1538 7.95844 11.7158 7.80476 11.7986 7.80246C11.8401 7.80134 11.8395 7.82102 11.7916 8.04076Z" fill="#121212"/>
</svg>
