<svg width="17" height="17" viewBox="0 0 17 17" fill="none" xmlns="http://www.w3.org/2000/svg">
<g clip-path="url(#clip0_296_1210)">
<path d="M5.39352 9.11094L4.9207 9.6299V10.891H3.76822V6.10938H4.9207V8.21744L5.32147 7.60982L6.35242 6.10904H7.7775L6.16184 8.22375L7.7775 10.8903H6.41152L5.39352 9.11061V9.11094ZM9.58375 6.10971L10.6509 9.43633L11.7147 6.10971H13.2318V10.891H12.076L12.1875 7.48897L11.0317 10.891H10.2701L9.11094 7.48564L9.2225 10.891H8.07002V6.10938H9.58375V6.10971ZM8.5 0C3.80574 0 0 3.80541 0 8.5C0 13.1946 3.80574 17 8.5 17C13.1943 17 17 13.1946 17 8.5C17 3.80541 13.1943 0 8.5 0ZM8.5 15.1406C4.83238 15.1406 1.85938 12.1676 1.85938 8.5C1.85938 4.83238 4.83238 1.85938 8.5 1.85938C12.1676 1.85938 15.1406 4.83238 15.1406 8.5C15.1406 12.1676 12.1676 15.1406 8.5 15.1406Z" fill="#FE8900"/>
</g>
<defs>
<clipPath id="clip0_296_1210">
<rect width="17" height="17" fill="white"/>
</clipPath>
</defs>
</svg>
