<svg width="88" height="88" viewBox="0 0 88 88" fill="none" xmlns="http://www.w3.org/2000/svg">
<path d="M66 35.75H11L16.5 23.1C18.15 19.25 22 16.5 26.4 16.5H50.325C54.725 16.5 58.575 19.25 60.5 23.1L66 35.75Z" stroke="#D8DDE1" stroke-width="5" stroke-miterlimit="10" stroke-linecap="round" stroke-linejoin="round"/>
<path d="M22 63.25H5.5V68.75C5.5 71.775 7.975 74.25 11 74.25H16.5C19.525 74.25 22 71.775 22 68.75V63.25Z" stroke="#D8DDE1" stroke-width="5" stroke-miterlimit="10" stroke-linecap="round" stroke-linejoin="round"/>
<path d="M2.75 33H12.1" stroke="#D8DDE1" stroke-width="5" stroke-miterlimit="10" stroke-linecap="round" stroke-linejoin="round"/>
<path d="M66 33H74.25" stroke="#D8DDE1" stroke-width="5" stroke-miterlimit="10" stroke-linecap="round" stroke-linejoin="round"/>
<path d="M11 49.5H19.25" stroke="#D8DDE1" stroke-width="5" stroke-miterlimit="10" stroke-linecap="round" stroke-linejoin="round"/>
<path d="M66 82.5C76.6315 82.5 85.25 73.8815 85.25 63.25C85.25 52.6185 76.6315 44 66 44C55.3685 44 46.75 52.6185 46.75 63.25C46.75 73.8815 55.3685 82.5 66 82.5Z" stroke="#D8DDE1" stroke-width="5" stroke-miterlimit="10" stroke-linecap="round" stroke-linejoin="round"/>
<path d="M66 55V71.5" stroke="#D8DDE1" stroke-width="5" stroke-miterlimit="10" stroke-linecap="round" stroke-linejoin="round"/>
<path d="M57.75 63.25H74.25" stroke="#D8DDE1" stroke-width="5" stroke-miterlimit="10" stroke-linecap="round" stroke-linejoin="round"/>
<path d="M48.4 55.275C47.575 53.35 45.65 52.25 43.45 52.25H33.825C31.625 52.25 29.7 53.35 28.875 55.275L24.75 63.25" stroke="#D8DDE1" stroke-width="5" stroke-miterlimit="10" stroke-linecap="round" stroke-linejoin="round"/>
<path d="M46.75 63.25H8.25C5.225 63.25 2.75 60.775 2.75 57.75V46.75C2.75 40.7 7.7 35.75 13.75 35.75H63.25C69.025 35.75 73.7 40.15 74.25 45.925" stroke="#D8DDE1" stroke-width="5" stroke-miterlimit="10" stroke-linecap="round" stroke-linejoin="round"/>
</svg>
