<svg width="40" height="40" viewBox="0 0 40 40" fill="none" xmlns="http://www.w3.org/2000/svg">
<g clip-path="url(#clip0_416_1223)">
<path d="M23.4955 22.0866C23.2705 22.165 23.1044 22.3574 23.0598 22.5914C23.0152 22.8254 23.0988 23.0654 23.2792 23.2211C23.4595 23.3767 23.7092 23.4243 23.9341 23.3459C29.4712 21.427 32.8132 15.7903 31.8402 10.0114C30.8672 4.23261 25.8636 0.00109863 20.0035 0.00109863C14.1433 0.00109863 9.13975 4.23261 8.16675 10.0114C7.19375 15.7903 10.5358 21.427 16.0728 23.3459C16.4207 23.4669 16.8009 23.2829 16.9218 22.9349C17.0428 22.587 16.8587 22.2069 16.5108 22.0859C15.3582 21.6837 14.2834 21.0861 13.3335 20.3193V19.5933C13.3308 17.5136 14.6113 15.6479 16.5528 14.9026C18.6181 16.3658 21.3821 16.3658 23.4475 14.9026C25.389 15.6479 26.6695 17.5136 26.6668 19.5933V20.3219C25.7185 21.0874 24.6458 21.6843 23.4955 22.0866ZM15.3335 9.99994C15.3335 7.42261 17.4228 5.33328 20.0001 5.33328C22.5775 5.33328 24.6668 7.42261 24.6668 9.99994C24.6668 12.5773 22.5775 14.6666 20.0001 14.6666C17.424 14.6637 15.3364 12.5761 15.3335 9.99994ZM24.5335 13.9153C26.6295 11.4945 26.4552 7.85434 24.1374 5.64491C21.8196 3.43549 18.1753 3.43549 15.8576 5.64491C13.5398 7.85434 13.3655 11.4945 15.4615 13.9153C13.4984 14.9189 12.1963 16.8688 12.0215 19.0666C8.22108 14.7835 8.48047 8.26388 12.6091 4.29623C16.7377 0.328577 23.2625 0.328577 27.3912 4.29623C31.5198 8.26388 31.7792 14.7835 27.9788 19.0666C27.8034 16.8675 26.4989 14.9172 24.5335 13.9153Z" fill="white"/>
<path d="M14.2666 39.7406C14.6743 40.0414 15.2179 40.0831 15.6666 39.848L20.0046 37.594L24.3419 39.8486C24.7917 40.0825 25.3352 40.041 25.7444 39.7416C26.1535 39.4422 26.3574 38.9368 26.2706 38.4373L25.4466 33.6826L28.9333 30.322C29.2996 29.9688 29.433 29.438 29.2771 28.9537C29.1213 28.4693 28.7034 28.1159 28.1999 28.0426L23.3599 27.3473L21.1999 23.0053C20.9757 22.5506 20.5116 22.2638 20.0046 22.2666C19.4991 22.2648 19.0366 22.5505 18.8119 23.0033L16.6399 27.3473L11.8106 28.042C11.3068 28.1151 10.8886 28.4686 10.7328 28.9532C10.5769 29.4378 10.7106 29.9689 11.0773 30.322L14.5653 33.6826L13.7406 38.4373C13.6525 38.9365 13.8567 39.4424 14.2666 39.7406ZM11.9999 29.362L17.1746 28.6173C17.3908 28.5862 17.5781 28.4513 17.6759 28.256L20.0039 23.6L22.3219 28.2546C22.4196 28.4506 22.6072 28.5862 22.8239 28.6173L28.0093 29.362L24.2666 32.968C24.1074 33.1215 24.0347 33.344 24.0726 33.562L24.9573 38.6666L20.3126 36.2526C20.1199 36.1525 19.8906 36.1525 19.6979 36.2526L15.0526 38.6666L15.9373 33.5633C15.9752 33.3454 15.9025 33.1228 15.7433 32.9693L11.9999 29.362Z" fill="white"/>
<path d="M3.13338 29.4813L2.48204 33.2473C2.41918 33.5984 2.51487 33.9594 2.74344 34.2332C2.97201 34.507 3.31002 34.6657 3.66671 34.6666C3.86146 34.6663 4.05329 34.6192 4.22604 34.5293L7.66671 32.7386L11.1054 34.5333C11.3166 34.6433 11.5706 34.6323 11.7715 34.5044C11.9724 34.3764 12.0898 34.151 12.0795 33.913C12.0692 33.6751 11.9326 33.4607 11.7214 33.3506L7.97471 31.3973C7.78169 31.2968 7.55173 31.2968 7.35871 31.3973L3.84071 33.23L4.50738 29.3633C4.54525 29.1454 4.47258 28.9229 4.31338 28.7693L1.48204 26.036L5.40004 25.4733C5.6164 25.4421 5.80372 25.3069 5.90138 25.1113L7.66671 21.582L9.42538 25.1106C9.52313 25.3068 9.71106 25.4424 9.92804 25.4733L14.114 26.0733C14.4786 26.1254 14.8163 25.8721 14.8684 25.5076C14.9205 25.1431 14.6672 24.8054 14.3027 24.7533L10.4627 24.2033L8.74471 20.7553C8.54119 20.3451 8.12196 20.0865 7.66404 20.0886H7.66004C7.20712 20.0877 6.79323 20.3449 6.59338 20.7513L4.86671 24.2033L1.03804 24.7526C0.579686 24.8137 0.19722 25.1328 0.0548837 25.5727C-0.0874526 26.0127 0.0356686 26.4953 0.371377 26.8133L3.13338 29.4813Z" fill="white"/>
<path d="M39.9401 25.5706C39.801 25.1329 39.422 24.8146 38.9668 24.7532L35.1335 24.2032L33.4108 20.7519C33.2116 20.3443 32.7978 20.0857 32.3441 20.0852H32.3401C31.882 20.0828 31.4624 20.3415 31.2588 20.7519L29.5415 24.1992L25.7008 24.7492C25.465 24.7829 25.2651 24.9399 25.1764 25.1609C25.0877 25.382 25.1236 25.6336 25.2707 25.8209C25.4178 26.0083 25.6537 26.1029 25.8895 26.0692L30.0761 25.4692C30.2931 25.4383 30.481 25.3027 30.5788 25.1066L32.3335 21.5819L34.0955 25.1112C34.1931 25.3068 34.3804 25.442 34.5968 25.4732L38.5128 26.0352L35.6815 28.7686C35.5223 28.9221 35.4496 29.1446 35.4875 29.3626L36.1575 33.2292L32.6395 31.3946C32.4464 31.294 32.2165 31.294 32.0235 31.3946L28.2768 33.3479C28.0655 33.4579 27.929 33.6723 27.9187 33.9103C27.9084 34.1483 28.0258 34.3737 28.2267 34.5016C28.4276 34.6296 28.6815 34.6406 28.8928 34.5306L32.3335 32.7386L35.7735 34.5332C36.1806 34.7448 36.6726 34.7068 37.0425 34.4353C37.4124 34.1637 37.596 33.7057 37.5161 33.2539L36.8668 29.4812L39.6308 26.8146C39.9653 26.4943 40.0857 26.0102 39.9401 25.5706Z" fill="white"/>
<path d="M16.3333 31.426C16.3655 31.4258 16.3976 31.4233 16.4293 31.4186L18.9367 31.058C19.1529 31.0269 19.3402 30.8919 19.438 30.6966L20.598 28.3773C20.7637 28.0478 20.6309 27.6463 20.3013 27.4806C19.9718 27.3149 19.5704 27.4478 19.4047 27.7773L18.4047 29.7846L16.2413 30.096C15.8948 30.1453 15.6455 30.4543 15.6704 30.8034C15.6953 31.1525 15.986 31.4229 16.336 31.4226L16.3333 31.426Z" fill="white"/>
</g>
<defs>
<clipPath id="clip0_416_1223">
<rect width="40" height="40" fill="white"/>
</clipPath>
</defs>
</svg>
