<svg width="40" height="40" viewBox="0 0 40 40" fill="none" xmlns="http://www.w3.org/2000/svg">
<path d="M33.0139 12.3834C34.2212 11.2064 33.5552 9.15279 31.8874 8.90849L25.348 7.94615C25.0896 7.90787 24.8665 7.74552 24.751 7.51208L21.8275 1.58607C21.0801 0.07146 18.9199 0.0720069 18.1727 1.58607L15.2479 7.51208C15.133 7.74552 14.9105 7.90787 14.6528 7.94615L8.11267 8.90849C6.44455 9.15279 5.77916 11.2065 6.98619 12.3834L11.7183 16.9982C11.9056 17.1805 11.9913 17.4432 11.9469 17.7004L10.8295 24.1887C10.5412 25.8558 12.2943 27.1206 13.7828 26.3402L17.7717 24.2521C17.6438 27.1584 17.2403 29.9498 15.4108 32.3976H14.6053C13.232 32.3976 12.1153 33.5144 12.1153 34.8876V38.3047H10.3985C10.0545 38.3047 9.77603 38.5832 9.77603 38.9272C9.77603 39.2713 10.0545 39.5497 10.3985 39.5497H29.6017C29.9457 39.5497 30.2242 39.2713 30.2242 38.9272C30.2242 38.5832 29.9457 38.3047 29.6017 38.3047H27.8849V34.8876C27.8849 33.5144 26.7681 32.3976 25.3948 32.3976H24.5893C22.7598 29.9498 22.3563 27.1584 22.2285 24.2521L26.2173 26.3402C27.7111 27.1246 29.4582 25.8513 29.1706 24.1887L28.0538 17.7004C28.0094 17.4432 28.0945 17.1806 28.2817 16.9982L33.0139 12.3834ZM26.6399 34.8876V38.3047H13.3603V34.8876C13.3603 34.2013 13.919 33.6426 14.6053 33.6426H25.3948C26.0812 33.6426 26.6399 34.2012 26.6399 34.8876ZM23.0713 32.3976H16.9288C18.6591 29.6668 18.9464 26.6716 19.0431 23.5865L19.6323 23.2781C19.862 23.1577 20.1381 23.1577 20.3679 23.2781L20.9571 23.5865C21.0538 26.6716 21.3411 29.6668 23.0713 32.3976ZM26.8271 17.9119L27.9439 24.4003C28.0551 25.0468 27.3828 25.5424 26.7949 25.2374L20.9449 22.1753C20.3534 21.8652 19.6463 21.8652 19.0549 22.1753L13.2054 25.2374C12.6188 25.543 11.9452 25.0471 12.0564 24.4003L13.1738 17.9119C13.2874 17.2499 13.0686 16.5757 12.5878 16.107L7.85556 11.4922C7.3847 11.033 7.6433 10.2361 8.29385 10.1402L14.8345 9.17787C15.4972 9.07998 16.0692 8.66294 16.3647 8.06294L19.2888 2.13693C19.5807 1.54669 20.4192 1.54615 20.7114 2.13693L23.6349 8.06357C23.9316 8.66302 24.5037 9.08005 25.1663 9.17787L31.7063 10.1402C32.3572 10.2361 32.6153 11.0332 32.1446 11.4922L27.4125 16.107C26.9323 16.5751 26.7134 17.2499 26.8271 17.9119Z" fill="white"/>
<path d="M22.4578 35.3514H17.5422C17.1981 35.3514 16.9197 35.6299 16.9197 35.9739C16.9197 36.318 17.1981 36.5964 17.5422 36.5964H22.4579C22.8019 36.5964 23.0804 36.318 23.0804 35.9739C23.0804 35.6299 22.8019 35.3514 22.4578 35.3514Z" fill="white"/>
<path d="M35.1496 7.36994L34.4468 8.28666C34.2377 8.55963 34.29 8.94994 34.5629 9.15901C34.8348 9.36768 35.2269 9.31658 35.4353 9.04291L36.138 8.12619C36.3471 7.85323 36.2949 7.46291 36.0219 7.25385C35.7503 7.04526 35.3575 7.09698 35.1496 7.36994Z" fill="white"/>
<path d="M35.3994 10.8599C35.3994 11.204 35.6779 11.4824 36.0219 11.4824H37.1764C37.5204 11.4824 37.7989 11.204 37.7989 10.8599C37.7989 10.5159 37.5204 10.2374 37.1764 10.2374H36.0219C35.6779 10.2374 35.3994 10.5159 35.3994 10.8599Z" fill="white"/>
<path d="M34.4468 13.4327L35.1495 14.3494C35.3578 14.6229 35.7499 14.6743 36.0219 14.4655C36.2949 14.2564 36.3471 13.866 36.138 13.5931L35.4352 12.6764C35.2274 12.4035 34.8352 12.3518 34.5629 12.5603C34.29 12.7695 34.2377 13.1597 34.4468 13.4327Z" fill="white"/>
<path d="M5.55329 8.28663L4.85055 7.36991C4.64266 7.09694 4.2511 7.0453 3.97821 7.25382C3.70524 7.46296 3.65298 7.85319 3.86212 8.12616L4.56485 9.04288C4.77313 9.3164 5.16516 9.3678 5.43719 9.15897C5.71008 8.94991 5.76243 8.5596 5.55329 8.28663Z" fill="white"/>
<path d="M2.20117 10.8599C2.20117 11.204 2.47961 11.4824 2.82367 11.4824H3.97812C4.32219 11.4824 4.60063 11.204 4.60063 10.8599C4.60063 10.5159 4.32219 10.2374 3.97812 10.2374H2.82367C2.47961 10.2374 2.20117 10.5159 2.20117 10.8599Z" fill="white"/>
<path d="M4.56485 12.6764L3.86212 13.5931C3.65298 13.8661 3.70524 14.2564 3.97821 14.4655C4.25008 14.6742 4.64219 14.6231 4.85055 14.3494L5.55329 13.4327C5.76243 13.1597 5.71016 12.7694 5.43719 12.5603C5.1661 12.3518 4.77337 12.4035 4.56485 12.6764Z" fill="white"/>
</svg>
