<svg width="40" height="40" viewBox="0 0 40 40" fill="none" xmlns="http://www.w3.org/2000/svg">
<path d="M27.4641 31.5225C26.5985 30.9917 25.715 30.4674 24.8242 29.9488C24.8233 29.9482 24.8223 29.9476 24.8214 29.9471C23.2593 29.0375 21.6747 28.1466 20.1181 27.2737V26.4098C20.1904 26.3221 20.262 26.2331 20.3323 26.1416C21.1449 25.0834 21.7559 23.8596 22.1414 22.5464C23.5088 22.0547 24.539 20.6294 24.539 19.1578C24.539 18.3977 24.2602 17.7266 23.754 17.268C23.5226 17.0584 23.2531 16.9032 22.9594 16.8051C23.4995 15.4717 23.803 14.1261 23.803 12.9246C23.803 8.40338 19.9334 4.7251 15.1769 4.7251C10.4205 4.7251 6.55085 8.40346 6.55085 12.9246C6.55085 14.1256 6.85468 15.4711 7.39523 16.8048C7.0932 16.9058 6.81749 17.0677 6.58249 17.2856C6.08882 17.7434 5.81703 18.4082 5.81703 19.1578C5.81703 20.6292 6.84703 22.0545 8.21429 22.5463C8.59953 23.8596 9.21031 25.0834 10.0225 26.1415C10.0974 26.2392 10.1738 26.3341 10.2511 26.4274V27.2649C7.79117 28.6462 5.25484 30.0727 2.89242 31.5222C1.97953 32.0807 1.45593 33.0146 1.45593 34.0846V39.111C1.45593 39.412 1.69992 39.6559 2.00078 39.6559C2.30164 39.6559 2.54562 39.412 2.54562 39.111V34.0846C2.54562 33.3928 2.8707 32.8128 3.46164 32.4514C4.04734 32.0921 4.64453 31.7338 5.24898 31.377V39.111C5.24898 39.412 5.49296 39.6559 5.79382 39.6559C6.09476 39.6559 6.33867 39.412 6.33867 39.111V30.7397C7.07367 30.3135 7.81562 29.8896 8.55789 29.4692V35.6121C8.55789 35.913 8.80179 36.1569 9.10273 36.1569H21.2533C21.5542 36.1569 21.7981 35.913 21.7981 35.6121V29.4699C22.5391 29.8894 23.2807 30.3124 24.0173 30.7398V39.111C24.0173 39.412 24.2612 39.6559 24.5622 39.6559C24.8631 39.6559 25.107 39.412 25.107 39.111V31.3774C25.7094 31.7331 26.3066 32.0911 26.8948 32.4518C27.4852 32.8129 27.8103 33.3928 27.8103 34.0846V39.111C27.8103 39.412 28.0542 39.6559 28.3552 39.6559C28.6561 39.6559 28.9 39.412 28.9 39.111V34.0846C28.9002 33.0146 28.3765 32.0807 27.4641 31.5225ZM11.3408 27.5778C11.3408 27.5767 11.3408 27.5757 11.3408 27.5746V27.5369C12.5236 28.5414 13.8614 29.0946 15.1769 29.0946C16.4979 29.0946 17.8416 28.5368 19.0284 27.5243V27.5839V27.5868V27.5928C19.0284 29.7128 17.3036 31.4377 15.1835 31.4377C13.0646 31.4377 11.3408 29.7128 11.3408 27.5928V27.5778ZM8.08117 15.4859C10.0066 14.2106 12.509 13.5115 15.1769 13.5115C17.8456 13.5115 20.3483 14.2103 22.2736 15.4851C21.8023 16.9751 20.9784 18.5229 19.9317 19.8232C18.5197 18.9346 16.8863 18.4672 15.1769 18.4672C13.4687 18.4672 11.8361 18.9346 10.4242 19.8232C9.37726 18.5226 8.55296 16.9751 8.08117 15.4859ZM23.4493 19.1579C23.4493 19.8867 23.0465 20.6361 22.4658 21.117C22.5679 20.4873 22.6204 19.8444 22.6204 19.1955C22.6204 18.8465 22.6156 18.35 22.5805 17.8266C22.7458 17.8765 22.8945 17.96 23.0223 18.0758C23.2977 18.3251 23.4493 18.7094 23.4493 19.1579ZM15.1769 5.81487C19.3325 5.81487 22.7133 9.00424 22.7133 12.9246C22.7133 13.3831 22.6605 13.871 22.5605 14.3756C20.5049 13.1114 17.916 12.4217 15.1769 12.4217C12.4384 12.4217 9.8496 13.1117 7.79382 14.3766C7.69359 13.8717 7.64062 13.3833 7.64062 12.9246C7.64062 9.00432 11.0213 5.81487 15.1769 5.81487ZM6.90671 19.1579C6.90671 18.715 7.05468 18.3339 7.32343 18.0847C7.44726 17.9699 7.59179 17.8858 7.75257 17.8338C7.73539 18.3471 7.73546 18.8028 7.73562 19.1244V19.1955C7.73562 19.8443 7.78812 20.4872 7.89015 21.1169C7.30953 20.636 6.90671 19.8867 6.90671 19.1579ZM8.83124 19.4974C9.1621 19.9889 9.52281 20.4617 9.90968 20.906C10.0938 21.1174 10.4083 21.1547 10.6368 20.992C11.9548 20.0531 13.5247 19.5568 15.1769 19.5568C16.8306 19.5568 18.4013 20.0531 19.7193 20.992C19.8148 21.0599 19.9253 21.093 20.0351 21.093C20.1879 21.093 20.3392 21.0289 20.4463 20.9059C20.8332 20.4615 21.1939 19.9885 21.5248 19.4969C21.4641 21.7073 20.7404 23.821 19.4681 25.4778C18.2348 27.0838 16.6708 28.0049 15.1769 28.0049C13.6833 28.0049 12.1196 27.0839 10.8869 25.4779C9.61539 23.8214 8.89195 21.7078 8.83124 19.4974ZM20.7084 35.0672H9.64757V28.8542C9.8757 28.7258 10.1034 28.5978 10.3307 28.47C10.7458 30.7738 12.7631 32.5274 15.1835 32.5274C17.6023 32.5274 19.6187 30.7776 20.0372 28.4777C20.2605 28.603 20.4843 28.7289 20.7084 28.8549V35.0672ZM35.5649 14.4327C35.3962 14.3469 35.1946 14.3549 35.0331 14.4539C34.8716 14.553 34.7731 14.7289 34.7731 14.9184V17.1354C34.7731 17.9392 34.1191 18.5931 33.3154 18.5931C32.5116 18.5931 31.8576 17.9392 31.8576 17.1354V14.9184C31.8576 14.7289 31.7591 14.553 31.5976 14.4539C31.436 14.3548 31.2346 14.3469 31.0658 14.4327C29.3864 15.2866 28.3431 16.9862 28.3431 18.8683C28.3431 20.4365 29.0774 21.8989 30.3214 22.8367V36.967C30.3214 38.6179 31.6644 39.961 33.3154 39.961C34.9675 39.961 36.3115 38.6179 36.3115 36.967V22.8364C37.5541 21.8981 38.2876 20.436 38.2876 18.8683C38.2876 16.9863 37.2443 15.2867 35.5649 14.4327ZM35.4646 22.1018C35.3129 22.2028 35.2218 22.3731 35.2218 22.5553V36.9669C35.2218 38.0169 34.3666 38.8712 33.3154 38.8712C32.2654 38.8712 31.4111 38.017 31.4111 36.9669V22.5553C31.4111 22.3729 31.3198 22.2026 31.1679 22.1017C30.0815 21.3793 29.4328 20.1706 29.4328 18.8684C29.4328 17.7226 29.928 16.6634 30.7679 15.936V17.1355C30.7679 18.5402 31.9107 19.6829 33.3154 19.6829C34.7201 19.6829 35.8628 18.5401 35.8628 17.1355V15.936C36.7027 16.6634 37.1979 17.7226 37.1979 18.8683C37.1979 20.1702 36.5499 21.3789 35.4646 22.1018ZM38.2585 8.31159L37.1351 7.41901C37.1451 7.27135 37.1492 7.12377 37.1474 6.9769L38.3159 6.14221C38.5179 5.99791 38.5968 5.73534 38.5078 5.50362L37.7519 3.53424C37.663 3.30276 37.4293 3.16088 37.1827 3.18799L35.7529 3.34768C35.6553 3.2362 35.5544 3.12963 35.4508 3.02862L35.6873 1.61104C35.7283 1.36596 35.5983 1.1244 35.3712 1.02346L33.4416 0.165727C33.2148 0.0647896 32.9485 0.13018 32.794 0.324321L31.9004 1.44729C31.7524 1.43768 31.6048 1.43385 31.4591 1.43573L30.6244 0.26729C30.4802 0.0653364 30.2177 -0.0137261 29.9858 0.0753364L28.0163 0.831352C27.7848 0.92018 27.6425 1.15416 27.6701 1.40057L27.8298 2.82846C27.7194 2.92534 27.613 3.0262 27.5112 3.13065L26.0924 2.89573C25.8477 2.85526 25.6064 2.9851 25.5056 3.21174L24.648 5.13916C24.5471 5.36588 24.6122 5.63198 24.8062 5.78666L25.9287 6.68174C25.9191 6.82776 25.9155 6.97495 25.9177 7.12268L24.7491 7.95916C24.5475 8.10354 24.4687 8.36588 24.5577 8.59745L25.3136 10.5669C25.4025 10.7987 25.6373 10.9404 25.8835 10.9131L27.3103 10.7517C27.406 10.861 27.5071 10.9675 27.613 11.0711L27.378 12.4885C27.3374 12.7331 27.4671 12.9742 27.6935 13.0752L29.621 13.935C29.848 14.0364 30.1145 13.9712 30.2693 13.7768L31.1644 12.6525C31.3089 12.6621 31.4556 12.6661 31.6035 12.6642L32.4389 13.8338C32.5434 13.9802 32.7102 14.062 32.8824 14.062C32.9476 14.062 33.0136 14.0502 33.0773 14.0258L35.0489 13.2699C35.2808 13.181 35.4232 12.9466 35.3953 12.6999L35.2338 11.2721C35.3447 11.1747 35.4516 11.0735 35.5538 10.9686L36.9701 11.2053C37.2151 11.2461 37.4566 11.1164 37.5577 10.8896L38.4175 8.95995C38.5184 8.73291 38.453 8.46612 38.2585 8.31159ZM36.7337 10.061L35.443 9.84534C35.2568 9.81401 35.0672 9.88198 34.9427 10.0246C34.7574 10.2369 34.5486 10.4351 34.3221 10.6135C34.1739 10.7302 34.0966 10.9153 34.1178 11.1028L34.2649 12.4035L33.0805 12.8575L32.3197 11.7924C32.217 11.6488 32.0516 11.5643 31.8764 11.5643C31.8651 11.5643 31.8536 11.5647 31.8421 11.5654C31.5497 11.5839 31.2623 11.576 30.9885 11.542C30.8003 11.5192 30.6134 11.5949 30.4952 11.7434L29.6794 12.7681L28.5216 12.2517L28.7358 10.9606C28.7666 10.7751 28.6994 10.5868 28.5584 10.4625C28.3387 10.2689 28.1412 10.0604 27.9716 9.8426C27.8552 9.69291 27.669 9.61463 27.4805 9.63596L26.1797 9.78307L25.7258 8.60034L26.7913 7.83752C26.9452 7.72745 27.0309 7.54526 27.0177 7.35651C26.9977 7.06924 27.0048 6.78331 27.0392 6.50666C27.0625 6.31846 26.9864 6.13174 26.8382 6.01362L25.8148 5.19737L26.33 4.03963L27.623 4.2537C27.8091 4.28479 27.9987 4.21659 28.1228 4.07416C28.3073 3.86237 28.5152 3.66526 28.7405 3.48815C28.8889 3.37159 28.9663 3.18659 28.9454 2.99916L28.7998 1.69791L29.9827 1.24385L30.7434 2.30877C30.8534 2.46299 31.0363 2.54807 31.2247 2.53565C31.5026 2.51604 31.7904 2.52354 32.0802 2.5576C32.2675 2.57995 32.4527 2.50315 32.5701 2.35573L33.3841 1.33284L34.543 1.84791L34.3273 3.14026C34.296 3.32776 34.3648 3.51807 34.5086 3.64229C34.7153 3.82088 34.9119 4.02815 35.0928 4.25838C35.2093 4.40682 35.3944 4.48456 35.5817 4.4633L36.8853 4.31768L37.3393 5.50057L36.2744 6.26127C36.1202 6.37135 36.0343 6.5537 36.0475 6.74276C36.0671 7.02284 36.0592 7.30948 36.0238 7.59455C36.0005 7.78299 36.0769 7.9701 36.2256 8.08823L37.25 8.90205L36.7337 10.061ZM32.7283 4.36791C32.0123 4.04815 31.2146 4.02659 30.482 4.30713C29.7488 4.58815 29.1692 5.13791 28.8504 5.85456C28.5303 6.57065 28.5086 7.36846 28.7893 8.10104C29.0703 8.83432 29.6201 9.41393 30.3375 9.73323C30.7248 9.90565 31.1298 9.98721 31.5287 9.98721C32.6539 9.98713 33.7295 9.33768 34.2155 8.24573C34.8741 6.7658 34.2069 5.0262 32.7283 4.36791ZM33.2198 7.80268C32.8059 8.73276 31.7116 9.15229 30.7805 8.73776C30.3293 8.53698 29.9836 8.17245 29.8068 7.71127C29.6304 7.25081 29.644 6.74932 29.8455 6.29846C30.0462 5.84729 30.4107 5.50159 30.8719 5.32479C31.0863 5.2426 31.3097 5.20166 31.5326 5.20166C31.7883 5.20166 32.0435 5.25557 32.2841 5.36307C32.2843 5.36315 32.2845 5.36323 32.2848 5.36338C33.2148 5.77729 33.6343 6.87159 33.2198 7.80268ZM33.8602 28.1962V32.6899C33.8602 32.9908 33.6163 33.2347 33.3154 33.2347C33.0145 33.2347 32.7705 32.9908 32.7705 32.6899V28.1962C32.7705 27.8953 33.0145 27.6514 33.3154 27.6514C33.6163 27.6514 33.8602 27.8953 33.8602 28.1962Z" fill="white"/>
</svg>
