<svg width="40" height="40" viewBox="0 0 40 40" fill="none" xmlns="http://www.w3.org/2000/svg">
<g clip-path="url(#clip0_619_8719)">
<path d="M23.4945 22.0867C23.2695 22.1651 23.1035 22.3575 23.0589 22.5915C23.0142 22.8255 23.0978 23.0655 23.2782 23.2212C23.4585 23.3768 23.7082 23.4244 23.9332 23.3461C29.4702 21.4271 32.8122 15.7904 31.8392 10.0116C30.8662 4.23274 25.8627 0.0012207 20.0025 0.0012207C14.1423 0.0012207 9.13878 4.23274 8.16577 10.0116C7.19277 15.7904 10.5348 21.4271 16.0718 23.3461C16.4198 23.467 16.7999 23.283 16.9208 22.9351C17.0418 22.5871 16.8578 22.207 16.5098 22.0861C15.3572 21.6838 14.2824 21.0862 13.3325 20.3194V19.5934C13.3298 17.5137 14.6103 15.648 16.5518 14.9027C18.6172 16.3659 21.3812 16.3659 23.4465 14.9027C25.388 15.648 26.6685 17.5137 26.6658 19.5934V20.3221C25.7176 21.0876 24.6449 21.6845 23.4945 22.0867ZM15.3325 10.0001C15.3325 7.42274 17.4218 5.3334 19.9992 5.3334C22.5765 5.3334 24.6658 7.42274 24.6658 10.0001C24.6658 12.5774 22.5765 14.6667 19.9992 14.6667C17.4231 14.6638 15.3354 12.5762 15.3325 10.0001ZM24.5325 13.9154C26.6285 11.4946 26.4542 7.85446 24.1364 5.64504C21.8186 3.43561 18.1743 3.43561 15.8566 5.64504C13.5388 7.85446 13.3645 11.4946 15.4605 13.9154C13.4975 14.9191 12.1954 16.8689 12.0205 19.0667C8.22011 14.7836 8.47949 8.264 12.6081 4.29635C16.7368 0.328699 23.2616 0.328699 27.3902 4.29635C31.5188 8.264 31.7782 14.7836 27.9778 19.0667C27.8024 16.8676 26.4979 14.9173 24.5325 13.9154Z" fill="#F02801"/>
<path d="M14.2659 39.7406C14.6735 40.0414 15.2171 40.0831 15.6659 39.848L20.0039 37.594L24.3412 39.8486C24.791 40.0825 25.3345 40.041 25.7436 39.7416C26.1527 39.4422 26.3567 38.9368 26.2699 38.4373L25.4459 33.6826L28.9325 30.322C29.2988 29.9688 29.4322 29.438 29.2764 28.9537C29.1206 28.4693 28.7027 28.1159 28.1992 28.0426L23.3592 27.3473L21.1992 23.0053C20.9749 22.5506 20.5108 22.2638 20.0039 22.2666C19.4984 22.2648 19.0359 22.5505 18.8112 23.0033L16.6392 27.3473L11.8099 28.042C11.3061 28.1151 10.8879 28.4686 10.732 28.9532C10.5762 29.4378 10.7098 29.9689 11.0765 30.322L14.5645 33.6826L13.7399 38.4373C13.6518 38.9365 13.8559 39.4424 14.2659 39.7406ZM11.9992 29.362L17.1739 28.6173C17.3901 28.5862 17.5774 28.4513 17.6752 28.256L20.0032 23.6L22.3212 28.2546C22.4188 28.4506 22.6065 28.5862 22.8232 28.6173L28.0085 29.362L24.2659 32.968C24.1067 33.1215 24.034 33.344 24.0719 33.562L24.9565 38.6666L20.3119 36.2526C20.1192 36.1525 19.8899 36.1525 19.6972 36.2526L15.0519 38.6666L15.9365 33.5633C15.9744 33.3454 15.9017 33.1228 15.7425 32.9693L11.9992 29.362Z" fill="#F02801"/>
<path d="M3.13289 29.4814L2.48156 33.2474C2.41869 33.5985 2.51439 33.9595 2.74295 34.2333C2.97152 34.5072 3.30953 34.6658 3.66622 34.6668C3.86097 34.6664 4.0528 34.6193 4.22556 34.5294L7.66622 32.7388L11.1049 34.5334C11.3162 34.6435 11.5701 34.6324 11.771 34.5045C11.9719 34.3766 12.0893 34.1511 12.079 33.9132C12.0687 33.6752 11.9322 33.4608 11.7209 33.3508L7.97422 31.3974C7.7812 31.2969 7.55125 31.2969 7.35822 31.3974L3.84022 33.2301L4.50689 29.3634C4.54477 29.1455 4.47209 28.923 4.31289 28.7694L1.48156 26.0361L5.39956 25.4734C5.61591 25.4422 5.80323 25.307 5.90089 25.1114L7.66622 21.5821L9.42489 25.1108C9.52264 25.3069 9.71057 25.4425 9.92756 25.4734L14.1136 26.0734C14.4781 26.1255 14.8158 25.8723 14.8679 25.5078C14.92 25.1433 14.6667 24.8055 14.3022 24.7534L10.4622 24.2034L8.74422 20.7554C8.54071 20.3452 8.12147 20.0866 7.66356 20.0888H7.65955C7.20663 20.0879 6.79274 20.345 6.59289 20.7514L4.86622 24.2034L1.03755 24.7528C0.579198 24.8139 0.196732 25.1329 0.0543954 25.5729C-0.0879409 26.0128 0.0351803 26.4954 0.370888 26.8134L3.13289 29.4814Z" fill="#F02801"/>
<path d="M39.9396 25.5707C39.8005 25.1331 39.4215 24.8148 38.9663 24.7534L35.133 24.2034L33.4103 20.7521C33.2111 20.3445 32.7973 20.0859 32.3436 20.0854H32.3396C31.8815 20.083 31.4619 20.3416 31.2583 20.7521L29.541 24.1994L25.7003 24.7494C25.4645 24.7831 25.2646 24.94 25.1759 25.1611C25.0872 25.3822 25.1231 25.6337 25.2702 25.8211C25.4173 26.0085 25.6532 26.1031 25.889 26.0694L30.0756 25.4694C30.2926 25.4385 30.4806 25.3029 30.5783 25.1067L32.333 21.5821L34.095 25.1114C34.1926 25.307 34.38 25.4422 34.5963 25.4734L38.5123 26.0354L35.681 28.7687C35.5218 28.9223 35.4491 29.1448 35.487 29.3627L36.157 33.2294L32.639 31.3947C32.446 31.2942 32.216 31.2942 32.023 31.3947L28.2763 33.3481C28.065 33.4581 27.9285 33.6725 27.9182 33.9105C27.9079 34.1485 28.0253 34.3739 28.2262 34.5018C28.4271 34.6298 28.681 34.6408 28.8923 34.5307L32.333 32.7387L35.773 34.5334C36.1801 34.745 36.6721 34.707 37.042 34.4354C37.4119 34.1639 37.5955 33.7059 37.5156 33.2541L36.8663 29.4814L39.6303 26.8147C39.9648 26.4945 40.0852 26.0104 39.9396 25.5707Z" fill="#F02801"/>
<path d="M16.3326 31.4261C16.3647 31.4259 16.3968 31.4235 16.4286 31.4187L18.936 31.0581C19.1522 31.027 19.3395 30.892 19.4373 30.6967L20.5973 28.3774C20.763 28.0479 20.6301 27.6464 20.3006 27.4807C19.9711 27.3151 19.5696 27.4479 19.404 27.7774L18.404 29.7847L16.2406 30.0961C15.8941 30.1455 15.6448 30.4544 15.6697 30.8035C15.6946 31.1527 15.9853 31.4231 16.3353 31.4227L16.3326 31.4261Z" fill="#F02801"/>
</g>
<defs>
<clipPath id="clip0_619_8719">
<rect width="40" height="40" fill="white"/>
</clipPath>
</defs>
</svg>
