<svg width="40" height="40" viewBox="0 0 40 40" fill="none" xmlns="http://www.w3.org/2000/svg">
<path d="M27.4642 31.5225C26.5986 30.9917 25.7151 30.4674 24.8243 29.9488C24.8234 29.9482 24.8225 29.9476 24.8215 29.9471C23.2594 29.0375 21.6748 28.1466 20.1182 27.2737V26.4098C20.1905 26.3221 20.2621 26.2331 20.3325 26.1416C21.145 25.0834 21.7561 23.8596 22.1415 22.5464C23.5089 22.0547 24.5391 20.6294 24.5391 19.1578C24.5391 18.3977 24.2604 17.7266 23.7541 17.268C23.5227 17.0584 23.2532 16.9032 22.9596 16.8051C23.4996 15.4717 23.8031 14.1261 23.8031 12.9246C23.8031 8.40338 19.9335 4.7251 15.1771 4.7251C10.4207 4.7251 6.55098 8.40346 6.55098 12.9246C6.55098 14.1256 6.8548 15.4711 7.39535 16.8048C7.09332 16.9058 6.81762 17.0677 6.58262 17.2856C6.08894 17.7434 5.81715 18.4082 5.81715 19.1578C5.81715 20.6292 6.84715 22.0545 8.21441 22.5463C8.59965 23.8596 9.21043 25.0834 10.0226 26.1415C10.0975 26.2392 10.1739 26.3341 10.2512 26.4274V27.2649C7.79129 28.6462 5.25496 30.0727 2.89254 31.5222C1.97965 32.0807 1.45605 33.0146 1.45605 34.0846V39.111C1.45605 39.412 1.70004 39.6559 2.0009 39.6559C2.30176 39.6559 2.54574 39.412 2.54574 39.111V34.0846C2.54574 33.3928 2.87082 32.8128 3.46176 32.4514C4.04746 32.0921 4.64465 31.7338 5.2491 31.377V39.111C5.2491 39.412 5.49309 39.6559 5.79395 39.6559C6.09488 39.6559 6.33879 39.412 6.33879 39.111V30.7397C7.07379 30.3135 7.81574 29.8896 8.55801 29.4692V35.6121C8.55801 35.913 8.80191 36.1569 9.10285 36.1569H21.2534C21.5543 36.1569 21.7982 35.913 21.7982 35.6121V29.4699C22.5393 29.8894 23.2808 30.3124 24.0175 30.7398V39.111C24.0175 39.412 24.2614 39.6559 24.5623 39.6559C24.8632 39.6559 25.1071 39.412 25.1071 39.111V31.3774C25.7095 31.7331 26.3068 32.0911 26.895 32.4518C27.4854 32.8129 27.8104 33.3928 27.8104 34.0846V39.111C27.8104 39.412 28.0543 39.6559 28.3553 39.6559C28.6562 39.6559 28.9001 39.412 28.9001 39.111V34.0846C28.9003 33.0146 28.3766 32.0807 27.4642 31.5225ZM11.3409 27.5778C11.3409 27.5767 11.3409 27.5757 11.3409 27.5746V27.5369C12.5237 28.5414 13.8615 29.0946 15.177 29.0946C16.498 29.0946 17.8418 28.5368 19.0286 27.5243V27.5839V27.5868V27.5928C19.0286 29.7128 17.3037 31.4377 15.1836 31.4377C13.0647 31.4377 11.3409 29.7128 11.3409 27.5928V27.5778ZM8.08129 15.4859C10.0067 14.2106 12.5091 13.5115 15.177 13.5115C17.8457 13.5115 20.3484 14.2103 22.2737 15.4851C21.8024 16.9751 20.9786 18.5229 19.9318 19.8232C18.5198 18.9346 16.8864 18.4672 15.177 18.4672C13.4688 18.4672 11.8362 18.9346 10.4243 19.8232C9.37738 18.5226 8.55309 16.9751 8.08129 15.4859ZM23.4494 19.1579C23.4494 19.8867 23.0466 20.6361 22.4659 21.117C22.568 20.4873 22.6205 19.8444 22.6205 19.1955C22.6205 18.8465 22.6157 18.35 22.5806 17.8266C22.7459 17.8765 22.8946 17.96 23.0225 18.0758C23.2979 18.3251 23.4494 18.7094 23.4494 19.1579ZM15.1771 5.81487C19.3326 5.81487 22.7134 9.00424 22.7134 12.9246C22.7134 13.3831 22.6607 13.871 22.5607 14.3756C20.505 13.1114 17.9161 12.4217 15.1771 12.4217C12.4386 12.4217 9.84973 13.1117 7.79395 14.3766C7.69371 13.8717 7.64074 13.3833 7.64074 12.9246C7.64074 9.00432 11.0214 5.81487 15.1771 5.81487ZM6.90684 19.1579C6.90684 18.715 7.0548 18.3339 7.32355 18.0847C7.44738 17.9699 7.59191 17.8858 7.7527 17.8338C7.73551 18.3471 7.73559 18.8028 7.73574 19.1244V19.1955C7.73574 19.8443 7.78824 20.4872 7.89027 21.1169C7.30965 20.636 6.90684 19.8867 6.90684 19.1579ZM8.83137 19.4974C9.16223 19.9889 9.52293 20.4617 9.9098 20.906C10.0939 21.1174 10.4084 21.1547 10.6369 20.992C11.9549 20.0531 13.5248 19.5568 15.1771 19.5568C16.8307 19.5568 18.4014 20.0531 19.7194 20.992C19.8149 21.0599 19.9254 21.093 20.0352 21.093C20.188 21.093 20.3393 21.0289 20.4464 20.9059C20.8333 20.4615 21.194 19.9885 21.5249 19.4969C21.4643 21.7073 20.7405 23.821 19.4682 25.4778C18.235 27.0838 16.6709 28.0049 15.1771 28.0049C13.6834 28.0049 12.1197 27.0839 10.8871 25.4779C9.61551 23.8214 8.89207 21.7078 8.83137 19.4974ZM20.7086 35.0672H9.6477V28.8542C9.87582 28.7258 10.1036 28.5978 10.3308 28.47C10.7459 30.7738 12.7632 32.5274 15.1836 32.5274C17.6025 32.5274 19.6189 30.7776 20.0373 28.4777C20.2607 28.603 20.4844 28.7289 20.7086 28.8549V35.0672ZM35.565 14.4327C35.3963 14.3469 35.1947 14.3549 35.0332 14.4539C34.8718 14.553 34.7732 14.7289 34.7732 14.9184V17.1354C34.7732 17.9392 34.1193 18.5931 33.3155 18.5931C32.5117 18.5931 31.8577 17.9392 31.8577 17.1354V14.9184C31.8577 14.7289 31.7593 14.553 31.5977 14.4539C31.4361 14.3548 31.2347 14.3469 31.0659 14.4327C29.3865 15.2866 28.3432 16.9862 28.3432 18.8683C28.3432 20.4365 29.0775 21.8989 30.3215 22.8367V36.967C30.3215 38.6179 31.6646 39.961 33.3155 39.961C34.9676 39.961 36.3116 38.6179 36.3116 36.967V22.8364C37.5543 21.8981 38.2877 20.436 38.2877 18.8683C38.2877 16.9863 37.2444 15.2867 35.565 14.4327ZM35.4647 22.1018C35.313 22.2028 35.2219 22.3731 35.2219 22.5553V36.9669C35.2219 38.0169 34.3667 38.8712 33.3155 38.8712C32.2655 38.8712 31.4112 38.017 31.4112 36.9669V22.5553C31.4112 22.3729 31.3199 22.2026 31.168 22.1017C30.0816 21.3793 29.4329 20.1706 29.4329 18.8684C29.4329 17.7226 29.9282 16.6634 30.768 15.936V17.1355C30.768 18.5402 31.9108 19.6829 33.3155 19.6829C34.7202 19.6829 35.8629 18.5401 35.8629 17.1355V15.936C36.7028 16.6634 37.198 17.7226 37.198 18.8683C37.198 20.1702 36.55 21.3789 35.4647 22.1018ZM38.2586 8.31159L37.1352 7.41901C37.1452 7.27135 37.1493 7.12377 37.1475 6.9769L38.316 6.14221C38.518 5.99791 38.5969 5.73534 38.5079 5.50362L37.752 3.53424C37.6632 3.30276 37.4294 3.16088 37.1829 3.18799L35.753 3.34768C35.6554 3.2362 35.5546 3.12963 35.4509 3.02862L35.6875 1.61104C35.7284 1.36596 35.5984 1.1244 35.3714 1.02346L33.4418 0.165727C33.215 0.0647896 32.9486 0.13018 32.7941 0.324321L31.9005 1.44729C31.7525 1.43768 31.605 1.43385 31.4592 1.43573L30.6245 0.26729C30.4804 0.0653364 30.2179 -0.0137261 29.9859 0.0753364L28.0164 0.831352C27.785 0.92018 27.6426 1.15416 27.6702 1.40057L27.8299 2.82846C27.7195 2.92534 27.6131 3.0262 27.5113 3.13065L26.0925 2.89573C25.8479 2.85526 25.6065 2.9851 25.5057 3.21174L24.6482 5.13916C24.5472 5.36588 24.6123 5.63198 24.8063 5.78666L25.9288 6.68174C25.9193 6.82776 25.9156 6.97495 25.9178 7.12268L24.7493 7.95916C24.5476 8.10354 24.4689 8.36588 24.5578 8.59745L25.3137 10.5669C25.4026 10.7987 25.6375 10.9404 25.8836 10.9131L27.3104 10.7517C27.4061 10.861 27.5072 10.9675 27.6132 11.0711L27.3781 12.4885C27.3375 12.7331 27.4672 12.9742 27.6936 13.0752L29.6211 13.935C29.8482 14.0364 30.1146 13.9712 30.2694 13.7768L31.1645 12.6525C31.309 12.6621 31.4557 12.6661 31.6036 12.6642L32.439 13.8338C32.5436 13.9802 32.7104 14.062 32.8825 14.062C32.9477 14.062 33.0137 14.0502 33.0774 14.0258L35.049 13.2699C35.2809 13.181 35.4233 12.9466 35.3954 12.6999L35.2339 11.2721C35.3448 11.1747 35.4517 11.0735 35.5539 10.9686L36.9703 11.2053C37.2152 11.2461 37.4568 11.1164 37.5578 10.8896L38.4176 8.95995C38.5185 8.73291 38.4532 8.46612 38.2586 8.31159ZM36.7338 10.061L35.4432 9.84534C35.2569 9.81401 35.0673 9.88198 34.9429 10.0246C34.7575 10.2369 34.5487 10.4351 34.3222 10.6135C34.174 10.7302 34.0968 10.9153 34.1179 11.1028L34.265 12.4035L33.0806 12.8575L32.3198 11.7924C32.2171 11.6488 32.0518 11.5643 31.8765 11.5643C31.8652 11.5643 31.8537 11.5647 31.8422 11.5654C31.5498 11.5839 31.2625 11.576 30.9886 11.542C30.8004 11.5192 30.6135 11.5949 30.4953 11.7434L29.6795 12.7681L28.5218 12.2517L28.7359 10.9606C28.7667 10.7751 28.6996 10.5868 28.5585 10.4625C28.3388 10.2689 28.1413 10.0604 27.9718 9.8426C27.8553 9.69291 27.6691 9.61463 27.4807 9.63596L26.1798 9.78307L25.7259 8.60034L26.7914 7.83752C26.9453 7.72745 27.031 7.54526 27.0179 7.35651C26.9978 7.06924 27.005 6.78331 27.0393 6.50666C27.0626 6.31846 26.9865 6.13174 26.8383 6.01362L25.815 5.19737L26.3301 4.03963L27.6232 4.2537C27.8093 4.28479 27.9988 4.21659 28.1229 4.07416C28.3075 3.86237 28.5154 3.66526 28.7407 3.48815C28.889 3.37159 28.9664 3.18659 28.9455 2.99916L28.8 1.69791L29.9829 1.24385L30.7435 2.30877C30.8536 2.46299 31.0364 2.54807 31.2248 2.53565C31.5027 2.51604 31.7905 2.52354 32.0804 2.5576C32.2676 2.57995 32.4528 2.50315 32.5702 2.35573L33.3843 1.33284L34.5431 1.84791L34.3275 3.14026C34.2961 3.32776 34.3649 3.51807 34.5087 3.64229C34.7154 3.82088 34.912 4.02815 35.0929 4.25838C35.2094 4.40682 35.3945 4.48456 35.5818 4.4633L36.8854 4.31768L37.3394 5.50057L36.2745 6.26127C36.1203 6.37135 36.0344 6.5537 36.0476 6.74276C36.0672 7.02284 36.0593 7.30948 36.0239 7.59455C36.0006 7.78299 36.077 7.9701 36.2257 8.08823L37.2501 8.90205L36.7338 10.061ZM32.7284 4.36791C32.0125 4.04815 31.2147 4.02659 30.4822 4.30713C29.7489 4.58815 29.1693 5.13791 28.8505 5.85456C28.5304 6.57065 28.5087 7.36846 28.7894 8.10104C29.0704 8.83432 29.6202 9.41393 30.3376 9.73323C30.7249 9.90565 31.1299 9.98721 31.5288 9.98721C32.654 9.98713 33.7297 9.33768 34.2157 8.24573C34.8742 6.7658 34.2071 5.0262 32.7284 4.36791ZM33.22 7.80268C32.806 8.73276 31.7118 9.15229 30.7806 8.73776C30.3294 8.53698 29.9837 8.17245 29.8069 7.71127C29.6305 7.25081 29.6441 6.74932 29.8456 6.29846C30.0464 5.84729 30.4108 5.50159 30.872 5.32479C31.0864 5.2426 31.3098 5.20166 31.5327 5.20166C31.7884 5.20166 32.0436 5.25557 32.2842 5.36307C32.2844 5.36315 32.2846 5.36323 32.2849 5.36338C33.2149 5.77729 33.6344 6.87159 33.22 7.80268ZM33.8604 28.1962V32.6899C33.8604 32.9908 33.6164 33.2347 33.3155 33.2347C33.0146 33.2347 32.7707 32.9908 32.7707 32.6899V28.1962C32.7707 27.8953 33.0146 27.6514 33.3155 27.6514C33.6164 27.6514 33.8604 27.8953 33.8604 28.1962Z" fill="#F02801"/>
</svg>
