<svg width="40" height="40" viewBox="0 0 40 40" fill="none" xmlns="http://www.w3.org/2000/svg">
<g clip-path="url(#clip0_619_8739)">
<path d="M37.3333 7.33335H33.3333C33.3333 6.97973 33.1929 6.64059 32.9428 6.39054C32.6928 6.14049 32.3536 6.00002 32 6.00002H31.5593C31.2026 5.58206 30.7595 5.24644 30.2605 5.0163C29.7615 4.78617 29.2185 4.66699 28.669 4.66699C28.1195 4.66699 27.5765 4.78617 27.0775 5.0163C26.5786 5.24644 26.1354 5.58206 25.7787 6.00002H25.3333C24.9797 6.00002 24.6406 6.14049 24.3905 6.39054C24.1405 6.64059 24 6.97973 24 7.33335H20C19.4105 7.33556 18.8384 7.53303 18.373 7.89488C17.9077 8.25674 17.5754 8.76259 17.428 9.33335H8.108C7.54826 9.33284 7.00259 9.50875 6.54853 9.83607C6.09447 10.1634 5.75511 10.6255 5.57867 11.1567L4.17467 15.3674C3.98882 15.1486 3.75779 14.9727 3.49747 14.8517C3.23715 14.7308 2.95371 14.6676 2.66667 14.6667H2C1.50416 14.6727 1.02823 14.8627 0.664562 15.1998C0.300893 15.5369 0.0754202 15.997 0.0318966 16.491C-0.011627 16.985 0.129903 17.4775 0.429021 17.873C0.72814 18.2685 1.16352 18.5387 1.65067 18.6314L0.97 19.04C0.674869 19.2188 0.430653 19.4705 0.260792 19.7709C0.0909318 20.0713 0.00112797 20.4103 0 20.7554L0 29.3334C0.00170864 29.7455 0.130723 30.1471 0.369392 30.4832C0.608061 30.8192 0.944728 31.0733 1.33333 31.2107V32.6667C1.33333 33.1971 1.54405 33.7058 1.91912 34.0809C2.29419 34.456 2.8029 34.6667 3.33333 34.6667H6C6.53043 34.6667 7.03914 34.456 7.41421 34.0809C7.78929 33.7058 8 33.1971 8 32.6667V31.3334H17.3333V32.6667C17.3333 33.3739 17.6143 34.0522 18.1144 34.5523C18.6145 35.0524 19.2928 35.3334 20 35.3334H37.3333C38.0406 35.3334 38.7189 35.0524 39.219 34.5523C39.719 34.0522 40 33.3739 40 32.6667V10C40 9.29277 39.719 8.61449 39.219 8.1144C38.7189 7.6143 38.0406 7.33335 37.3333 7.33335ZM25.3333 7.33335H26.16C26.2874 7.33335 26.4121 7.29687 26.5193 7.22823C26.6266 7.15959 26.712 7.06165 26.7653 6.94602C26.9684 6.63238 27.252 6.37909 27.5865 6.21266C27.921 6.04623 28.294 5.97279 28.6667 6.00002C29.0408 5.97359 29.4152 6.04782 29.751 6.215C30.0867 6.38217 30.3716 6.6362 30.576 6.95068C30.6299 7.06524 30.7154 7.16207 30.8224 7.22984C30.9293 7.29761 31.0534 7.33351 31.18 7.33335H32V8.66668H25.3333V7.33335ZM17.3333 23.3334H9.33333C9.33333 22.9797 9.47381 22.6406 9.72386 22.3905C9.97391 22.1405 10.313 22 10.6667 22H17.3333V23.3334ZM6.844 11.5787C6.93239 11.3133 7.10202 11.0824 7.32886 10.9187C7.5557 10.7551 7.82827 10.6669 8.108 10.6667H17.3333V17.3334H4.92467L6.844 11.5787ZM1.33333 16.6667C1.33333 16.4899 1.40357 16.3203 1.5286 16.1953C1.65362 16.0703 1.82319 16 2 16H2.66667C2.84348 16 3.01305 16.0703 3.13807 16.1953C3.2631 16.3203 3.33333 16.4899 3.33333 16.6667V17.3334H2C1.82319 17.3334 1.65362 17.2631 1.5286 17.1381C1.40357 17.0131 1.33333 16.8435 1.33333 16.6667ZM6.66667 32.6667C6.66667 32.8435 6.59643 33.0131 6.4714 33.1381C6.34638 33.2631 6.17681 33.3334 6 33.3334H3.33333C3.15652 33.3334 2.98695 33.2631 2.86193 33.1381C2.7369 33.0131 2.66667 32.8435 2.66667 32.6667V31.3334H6.66667V32.6667ZM2 30C1.82319 30 1.65362 29.9298 1.5286 29.8048C1.40357 29.6797 1.33333 29.5102 1.33333 29.3334V20.7554C1.33377 20.6402 1.36372 20.5271 1.42033 20.4269C1.47694 20.3266 1.55831 20.2425 1.65667 20.1827L4.18467 18.6667H17.3333V20.6667H10.6667C9.95942 20.6667 9.28115 20.9476 8.78105 21.4477C8.28095 21.9478 8 22.6261 8 23.3334C8 23.687 8.14048 24.0261 8.39052 24.2762C8.64057 24.5262 8.97971 24.6667 9.33333 24.6667H17.3333V26.6667H10C9.82319 26.6667 9.65362 26.7369 9.5286 26.8619C9.40357 26.987 9.33333 27.1565 9.33333 27.3334C9.33333 27.5102 9.40357 27.6797 9.5286 27.8048C9.65362 27.9298 9.82319 28 10 28H17.3333V30H2ZM38.6667 32.6667C38.6667 33.0203 38.5262 33.3594 38.2761 33.6095C38.0261 33.8595 37.687 34 37.3333 34H20C19.6464 34 19.3072 33.8595 19.0572 33.6095C18.8071 33.3594 18.6667 33.0203 18.6667 32.6667V10C18.6667 9.64639 18.8071 9.30726 19.0572 9.05721C19.3072 8.80716 19.6464 8.66668 20 8.66668H24C24 9.0203 24.1405 9.35944 24.3905 9.60949C24.6406 9.85954 24.9797 10 25.3333 10H32C32.3536 10 32.6928 9.85954 32.9428 9.60949C33.1929 9.35944 33.3333 9.0203 33.3333 8.66668H37.3333C37.687 8.66668 38.0261 8.80716 38.2761 9.05721C38.5262 9.30726 38.6667 9.64639 38.6667 10V32.6667Z" fill="#F02801"/>
<path d="M4.66699 20C4.13656 20 3.62785 20.2107 3.25278 20.5858C2.87771 20.9609 2.66699 21.4696 2.66699 22V23.3333C2.66699 23.8638 2.87771 24.3725 3.25278 24.7475C3.62785 25.1226 4.13656 25.3333 4.66699 25.3333C5.19743 25.3333 5.70613 25.1226 6.08121 24.7475C6.45628 24.3725 6.66699 23.8638 6.66699 23.3333V22C6.66699 21.4696 6.45628 20.9609 6.08121 20.5858C5.70613 20.2107 5.19743 20 4.66699 20ZM5.33366 23.3333C5.33366 23.5101 5.26342 23.6797 5.1384 23.8047C5.01337 23.9298 4.8438 24 4.66699 24C4.49018 24 4.32061 23.9298 4.19559 23.8047C4.07056 23.6797 4.00033 23.5101 4.00033 23.3333V22C4.00033 21.8232 4.07056 21.6536 4.19559 21.5286C4.32061 21.4036 4.49018 21.3333 4.66699 21.3333C4.8438 21.3333 5.01337 21.4036 5.1384 21.5286C5.26342 21.6536 5.33366 21.8232 5.33366 22V23.3333Z" fill="#F02801"/>
<path d="M25.4456 12.2967L23.2303 15.6207L22.4716 14.862C22.3459 14.7405 22.1775 14.6734 22.0027 14.6749C21.8279 14.6764 21.6607 14.7465 21.5371 14.8701C21.4135 14.9937 21.3433 15.1609 21.3418 15.3357C21.3403 15.5105 21.4075 15.6789 21.5289 15.8047L22.8623 17.138C22.9873 17.263 23.1568 17.3333 23.3336 17.3333C23.3549 17.3333 23.3769 17.3333 23.4003 17.3333C23.4983 17.3236 23.593 17.2922 23.6775 17.2415C23.762 17.1908 23.8342 17.122 23.8889 17.04L26.5556 13.04C26.6537 12.8929 26.6894 12.7128 26.6548 12.5394C26.6201 12.366 26.518 12.2135 26.3709 12.1153C26.2238 12.0172 26.0438 11.9815 25.8704 12.0161C25.6969 12.0508 25.5444 12.1529 25.4463 12.3L25.4456 12.2967Z" fill="#F02801"/>
<path d="M34.6667 13.3333H28.6667C28.4899 13.3333 28.3203 13.4036 28.1953 13.5286C28.0702 13.6536 28 13.8232 28 14C28 14.1768 28.0702 14.3464 28.1953 14.4714C28.3203 14.5964 28.4899 14.6666 28.6667 14.6666H34.6667C34.8435 14.6666 35.013 14.5964 35.1381 14.4714C35.2631 14.3464 35.3333 14.1768 35.3333 14C35.3333 13.8232 35.2631 13.6536 35.1381 13.5286C35.013 13.4036 34.8435 13.3333 34.6667 13.3333Z" fill="#F02801"/>
<path d="M28.6667 17.3333H32.5453C32.7221 17.3333 32.8917 17.2631 33.0167 17.1381C33.1418 17.013 33.212 16.8435 33.212 16.6667C33.212 16.4899 33.1418 16.3203 33.0167 16.1953C32.8917 16.0702 32.7221 16 32.5453 16H28.6667C28.4899 16 28.3203 16.0702 28.1953 16.1953C28.0702 16.3203 28 16.4899 28 16.6667C28 16.8435 28.0702 17.013 28.1953 17.1381C28.3203 17.2631 28.4899 17.3333 28.6667 17.3333Z" fill="#F02801"/>
<path d="M25.4456 18.9633L23.2303 22.2873L22.4716 21.5287C22.3459 21.4072 22.1775 21.34 22.0027 21.3415C21.8279 21.3431 21.6607 21.4132 21.5371 21.5368C21.4135 21.6604 21.3433 21.8276 21.3418 22.0024C21.3403 22.1772 21.4075 22.3456 21.5289 22.4713L22.8623 23.8047C22.9873 23.9297 23.1568 23.9999 23.3336 24C23.3549 24 23.3769 24 23.4003 23.9966C23.4983 23.9869 23.593 23.9556 23.6775 23.9048C23.762 23.8541 23.8342 23.7853 23.8889 23.7033L26.5556 19.7033C26.6537 19.5562 26.6894 19.3761 26.6548 19.2027C26.6201 19.0293 26.518 18.8768 26.3709 18.7787C26.2238 18.6805 26.0438 18.6448 25.8704 18.6795C25.6969 18.7141 25.5437 18.8162 25.4456 18.9633Z" fill="#F02801"/>
<path d="M34.6667 20H28.6667C28.4899 20 28.3203 20.0702 28.1953 20.1953C28.0702 20.3203 28 20.4899 28 20.6667C28 20.8435 28.0702 21.013 28.1953 21.1381C28.3203 21.2631 28.4899 21.3333 28.6667 21.3333H34.6667C34.8435 21.3333 35.013 21.2631 35.1381 21.1381C35.2631 21.013 35.3333 20.8435 35.3333 20.6667C35.3333 20.4899 35.2631 20.3203 35.1381 20.1953C35.013 20.0702 34.8435 20 34.6667 20Z" fill="#F02801"/>
<path d="M28.6667 24H32.5453C32.7221 24 32.8917 23.9298 33.0167 23.8048C33.1418 23.6797 33.212 23.5102 33.212 23.3334C33.212 23.1565 33.1418 22.987 33.0167 22.8619C32.8917 22.7369 32.7221 22.6667 32.5453 22.6667H28.6667C28.4899 22.6667 28.3203 22.7369 28.1953 22.8619C28.0702 22.987 28 23.1565 28 23.3334C28 23.5102 28.0702 23.6797 28.1953 23.8048C28.3203 23.9298 28.4899 24 28.6667 24Z" fill="#F02801"/>
<path d="M25.4456 25.63L23.2303 28.954L22.4716 28.1953C22.3459 28.0739 22.1775 28.0067 22.0027 28.0082C21.8279 28.0097 21.6607 28.0799 21.5371 28.2035C21.4135 28.3271 21.3433 28.4943 21.3418 28.6691C21.3403 28.8439 21.4075 29.0123 21.5289 29.138L22.8623 30.4713C22.9873 30.5964 23.1568 30.6666 23.3336 30.6667C23.3549 30.6667 23.3769 30.6667 23.4003 30.6633C23.4983 30.6536 23.593 30.6222 23.6775 30.5715C23.762 30.5208 23.8342 30.452 23.8889 30.37L26.5556 26.37C26.6537 26.2229 26.6894 26.0428 26.6548 25.8694C26.6201 25.696 26.518 25.5435 26.3709 25.4453C26.2238 25.3472 26.0438 25.3115 25.8704 25.3462C25.6969 25.3808 25.5437 25.4829 25.4456 25.63Z" fill="#F02801"/>
<path d="M34.6667 26.6667H28.6667C28.4899 26.6667 28.3203 26.7369 28.1953 26.8619C28.0702 26.987 28 27.1565 28 27.3334C28 27.5102 28.0702 27.6797 28.1953 27.8048C28.3203 27.9298 28.4899 28 28.6667 28H34.6667C34.8435 28 35.013 27.9298 35.1381 27.8048C35.2631 27.6797 35.3333 27.5102 35.3333 27.3334C35.3333 27.1565 35.2631 26.987 35.1381 26.8619C35.013 26.7369 34.8435 26.6667 34.6667 26.6667Z" fill="#F02801"/>
<path d="M32.5453 29.3333H28.6667C28.4899 29.3333 28.3203 29.4036 28.1953 29.5286C28.0702 29.6536 28 29.8232 28 30C28 30.1768 28.0702 30.3464 28.1953 30.4714C28.3203 30.5964 28.4899 30.6666 28.6667 30.6666H32.5453C32.7221 30.6666 32.8917 30.5964 33.0167 30.4714C33.1418 30.3464 33.212 30.1768 33.212 30C33.212 29.8232 33.1418 29.6536 33.0167 29.5286C32.8917 29.4036 32.7221 29.3333 32.5453 29.3333Z" fill="#F02801"/>
<path d="M5.33301 26.6667H3.99967C3.82286 26.6667 3.65329 26.7369 3.52827 26.8619C3.40325 26.987 3.33301 27.1565 3.33301 27.3334C3.33301 27.5102 3.40325 27.6797 3.52827 27.8048C3.65329 27.9298 3.82286 28 3.99967 28H5.33301C5.50982 28 5.67939 27.9298 5.80441 27.8048C5.92944 27.6797 5.99967 27.5102 5.99967 27.3334C5.99967 27.1565 5.92944 26.987 5.80441 26.8619C5.67939 26.7369 5.50982 26.6667 5.33301 26.6667Z" fill="#F02801"/>
</g>
<rect x="0.5" y="0.5" width="39" height="39" stroke="#F02801"/>
<defs>
<clipPath id="clip0_619_8739">
<rect width="40" height="40" fill="white"/>
</clipPath>
</defs>
</svg>
