<svg width="50" height="50" viewBox="0 0 50 50" fill="none" xmlns="http://www.w3.org/2000/svg">
<path d="M45.8465 12.4595H45.3397C45.0401 11.4073 44.6216 10.3978 44.0896 9.44332L44.4498 9.08297C44.862 8.67097 45.0888 8.12147 45.0888 7.53565C45.0888 6.94982 44.862 6.40042 44.4495 5.98793L42.0492 3.59044C41.637 3.1757 41.0868 2.94739 40.4999 2.94739C39.9131 2.94739 39.3628 3.1757 38.9527 3.58839L38.5928 3.94824C37.6377 3.41456 36.6277 2.99524 35.5762 2.69573V2.18901C35.5763 0.982006 34.5944 0 33.3873 0H29.9936C28.7866 0 27.8046 0.982006 27.8046 2.18901V2.69573C26.7533 2.99514 25.7428 3.41456 24.7856 3.94863L24.4275 3.59044C24.0151 3.1757 23.4649 2.94739 22.8781 2.94748C22.2913 2.94748 21.7411 3.1759 21.331 3.58848L18.9311 5.98842C18.5189 6.40042 18.2921 6.94992 18.2921 7.53575C18.2921 8.12157 18.5189 8.67097 18.931 9.08297L19.2912 9.44322C18.7569 10.4006 18.3382 11.4104 18.0402 12.4595H17.5315C16.3245 12.4595 15.3425 13.4416 15.3425 14.6486V18.0451C15.3425 19.2521 16.3245 20.2342 17.5315 20.2342H18.0402C18.3382 21.2832 18.7569 22.293 19.2912 23.2505L18.931 23.6107C18.5188 24.0227 18.292 24.5722 18.292 25.1581C18.292 25.7438 18.5188 26.2933 18.9309 26.7053L21.3289 29.1033C21.7411 29.518 22.2912 29.7463 22.878 29.7463H22.8781C23.4649 29.7463 24.0152 29.518 24.4254 29.1053L24.7856 28.7451C25.7436 29.2796 26.7542 29.6985 27.8045 29.9963V30.5048C27.8045 31.7118 28.7865 32.6938 29.9935 32.6938H33.3872C34.5942 32.6938 35.5762 31.7118 35.5762 30.5048V29.9963C36.6269 29.6984 37.6366 29.2797 38.5928 28.7455L38.9506 29.1033C39.3628 29.518 39.913 29.7463 40.4998 29.7463C41.0867 29.7463 41.637 29.5179 42.0467 29.1057L44.4498 26.7053C44.8619 26.2932 45.0887 25.7437 45.0887 25.158C45.0887 24.5721 44.8619 24.0227 44.4498 23.6107L44.0895 23.2504C44.6215 22.2959 45.0399 21.2864 45.3396 20.2342H45.8464C47.0534 20.2342 48.0354 19.2521 48.0354 18.0451V14.6486C48.0355 13.4416 47.0536 12.4595 45.8465 12.4595ZM33.6232 30.5047C33.6232 30.6326 33.5152 30.7406 33.3873 30.7406H29.9936C29.8657 30.7406 29.7577 30.6326 29.7577 30.5047V29.2369V23.0805C29.7577 22.6721 29.5036 22.3069 29.1208 22.1649C26.4966 21.1916 24.7336 18.6661 24.7336 15.8805C24.7336 13.6728 25.8329 11.6033 27.6737 10.345C27.7563 10.2886 27.8293 10.2425 27.8932 10.2047C27.8897 10.3317 27.8807 10.4524 27.8759 10.5154C27.8686 10.6145 27.8627 10.6927 27.8627 10.7703V15.3793C27.8627 17.4948 29.5157 19.2615 31.6257 19.4015C31.6688 19.4043 31.7119 19.4043 31.755 19.4015C33.8635 19.2616 35.5153 17.4949 35.5153 15.3793V10.7703C35.5153 10.6931 35.5095 10.6154 35.5023 10.5168C35.4976 10.4535 35.4886 10.3322 35.4852 10.2046C35.5488 10.2423 35.6215 10.2883 35.7038 10.3447C37.5451 11.6032 38.6444 13.6727 38.6444 15.8804C38.6444 18.6657 36.8823 21.1914 34.2597 22.1649C33.877 22.307 33.623 22.6721 33.623 23.0804V29.2368V30.5047H33.6232ZM46.0825 18.0451C46.0825 18.1708 45.9722 18.2811 45.8465 18.2811H44.5815C44.1253 18.2811 43.7298 18.597 43.6291 19.042C43.3198 20.4085 42.7842 21.7006 42.0371 22.8825C41.7931 23.2685 41.8492 23.772 42.172 24.0948L43.069 24.9917C43.1272 25.0499 43.1359 25.1208 43.1359 25.158C43.1359 25.195 43.1272 25.266 43.0693 25.3238L40.6641 27.7262C40.6092 27.7815 40.5444 27.7931 40.4999 27.7931C40.4555 27.7931 40.3908 27.7815 40.3338 27.7241L39.4368 26.8272C39.1135 26.5039 38.6095 26.4483 38.2236 26.6928C37.39 27.221 36.5027 27.6401 35.5763 27.9499V23.73C38.6059 22.32 40.5976 19.2476 40.5976 15.8803C40.5976 13.0271 39.1802 10.3549 36.8062 8.7322C36.4426 8.48367 35.3366 7.72754 34.3694 8.28426C33.4196 8.83112 33.5142 10.113 33.5546 10.6605C33.5581 10.708 33.5615 10.748 33.5623 10.7703V15.3793C33.5623 16.4482 32.7453 17.3444 31.6905 17.4474C30.6341 17.3443 29.8159 16.4481 29.8159 15.3793L29.8158 10.7774C29.8167 10.748 29.8202 10.708 29.8237 10.6603C29.8644 10.1131 29.9598 8.8319 29.0108 8.28475C28.044 7.72705 26.9364 8.48348 26.572 8.7322C24.1979 10.355 22.7805 13.0272 22.7805 15.8804C22.7805 19.2481 24.7733 22.3208 27.8046 23.7304V27.95C26.878 27.6402 25.9896 27.2209 25.1536 26.6924C24.9929 26.5908 24.812 26.5413 24.632 26.5413C24.3798 26.5413 24.1296 26.6389 23.9412 26.8273L23.0424 27.7262C22.9875 27.7816 22.9227 27.7932 22.8782 27.7932C22.8336 27.7932 22.7691 27.7816 22.7121 27.7243L20.3121 25.3243C20.2538 25.2661 20.2451 25.1951 20.2451 25.1581C20.2451 25.1209 20.2538 25.05 20.3121 24.9917L21.209 24.0948C21.5318 23.772 21.5879 23.2685 21.3439 22.8825C20.593 21.6944 20.0574 20.4028 19.7523 19.0437C19.6523 18.5979 19.2564 18.281 18.7995 18.281H17.5317C17.4061 18.281 17.2958 18.1707 17.2958 18.045V14.6485C17.2958 14.5205 17.4038 14.4125 17.5317 14.4125H18.7995C19.2564 14.4125 19.6522 14.0956 19.7523 13.6498C20.0574 12.2907 20.5929 10.999 21.3439 9.81098C21.5879 9.42505 21.5318 8.92155 21.209 8.59871L20.312 7.70176C20.2538 7.64356 20.2451 7.57266 20.2451 7.53555C20.2451 7.49844 20.2538 7.42755 20.3121 7.36925L22.7141 4.96716C22.7691 4.91189 22.8337 4.90027 22.8783 4.90027C22.9228 4.90027 22.9875 4.91189 23.0445 4.96921L23.9413 5.86616C24.2644 6.1891 24.7679 6.24506 25.1537 6.00112C26.3403 5.25094 27.6333 4.71433 28.9965 4.40643C29.4418 4.30585 29.7579 3.91025 29.7579 3.45392V2.18901C29.7579 2.06108 29.8659 1.95308 29.9938 1.95308H33.3875C33.5154 1.95308 33.6234 2.06108 33.6234 2.18901V3.45411C33.6234 3.91055 33.9395 4.30604 34.3847 4.40663C35.7491 4.71482 37.0407 5.25114 38.2238 6.00082C38.6098 6.24535 39.1137 6.18969 39.437 5.86645L40.3359 4.96745C40.3909 4.91218 40.4557 4.90056 40.5001 4.90056C40.5446 4.90056 40.6093 4.91218 40.6667 4.96989L43.0692 7.36954C43.1274 7.42774 43.1361 7.49864 43.1361 7.53575C43.1361 7.57285 43.1274 7.64375 43.0691 7.70205L42.1722 8.599C41.8494 8.92184 41.7933 9.42535 42.0373 9.81127C42.7843 10.9932 43.32 12.2852 43.6293 13.6518C43.73 14.0968 44.1255 14.4127 44.5817 14.4127H45.8467C45.9747 14.4127 46.0827 14.5207 46.0827 14.6487V18.0451H46.0825Z" fill="#F02801"/>
<path d="M37.3805 42.999C36.9991 43.3804 36.9991 43.9987 37.3805 44.3802C37.5712 44.5708 37.8211 44.6662 38.071 44.6662C38.3209 44.6662 38.5708 44.5708 38.7615 44.3802L38.7643 44.3775C39.1456 43.9961 39.1443 43.3791 38.7628 42.9978C38.3814 42.6164 37.7618 42.6179 37.3805 42.999Z" fill="#F02801"/>
<path d="M41.9044 33.5392L34.1515 37.5206C33.4943 36.84 32.5734 36.4154 31.5548 36.4154H26.2428C25.9454 36.4154 25.8727 36.3917 25.8679 36.3901C25.8248 36.3674 25.6887 36.2395 25.5794 36.1368L25.5309 36.0913C21.2334 32.0458 17.6031 32.3021 13.4748 33.9313C12.8069 34.195 12.794 34.1956 12.1232 34.2242L10.922 34.2251C10.5799 33.1928 9.60606 32.4457 8.46048 32.4457H4.55472C3.12634 32.4457 1.96436 33.6091 1.96436 35.0389V45.2896C1.96436 46.7178 3.12634 47.8799 4.55472 47.8799H8.46048C9.60596 47.8799 10.5797 47.1337 10.9219 46.1027H13.1192C13.3132 46.1027 13.3132 46.1027 13.5389 46.1663C13.6209 46.1894 13.7207 46.2176 13.8496 46.2522L23.9562 48.9561C24.4017 49.0764 24.8103 49.1948 25.2055 49.3093C26.5004 49.6845 27.5888 49.9999 28.7232 49.9999C30.0054 49.9999 31.3461 49.597 33.1095 48.4218C33.118 48.4161 33.1265 48.4103 33.1349 48.4043L35.0643 47.0285C35.5034 46.7153 35.6056 46.1055 35.2924 45.6664C34.9792 45.2272 34.3693 45.1251 33.9304 45.4383L32.0138 46.8049C29.4549 48.507 28.3683 48.1923 25.749 47.4333C25.3455 47.3165 24.9283 47.1956 24.4634 47.07L14.356 44.366C14.2377 44.3342 14.1448 44.308 14.0686 44.2866C13.6999 44.1827 13.562 44.1498 13.1192 44.1498H11.0537V36.1789H12.109C12.1231 36.1789 12.1369 36.1787 12.151 36.1781L12.2067 36.1757C13.0253 36.1408 13.2543 36.1184 14.192 35.7482C17.8178 34.3174 20.6165 34.1474 24.1936 37.5148L24.2419 37.5602C24.8532 38.1347 25.2053 38.3686 26.2429 38.3686H31.5549C32.1783 38.3686 32.722 38.7147 33.0054 39.2246C33.0084 39.2302 33.0119 39.2356 33.015 39.2413C33.1416 39.4753 33.2137 39.7431 33.2137 40.0275C33.2137 40.9406 32.4696 41.6835 31.555 41.6835H22.9461C22.4069 41.6835 21.9696 42.1207 21.9696 42.66C21.9696 43.1994 22.4069 43.6366 22.9461 43.6366H31.555C33.5466 43.6366 35.1667 42.0176 35.1667 40.0275C35.1667 39.757 35.1359 39.4937 35.0792 39.2401L42.7966 35.2768C43.5271 34.9018 44.5259 34.9421 45.0218 35.7467C45.4604 36.456 45.2191 37.3987 44.4608 37.9394L41.0755 40.3504C40.6361 40.6633 40.5336 41.2731 40.8465 41.7124C41.037 41.9799 41.3376 42.1225 41.6427 42.1225C41.8387 42.1225 42.0366 42.0637 42.2084 41.9414L45.5941 39.53C47.2021 38.3837 47.67 36.3156 46.6835 34.7208C45.7134 33.1464 43.659 32.6384 41.9044 33.5392ZM9.1005 45.2896C9.1005 45.6351 8.80744 45.9268 8.46048 45.9268H4.55472C4.20922 45.9268 3.91743 45.635 3.91743 45.2896V35.039C3.91743 34.6861 4.20336 34.3989 4.55472 34.3989H8.46048C8.80744 34.3989 9.1005 34.692 9.1005 35.039V45.2896Z" fill="#F02801"/>
</svg>
