<svg width="50" height="50" viewBox="0 0 50 50" fill="none" xmlns="http://www.w3.org/2000/svg">
<g clip-path="url(#clip0_409_1021)">
<path d="M0.158253 4.58663L3.49285 10.4218C3.60533 10.619 3.7936 10.7617 4.01376 10.8169L7.12477 11.5946L17.7949 22.2647L18.9739 21.0861L8.13674 10.2493C8.03009 10.1424 7.89635 10.0666 7.74992 10.0299L4.76065 9.27989L1.92157 4.30886L4.35565 1.87478L9.32875 4.7166L10.0791 7.70587C10.1154 7.85264 10.1915 7.98673 10.2982 8.09338L21.1353 18.9305L22.3139 17.7515L11.6438 7.0814L10.8661 3.97211C10.8109 3.75161 10.6682 3.563 10.471 3.45017L4.63548 0.115917C4.31004 -0.0692627 3.90059 -0.0143947 3.63517 0.25L0.300909 3.5846C0.032742 3.84831 -0.0255551 4.25845 0.158253 4.58663Z" fill="#F02801"/>
<path d="M34.8159 16.4292L16.4766 34.7688L15.2976 33.5898L33.6372 15.2505L34.8159 16.4292Z" fill="#F02801"/>
<path d="M13.2669 35.4176C13.116 35.1666 12.8451 35.0133 12.5522 35.0133H7.55065C7.25814 35.0133 6.98688 35.1666 6.83634 35.4176L4.33539 39.5855C4.17662 39.8496 4.17662 40.1798 4.33539 40.4442L6.83634 44.6121C6.98688 44.8628 7.25814 45.0164 7.55065 45.0164H12.5522C12.8451 45.0164 13.116 44.8628 13.2669 44.6121L15.7675 40.4442C15.9262 40.1798 15.9262 39.8496 15.7675 39.5855L13.2669 35.4176ZM12.0807 43.3491H8.02252L6.02189 40.0149L8.02252 36.6803H12.0807L14.0813 40.0149L12.0807 43.3491Z" fill="#F02801"/>
<path d="M40.0612 20.0083C45.5669 20.0268 50.0455 15.5784 50.064 10.0727C50.0668 9.2346 49.9639 8.39992 49.7578 7.58753C49.6467 7.1407 49.1944 6.86876 48.7475 6.97987C48.6008 7.01656 48.467 7.09235 48.36 7.199L43.1709 12.3847L39.0537 11.0127L37.6807 6.89654L42.8698 1.70637C43.1952 1.3806 43.1949 0.852835 42.8691 0.527399C42.7618 0.420064 42.6267 0.343934 42.4789 0.307584C37.1395 -1.04457 31.7155 2.1875 30.3633 7.52649C30.1579 8.33648 30.0554 9.1691 30.0581 10.0048C30.0602 10.6612 30.1277 11.3155 30.2608 11.9581L12.0045 30.2141C11.3619 30.0813 10.7076 30.0138 10.0516 30.0114C4.52669 30.0114 0.0480957 34.49 0.0480957 40.0148C0.0480957 45.5394 4.52669 50.018 10.0516 50.018C15.5761 50.018 20.0547 45.5394 20.0547 40.0148C20.0526 39.3585 19.9847 38.7042 19.852 38.0615L24.2226 33.691L26.134 35.6024C26.4598 35.9279 26.9872 35.9279 27.313 35.6024L27.7297 35.1854C28.0952 34.8223 28.6861 34.8223 29.0516 35.1854C29.4169 35.5496 29.4175 36.1408 29.0534 36.506C29.053 36.5064 29.0523 36.5071 29.0516 36.5078L28.635 36.9244C28.3096 37.2498 28.3096 37.7776 28.635 38.103L38.5791 48.0472C41.1946 50.6867 45.4544 50.7059 48.0939 48.0904C50.7331 45.4749 50.7523 41.2147 48.1368 38.5756C48.1227 38.5612 48.1083 38.5468 48.0939 38.5324L38.1498 28.5886C37.8243 28.2632 37.2966 28.2632 36.9711 28.5886L36.5545 29.0052C36.1886 29.3687 35.5981 29.3687 35.2322 29.0052C34.8673 28.6411 34.8663 28.0499 35.2305 27.685C35.2312 27.6843 35.2318 27.684 35.2322 27.6833L35.6492 27.2663C35.9746 26.9408 35.9746 26.4131 35.6492 26.0876L33.7377 24.1762L38.1083 19.8056C38.7509 19.9383 39.4052 20.0062 40.0612 20.0083ZM43.3365 48.351C42.7309 48.35 42.1305 48.2406 41.5636 48.0276L48.074 41.5169C49.0565 44.1303 47.7345 47.0451 45.1211 48.0276C44.5508 48.2419 43.9462 48.3517 43.3365 48.351ZM33.8927 26.6854C32.9696 27.7865 33.1143 29.4277 34.2154 30.3505C35.1831 31.1616 36.5936 31.1609 37.5603 30.3481L46.9153 39.7114C47.0168 39.8132 47.1118 39.9205 47.2037 40.0296L40.0763 47.1569C39.9669 47.0654 39.8596 46.9704 39.7578 46.8685L30.3956 37.5057C31.3187 36.4045 31.174 34.7633 30.0729 33.8405C29.1051 33.0291 27.6943 33.0302 26.7276 33.8425L25.394 32.5089L32.5587 25.3548L33.8927 26.6854ZM37.2589 18.3012L18.3483 37.208C18.1408 37.4151 18.0575 37.7159 18.1281 38.0002C19.2718 42.4914 16.5579 47.0595 12.0662 48.2029C7.57495 49.3465 3.00685 46.6326 1.8632 42.141C0.719885 37.6497 3.43379 33.0816 7.92542 31.9379C9.28409 31.5923 10.7076 31.5923 12.0662 31.9379C12.3505 32.0075 12.6506 31.9242 12.8584 31.7181L31.7645 12.811C31.9716 12.6038 32.055 12.3031 31.9837 12.0192C30.8479 7.58033 33.5254 3.06127 37.9643 1.92516C38.8031 1.71083 39.6707 1.62853 40.5348 1.68237L36.1375 6.08141C35.9143 6.30431 35.8361 6.63455 35.9359 6.93392L37.6028 11.9358C37.6861 12.1844 37.8816 12.3799 38.1306 12.4626L43.1325 14.1299C43.4315 14.2296 43.7617 14.1518 43.985 13.9289L48.3823 9.53157C48.3923 9.69069 48.3974 9.84809 48.3974 10.0048C48.4207 14.5853 44.7267 18.3173 40.1463 18.341C39.4382 18.3444 38.7324 18.2573 38.0466 18.0817C37.7623 18.0107 37.4615 18.0937 37.2544 18.3008H37.2589V18.3012Z" fill="#F02801"/>
<path d="M43.1525 41.926L41.9735 43.1049L33.6377 34.7691L34.8163 33.5901L43.1525 41.926Z" fill="#F02801"/>
</g>
<defs>
<clipPath id="clip0_409_1021">
<rect width="50" height="50" fill="white"/>
</clipPath>
</defs>
</svg>
