<svg width="50" height="50" viewBox="0 0 50 50" fill="none" xmlns="http://www.w3.org/2000/svg">
<g clip-path="url(#clip0_409_989)">
<path d="M11.3904 36.1107C11.241 36.124 11.0904 36.1328 10.9376 36.1328C10.3565 36.1324 9.77985 36.0317 9.23303 35.8351C10.9747 38.3752 13.3043 40.4568 16.0236 41.9028C18.7428 43.3488 21.7712 44.1163 24.851 44.14C27.9307 44.1638 30.9706 43.443 33.7118 42.0391C36.453 40.6352 38.8145 38.5897 40.5951 36.0768C39.9628 36.1715 39.3184 36.1459 38.6956 36.0015C37.0586 38.0446 34.9852 39.6956 32.6274 40.8335C30.2696 41.9715 27.6871 42.5675 25.0691 42.578C22.4511 42.5884 19.8639 42.0131 17.4971 40.8941C15.1302 39.775 13.0437 38.1407 11.3904 36.1107Z" fill="#F02801"/>
<path d="M24.9999 5.85938C21.4034 5.86262 17.8803 6.87791 14.8336 8.78916C11.7868 10.7004 9.33945 13.4304 7.77124 16.6671L9.7603 16.2566C11.3916 13.4095 13.7875 11.0762 16.6768 9.52089C19.566 7.96558 22.8331 7.25048 26.1079 7.45659C29.3827 7.6627 32.5344 8.78179 35.2058 10.6871C37.8773 12.5924 39.9618 15.2077 41.2232 18.2369C41.7765 18.3268 42.3749 18.4244 43.0121 18.5286C41.6756 14.8218 39.2294 11.6169 36.0065 9.34993C32.7835 7.08299 28.9403 5.86418 24.9999 5.85938Z" fill="#F02801"/>
<path d="M1.99108 18.3818C2.55917 18.0019 3.18006 17.7076 3.8338 17.5084C3.81184 17.4981 3.79265 17.4841 3.77002 17.4747L2.89798 17.1135L3.7952 14.9483L4.67182 15.3114C5.02623 15.4561 5.42127 15.4664 5.78273 15.3404C6.1442 15.2144 6.44722 14.9607 6.63486 14.6271C7.15328 13.7102 7.73931 12.8334 8.3881 12.0037C8.62513 11.7028 8.74401 11.3257 8.72237 10.9433C8.70073 10.5609 8.54006 10.1996 8.2706 9.92734L7.59845 9.25557L9.25556 7.59847L9.92771 8.27062C10.1999 8.54 10.5611 8.70062 10.9435 8.72226C11.3258 8.7439 11.7028 8.62506 12.0037 8.38811C12.8332 7.73933 13.71 7.15329 14.6267 6.63487C14.9605 6.4476 15.2144 6.14475 15.3405 5.78335C15.4666 5.42194 15.4562 5.02691 15.3114 4.67259L14.9482 3.79483L17.1135 2.898L17.4747 3.77003C17.6229 4.12272 17.8948 4.40917 18.2392 4.57558C18.5837 4.74198 18.9771 4.77689 19.3454 4.67374C20.3605 4.39362 21.3952 4.19011 22.4407 4.06491C22.8215 4.02058 23.1729 3.83831 23.4286 3.55254C23.6842 3.26678 23.8263 2.89729 23.8281 2.51389V1.5625H26.1718V2.51389C26.1736 2.8973 26.3157 3.26679 26.5713 3.55256C26.827 3.83834 27.1784 4.02061 27.5592 4.06494C28.6048 4.19014 29.6394 4.39365 30.6545 4.67377C31.0229 4.777 31.4163 4.74213 31.7608 4.57572C32.1052 4.4093 32.3771 4.1228 32.5252 3.77006L32.8865 2.89802L35.0517 3.79524L34.6885 4.67187C34.5436 5.0263 34.5332 5.42146 34.6593 5.783C34.7855 6.14454 35.0394 6.44752 35.3733 6.63492C36.2899 7.15334 37.1667 7.73937 37.9962 8.38815C38.2971 8.62528 38.6742 8.74422 39.0567 8.72258C39.4391 8.70094 39.8004 8.54021 40.0726 8.27066L40.7444 7.59851L42.4015 9.25562L41.7293 9.92776C41.4599 10.1999 41.2992 10.5611 41.2775 10.9435C41.2559 11.3259 41.3748 11.7029 41.6118 12.0037C42.2607 12.8336 42.8468 13.7106 43.3654 14.6275C43.5527 14.9613 43.8555 15.2151 44.2168 15.341C44.5782 15.467 44.9732 15.4565 45.3273 15.3115L46.2051 14.9483L47.1019 17.1135L46.2299 17.4748C45.9489 17.5931 45.7088 17.7911 45.5391 18.0444C45.3695 18.2977 45.2777 18.5951 45.2752 18.9C45.5453 18.9444 45.8185 18.9894 46.0968 19.0354C46.3713 19.0828 46.6424 19.1481 46.9084 19.2307C46.8811 19.1267 46.8568 19.0218 46.8281 18.9183L47.7001 18.557C48.0826 18.398 48.3864 18.0937 48.5449 17.711C48.7034 17.3282 48.7036 16.8983 48.5454 16.5154L47.6486 14.3502C47.4897 13.9676 47.1855 13.6637 46.8028 13.5053C46.4201 13.3468 45.9902 13.3466 45.6073 13.5048L44.7254 13.8581C44.1668 12.8702 43.5346 11.9258 42.8341 11.0329L43.5062 10.3607C43.7988 10.0675 43.9631 9.6701 43.9631 9.25582C43.9631 8.84154 43.7988 8.44418 43.5062 8.15089L41.8491 6.49375C41.5558 6.20099 41.1584 6.03656 40.744 6.03656C40.3296 6.03656 39.9321 6.20099 39.6389 6.49375L38.9591 7.15751C38.0652 6.45856 37.1202 5.82763 36.132 5.27001L36.4952 4.39301C36.6533 4.01013 36.6531 3.58015 36.4947 3.1974C36.3362 2.81466 36.0324 2.5104 35.6498 2.35138L33.4846 1.45455C33.1017 1.29664 32.6718 1.29694 32.2891 1.45539C31.9065 1.61384 31.6022 1.91751 31.443 2.29988L31.0711 3.16773C29.9769 2.86589 28.8615 2.64732 27.7343 2.51389V1.5625C27.7339 1.14823 27.5692 0.751038 27.2762 0.458102C26.9833 0.165167 26.5861 0.000413654 26.1718 0L23.8281 0C23.4138 0.000413654 23.0166 0.165167 22.7237 0.458102C22.4307 0.751038 22.266 1.14823 22.2656 1.5625L22.2545 2.51389C21.1274 2.64877 20.0121 2.86874 18.9182 3.17192L18.5569 2.29988C18.3981 1.91721 18.0939 1.61323 17.7111 1.45472C17.3282 1.29622 16.8982 1.29615 16.5153 1.45454L14.3501 2.35138C13.9676 2.51034 13.6638 2.81453 13.5053 3.1972C13.3468 3.57988 13.3466 4.00979 13.5047 4.39262L13.8576 5.27458C12.8699 5.83328 11.9256 6.46551 11.0328 7.16591L10.3607 6.49376C10.0674 6.20117 9.67001 6.03685 9.25573 6.03685C8.84146 6.03685 8.44409 6.20117 8.15081 6.49376L6.49371 8.15086C6.20111 8.44423 6.0368 8.84165 6.0368 9.25598C6.0368 9.67031 6.20111 10.0677 6.49371 10.3611L7.15746 11.0409C6.45848 11.9347 5.82754 12.8797 5.26996 13.8679L4.39296 13.5048C4.01008 13.3467 3.58012 13.3469 3.19739 13.5054C2.81466 13.6639 2.5104 13.9676 2.35134 14.3501L1.4545 16.5154C1.32025 16.8414 1.3002 17.2032 1.39762 17.5421C1.49503 17.8809 1.70419 18.1769 1.99108 18.3818Z" fill="#F02801"/>
<path d="M46.8898 33.3985L46.2047 35.0517L45.3281 34.6886C44.9737 34.5441 44.5787 34.5339 44.2173 34.6599C43.8558 34.7859 43.5528 35.0394 43.365 35.373C42.8466 36.2898 42.2606 37.1666 41.6118 37.9963C41.3748 38.2972 41.2559 38.6743 41.2775 39.0567C41.2992 39.4391 41.4598 39.8005 41.7293 40.0727L42.4014 40.7444L40.7443 42.4015L40.0722 41.7294C39.8001 41.4599 39.4388 41.2991 39.0565 41.2775C38.6741 41.2558 38.297 41.3748 37.9962 41.6119C37.1664 42.2608 36.2894 42.8469 35.3725 43.3655C35.0389 43.5529 34.7852 43.8557 34.6593 44.217C34.5333 44.5784 34.5437 44.9732 34.6885 45.3274L35.0517 46.2052L32.8864 47.1016L32.5252 46.23C32.3768 45.8775 32.1049 45.5912 31.7605 45.4248C31.4161 45.2585 31.0228 45.2234 30.6545 45.3263C29.6394 45.6064 28.6047 45.8099 27.5592 45.9351C27.1784 45.9794 26.827 46.1617 26.5713 46.4475C26.3157 46.7332 26.1736 47.1027 26.1718 47.4861V48.4375H23.8281V47.4861C23.8263 47.1027 23.6842 46.7332 23.4286 46.4474C23.1729 46.1617 22.8215 45.9794 22.4407 45.9351C21.3951 45.8099 20.3605 45.6064 19.3454 45.3262C19.2078 45.2881 19.0656 45.2687 18.9228 45.2686C18.6135 45.268 18.3109 45.3589 18.0531 45.53C17.7954 45.7011 17.5942 45.9446 17.4747 46.23L17.1135 47.102L14.9482 46.2048L15.3114 45.3282C15.4563 44.9738 15.4667 44.5787 15.3406 44.2172C15.2146 43.8556 14.9608 43.5526 14.627 43.3651C13.7102 42.8467 12.8333 42.2607 12.0037 41.6119C11.7028 41.3749 11.3256 41.2561 10.9433 41.2777C10.5609 41.2994 10.1996 41.46 9.92732 41.7294L9.25555 42.4015L7.59845 40.7444L8.2706 40.0723C8.54005 39.8001 8.70073 39.4389 8.72237 39.0565C8.74401 38.6742 8.62512 38.2971 8.38809 37.9963C7.73922 37.1665 7.15306 36.2895 6.63447 35.3726C6.44725 35.0388 6.14443 34.785 5.78306 34.659C5.42169 34.533 5.02672 34.5435 4.67257 34.6886L3.79481 35.0517L3.11003 33.3985H2.34371C2.02035 33.3977 1.69866 33.3521 1.38782 33.2629C1.40447 33.3384 1.42676 33.4125 1.4545 33.4847L2.35134 35.6499C2.51028 36.0324 2.81446 36.3362 3.19715 36.4947C3.57983 36.6532 4.00976 36.6534 4.39259 36.4952L5.27454 36.142C5.83311 37.1299 6.46534 38.0743 7.16587 38.9672L6.49372 39.6393C6.20113 39.9326 6.03681 40.33 6.03681 40.7442C6.03681 41.1585 6.20113 41.5559 6.49372 41.8492L8.15083 43.5063C8.4441 43.799 8.84156 43.9635 9.25595 43.9635C9.67033 43.9635 10.0678 43.799 10.3611 43.5063L11.0408 42.8425C11.9347 43.5415 12.8797 44.1724 13.8679 44.73L13.5048 45.607C13.3466 45.9899 13.3468 46.4199 13.5053 46.8026C13.6637 47.1854 13.9676 47.4896 14.3501 47.6486L16.5153 48.5455C16.8983 48.7036 17.3283 48.7033 17.711 48.5448C18.0938 48.3862 18.398 48.0823 18.5569 47.6998L18.9289 46.8323C20.023 47.1341 21.1384 47.3527 22.2656 47.4861V48.4375C22.266 48.8518 22.4307 49.249 22.7237 49.5419C23.0166 49.8348 23.4138 49.9996 23.8281 50H26.1718C26.5861 49.9996 26.9833 49.8348 27.2762 49.5419C27.5692 49.249 27.7339 48.8518 27.7343 48.4375L27.7454 47.4861C28.8725 47.3512 29.9878 47.1313 31.0817 46.8281L31.443 47.6998C31.6019 48.0823 31.9062 48.3862 32.2889 48.5448C32.6717 48.7033 33.1017 48.7036 33.4846 48.5455L35.6498 47.6486C36.0323 47.4897 36.3361 47.1855 36.4946 46.8028C36.6531 46.4201 36.6533 45.9902 36.4952 45.6074L36.1419 44.7254C37.1298 44.1669 38.0742 43.5346 38.9671 42.8341L39.6392 43.5062C39.9324 43.7992 40.3298 43.9637 40.7442 43.9637C41.1586 43.9637 41.556 43.7992 41.8491 43.5062L43.5062 41.8491C43.7988 41.5558 43.9631 41.1583 43.9631 40.744C43.9631 40.3297 43.7988 39.9323 43.5062 39.6389L42.8424 38.9591C43.5414 38.0653 44.1724 37.1203 44.7299 36.1321L45.6069 36.4952C45.9898 36.6534 46.4198 36.6532 46.8026 36.4947C47.1853 36.3362 47.4896 36.0324 47.6486 35.6499L48.5454 33.4846C48.5628 33.4427 48.5703 33.3996 48.5838 33.3571C48.406 33.3832 48.2266 33.397 48.0468 33.3985H46.8898Z" fill="#F02801"/>
<path d="M10.9375 27.5391C10.2422 27.5391 9.56247 27.7453 8.98433 28.1316C8.40618 28.5179 7.95558 29.0669 7.68949 29.7093C7.4234 30.3517 7.35378 31.0586 7.48943 31.7406C7.62508 32.4225 7.95991 33.0489 8.45158 33.5406C8.94325 34.0323 9.56967 34.3671 10.2516 34.5028C10.9336 34.6384 11.6405 34.5688 12.2829 34.3027C12.9253 34.0366 13.4743 33.586 13.8606 33.0079C14.2469 32.4297 14.4531 31.75 14.4531 31.0547C14.4521 30.1226 14.0814 29.229 13.4223 28.5699C12.7632 27.9108 11.8696 27.5401 10.9375 27.5391ZM10.9375 33.0078C10.5512 33.0078 10.1736 32.8933 9.8524 32.6787C9.53121 32.464 9.28088 32.159 9.13305 31.8021C8.98522 31.4452 8.94654 31.0525 9.02191 30.6737C9.09727 30.2948 9.28328 29.9468 9.55643 29.6736C9.82958 29.4005 10.1776 29.2145 10.5565 29.1391C10.9353 29.0637 11.328 29.1024 11.6849 29.2502C12.0418 29.3981 12.3469 29.6484 12.5615 29.9696C12.7761 30.2908 12.8906 30.6684 12.8906 31.0547C12.89 31.5725 12.684 32.0689 12.3179 32.4351C11.9517 32.8012 11.4553 33.0072 10.9375 33.0078Z" fill="#F02801"/>
<path d="M43.3594 31.0547C43.3594 30.3594 43.1532 29.6797 42.7669 29.1015C42.3806 28.5234 41.8315 28.0728 41.1891 27.8067C40.5467 27.5406 39.8399 27.471 39.1579 27.6066C38.4759 27.7423 37.8495 28.0771 37.3578 28.5688C36.8662 29.0604 36.5313 29.6869 36.3957 30.3688C36.26 31.0508 36.3296 31.7577 36.5957 32.4001C36.8618 33.0425 37.3124 33.5915 37.8906 33.9778C38.4687 34.3641 39.1484 34.5703 39.8438 34.5703C40.7758 34.5693 41.6695 34.1986 42.3285 33.5395C42.9876 32.8804 43.3584 31.9868 43.3594 31.0547ZM37.8906 31.0547C37.8906 30.6684 38.0052 30.2908 38.2198 29.9696C38.4344 29.6484 38.7394 29.3981 39.0963 29.2502C39.4532 29.1024 39.8459 29.0637 40.2248 29.1391C40.6037 29.2145 40.9517 29.4005 41.2248 29.6736C41.498 29.9468 41.684 30.2948 41.7593 30.6737C41.8347 31.0525 41.796 31.4452 41.6482 31.8021C41.5004 32.159 41.25 32.464 40.9289 32.6787C40.6077 32.8933 40.23 33.0078 39.8438 33.0078C39.3259 33.0072 38.8295 32.8012 38.4634 32.4351C38.0972 32.0689 37.8912 31.5725 37.8906 31.0547Z" fill="#F02801"/>
<path d="M45.842 20.5769C41.4463 19.8517 38.0199 19.3009 37.1655 19.1639C35.6805 17.9995 34.0006 17.1082 32.2038 16.5315C32.4422 17.1302 32.6115 17.7541 32.7085 18.3912C34.0203 18.9055 35.245 19.6187 36.3396 20.5059C36.4468 20.594 36.5756 20.652 36.7127 20.6738C36.7134 20.6742 40.5006 21.2792 45.5879 22.1188C47.3417 22.4082 48.6837 24.0389 48.8151 25.9766H47.6562C47.4491 25.9766 47.2503 26.0589 47.1038 26.2054C46.9573 26.3519 46.875 26.5506 46.875 26.7578C46.875 26.965 46.9573 27.1638 47.1038 27.3103C47.2503 27.4568 47.4491 27.5391 47.6562 27.5391H48.8281V29.4922C48.8279 29.6993 48.7455 29.8979 48.599 30.0443C48.4525 30.1908 48.254 30.2732 48.0469 30.2735H46.4342C46.244 28.6591 45.4678 27.1708 44.253 26.0907C43.0382 25.0107 41.4692 24.4141 39.8438 24.4141C38.2183 24.4141 36.6493 25.0107 35.4345 26.0907C34.2197 27.1708 33.4435 28.6591 33.2533 30.2735H27.6741V25.6985C28.7372 25.1237 29.6285 24.2767 30.2566 23.2442C30.8848 22.2117 31.2272 21.0308 31.2489 19.8224C31.2706 18.6141 30.9708 17.4216 30.3801 16.3672C29.7894 15.3129 28.9291 14.4344 27.8873 13.8218C27.7077 13.7212 27.5047 13.6698 27.2989 13.6726C27.093 13.6754 26.8915 13.7324 26.7147 13.8378C26.5303 13.9484 26.3778 14.105 26.272 14.2922C26.1663 14.4794 26.111 14.6909 26.1116 14.9059V19.598H23.8884V14.9056C23.8889 14.6904 23.8336 14.4788 23.7278 14.2914C23.622 14.1041 23.4694 13.9474 23.2849 13.8367C23.1089 13.7314 22.9083 13.6744 22.7032 13.6713C22.4982 13.6682 22.2959 13.7192 22.1169 13.8191C21.0324 14.4453 20.1438 15.3612 19.5507 16.4642C18.9577 17.5671 18.6836 18.8134 18.7592 20.0634C18.8058 21.2327 19.1601 22.3689 19.7863 23.3574C20.4126 24.3459 21.2886 25.1516 22.3259 25.6931V30.2735H17.528C17.3377 28.6591 16.5616 27.1708 15.3468 26.0907C14.132 25.0107 12.563 24.4141 10.9375 24.4141C9.312 24.4141 7.74304 25.0107 6.52824 26.0907C5.31343 27.1708 4.53729 28.6591 4.34704 30.2735H2.34375C2.24017 30.2734 2.14086 30.2322 2.06761 30.159C1.99437 30.0857 1.9532 29.9864 1.95312 29.8828V27.5067H2.73438C2.94158 27.5067 3.14029 27.4243 3.2868 27.2778C3.43331 27.1313 3.51562 26.9326 3.51562 26.7254C3.51562 26.5182 3.43331 26.3195 3.2868 26.173C3.14029 26.0265 2.94158 25.9442 2.73438 25.9442H1.95312V24.2409C1.95589 23.3427 2.26698 22.4727 2.83435 21.7763C3.40172 21.08 4.19098 20.5996 5.07011 20.4155L17.3909 17.8724C17.5203 17.2826 17.7121 16.7083 17.963 16.1591L4.75426 18.8851C3.5235 19.143 2.41859 19.8156 1.62431 20.7905C0.830024 21.7654 0.394521 22.9834 0.390625 24.2409V29.8828C0.391234 30.4006 0.597205 30.8971 0.963355 31.2632C1.3295 31.6294 1.82594 31.8353 2.34375 31.836H5.07812C5.28532 31.8359 5.48403 31.7536 5.63054 31.6071C5.77705 31.4606 5.85936 31.2619 5.85938 31.0547C5.85938 29.7079 6.39439 28.4163 7.34672 27.4639C8.29906 26.5116 9.5907 25.9766 10.9375 25.9766C12.2843 25.9766 13.5759 26.5116 14.5283 27.4639C15.4806 28.4163 16.0156 29.7079 16.0156 31.0547C16.0156 31.2619 16.0979 31.4606 16.2445 31.6071C16.391 31.7536 16.5897 31.8359 16.7969 31.836H33.9844C34.1916 31.8359 34.3903 31.7536 34.5368 31.6071C34.6833 31.4606 34.7656 31.2619 34.7656 31.0547C34.7656 29.7079 35.3006 28.4163 36.253 27.4639C37.2053 26.5116 38.4969 25.9766 39.8438 25.9766C41.1906 25.9766 42.4822 26.5116 43.4345 27.4639C44.3869 28.4163 44.9219 29.7079 44.9219 31.0547C44.9219 31.2619 45.0042 31.4606 45.1507 31.6071C45.2972 31.7536 45.4959 31.8359 45.7031 31.836H48.0469C48.6683 31.8353 49.264 31.5881 49.7034 31.1487C50.1428 30.7093 50.3899 30.1136 50.3906 29.4922V26.2879C50.3906 23.46 48.4352 21.0049 45.842 20.5769ZM26.1116 25.1934V30.2735H23.8884V25.1892C23.8884 25.033 23.8415 24.8803 23.7539 24.751C23.6662 24.6217 23.5418 24.5216 23.3967 24.4637C22.5147 24.0819 21.7582 23.4593 21.2139 22.6673C20.6697 21.8752 20.3596 20.9458 20.3194 19.9856C20.2686 19.1376 20.4248 18.29 20.7743 17.5158C21.1238 16.7416 21.6563 16.0639 22.3259 15.5411V19.9291C22.3224 20.2517 22.4469 20.5624 22.6721 20.7933C22.8974 21.0241 23.205 21.1562 23.5275 21.1605H26.4725C26.795 21.1562 27.1026 21.0241 27.3279 20.7933C27.5531 20.5624 27.6776 20.2517 27.6741 19.9291V15.5403C28.3095 16.0308 28.8221 16.6623 29.1715 17.3849C29.521 18.1075 29.6976 18.9015 29.6875 19.7041C29.7053 20.7143 29.4216 21.7069 28.8728 22.5552C28.3239 23.4034 27.5348 24.0689 26.606 24.4667C26.4602 24.5243 26.3351 24.6244 26.2469 24.754C26.1588 24.8836 26.1116 25.0367 26.1116 25.1934Z" fill="#F02801"/>
</g>
<defs>
<clipPath id="clip0_409_989">
<rect width="50" height="50" fill="white"/>
</clipPath>
</defs>
</svg>
