<svg width="16" height="14" viewBox="0 0 16 14" fill="none" xmlns="http://www.w3.org/2000/svg">
<path d="M14.4921 1.31938C12.4816 -0.439811 9.21046 -0.439783 7.19995 1.3194C5.82667 2.52103 5.34967 4.29183 5.94429 5.89842L0.137344 10.9795C0.0494376 11.0564 0 11.1606 0 11.2695V13.5899C0 13.8166 0.209657 14 0.468751 14H3.12057C3.24507 14 3.3641 13.9568 3.45198 13.8798L4.11482 13.2994C4.21598 13.2109 4.26541 13.0868 4.24895 12.9622L4.16654 12.3389L5.15348 12.2576C5.37779 12.2392 5.55495 12.0842 5.57601 11.8879L5.66895 11.0243L6.38123 11.0968C6.51351 11.1124 6.64673 11.0736 6.74698 10.9959C6.84676 10.9178 6.90398 10.8064 6.90398 10.6895V9.92579H7.76092C7.88542 9.92579 8.00445 9.88254 8.09233 9.80562L9.29443 8.7677C11.1301 9.28841 13.1188 8.90248 14.4921 7.70004C16.5026 5.94088 16.5026 3.07856 14.4921 1.31938ZM13.166 4.21973C12.6176 4.69958 11.7259 4.69958 11.1775 4.21973C10.6291 3.73987 10.6291 2.95962 11.1775 2.47976C11.7259 1.99991 12.6176 1.99991 13.166 2.47976C13.7144 2.95962 13.7144 3.73987 13.166 4.21973Z" fill="#F02801"/>
</svg>
