<svg width="18" height="14" viewBox="0 0 18 14" fill="none" xmlns="http://www.w3.org/2000/svg">
<g clip-path="url(#clip0_4185_2323)">
<path d="M3.16406 9.89844C3.16406 10.3506 3.63734 10.7188 4.21875 10.7188C4.80016 10.7188 5.27344 10.3506 5.27344 9.89844H3.16406Z" fill="#F02801"/>
<path d="M17.5365 5.64938L10.7365 0.3605C10.4378 0.128187 10.0403 0 9.61798 0H1.58203C0.709664 0 0 0.551961 0 1.23047V12.7695C0 13.448 0.709664 14 1.58203 14H10.0547C10.2545 14 10.4368 13.9123 10.5264 13.7733C11.7371 11.8891 14.2071 10.7188 16.916 10.7188H17.4727C17.7641 10.7188 18 10.5353 18 10.3086V6.51935C18 6.1909 17.8352 5.8817 17.5365 5.64938ZM6.32812 9.89844C6.32812 10.8033 5.38211 11.5391 4.21875 11.5391C3.05539 11.5391 2.10938 10.8033 2.10938 9.89844V9.48828C2.10938 9.26157 2.34524 9.07812 2.63672 9.07812H5.80078C6.09226 9.07812 6.32812 9.26157 6.32812 9.48828V9.89844ZM15.3633 7.41016H2.63672C2.34524 7.41016 2.10938 7.22671 2.10938 7V2.05078C2.10938 1.82407 2.34524 1.64062 2.63672 1.64062H9.18077C9.32084 1.64062 9.45475 1.68388 9.55361 1.7608L15.7361 6.56942C16.0187 6.78921 15.9479 7.41016 15.3633 7.41016Z" fill="#F02801"/>
<path d="M8.96242 2.46094H3.16406V6.58984H14.271L8.96242 2.46094Z" fill="#F02801"/>
</g>
<defs>
<clipPath id="clip0_4185_2323">
<rect width="18" height="14" fill="white"/>
</clipPath>
</defs>
</svg>
