<svg width="18" height="14" viewBox="0 0 18 14" fill="none" xmlns="http://www.w3.org/2000/svg">
<path d="M17.7614 6.66216L15.7416 5.05457C15.5589 4.90921 15.3143 4.88455 15.1087 4.99195C14.9038 5.0984 14.774 5.31788 14.774 5.55812V6.54178H14.1765V5.54764C14.1765 5.19846 13.9065 4.91534 13.5736 4.91534H12.3731V2.56767C12.3731 2.21842 12.103 1.93537 11.7701 1.93537H9.89451V1.26435H10.3994C10.7324 1.26435 11.0025 0.981229 11.0025 0.632109C11.0025 0.282989 10.7324 0 10.3994 0H6.50358C6.17062 0 5.90055 0.282989 5.90055 0.632109C5.90055 0.981229 6.17062 1.26435 6.50358 1.26435H7.00884V1.93537H4.67756C4.34454 1.93537 4.07447 2.21842 4.07447 2.56767V3.80166H2.89676C2.56368 3.80166 2.29368 4.08471 2.29368 4.43383V5.88002H1.20599V4.08631C1.20599 3.73719 0.935987 3.45414 0.602964 3.45414C0.269941 3.45408 0 3.73719 0 4.08625V10.6987C0 11.0478 0.269941 11.3308 0.603025 11.3308C0.936048 11.3308 1.20605 11.0478 1.20605 10.6987V8.90492H2.2938V10.3875C2.2938 10.7366 2.5638 11.0196 2.89689 11.0196H4.41335L6.54088 13.7664C6.6554 13.9142 6.8274 14 7.00896 14H13.5737C13.9067 14 14.1766 13.7168 14.1766 13.3678V12.5325H14.7741V13.3678C14.7741 13.6147 14.9112 13.8388 15.1251 13.9422C15.2057 13.981 15.2918 13.9999 15.3771 13.9999C15.5184 13.9999 15.658 13.9478 15.7696 13.8477L17.7895 12.0328C17.9232 11.9126 18 11.7373 18 11.5527V7.16552C17.9999 6.96808 17.9116 6.78164 17.7614 6.66216Z" fill="#F02801"/>
</svg>
