<svg width="18" height="14" viewBox="0 0 18 14" fill="none" xmlns="http://www.w3.org/2000/svg">
<path d="M17.9861 3.93223C17.876 3.39641 17.1339 3.14262 16.3001 3.3521C16.1201 3.40044 15.9511 3.46491 15.7969 3.54146L16.1752 4.58488C16.1973 4.60502 16.2193 4.62115 16.2413 4.64129C16.4434 4.81856 16.6197 5.01596 16.7703 5.23753C17.5784 5.00789 18.0964 4.45195 17.9861 3.93223Z" fill="#F02801"/>
<path d="M1.70849 4.6494C1.73052 4.62923 1.75256 4.60909 1.7746 4.59299L2.16397 3.52133C2.02073 3.44882 1.86644 3.39244 1.70115 3.35213C0.852622 3.13862 0.128969 3.3884 0.0150977 3.93227C-0.095097 4.44393 0.408144 4.99183 1.19056 5.22953C1.33748 5.016 1.51014 4.82263 1.70849 4.6494Z" fill="#F02801"/>
<path d="M1.77734 11.5104V13.2871C1.77734 13.6819 2.06755 14.0001 2.42753 14.0001H4.21642C4.57272 14.0001 4.86293 13.6819 4.86293 13.2871V11.74H2.59651C2.3063 11.74 2.02713 11.6594 1.77734 11.5104Z" fill="#F02801"/>
<path d="M13.0859 11.74V13.2871C13.0859 13.6819 13.3761 14.0001 13.7398 14.0001H15.525C15.8813 14.0001 16.1752 13.6819 16.1752 13.2871V11.5104C15.9254 11.6594 15.6389 11.74 15.3524 11.74H13.0859Z" fill="#F02801"/>
<path d="M16.0082 4.95564C15.9594 4.91236 15.9102 4.87223 15.8719 4.8443L14.4068 0.823842C14.2246 0.323399 13.7888 0 13.2962 0H4.65286C4.16034 0 3.72449 0.323399 3.54226 0.823842L2.07581 4.84824C2.02846 4.88522 1.98182 4.92417 1.93734 4.96312C1.12914 5.67168 0.794457 6.77211 0.91427 8.32812C0.969513 9.04574 1.1191 9.75155 1.35908 10.4263C1.45594 10.7029 1.62992 10.9342 1.85914 11.0939C2.07832 11.2529 2.33301 11.3367 2.59595 11.3367H15.3532C15.6147 11.3367 15.8776 11.2505 16.0928 11.0947C16.3203 10.9318 16.4921 10.7009 16.5897 10.4271C16.8304 9.75037 16.98 9.04416 17.0348 8.32812C17.1546 6.77014 16.8189 5.66696 16.0082 4.95564ZM3.98602 3.88128L4.87495 1.43221C4.92822 1.28354 5.05716 1.18848 5.20408 1.18848H12.7454C12.8923 1.18848 13.0212 1.28396 13.0741 1.4314L13.9634 3.88168C14.0083 4.00293 13.9958 4.13308 13.9304 4.23982C13.8635 4.349 13.7555 4.41145 13.6343 4.41145H4.31515C4.19614 4.41145 4.0896 4.34942 4.02275 4.24144C3.95589 4.13347 3.94268 4.00214 3.98602 3.88128ZM4.64963 8.61343H2.97425C2.51141 8.61343 2.13307 8.19849 2.13307 7.69086V7.27189C2.13307 7.09059 2.2653 6.94556 2.43097 6.94556H3.72359C4.06155 6.94556 4.36642 7.09462 4.59051 7.33634C4.8109 7.58208 4.94681 7.91647 4.94681 8.28711C4.94681 8.4684 4.81458 8.61343 4.64963 8.61343ZM12.0985 7.39068L11.5853 8.91273C11.5497 9.02272 11.4443 9.09443 11.3234 9.09443H6.62708C6.50624 9.09443 6.40082 9.02272 6.36555 8.91273L5.85202 7.39068C5.79655 7.2231 5.92769 7.05107 6.11393 7.05107H11.8369C12.0228 7.05107 12.1539 7.2231 12.0985 7.39068ZM16.1063 7.69086C16.1063 7.81777 16.0827 7.9389 16.04 8.04918C15.9119 8.38006 15.6122 8.61343 15.2651 8.61343H13.5901C13.4248 8.61343 13.2926 8.4684 13.2926 8.28711C13.2926 7.91647 13.4285 7.58208 13.6525 7.33634C13.8729 7.09462 14.1778 6.94556 14.5158 6.94556H15.8088C15.9778 6.94556 16.1063 7.09059 16.1063 7.27189V7.69086Z" fill="#F02801"/>
</svg>
