<svg width="14" height="14" viewBox="0 0 14 14" fill="none" xmlns="http://www.w3.org/2000/svg">
<g clip-path="url(#clip0_4185_2355)">
<path d="M6.47595 0.966275C6.23161 0.966275 6.0335 0.76817 6.0335 0.523825V0H4.9124V0.523825C4.9124 0.76817 4.7143 0.966275 4.46995 0.966275H3.7168V1.88749H7.22914V0.966275H6.47595Z" fill="#F02801"/>
<path d="M13.289 3.25173C12.9737 3.00897 12.5197 3.06768 12.277 3.38298L12.1133 3.59536L13.2542 4.47939L13.4203 4.26348C13.6631 3.94848 13.6041 3.49449 13.289 3.25173Z" fill="#F02801"/>
<path d="M2.96673 7.33109H7.9812C8.02462 7.33109 8.06651 7.3376 8.10616 7.3493L10.518 4.21753V2.1883C10.518 1.52447 9.97792 0.98443 9.31413 0.98443H8.11496V2.32994C8.11496 2.57428 7.91686 2.77239 7.67251 2.77239H3.27517C3.03082 2.77239 2.83272 2.57428 2.83272 2.32994V0.984375H1.63355C0.969728 0.984375 0.429688 1.52444 0.429688 2.18824V12.7961C0.429688 13.4599 0.969755 13.9999 1.63355 13.9999H9.31407C9.9779 13.9999 10.5179 13.4599 10.5179 12.7961V9.4831L10.1079 10.0155C10.0448 10.0978 9.95449 10.155 9.85305 10.1774L8.08174 10.5697C8.04988 10.5768 8.01803 10.5804 7.98617 10.5804C7.88913 10.5804 7.79414 10.5485 7.71599 10.4883C7.61217 10.4084 7.54933 10.2865 7.54403 10.1556L7.47088 8.3427C7.46916 8.29975 7.47411 8.25714 7.48458 8.21602H2.96673C2.72238 8.21602 2.52428 8.01791 2.52428 7.77357C2.52428 7.5292 2.72236 7.33109 2.96673 7.33109ZM2.96673 9.69537H5.87143C6.11578 9.69537 6.31388 9.89348 6.31388 10.1378C6.31388 10.3822 6.11578 10.5803 5.87143 10.5803H2.96673C2.72238 10.5803 2.52428 10.3822 2.52428 10.1378C2.52428 9.89348 2.72238 9.69537 2.96673 9.69537ZM2.96673 4.96681H7.9812C8.22554 4.96681 8.42365 5.16491 8.42365 5.40926C8.42365 5.6536 8.22554 5.85171 7.9812 5.85171H2.96673C2.72238 5.85171 2.52428 5.6536 2.52428 5.40926C2.52428 5.16491 2.72236 4.96681 2.96673 4.96681Z" fill="#F02801"/>
<path d="M11.5739 4.29663L8.36133 8.46785L8.40647 9.5914L9.50466 9.34834L12.7145 5.18036L11.5739 4.29663Z" fill="#F02801"/>
</g>
<defs>
<clipPath id="clip0_4185_2355">
<rect width="14" height="14" fill="white"/>
</clipPath>
</defs>
</svg>
