<svg width="18" height="14" viewBox="0 0 18 14" fill="none" xmlns="http://www.w3.org/2000/svg">
<path d="M6.3457 11.7756H7.80035C7.8536 11.9683 7.96113 12.1501 8.12279 12.3C8.60495 12.7471 9.3953 12.7471 9.87745 12.3C10.0391 12.1501 10.1466 11.9683 10.1999 11.7756H11.6327C11.5412 11.9746 11.4006 12.1112 11.4006 12.1112L9.67138 13.713C9.67138 13.713 9.49123 13.8747 9.2362 13.9552C8.98116 14.0357 8.67576 14.0341 8.34281 13.7254L6.58572 12.0982C6.46721 11.9883 6.39096 11.8802 6.3457 11.7756Z" fill="#F02801"/>
<path d="M9.00011 10.9106C9.15878 10.9106 9.31765 10.9674 9.44014 11.0809C9.68511 11.3081 9.68511 11.667 9.44014 11.8942C9.19516 12.1214 8.80566 12.1214 8.56069 11.8942C8.31571 11.667 8.31571 11.3081 8.56069 11.0809C8.68317 10.9674 8.84144 10.9106 9.00011 10.9106Z" fill="#F02801"/>
<path d="M9.01632 8.97443C9.21193 8.97013 9.42794 9.03802 9.65636 9.24983L11.4134 10.8769C11.5321 10.9869 11.6083 11.0954 11.6535 11.2001H10.1988C10.1458 11.0067 10.0386 10.8234 9.87638 10.6729C9.6353 10.4494 9.31707 10.3374 8.99874 10.3374C8.68042 10.3374 8.36279 10.4494 8.12171 10.6729C7.95943 10.8234 7.8517 11.0067 7.79866 11.2001H6.36523C6.45674 11.0002 6.59798 10.864 6.59798 10.864L8.32536 9.26276C8.32536 9.26276 8.50794 9.09876 8.76297 9.01827C8.84267 8.99312 8.9274 8.97639 9.01632 8.97443Z" fill="#F02801"/>
<path d="M12.6065 5.11377L13.1435 5.40097L10.67 9.37573L10.2148 8.95364L12.6065 5.11377Z" fill="#F02801"/>
<path d="M5.39052 5.11377L7.7822 8.9542L7.32701 9.37629L4.85352 5.40097L5.39052 5.11377Z" fill="#F02801"/>
<path d="M10.6975 2.42834L16.6094 5.59376L15.679 7.08935C15.679 7.08935 15.5914 7.22181 15.4433 7.31248C15.2952 7.40315 15.1066 7.44671 14.8317 7.29956C14.5539 7.15082 14.5029 6.97991 14.5135 6.81564C14.5241 6.65137 14.605 6.51382 14.605 6.51382L14.9141 6.01473C15 5.87744 14.9499 5.7012 14.802 5.6213L11.5763 3.89471C11.4277 3.81548 11.2381 3.86306 11.1527 4.00094L10.8411 4.50003C10.8411 4.50003 10.7535 4.63249 10.6054 4.72316C10.4573 4.81383 10.265 4.85543 9.99382 4.71023C9.72185 4.56463 9.66438 4.38833 9.67501 4.22407C9.68564 4.0598 9.76653 3.9245 9.76653 3.9245L10.6975 2.42834Z" fill="#F02801"/>
<path d="M7.30058 2.42834L8.23155 3.9245C8.23155 3.9245 8.31244 4.0598 8.32307 4.22407C8.3337 4.38833 8.27623 4.56463 8.00426 4.71023C7.73306 4.85543 7.5408 4.81383 7.39271 4.72316C7.24461 4.63249 7.15693 4.50003 7.15693 4.50003L6.8454 4.00094C6.76002 3.86306 6.57039 3.81548 6.42173 3.89471L3.19606 5.6213C3.04821 5.7012 2.99812 5.87744 3.08394 6.01473L3.39305 6.51382C3.39305 6.51382 3.47394 6.65137 3.48457 6.81564C3.4952 6.9799 3.44418 7.15082 3.16637 7.29956C2.89151 7.44671 2.7029 7.40315 2.55481 7.31248C2.40672 7.22181 2.31904 7.08935 2.31904 7.08935L1.38867 5.59376L7.30058 2.42834Z" fill="#F02801"/>
<path d="M11.3169 1.43127L17.23 4.59557L16.9191 5.09522L11.0078 1.92868L11.3169 1.43127Z" fill="#F02801"/>
<path d="M6.68265 1.43127L6.99176 1.92868L1.08046 5.09522L0.769531 4.59557L6.68265 1.43127Z" fill="#F02801"/>
<path d="M12.6958 0.000275178C12.7131 0.000678049 12.7302 0.0019442 12.7473 0.00309526C13.0213 0.0215583 13.2491 0.136861 13.2491 0.136861L17.4779 2.40133C17.4779 2.40133 17.6988 2.52602 17.8531 2.73686C18.0074 2.94771 18.089 3.22021 17.8531 3.59904L17.5422 4.09869L11.6309 0.932149L11.9406 0.434181C12.1612 0.079814 12.4365 -0.00567724 12.6958 0.000275178Z" fill="#F02801"/>
<path d="M5.30518 0.000284912C5.56447 -0.00566895 5.83975 0.0798139 6.06038 0.434181L6.3701 0.932149L0.458793 4.09869L0.147864 3.59904C-0.087996 3.22021 -0.0064025 2.94771 0.147864 2.73686C0.302131 2.52602 0.52304 2.40133 0.52304 2.40133L4.75181 0.136861C4.75181 0.136861 4.97961 0.0215584 5.25366 0.00309512C5.27078 0.00194406 5.28789 0.000687783 5.30518 0.000284912Z" fill="#F02801"/>
</svg>
