<svg width="14" height="14" viewBox="0 0 14 14" fill="none" xmlns="http://www.w3.org/2000/svg">
<g clip-path="url(#clip0_4185_2403)">
<path d="M12.9215 8.10837H9.77148L10.2673 5.92087H12.9507C13.4757 5.92087 13.884 5.51254 13.884 4.98754C13.884 4.46254 13.4757 4.05421 12.9507 4.05421H10.7048L11.3173 1.31254C11.3757 0.787541 11.0548 0.291708 10.5298 0.175041C10.034 0.0583746 9.50898 0.379208 9.42148 0.904208L8.72148 4.05421H6.56315L7.17565 1.31254C7.29232 0.787541 6.97148 0.291708 6.47565 0.175041C5.97982 0.0583746 5.45482 0.379208 5.36732 0.904208L4.66732 4.02504H1.07982C0.554818 4.02504 0.146484 4.43337 0.146484 4.95837C0.146484 5.48337 0.554818 5.89171 1.07982 5.89171H4.22982L3.73398 8.07921H1.07982C0.554818 8.07921 0.146484 8.48754 0.146484 9.01254C0.146484 9.53754 0.554818 9.94587 1.07982 9.94587H3.32565L2.71315 12.6875C2.59648 13.1834 2.91732 13.7084 3.44232 13.7959C3.50065 13.825 3.58815 13.825 3.64648 13.825C4.08398 13.825 4.46315 13.5334 4.55065 13.0959L5.25065 9.94587H7.40898L6.79648 12.6875C6.67982 13.1834 7.00065 13.7084 7.52565 13.7959C7.58398 13.825 7.67148 13.825 7.72982 13.825C8.16732 13.825 8.54648 13.5334 8.63398 13.0959L9.33398 9.97504H12.8923C13.4173 9.97504 13.8257 9.56671 13.8257 9.04171C13.8257 8.51671 13.4465 8.10837 12.9215 8.10837ZM5.68815 8.10837L6.18398 5.92087H8.34232L7.84648 8.10837H5.68815Z" fill="#F02801"/>
</g>
<defs>
<clipPath id="clip0_4185_2403">
<rect width="14" height="14" fill="white"/>
</clipPath>
</defs>
</svg>
