<svg width="18" height="14" viewBox="0 0 18 14" fill="none" xmlns="http://www.w3.org/2000/svg">
<g clip-path="url(#clip0_4185_2311)">
<path d="M18 1.63333C18 0.705665 17.0057 -0.0413939 15.8007 0.00178187C14.7339 0.0400084 13.8642 0.708563 13.8035 1.5379C13.7529 2.22959 14.2562 2.8344 15 3.10926V5.36665C15 5.88211 14.4628 6.29998 13.8 6.29998H10.8977C10.6902 5.9604 10.3367 5.68537 9.90005 5.52404V3.10926C10.6439 2.83438 11.1471 2.22959 11.0966 1.5379C11.0359 0.708563 10.1662 0.0400084 9.09933 0.00178187C7.89439 -0.0413666 6.90006 0.705665 6.90006 1.63333C6.90006 2.28485 7.39063 2.84712 8.10005 3.10926V5.52407C7.66344 5.68543 7.30984 5.96042 7.10242 6.3H3V3.10926C3.74384 2.83438 4.2471 2.22959 4.19651 1.5379C4.13587 0.708563 3.26617 0.0400084 2.19929 0.00178187C0.99434 -0.0413666 1.56973e-05 0.705665 1.56973e-05 1.63333C1.56973e-05 2.28485 0.490586 2.84712 1.2 3.10926V10.8907C0.456168 11.1656 -0.0470937 11.7704 0.00349617 12.4621C0.0641407 13.2914 0.933836 13.96 2.00072 13.9982C3.20567 14.0413 4.19999 13.2943 4.19999 12.3667C4.19999 11.7151 3.70942 11.1529 3 10.8907V7.7H7.10235C7.30981 8.03959 7.66337 8.31461 8.09998 8.47594V10.8907C7.35614 11.1656 6.85288 11.7704 6.90347 12.4621C6.96412 13.2914 7.83381 13.96 8.9007 13.9982C10.1056 14.0414 11.1 13.2943 11.1 12.3667C11.1 11.7152 10.6094 11.1529 9.89998 10.8907V8.47594C10.3366 8.31458 10.6902 8.03959 10.8976 7.7H13.8C15.4568 7.7 16.8 6.65534 16.8 5.36668V3.10926C17.5094 2.84712 18 2.28485 18 1.63333Z" fill="#F02801"/>
</g>
<defs>
<clipPath id="clip0_4185_2311">
<rect width="18" height="14" fill="white"/>
</clipPath>
</defs>
</svg>
