<svg width="16" height="16" viewBox="0 0 16 16" fill="none" xmlns="http://www.w3.org/2000/svg">
<g clip-path="url(#clip0_4185_2334)">
<path fill-rule="evenodd" clip-rule="evenodd" d="M13.9933 10.024C13.9933 10.024 16.0004 11.9024 16.0004 13.7673C16.0004 14.9997 14.9075 15.9999 13.5627 15.9999C12.2171 15.9999 11.125 14.9997 11.125 13.7673C11.125 11.9024 13.1312 10.024 13.1312 10.024C13.3693 9.80596 13.7553 9.80596 13.9933 10.024Z" fill="#F02801"/>
<path fill-rule="evenodd" clip-rule="evenodd" d="M13.2455 8.695L8.64889 12.9049C8.07766 13.4281 7.30248 13.722 6.49479 13.722C5.6863 13.722 4.91111 13.4281 4.33988 12.9049L0.893004 9.74803C0.321774 9.22412 0 8.51416 0 7.77443C0 7.03396 0.321774 6.32399 0.893004 5.80083L6.06332 1.06551C6.3014 0.847465 6.68737 0.847465 6.92545 1.06551L13.2455 6.85312C13.8005 7.36215 13.8005 8.18671 13.2455 8.695ZM12.3834 7.90615C12.463 7.83322 12.463 7.71564 12.3834 7.64271L6.49479 2.24953L1.75513 6.59042C1.41223 6.90447 1.21884 7.33014 1.21884 7.77443C1.21884 8.21871 1.41223 8.64439 1.75513 8.95844L5.20201 12.1153C5.54491 12.4294 6.0097 12.6057 6.49479 12.6057C6.97908 12.6057 7.44468 12.4294 7.78758 12.1153L12.3834 7.90615Z" fill="#F02801"/>
<path fill-rule="evenodd" clip-rule="evenodd" d="M7.91072 1.96746C8.1488 2.18551 8.1488 2.53901 7.91072 2.75705C7.67264 2.97436 7.28668 2.97436 7.0486 2.75705L5.07895 0.952383C4.84087 0.735078 4.84087 0.380842 5.07895 0.163537C5.31703 -0.0545123 5.703 -0.0545123 5.94108 0.163537L7.91072 1.96746Z" fill="#F02801"/>
<path fill-rule="evenodd" clip-rule="evenodd" d="M0.60942 7.21631H13.0522C13.3886 7.21631 13.6616 7.46636 13.6616 7.77445C13.6616 8.10785 13.5226 8.44125 13.2455 8.69502L8.64889 12.9049C8.07766 13.4281 7.30248 13.7221 6.49479 13.7221C5.6863 13.7221 4.91111 13.4281 4.33988 12.9049L0.893004 9.74806C0.321774 9.22415 0 8.51418 0 7.77445C0 7.46636 0.27302 7.21631 0.60942 7.21631Z" fill="#F02801"/>
</g>
<defs>
<clipPath id="clip0_4185_2334">
<rect width="16" height="16" fill="white"/>
</clipPath>
</defs>
</svg>
