<svg width="18" height="14" viewBox="0 0 18 14" fill="none" xmlns="http://www.w3.org/2000/svg">
<path d="M16.5401 3.97496L15.4313 5.59756C15.9661 6.63523 16.2278 7.7857 16.1932 8.94599C16.1586 10.1063 15.8287 11.2401 15.233 12.2458H2.73861C1.96441 10.9391 1.64359 9.42435 1.82375 7.92629C2.0039 6.42815 2.67543 5.02642 3.73878 3.92885C4.80212 2.83127 6.20068 2.09629 7.72708 1.83286C9.25354 1.56943 10.8266 1.79158 12.2131 2.46638L13.8808 1.38757C12.1829 0.328251 10.1688 -0.146442 8.16087 0.0394461C6.15288 0.225326 4.267 1.06103 2.80486 2.41289C1.34273 3.76475 0.388809 5.55467 0.0957052 7.49626C-0.197408 9.43794 0.187231 11.4191 1.18809 13.1229C1.3454 13.388 1.57129 13.6085 1.8433 13.7624C2.11531 13.9162 2.42397 13.9981 2.73861 14H15.224C15.5416 14.0012 15.854 13.9207 16.1295 13.7667C16.405 13.6127 16.6337 13.3906 16.7925 13.1229C17.6231 11.723 18.04 10.1271 17.997 8.51122C17.9541 6.89528 17.4529 5.32242 16.5491 3.96619L16.5401 3.97496Z" fill="#F02801"/>
<path d="M7.71435 9.97426C7.88175 10.1373 8.08062 10.2668 8.29949 10.355C8.51837 10.4433 8.75302 10.4888 8.98993 10.4888C9.22683 10.4888 9.46149 10.4433 9.68036 10.355C9.89924 10.2668 10.098 10.1373 10.2655 9.97426L15.3678 2.52783L7.71435 7.49212C7.54668 7.655 7.41371 7.84848 7.32302 8.06144C7.23224 8.27439 7.18555 8.5027 7.18555 8.73319C7.18555 8.96369 7.23224 9.19199 7.32302 9.40495C7.41371 9.6179 7.54668 9.8113 7.71435 9.97426Z" fill="#F02801"/>
</svg>
