<svg width="14" height="14" viewBox="0 0 14 14" fill="none" xmlns="http://www.w3.org/2000/svg">
<path d="M0.667897 4.22642H13.3292C13.4836 4.22642 13.6307 4.16645 13.7366 4.06079C13.8425 3.95513 13.8974 3.81302 13.8887 3.66774L13.8817 3.53064C13.7907 2.14332 12.5607 1.0566 11.081 1.0566H10.3609V0.528302C10.3609 0.236679 10.1099 0 9.80055 0C9.49122 0 9.24018 0.236679 9.24018 0.528302V1.0566H4.75721V0.528302C4.75721 0.236679 4.50616 0 4.19684 0C3.88751 0 3.63646 0.236679 3.63646 0.528302V1.0566H2.91639C1.43673 1.0566 0.206431 2.14359 0.115371 3.5317L0.108366 3.668C0.0994003 3.81302 0.154597 3.95513 0.260227 4.06106C0.365857 4.16698 0.513795 4.22642 0.667897 4.22642Z" fill="#F02801"/>
<path d="M13.9778 5.79805C13.9705 5.51145 13.7217 5.28296 13.4177 5.28296H0.582396C0.278395 5.28296 0.0298698 5.51145 0.0220246 5.79805C-0.0281287 7.6907 0.00745498 9.57673 0.127935 11.4044C0.215353 12.7304 1.34198 13.7923 2.74795 13.8747C4.15897 13.9582 5.57951 13.9999 7.00005 13.9999C8.42031 13.9999 9.84141 13.9582 11.2516 13.8745C12.6581 13.7921 13.7845 12.7299 13.8722 11.4041C13.9926 9.57673 14.0282 7.69043 13.9778 5.79805ZM9.80191 8.45277C9.33764 8.45277 8.96135 8.09802 8.96135 7.66032C8.96135 7.22262 9.33764 6.86786 9.80191 6.86786C10.2662 6.86786 10.6425 7.22262 10.6425 7.66032C10.6425 8.09802 10.2662 8.45277 9.80191 8.45277ZM10.6425 10.3018C10.6425 10.7395 10.2662 11.0943 9.80191 11.0943C9.33764 11.0943 8.96135 10.7395 8.96135 10.3018C8.96135 9.86413 9.33764 9.50937 9.80191 9.50937C10.2662 9.50937 10.6425 9.86413 10.6425 10.3018ZM4.19819 9.50937C4.66246 9.50937 5.03875 9.86413 5.03875 10.3018C5.03875 10.7395 4.66246 11.0943 4.19819 11.0943C3.73392 11.0943 3.35764 10.7395 3.35764 10.3018C3.35764 9.86413 3.73392 9.50937 4.19819 9.50937ZM3.35764 7.66032C3.35764 7.22262 3.73392 6.86786 4.19819 6.86786C4.66246 6.86786 5.03875 7.22262 5.03875 7.66032C5.03875 8.09802 4.66246 8.45277 4.19819 8.45277C3.73392 8.45277 3.35764 8.09802 3.35764 7.66032ZM6.15949 10.3018C6.15949 9.86413 6.53578 9.50937 7.00005 9.50937C7.46432 9.50937 7.84061 9.86413 7.84061 10.3018C7.84061 10.7395 7.46432 11.0943 7.00005 11.0943C6.53578 11.0943 6.15949 10.7395 6.15949 10.3018ZM7.00005 8.45277C6.53578 8.45277 6.15949 8.09802 6.15949 7.66032C6.15949 7.22262 6.53578 6.86786 7.00005 6.86786C7.46432 6.86786 7.84061 7.22262 7.84061 7.66032C7.84061 8.09802 7.46432 8.45277 7.00005 8.45277Z" fill="#F02801"/>
</svg>
