<svg width="18" height="14" viewBox="0 0 18 14" fill="none" xmlns="http://www.w3.org/2000/svg">
<g clip-path="url(#clip0_4185_2202)">
<path d="M16.3901 1.83545L14.8901 0.668773C14.7436 0.554832 14.5063 0.554832 14.3599 0.668773C14.2134 0.782715 14.2134 0.967285 14.3599 1.0812L15.5947 2.04165L14.3599 3.0021C14.2896 3.05679 14.25 3.13083 14.25 3.20832V4.08332C14.25 4.72678 14.9228 5.25 15.75 5.25V10.2083C15.75 10.3692 15.5819 10.5 15.375 10.5C15.1681 10.5 15 10.3693 15 10.2083V9.625C15 9.14249 14.4954 8.75 13.875 8.75H13.5V1.16668C13.5 0.523223 12.8273 0 12 0H4.50002C3.67276 0 3.00001 0.523223 3.00001 1.16668V11.6667C2.17275 11.6667 1.5 12.1899 1.5 12.8334V13.7084C1.5 13.8696 1.66773 14 1.87501 14H14.625C14.8323 14 15 13.8696 15 13.7084V12.8334C15 12.1899 14.3273 11.6667 13.5 11.6667V9.33335H13.875C14.0819 9.33335 14.25 9.46408 14.25 9.62503V10.2084C14.25 10.6909 14.7547 11.0834 15.375 11.0834C15.9954 11.0834 16.5 10.6909 16.5 10.2084V2.04168C16.5 1.96418 16.4605 1.89014 16.3901 1.83545ZM12 4.96374C12 5.12496 11.8323 5.25541 11.625 5.25541H4.875C4.66772 5.25541 4.49999 5.12496 4.49999 4.96374V1.45832C4.49999 1.29711 4.66772 1.16665 4.875 1.16665H11.625C11.8323 1.16665 12 1.29711 12 1.45832V4.96374Z" fill="#F02801"/>
</g>
<defs>
<clipPath id="clip0_4185_2202">
<rect width="18" height="14" fill="white"/>
</clipPath>
</defs>
</svg>
