<svg width="16" height="16" viewBox="0 0 16 16" fill="none" xmlns="http://www.w3.org/2000/svg">
<g clip-path="url(#clip0_4185_2314)">
<path d="M8 0C3.582 0 0 3.582 0 8C0 12.418 3.582 16 8 16C12.418 16 16 12.418 16 8C16 3.582 12.418 0 8 0ZM8 2C10.6035 2 12.8025 3.677 13.633 6H2.367C3.1975 3.677 5.3965 2 8 2ZM8 9C7.4475 9 7 8.5525 7 8C7 7.4475 7.4475 7 8 7C8.5525 7 9 7.4475 9 8C9 8.5525 8.5525 9 8 9ZM2 8C4.7325 8 6.9455 10.633 6.992 13.8985C4.164 13.414 2 10.963 2 8ZM9.008 13.8985C9.0545 10.633 11.2675 8 14 8C14 10.963 11.836 13.414 9.008 13.8985Z" fill="#F02801"/>
</g>
<defs>
<clipPath id="clip0_4185_2314">
<rect width="16" height="16" fill="white"/>
</clipPath>
</defs>
</svg>
