<svg width="28" height="28" viewBox="0 0 28 28" fill="none" xmlns="http://www.w3.org/2000/svg">
<path d="M14.0002 4.51449C14.9246 4.51449 15.674 3.76504 15.674 2.84056C15.674 1.91611 14.9246 1.16666 14.0002 1.16666C13.0756 1.16666 12.3262 1.91611 12.3262 2.84056C12.3262 3.76504 13.0756 4.51449 14.0002 4.51449Z" stroke="white" stroke-width="1.5" stroke-linecap="round" stroke-linejoin="round"/>
<path d="M25.1615 4.51449C26.0861 4.51449 26.8355 3.76504 26.8355 2.84056C26.8355 1.91611 26.0861 1.16666 25.1615 1.16666C24.237 1.16666 23.4877 1.91611 23.4877 2.84056C23.4877 3.76504 24.237 4.51449 25.1615 4.51449Z" stroke="white" stroke-width="1.5" stroke-linecap="round" stroke-linejoin="round"/>
<path d="M2.83846 4.51449C3.76295 4.51449 4.51236 3.76504 4.51236 2.84056C4.51236 1.91611 3.76295 1.16666 2.83846 1.16666C1.91398 1.16666 1.16455 1.91611 1.16455 2.84056C1.16455 3.76504 1.91398 4.51449 2.83846 4.51449Z" stroke="white" stroke-width="1.5" stroke-linecap="round" stroke-linejoin="round"/>
<path d="M14.0002 15.6738C14.9246 15.6738 15.674 14.9244 15.674 14C15.674 13.0755 14.9246 12.326 14.0002 12.326C13.0756 12.326 12.3262 13.0755 12.3262 14C12.3262 14.9244 13.0756 15.6738 14.0002 15.6738Z" stroke="white" stroke-width="1.5" stroke-linecap="round" stroke-linejoin="round"/>
<path d="M25.1615 15.6738C26.0861 15.6738 26.8355 14.9244 26.8355 14C26.8355 13.0755 26.0861 12.326 25.1615 12.326C24.237 12.326 23.4877 13.0755 23.4877 14C23.4877 14.9244 24.237 15.6738 25.1615 15.6738Z" stroke="white" stroke-width="1.5" stroke-linecap="round" stroke-linejoin="round"/>
<path d="M2.83846 15.6738C3.76295 15.6738 4.51236 14.9244 4.51236 14C4.51236 13.0755 3.76295 12.326 2.83846 12.326C1.91398 12.326 1.16455 13.0755 1.16455 14C1.16455 14.9244 1.91398 15.6738 2.83846 15.6738Z" stroke="white" stroke-width="1.5" stroke-linecap="round" stroke-linejoin="round"/>
<path d="M14.0002 26.8333C14.9246 26.8333 15.674 26.0839 15.674 25.1595C15.674 24.2349 14.9246 23.4855 14.0002 23.4855C13.0756 23.4855 12.3262 24.2349 12.3262 25.1595C12.3262 26.0839 13.0756 26.8333 14.0002 26.8333Z" stroke="white" stroke-width="1.5" stroke-linecap="round" stroke-linejoin="round"/>
<path d="M25.1615 26.8333C26.0861 26.8333 26.8355 26.0839 26.8355 25.1595C26.8355 24.2349 26.0861 23.4855 25.1615 23.4855C24.237 23.4855 23.4877 24.2349 23.4877 25.1595C23.4877 26.0839 24.237 26.8333 25.1615 26.8333Z" stroke="white" stroke-width="1.5" stroke-linecap="round" stroke-linejoin="round"/>
<path d="M2.83846 26.8333C3.76295 26.8333 4.51236 26.0839 4.51236 25.1595C4.51236 24.2349 3.76295 23.4855 2.83846 23.4855C1.91398 23.4855 1.16455 24.2349 1.16455 25.1595C1.16455 26.0839 1.91398 26.8333 2.83846 26.8333Z" stroke="white" stroke-width="1.5" stroke-linecap="round" stroke-linejoin="round"/>
</svg>
