<svg width="60" height="60" viewBox="0 0 60 60" fill="none" xmlns="http://www.w3.org/2000/svg">
<g clip-path="url(#clip0_676_3181)">
<path d="M17.4203 37.3587C13.917 35.3264 9.30507 35.3283 5.8074 37.3568C4.03919 38.3737 2.56726 39.8447 1.55321 41.611C0.537267 43.3627 0 45.3705 0 47.4194C0 49.4683 0.537267 51.476 1.55132 53.2239C2.5682 54.9931 4.04013 56.465 5.80551 57.4791C7.55718 58.495 9.56496 59.0323 11.6129 59.0323C13.6608 59.0323 15.6686 58.495 17.4184 57.4809C19.1866 56.4641 20.6586 54.9931 21.6726 53.2268C22.6885 51.476 23.2258 49.4683 23.2258 47.4194C23.2258 45.3705 22.6885 43.3627 21.6745 41.6148C20.6576 39.8456 19.1857 38.3737 17.4203 37.3587ZM17.2587 55.2657L16.3221 53.6421L14.6456 54.6099L15.5807 56.2306C14.6324 56.6517 13.6178 56.912 12.5806 57.0127V55.1613H10.6452V57.0117C9.6089 56.912 8.59438 56.6517 7.64507 56.2297L8.5802 54.6089L6.90367 53.6412L5.96711 55.2648C5.11845 54.6562 4.37705 53.9138 3.76654 53.0642L5.39015 52.1277L4.42241 50.4511L2.7988 51.3881C2.3721 50.4417 2.10276 49.4305 1.99833 48.3871H3.87097V46.4516H1.99833C2.10181 45.4092 2.3721 44.398 2.7988 43.4496L4.42241 44.3867L5.39015 42.7101L3.76654 41.7736C4.3761 40.9249 5.1175 40.1835 5.96711 39.573L6.90367 41.1966L8.5802 40.2289L7.64318 38.6053C8.5906 38.1786 9.60182 37.9092 10.6452 37.8048V39.6774H12.5806V37.8048C13.623 37.9083 14.6343 38.1786 15.5826 38.6053L14.6456 40.2289L16.3221 41.1966L17.2587 39.573C18.1074 40.1816 18.8488 40.924 19.4593 41.7736L17.8357 42.7101L18.8034 44.3867L20.427 43.4496C20.8537 44.3961 21.123 45.4083 21.2275 46.4516H19.3548V48.3871H21.2275C21.124 49.4295 20.8537 50.4407 20.427 51.3891L18.8034 50.4521L17.8357 52.1286L19.4593 53.0652C18.8497 53.9138 18.1083 54.6562 17.2587 55.2657Z" fill="#F02801"/>
<path d="M11.6121 42.5807C8.94424 42.5807 6.77344 44.7515 6.77344 47.4194C6.77344 50.0873 8.94424 52.2581 11.6121 52.2581C14.2801 52.2581 16.4509 50.0873 16.4509 47.4194C16.4509 44.7515 14.2801 42.5807 11.6121 42.5807ZM11.6121 50.3226C10.0117 50.3226 8.70892 49.0198 8.70892 47.4194C8.70892 45.8189 10.0117 44.5161 11.6121 44.5161C13.2126 44.5161 14.5154 45.8189 14.5154 47.4194C14.5154 49.0198 13.2126 50.3226 11.6121 50.3226Z" fill="#F02801"/>
<path d="M10.6445 46.4516H12.58V48.3871H10.6445V46.4516Z" fill="#F02801"/>
<path d="M59.966 29.9131C59.9438 29.6886 59.9088 29.4637 59.8644 29.2392L58.0258 20.0362C57.5263 17.5375 55.6811 15.5921 53.3449 14.8521C54.4605 13.7932 55.1613 12.3009 55.1613 10.6452V6.77419C55.1613 5.22949 54.5602 3.77126 53.4611 2.66035C52.3578 1.5688 50.8995 0.967743 49.3548 0.967743C46.1525 0.967743 43.5484 3.57186 43.5484 6.77419H40.6452V8.70968H43.5484V10.6452C43.5484 13.1505 45.146 15.2835 47.374 16.0963L38.61 24.8603L29.759 23.4455L26.3903 15.8614L31.1322 8.2036C33.1858 4.88407 36.7421 2.90323 40.6452 2.90323V0.967743C36.0678 0.967743 31.8958 3.29117 29.4873 7.18435L21.0725 20.7715L6.77419 7.22593C5.11183 5.64201 3.15886 4.83871 0.967742 4.83871H0V40.0124L1.67701 38.2074C4.27451 35.4105 7.80195 33.871 11.6129 33.871C12.5121 33.871 13.4118 33.9589 14.287 34.1332C19.3095 35.1444 23.4011 38.9941 24.7105 43.9463C25.0091 45.0591 25.1613 46.2281 25.1613 47.4194V50.3226H46.2395L45.6223 53.4177C45.6058 53.4937 45.5595 53.5575 45.4966 53.5887L42.807 54.9349C42.0708 55.3026 41.6129 56.0411 41.6129 56.8643C41.6129 58.0598 42.5854 59.0323 43.7809 59.0323H58.0645C59.132 59.0323 60 58.1642 60 57.0968V30.5807C60 30.3553 59.9891 30.1403 59.966 29.9131ZM47.8267 52.2581L48.2524 50.126C48.9022 49.8118 49.3548 49.1469 49.3548 48.3583L49.0647 38.6903C49.0647 37.535 48.4017 36.5313 47.4194 36.0649V33.8488C48.5062 33.8128 49.5812 33.716 50.633 33.5596C51.7066 38.8056 52.2581 44.1854 52.2581 49.568V52.2581H47.8267ZM52.5369 33.2127C54.3939 32.8248 56.2188 32.2606 57.9733 31.5069L58.0645 31.4682V52.2581H54.1936V49.568C54.1936 44.0554 53.6294 38.5471 52.5369 33.2127ZM56.129 20.4166L57.928 29.423L57.2083 29.7302C55.287 30.5557 53.2759 31.1516 51.2209 31.5069C49.919 31.7469 48.5719 31.8637 47.2124 31.9015C47.1056 31.4081 46.9714 30.9205 46.7805 30.4498C46.4885 29.7037 46.084 29.0082 45.5826 28.3655L53.1058 20.8424C53.7976 20.1515 54.1936 19.197 54.1936 18.2227C54.1936 17.9188 54.1454 17.6244 54.0745 17.3371C55.1041 18.0464 55.8706 19.1247 56.129 20.4166ZM45.4839 33.6966V35.6137L36.7742 34.0297V31.9355H45.2448C45.3435 32.2927 45.4121 32.6547 45.4508 33.0204C45.4763 33.2458 45.4839 33.4712 45.4839 33.6966ZM50.9983 16.531C51.2719 16.6085 51.5275 16.7602 51.7383 16.9714C52.0743 17.3069 52.2581 17.7511 52.2581 18.2227C52.2581 18.6872 52.0686 19.1427 51.7383 19.4739L44.2217 26.9905C43.2512 26.1862 42.1317 25.6154 40.9112 25.296L49.2367 16.9705C49.6899 16.5173 50.3457 16.325 50.9983 16.531ZM49.3548 2.90323C50.3864 2.90323 51.3622 3.30582 52.0927 4.02879C52.8232 4.76783 53.2258 5.74361 53.2258 6.77419H45.4839C45.4839 4.6393 47.22 2.90323 49.3548 2.90323ZM45.4839 10.6452V8.70968H53.2258V10.6452C53.2258 12.7801 51.4897 14.5161 49.3548 14.5161C47.22 14.5161 45.4839 12.7801 45.4839 10.6452ZM25.1556 17.855L27.4781 23.0817L22.7051 22.3181L22.5076 22.1314L25.1556 17.855ZM5.44071 8.6284L19.8312 22.2581H16.7748L13.2176 19.5892L3.75284 10.1254C3.23494 9.60985 2.61593 9.22663 1.93548 8.98658V6.84602C3.22738 7.04212 4.40209 7.6394 5.44071 8.6284ZM3.87097 20.8065C3.87097 20.969 3.88751 21.1306 3.91066 21.2903H1.93548V11.1347C2.09425 11.2406 2.24594 11.3563 2.38344 11.4929L8.30897 17.4194H7.25807C5.39015 17.4194 3.87097 18.9385 3.87097 20.8065ZM7.25807 19.3548H10.2445L11.8964 21.0068L13.5578 22.2581H7.25807C6.8739 22.2581 6.49824 22.104 6.22559 21.8304C6.18778 21.7936 6.14809 21.7501 6.0947 21.6745C5.90899 21.4288 5.80645 21.1202 5.80645 20.8065C5.80645 20.006 6.4576 19.3548 7.25807 19.3548ZM1.93548 35.3344V23.2258H4.88785C5.52388 23.8481 6.36309 24.1935 7.25807 24.1935H15.4607C15.3553 26.9205 14.8006 29.5761 13.8125 32.1089C13.0839 32.0064 12.3496 31.9355 11.6129 31.9355C8.08736 31.9355 4.66529 33.1537 1.93548 35.3344ZM15.7386 32.4921C16.737 29.8308 17.2937 27.0476 17.3962 24.1935H22.1834L39.7771 27.007C41.2278 27.2381 42.5362 27.9194 43.5621 28.9808C43.8725 29.3002 44.1466 29.6399 44.3815 30H34.8387V35.6467L46.3047 37.7301C46.7824 37.8038 47.1292 38.2074 47.1302 38.7191L47.245 42.5806H26.3176C24.7062 37.6956 20.6949 33.871 15.7386 32.4921ZM26.8227 44.5161H47.3031L47.4194 48.3871H27.0968V47.4194C27.0968 46.4341 27.0027 45.4617 26.8227 44.5161ZM43.5484 56.8643C43.5484 56.7811 43.5966 56.7041 43.6712 56.6663L46.3618 55.3201C46.833 55.0838 47.1892 54.685 47.3896 54.1935H51.0611L49.5802 54.9349C48.845 55.3026 48.3871 56.0411 48.3871 56.8643V57.0968H43.7809C43.6462 57.0968 43.5484 56.999 43.5484 56.8643ZM50.3226 57.0968V56.8643C50.3226 56.7811 50.3708 56.7041 50.4454 56.6663L52.9995 55.3886C53.5046 55.1362 53.8637 54.7025 54.0494 54.1945H58.0645V57.0977H50.3226V57.0968Z" fill="#F02801"/>
</g>
<defs>
<clipPath id="clip0_676_3181">
<rect width="60" height="60" fill="white"/>
</clipPath>
</defs>
</svg>
