<svg width="50" height="50" viewBox="0 0 50 50" fill="none" xmlns="http://www.w3.org/2000/svg">
<g clip-path="url(#clip0_417_2874)">
<path d="M36.3108 8.48417L28.3333 2.89917V0H26.6667V2.5H23.3333V0H21.6667V2.89917L13.6892 8.4825C13.3114 8.74531 13.218 9.26458 13.4807 9.6424C13.6369 9.86688 13.8931 10.0005 14.1667 10H35.8333C36.2935 9.99969 36.6664 9.62625 36.666 9.16604C36.6658 8.89448 36.5332 8.64 36.3108 8.48417ZM16.81 8.33333L22.7625 4.16667H27.2375L33.19 8.33333H16.81Z" fill="white"/>
<path d="M10.8332 32.5H9.1665C7.78577 32.5 6.6665 33.6193 6.6665 35V35.8333C6.6665 37.2141 7.78577 38.3333 9.1665 38.3333H10.8332C12.2139 38.3333 13.3332 37.2141 13.3332 35.8333V35C13.3332 33.6193 12.2139 32.5 10.8332 32.5ZM11.6665 35.8333C11.6665 36.2935 11.2934 36.6667 10.8332 36.6667H9.1665C8.7063 36.6667 8.33317 36.2935 8.33317 35.8333V35C8.33317 34.5398 8.7063 34.1667 9.1665 34.1667H10.8332C11.2934 34.1667 11.6665 34.5398 11.6665 35V35.8333Z" fill="white"/>
<path d="M40.8332 32.5H39.1665C37.7858 32.5 36.6665 33.6193 36.6665 35V35.8333C36.6665 37.2141 37.7858 38.3333 39.1665 38.3333H40.8332C42.2139 38.3333 43.3332 37.2141 43.3332 35.8333V35C43.3332 33.6193 42.2139 32.5 40.8332 32.5ZM41.6665 35.8333C41.6665 36.2935 41.2934 36.6667 40.8332 36.6667H39.1665C38.7063 36.6667 38.3332 36.2935 38.3332 35.8333V35C38.3332 34.5398 38.7063 34.1667 39.1665 34.1667H40.8332C41.2934 34.1667 41.6665 34.5398 41.6665 35V35.8333Z" fill="white"/>
<path d="M32.5 32.5H17.5C16.1193 32.5 15 33.6193 15 35V35.8333C15 37.2141 16.1193 38.3333 17.5 38.3333H32.5C33.8807 38.3333 35 37.2141 35 35.8333V35C35 33.6193 33.8807 32.5 32.5 32.5ZM33.3333 35.8333C33.3333 36.2935 32.9602 36.6667 32.5 36.6667H17.5C17.0398 36.6667 16.6667 36.2935 16.6667 35.8333V35C16.6667 34.5398 17.0398 34.1667 17.5 34.1667H32.5C32.9602 34.1667 33.3333 34.5398 33.3333 35V35.8333Z" fill="white"/>
<path d="M44.0466 30.0542L42.1991 29.315L36.6724 21.7158C35.8868 20.6394 34.635 20.0021 33.3024 20H16.6974C15.3648 20.0021 14.1131 20.6394 13.3274 21.7158L7.80077 29.315L5.95327 30.0542C4.36734 30.6824 3.32786 32.2175 3.33327 33.9233V48.3333C3.33327 49.2539 4.07942 50 4.99994 50H9.99994C10.9205 50 11.6666 49.2539 11.6666 48.3333V45H38.3333V48.3333C38.3333 49.2539 39.0794 50 39.9999 50H44.9999C45.9205 50 46.6666 49.2539 46.6666 48.3333V33.9233C46.672 32.2175 45.6325 30.6824 44.0466 30.0542ZM14.6749 22.6967C15.1463 22.0505 15.8976 21.6679 16.6974 21.6667H33.3024C34.1022 21.6679 34.8536 22.0505 35.3249 22.6967L40.0299 29.1667H9.96994L14.6749 22.6967ZM9.99994 48.3333H4.99994V44.8575C5.06994 44.8825 5.14577 44.8958 5.21911 44.9142C5.26744 44.9267 5.31411 44.9433 5.36411 44.9525C5.51859 44.9831 5.67577 44.9991 5.83327 45H9.99994V48.3333ZM44.9999 48.3333H39.9999V45H44.1666C44.3241 44.9991 44.4813 44.9831 44.6358 44.9525C44.6858 44.9433 44.7324 44.9267 44.7816 44.9142C44.8541 44.8958 44.9299 44.8825 44.9999 44.8575V48.3333ZM44.9999 42.5C44.9999 42.9602 44.6268 43.3333 44.1666 43.3333H10.8333H5.83327C5.37306 43.3333 4.99994 42.9602 4.99994 42.5V41.6667H44.9999V42.5ZM44.9999 40H4.99994V33.9233C4.9964 32.9 5.62004 31.9791 6.57161 31.6025L8.49327 30.8333H41.5066L43.4283 31.6025C44.3798 31.9791 45.0035 32.9 44.9999 33.9233V40Z" fill="white"/>
<path d="M25.8332 11.6667H24.1665V14.1667H25.8332V11.6667Z" fill="white"/>
<path d="M25.8332 15.8333H24.1665V18.3333H25.8332V15.8333Z" fill="white"/>
<path d="M16.0227 11.1383L14.4385 13.0723L15.7278 14.1284L17.3121 12.1944L16.0227 11.1383Z" fill="white"/>
<path d="M13.3833 14.3626L11.7988 16.2964L13.088 17.3527L14.6725 15.419L13.3833 14.3626Z" fill="white"/>
<path d="M10.7427 17.5853L9.1582 19.519L10.4474 20.5754L12.0319 18.6416L10.7427 17.5853Z" fill="white"/>
<path d="M8.10086 20.8119L6.51636 22.7456L7.80552 23.8019L9.39002 21.8682L8.10086 20.8119Z" fill="white"/>
<path d="M20.0338 11.4367L19.333 13.8364L20.9328 14.3036L21.6336 11.9038L20.0338 11.4367Z" fill="white"/>
<path d="M18.8656 15.4301L18.1638 17.8296L19.7635 18.2974L20.4652 15.8979L18.8656 15.4301Z" fill="white"/>
<path d="M11.2938 10.8829L9.45605 12.5779L10.5855 13.8024L12.4232 12.1074L11.2938 10.8829Z" fill="white"/>
<path d="M8.23033 13.7105L6.39258 15.4055L7.52201 16.6301L9.35976 14.9351L8.23033 13.7105Z" fill="white"/>
<path d="M5.16929 16.5338L3.33154 18.2288L4.46098 19.4533L6.29873 17.7583L5.16929 16.5338Z" fill="white"/>
<path d="M2.10753 19.3587L0.269775 21.0537L1.39921 22.2783L3.23696 20.5833L2.10753 19.3587Z" fill="white"/>
<path d="M33.979 11.3131L32.6899 12.3684L34.2737 14.3029L35.5627 13.2476L33.979 11.3131Z" fill="white"/>
<path d="M36.6148 14.531L35.3254 15.5872L36.9097 17.5212L38.199 16.465L36.6148 14.531Z" fill="white"/>
<path d="M39.2572 17.7568L37.968 18.813L39.5523 20.7467L40.8414 19.6906L39.2572 17.7568Z" fill="white"/>
<path d="M41.8917 20.9839L40.6025 22.04L42.1868 23.9738L43.476 22.9176L41.8917 20.9839Z" fill="white"/>
<path d="M29.966 11.6176L28.366 12.0842L29.066 14.4842L30.666 14.0176L29.966 11.6176Z" fill="white"/>
<path d="M31.1329 15.6051L29.5332 16.0728L30.2347 18.4723L31.8344 18.0046L31.1329 15.6051Z" fill="white"/>
<path d="M38.7041 11.0544L37.5747 12.2788L39.4122 13.9738L40.5416 12.7494L38.7041 11.0544Z" fill="white"/>
<path d="M41.7683 13.882L40.6387 15.1062L42.4759 16.8015L43.6055 15.5772L41.7683 13.882Z" fill="white"/>
<path d="M44.8276 16.7084L43.698 17.9326L45.5352 19.6279L46.6648 18.4036L44.8276 16.7084Z" fill="white"/>
<path d="M47.8912 19.5305L46.7617 20.7549L48.5992 22.4499L49.7287 21.2255L47.8912 19.5305Z" fill="white"/>
</g>
<defs>
<clipPath id="clip0_417_2874">
<rect width="50" height="50" fill="white"/>
</clipPath>
</defs>
</svg>
