<svg width="60" height="60" viewBox="0 0 60 60" fill="none" xmlns="http://www.w3.org/2000/svg">
<path fill-rule="evenodd" clip-rule="evenodd" d="M26.4304 56.4291C25.3676 56.4291 24.449 55.6359 24.2925 54.584L23.4699 49.0349C23.4513 48.9078 23.3676 48.8009 23.2514 48.7591C22.6302 48.5267 22.0152 48.2603 21.4203 47.9659C21.3057 47.9101 21.1693 47.9225 21.064 47.9984L16.528 51.2703C15.6635 51.8946 14.4892 51.8001 13.7348 51.0457L8.85949 46.1704C8.10814 45.419 8.01828 44.2091 8.6519 43.354L12.0988 38.7095C12.1748 38.6073 12.1887 38.4694 12.136 38.3501C11.8897 37.8048 11.6666 37.2424 11.4714 36.6785C11.428 36.5531 11.3212 36.4601 11.1926 36.44L5.50705 35.5197C4.45361 35.3493 3.69141 34.4524 3.69141 33.3865V26.4911C3.69141 25.4268 4.48304 24.5097 5.53649 24.3532L11.3351 23.4934C11.4621 23.4748 11.569 23.385 11.617 23.261C11.8153 22.7235 12.0415 22.189 12.2863 21.6716C12.3436 21.5523 12.3312 21.4144 12.2553 21.3091L8.8502 16.5918C8.22588 15.7273 8.32038 14.5531 9.07483 13.7986L13.9501 8.92331C14.7015 8.17196 15.9114 8.08211 16.7665 8.71572L21.4249 12.172C21.5287 12.2494 21.6682 12.2618 21.7906 12.2045C22.3297 11.952 22.8874 11.7196 23.4513 11.5151C23.5752 11.4702 23.6635 11.3648 23.6852 11.2378L24.6023 5.56778C24.7727 4.51433 25.6697 3.75058 26.7356 3.75058H33.6294C34.6922 3.75058 35.6108 4.54221 35.7673 5.59566L36.5946 11.1712C36.6132 11.2998 36.6999 11.4082 36.8208 11.45C37.4451 11.6685 38.0648 11.9241 38.6627 12.2045C38.7758 12.2572 38.9106 12.2432 39.0175 12.1673L43.5318 8.90782C44.3963 8.2835 45.5706 8.378 46.325 9.13245L51.2003 14.0077C51.9517 14.7591 52.0415 15.969 51.4079 16.8242L48.1531 21.213C48.0756 21.3184 48.0617 21.4593 48.1205 21.5833C48.4273 22.2231 48.703 22.8861 48.94 23.5585C48.985 23.684 49.0919 23.7769 49.2189 23.7955L54.5543 24.6584C55.6077 24.8288 56.3715 25.7258 56.3715 26.7916V33.6871C56.3715 34.7498 55.5783 35.6685 54.5264 35.8249L49.2003 36.615C49.0702 36.6336 48.9617 36.725 48.9184 36.8536C48.672 37.5461 48.3823 38.2308 48.0601 38.8923C48.0012 39.0132 48.0121 39.1541 48.088 39.2595L51.2127 43.591C51.837 44.4555 51.7425 45.6297 50.9881 46.3842L46.1128 51.2595C45.3614 52.0108 44.1515 52.1007 43.2964 51.4671L38.923 48.2231C38.8192 48.1472 38.6798 48.1332 38.5574 48.189C37.9129 48.4864 37.2437 48.7544 36.5682 48.9806C36.4412 49.024 36.3498 49.1294 36.3281 49.2564L35.4621 54.6135C35.2917 55.6669 34.3947 56.4307 33.3289 56.4307L26.4304 56.4291ZM22.2212 46.3439C22.7619 46.6104 23.3211 46.8536 23.8851 47.0643C24.6163 47.3385 25.143 47.9907 25.2576 48.7699L26.0802 54.3207C26.1066 54.4926 26.2553 54.6228 26.4288 54.6228H33.3242C33.4993 54.6228 33.6449 54.4988 33.6728 54.3253L34.5388 48.9682C34.6674 48.1766 35.222 47.5244 35.9873 47.2672C36.6008 47.0612 37.2096 46.818 37.7952 46.5484C38.5187 46.2138 39.3614 46.3005 39.9966 46.7715L44.3684 50.0139C44.5078 50.1177 44.7061 50.1022 44.8285 49.9799L49.7038 45.1046C49.8262 44.9822 49.8432 44.7901 49.741 44.6491L46.6147 40.316C46.1469 39.6685 46.0771 38.8164 46.4288 38.096C46.7216 37.495 46.985 36.8737 47.2081 36.2448C47.4776 35.4857 48.1391 34.9419 48.9292 34.8257L54.2553 34.0356C54.4273 34.0093 54.5574 33.8606 54.5574 33.6871V26.7916C54.5574 26.6166 54.4319 26.471 54.26 26.4431L48.9246 25.5802C48.1422 25.4531 47.4931 24.9078 47.2297 24.158C47.016 23.5492 46.765 22.9466 46.4861 22.3656C46.136 21.6359 46.215 20.7808 46.6953 20.1348L49.9501 15.7459C50.0539 15.6065 50.0384 15.4082 49.916 15.2858L45.0407 10.4105C44.9184 10.2866 44.7263 10.2711 44.5853 10.3734L40.0694 13.6313C39.4311 14.0914 38.5961 14.1704 37.8881 13.8389C37.3444 13.5833 36.782 13.3524 36.215 13.1541C35.4606 12.8877 34.9168 12.2293 34.7991 11.4345L33.9734 5.86057C33.947 5.68861 33.7983 5.55848 33.6248 5.55848H26.7294C26.5543 5.55848 26.4087 5.68242 26.3808 5.85592L25.4637 11.5259C25.3397 12.299 24.8006 12.9466 24.0617 13.2146C23.5504 13.3989 23.0438 13.6096 22.5528 13.8404C21.8293 14.1813 20.9819 14.096 20.3421 13.622L15.6821 10.1658C15.5427 10.062 15.3444 10.0775 15.222 10.1998L10.3498 15.0767C10.2274 15.1991 10.2104 15.3912 10.3126 15.5321L13.7177 20.251C14.1779 20.8892 14.2553 21.732 13.916 22.4462C13.693 22.9156 13.4885 23.402 13.3072 23.8916C13.0315 24.6352 12.3761 25.1696 11.5954 25.2843L5.79675 26.1441C5.62479 26.1704 5.49466 26.3191 5.49466 26.4926V33.3865C5.49466 33.5616 5.61859 33.7072 5.7921 33.7351L11.4776 34.6553C12.2646 34.7823 12.9137 35.3307 13.1771 36.0867C13.3537 36.5995 13.5566 37.1092 13.7813 37.6049C14.105 38.3207 14.0167 39.1572 13.5489 39.7862L10.1035 44.4307C9.99969 44.5701 10.0152 44.7684 10.1376 44.8908L15.0113 49.7661C15.1337 49.89 15.3258 49.9055 15.4668 49.8032L20.0028 46.5314C20.6782 46.048 21.5272 46 22.2212 46.3439Z" fill="#F02801"/>
<path fill-rule="evenodd" clip-rule="evenodd" d="M30.0277 45.1433C21.7271 45.1433 14.9727 38.3904 14.9727 30.0883C14.9727 21.7862 21.7256 15.0333 30.0277 15.0333C38.3297 15.0333 45.0826 21.7862 45.0826 30.0883C45.0826 38.3904 38.3282 45.1433 30.0277 45.1433ZM30.0277 16.8427C22.7232 16.8427 16.7821 22.7839 16.7821 30.0883C16.7821 37.3927 22.7232 43.3338 30.0277 43.3338C37.3321 43.3338 43.2732 37.3927 43.2732 30.0883C43.2732 22.7839 37.3305 16.8427 30.0277 16.8427Z" fill="#F02801"/>
<path fill-rule="evenodd" clip-rule="evenodd" d="M33.1597 44.7947C32.6609 44.7947 32.255 44.3904 32.255 43.89V35.7211C32.255 35.3788 32.4471 35.0674 32.7508 34.914C36.3867 33.0736 37.1288 28.3439 34.5199 25.4671V29.0333C34.5199 29.3881 34.3139 29.7087 33.9917 29.8559L30.4037 31.4965C30.1652 31.6065 29.891 31.6065 29.6508 31.4965L26.0629 29.8559C25.7407 29.7087 25.5346 29.3865 25.5346 29.0333V25.4686C22.9243 28.3439 23.6679 33.0767 27.3038 34.9156C27.6075 35.0705 27.7996 35.3819 27.7996 35.7227V43.8916C27.7996 44.3904 27.3952 44.7963 26.8948 44.7963C26.3944 44.7963 25.9901 44.3919 25.9901 43.8916V36.2572C20.932 33.2347 20.8778 25.8699 25.9715 22.7932C26.5741 22.4291 27.3441 22.8629 27.3441 23.5662V28.4524L30.0273 29.6793L32.7105 28.4524V23.5662C32.7105 22.8629 33.4804 22.4291 34.0831 22.7932C39.1814 25.8745 39.1164 33.2378 34.0645 36.2572V43.8916C34.0645 44.3904 33.6586 44.7947 33.1597 44.7947Z" fill="#F02801"/>
</svg>
