<svg width="50" height="50" viewBox="0 0 50 50" fill="none" xmlns="http://www.w3.org/2000/svg">
<g clip-path="url(#clip0_417_2852)">
<path d="M25 0C11.1929 0 0 11.1929 0 25C0 38.8071 11.1929 50 25 50C38.8071 50 50 38.8071 50 25C49.9844 11.1994 38.8006 0.015625 25 0ZM47.43 31.4117L45.8642 30.9025L45.3483 32.4858L46.9208 32.9967C46.2704 34.7707 45.4069 36.4593 44.3492 38.025L43.0158 37.0583L42.0358 38.4067L43.3592 39.3683C42.1946 40.8548 40.8555 42.1957 39.3708 43.3625L38.4092 42.0392L37.0608 43.0192L38.0275 44.3525C36.4619 45.4091 34.7736 46.2715 33 46.9208L32.4892 45.3483L30.9058 45.8642L31.415 47.43C29.5974 47.9504 27.7229 48.2468 25.8333 48.3125V46.6667H24.1667V48.3125C22.2782 48.2466 20.4049 47.9502 18.5883 47.43L19.0975 45.8642L17.5142 45.3483L17 46.9208C15.2259 46.2704 13.5374 45.4069 11.9717 44.3492L12.9383 43.0158L11.59 42.0358L10.6283 43.3592C9.1426 42.1934 7.8024 40.8532 6.63667 39.3675L7.96 38.4058L6.98 37.0575L5.64667 38.0242C4.59208 36.4593 3.73135 34.7723 3.08333 33L4.65583 32.4892L4.14 30.9058L2.57417 31.415C2.05229 29.5975 1.75458 27.723 1.6875 25.8333H3.33333V24.1667H1.6875C1.75344 22.2782 2.04979 20.4049 2.57 18.5883L4.13583 19.0975L4.65167 17.5142L3.08333 17C3.73375 15.2259 4.59729 13.5374 5.655 11.9717L6.98833 12.9383L7.96833 11.59L6.6375 10.6292C7.80323 9.14344 9.14344 7.80323 10.6292 6.6375L11.5908 7.96083L12.9392 6.98083L11.9725 5.6475C13.5383 4.5924 15.2266 3.73135 17 3.08333L17.5108 4.65583L19.0942 4.14L18.585 2.57417C20.4025 2.05229 22.277 1.75458 24.1667 1.6875V3.33333H25.8333V1.6875C27.7218 1.75344 29.5951 2.04979 31.4117 2.57L30.9025 4.13583L32.4858 4.65167L33 3.08333C34.7741 3.73375 36.4626 4.59729 38.0283 5.655L37.0617 6.98833L38.41 7.96833L39.3717 6.645C40.8574 7.81073 42.1976 9.15094 43.3633 10.6367L42.04 11.5983L43.02 12.9467L44.3533 11.98C45.4091 13.5433 46.2711 15.229 46.9208 17L45.3483 17.5108L45.8642 19.0942L47.43 18.585C47.9504 20.4026 48.2468 22.2771 48.3125 24.1667H46.6667V25.8333H48.3125C48.2466 27.7218 47.9502 29.5951 47.43 31.4117Z" fill="white"/>
<path d="M25.0001 6.66675C14.8749 6.66675 6.66675 14.8749 6.66675 25.0001C6.66675 35.1253 14.8749 43.3334 25.0001 43.3334C35.1253 43.3334 43.3334 35.1253 43.3334 25.0001C43.322 14.8797 35.1205 6.67821 25.0001 6.66675ZM25.0001 41.6667C15.7953 41.6667 8.33341 34.2049 8.33341 25.0001C8.33341 15.7953 15.7953 8.33341 25.0001 8.33341C34.2049 8.33341 41.6667 15.7953 41.6667 25.0001C41.6562 34.2004 34.2005 41.6562 25.0001 41.6667Z" fill="white"/>
<path d="M24.9999 10.8333C17.1759 10.8333 10.8333 17.1759 10.8333 24.9999C10.8333 32.824 17.1759 39.1666 24.9999 39.1666C32.824 39.1666 39.1666 32.824 39.1666 24.9999C39.1578 17.1795 32.8203 10.842 24.9999 10.8333ZM35.7158 18.5974C36.6846 20.2058 37.2753 22.0131 37.4433 23.8833L32.2241 23.4616C31.7654 23.423 31.4249 23.0199 31.4636 22.5614C31.4819 22.344 31.5847 22.1424 31.7499 21.9999L35.7158 18.5974ZM27.7824 12.8233L25.7691 17.6566C25.592 18.0814 25.1041 18.2822 24.6793 18.1051C24.4765 18.0205 24.3153 17.8594 24.2308 17.6566L22.2174 12.8233C24.0474 12.3921 25.9524 12.3921 27.7824 12.8233ZM14.2841 18.5972L18.2499 21.9999C18.5994 22.2994 18.6398 22.8255 18.3403 23.1749C18.1973 23.3418 17.9941 23.4454 17.7749 23.4633L12.5558 23.8849C12.7237 22.0141 13.3147 20.206 14.2841 18.5972ZM21.3016 31.3949L20.0916 36.4933C18.3675 35.749 16.8324 34.6276 15.5991 33.2116H15.5966L20.0566 30.4908C20.4494 30.2509 20.9622 30.3748 21.2021 30.7676C21.3168 30.9554 21.3525 31.1809 21.3016 31.3949ZM29.9083 36.4933H29.9058L28.6933 31.3949C28.5867 30.9472 28.8633 30.4978 29.311 30.3913C29.525 30.3403 29.7504 30.3761 29.9383 30.4908L34.3983 33.2116C33.1656 34.6273 31.6314 35.7487 29.9083 36.4933ZM30.8083 29.0674C29.6296 28.3483 28.0912 28.7206 27.372 29.8993C27.0284 30.4625 26.9212 31.1389 27.0741 31.7808L28.3241 37.0374C26.1503 37.6541 23.8478 37.6541 21.6741 37.0374H21.6724L22.9224 31.7808C23.2418 30.4375 22.4118 29.0896 21.0685 28.7702C20.4269 28.6177 19.7512 28.7248 19.1883 29.0683L14.5766 31.8833C13.3314 30 12.6233 27.813 12.5283 25.5574L17.9099 25.1224C19.286 25.0096 20.31 23.8025 20.1972 22.4265C20.1434 21.7703 19.8329 21.1619 19.3333 20.7333L15.2333 17.2166C16.6421 15.4539 18.5004 14.104 20.6124 13.3091L22.6891 18.2949C23.2198 19.5695 24.6834 20.1726 25.958 19.6418C26.5672 19.3881 27.0513 18.904 27.3049 18.2949L29.3824 13.3091C31.4942 14.1042 33.3525 15.4541 34.7616 17.2166L30.6666 20.7333C29.6187 21.6323 29.498 23.2106 30.3971 24.2585C30.8263 24.7587 31.4355 25.0691 32.0924 25.1224L37.4741 25.5574C37.3791 27.813 36.671 30 35.4258 31.8833L30.8083 29.0674Z" fill="white"/>
<path d="M25.0001 21.6667C23.1591 21.6667 21.6667 23.1591 21.6667 25.0001C21.6667 26.841 23.1591 28.3334 25.0001 28.3334C26.841 28.3334 28.3334 26.841 28.3334 25.0001C28.3334 23.1591 26.841 21.6667 25.0001 21.6667ZM25.0001 26.6667C24.0796 26.6667 23.3334 25.9206 23.3334 25.0001C23.3334 24.0796 24.0796 23.3334 25.0001 23.3334C25.9206 23.3334 26.6667 24.0796 26.6667 25.0001C26.6667 25.9206 25.9206 26.6667 25.0001 26.6667Z" fill="white"/>
</g>
<defs>
<clipPath id="clip0_417_2852">
<rect width="50" height="50" fill="white"/>
</clipPath>
</defs>
</svg>
