<svg width="50" height="50" viewBox="0 0 50 50" fill="none" xmlns="http://www.w3.org/2000/svg">
<g clip-path="url(#clip0_417_2843)">
<path d="M26.68 19.1033C25.1818 19.1033 23.7172 19.5475 22.4715 20.3799C21.2258 21.2122 20.2549 22.3953 19.6816 23.7794C19.1083 25.1636 18.9583 26.6867 19.2505 28.1561C19.5428 29.6255 20.2643 30.9752 21.3237 32.0346C22.383 33.094 23.7328 33.8154 25.2022 34.1077C26.6716 34.4 28.1947 34.25 29.5788 33.6767C30.963 33.1033 32.146 32.1324 32.9784 30.8867C33.8107 29.641 34.255 28.1765 34.255 26.6783C34.2523 24.6701 33.4534 22.7449 32.0334 21.3249C30.6134 19.9048 28.6882 19.1059 26.68 19.1033ZM26.68 31.7533C25.6762 31.7533 24.695 31.4556 23.8605 30.898C23.0259 30.3403 22.3754 29.5477 21.9913 28.6204C21.6072 27.6931 21.5067 26.6726 21.7025 25.6882C21.8983 24.7037 22.3817 23.7995 23.0914 23.0897C23.8012 22.38 24.7054 21.8966 25.6899 21.7008C26.6744 21.505 27.6948 21.6055 28.6221 21.9896C29.5494 22.3737 30.342 23.0242 30.8997 23.8588C31.4573 24.6933 31.755 25.6745 31.755 26.6783C31.7532 28.0237 31.218 29.3135 30.2666 30.2649C29.3152 31.2163 28.0254 31.7515 26.68 31.7533Z" fill="white"/>
<path d="M26.6801 3.85999C26.5851 3.85999 26.4935 3.86999 26.4001 3.86999V3.42499C26.3997 3.0087 26.3103 2.59731 26.1378 2.21843C25.9654 1.83955 25.7138 1.50196 25.4001 1.22832C25.0811 0.952318 24.707 0.747316 24.3027 0.626918C23.8984 0.50652 23.4732 0.473479 23.0551 0.529987C17.3634 1.32705 12.0862 3.95653 8.02227 8.02047C3.95833 12.0844 1.32885 17.3616 0.531785 23.0533C0.473944 23.4717 0.50634 23.8975 0.626793 24.3023C0.747246 24.7071 0.952965 25.0813 1.23012 25.4C1.50344 25.7137 1.84073 25.9652 2.21933 26.1377C2.59794 26.3102 3.00908 26.3996 3.42512 26.4H3.87178C3.87178 26.495 3.86178 26.5867 3.86178 26.68C3.86211 31.193 5.20067 35.6045 7.70818 39.3567C10.2157 43.109 13.7795 46.0334 17.9491 47.7602C22.1186 49.487 26.7066 49.9386 31.1328 49.058C35.559 48.1774 39.6247 46.004 42.8157 42.8127C46.0067 39.6215 48.1798 35.5556 49.0601 31.1293C49.9404 26.7031 49.4885 22.1151 47.7613 17.9457C46.0342 13.7763 43.1096 10.2127 39.3571 7.70545C35.6047 5.19822 31.1931 3.85999 26.6801 3.85999ZM3.11345 23.7567C3.07082 23.7072 3.03937 23.6492 3.02125 23.5865C3.00313 23.5238 2.99876 23.4579 3.00845 23.3933C3.72953 18.2415 6.10949 13.465 9.788 9.78676C13.4665 6.10855 18.2433 3.72898 23.3951 3.00832C23.4594 2.9982 23.5251 3.00236 23.5877 3.02051C23.6502 3.03866 23.7079 3.07034 23.7568 3.11332C23.8021 3.15154 23.8385 3.19929 23.8632 3.25316C23.888 3.30703 23.9006 3.3657 23.9001 3.42499V12.775C21.1505 13.314 18.6238 14.66 16.6423 16.6411C14.6609 18.6223 13.3146 21.1488 12.7751 23.8983H3.42512C3.36599 23.8988 3.30748 23.8863 3.25365 23.8619C3.19982 23.8374 3.15198 23.8015 3.11345 23.7567ZM26.6801 47C24.0115 47.0002 21.369 46.4747 18.9036 45.4535C16.4381 44.4322 14.198 42.9353 12.3112 41.0482C10.4244 39.1611 8.92784 36.9207 7.90702 34.4551C6.8862 31.9895 6.36113 29.3469 6.36178 26.6783C6.36178 26.585 6.36178 26.4933 6.37178 26.3983H13.8435C14.1496 26.3984 14.4452 26.2861 14.6741 26.0827C14.9029 25.8793 15.0492 25.599 15.0851 25.295C15.3858 22.6908 16.5581 20.2648 18.4116 18.411C20.2652 16.5572 22.691 15.3844 25.2951 15.0833C25.3604 15.0689 25.4245 15.0494 25.4868 15.025C25.5527 15.0095 25.6174 14.9889 25.6801 14.9633C25.762 14.9214 25.8387 14.8699 25.9085 14.81C25.9593 14.7755 26.0077 14.7377 26.0535 14.6967C26.1189 14.6198 26.1749 14.5353 26.2201 14.445C26.2451 14.3983 26.2818 14.36 26.3018 14.3117C26.363 14.163 26.3952 14.0041 26.3968 13.8433V6.36999C26.4901 6.36999 26.5818 6.35999 26.6768 6.35999C32.0655 6.35999 37.2336 8.50066 41.044 12.3111C44.8544 16.1215 46.9951 21.2896 46.9951 26.6783C46.9951 32.0671 44.8544 37.2351 41.044 41.0456C37.2336 44.856 32.0655 46.9967 26.6768 46.9967L26.6801 47Z" fill="white"/>
<path d="M26.6101 37.3467C26.2786 37.3467 25.9606 37.4784 25.7262 37.7128C25.4918 37.9472 25.3601 38.2652 25.3601 38.5967V41.7C25.3601 42.0315 25.4918 42.3495 25.7262 42.5839C25.9606 42.8183 26.2786 42.95 26.6101 42.95C26.9416 42.95 27.2596 42.8183 27.494 42.5839C27.7284 42.3495 27.8601 42.0315 27.8601 41.7V38.5967C27.8601 38.2652 27.7284 37.9472 27.494 37.7128C27.2596 37.4784 26.9416 37.3467 26.6101 37.3467Z" fill="white"/>
<path d="M36.0084 34.0983C35.7725 33.8707 35.4567 33.7449 35.1289 33.7479C34.8012 33.7509 34.4877 33.8825 34.2561 34.1143C34.0244 34.3462 33.8931 34.6598 33.8904 34.9875C33.8877 35.3153 34.0139 35.631 34.2417 35.8666L36.4367 38.06C36.6736 38.2808 36.9871 38.401 37.3109 38.3952C37.6347 38.3895 37.9437 38.2583 38.1727 38.0293C38.4017 37.8003 38.5329 37.4913 38.5386 37.1675C38.5444 36.8437 38.4242 36.5302 38.2034 36.2933L36.0084 34.0983Z" fill="white"/>
<path d="M37.3416 26.4067C37.3416 26.7383 37.4732 27.0562 37.7077 27.2906C37.9421 27.525 38.26 27.6567 38.5916 27.6567H41.6949C42.0264 27.6567 42.3443 27.525 42.5788 27.2906C42.8132 27.0562 42.9449 26.7383 42.9449 26.4067C42.9449 26.0752 42.8132 25.7573 42.5788 25.5229C42.3443 25.2884 42.0264 25.1567 41.6949 25.1567H38.5916C38.26 25.1567 37.9421 25.2884 37.7077 25.5229C37.4732 25.7573 37.3416 26.0752 37.3416 26.4067Z" fill="white"/>
<path d="M34.9783 19.1399C35.3095 19.1398 35.6271 19.0086 35.8617 18.7749L38.0567 16.5799C38.2912 16.3454 38.4229 16.0273 38.4229 15.6957C38.4229 15.3641 38.2912 15.046 38.0567 14.8115C37.8222 14.5771 37.5041 14.4453 37.1725 14.4453C36.8409 14.4453 36.5228 14.5771 36.2884 14.8115L34.0933 16.9999C33.9187 17.1748 33.7997 17.3976 33.7517 17.6401C33.7036 17.8825 33.7285 18.1338 33.8232 18.3622C33.9179 18.5905 34.0782 18.7857 34.2838 18.9229C34.4895 19.0601 34.7311 19.1333 34.9783 19.1332V19.1399Z" fill="white"/>
<path d="M17.1483 34.2466L14.955 36.4416C14.8322 36.556 14.7337 36.694 14.6653 36.8473C14.597 37.0007 14.5603 37.1662 14.5573 37.334C14.5544 37.5019 14.5852 37.6686 14.6481 37.8242C14.711 37.9799 14.8045 38.1213 14.9232 38.24C15.0419 38.3587 15.1833 38.4522 15.339 38.5151C15.4946 38.578 15.6613 38.6088 15.8292 38.6059C15.997 38.6029 16.1625 38.5662 16.3159 38.4979C16.4692 38.4296 16.6072 38.331 16.7216 38.2082L18.9166 36.0132C19.1442 35.7774 19.2701 35.4616 19.2671 35.1338C19.2641 34.8061 19.1325 34.4926 18.9006 34.261C18.6687 34.0293 18.3551 33.898 18.0274 33.8953C17.6996 33.8926 17.384 34.0188 17.1483 34.2466Z" fill="white"/>
</g>
<defs>
<clipPath id="clip0_417_2843">
<rect width="50" height="50" fill="white"/>
</clipPath>
</defs>
</svg>
