<svg width="60" height="60" viewBox="0 0 60 60" fill="none" xmlns="http://www.w3.org/2000/svg">
<g clip-path="url(#clip0_676_3051)">
<path d="M43.5732 10.181L34.0002 3.479V0H32.0002V3H28.0002V0H26.0002V3.479L16.4272 10.179C15.9738 10.4944 15.8618 11.1175 16.1771 11.5709C16.3645 11.8403 16.672 12.0006 17.0002 12H43.0002C43.5525 11.9996 43.9998 11.5515 43.9995 10.9993C43.9992 10.6734 43.8401 10.368 43.5732 10.181ZM20.1722 10L27.3152 5H32.6852L39.8282 10H20.1722Z" fill="#F02801"/>
<path d="M13 39H11C9.34312 39 8 40.3431 8 42V43C8 44.6569 9.34312 46 11 46H13C14.6569 46 16 44.6569 16 43V42C16 40.3431 14.6569 39 13 39ZM14 43C14 43.5522 13.5522 44 13 44H11C10.4478 44 10 43.5522 10 43V42C10 41.4478 10.4478 41 11 41H13C13.5522 41 14 41.4478 14 42V43Z" fill="#F02801"/>
<path d="M49 39H47C45.3431 39 44 40.3431 44 42V43C44 44.6569 45.3431 46 47 46H49C50.6569 46 52 44.6569 52 43V42C52 40.3431 50.6569 39 49 39ZM50 43C50 43.5522 49.5522 44 49 44H47C46.4478 44 46 43.5522 46 43V42C46 41.4478 46.4478 41 47 41H49C49.5522 41 50 41.4478 50 42V43Z" fill="#F02801"/>
<path d="M39 39H21C19.3431 39 18 40.3431 18 42V43C18 44.6569 19.3431 46 21 46H39C40.6569 46 42 44.6569 42 43V42C42 40.3431 40.6569 39 39 39ZM40 43C40 43.5522 39.5522 44 39 44H21C20.4478 44 20 43.5522 20 43V42C20 41.4478 20.4478 41 21 41H39C39.5522 41 40 41.4478 40 42V43Z" fill="#F02801"/>
<path d="M52.856 36.065L50.639 35.178L44.007 26.059C43.0643 24.7673 41.5621 24.0025 39.963 24H20.037C18.4379 24.0025 16.9358 24.7673 15.993 26.059L9.36103 35.178L7.14403 36.065C5.2409 36.8189 3.99353 38.661 4.00003 40.708V58C4.00003 59.1046 4.8954 60 6.00003 60H12C13.1047 60 14 59.1046 14 58V54H46V58C46 59.1046 46.8954 60 48 60H54C55.1046 60 56 59.1046 56 58V40.708C56.0065 38.661 54.7591 36.8189 52.856 36.065ZM17.61 27.236C18.1757 26.4606 19.0773 26.0015 20.037 26H39.963C40.9228 26.0015 41.8244 26.4606 42.39 27.236L48.036 35H11.964L17.61 27.236ZM12 58H6.00003V53.829C6.08403 53.859 6.17503 53.875 6.26303 53.897C6.32103 53.912 6.37703 53.932 6.43703 53.943C6.6224 53.9798 6.81103 53.9989 7.00003 54H12V58ZM54 58H48V54H53C53.189 53.9989 53.3776 53.9798 53.563 53.943C53.623 53.932 53.679 53.912 53.738 53.897C53.825 53.875 53.916 53.859 54 53.829V58ZM54 51C54 51.5522 53.5523 52 53 52H13H7.00003C6.44778 52 6.00003 51.5522 6.00003 51V50H54V51ZM54 48H6.00003V40.708C5.99578 39.48 6.74415 38.3749 7.88603 37.923L10.192 37H49.808L52.114 37.923C53.2559 38.3749 54.0043 39.48 54 40.708V48Z" fill="#F02801"/>
<path d="M31 14H29V17H31V14Z" fill="#F02801"/>
<path d="M31 19H29V22H31V19Z" fill="#F02801"/>
<path d="M19.2273 13.3658L17.3262 15.6866L18.8734 16.954L20.7745 14.6332L19.2273 13.3658Z" fill="#F02801"/>
<path d="M16.0596 17.2349L14.1582 19.5554L15.7052 20.823L17.6066 18.5025L16.0596 17.2349Z" fill="#F02801"/>
<path d="M12.8916 21.1023L10.9902 23.4228L12.5372 24.6904L14.4386 22.3699L12.8916 21.1023Z" fill="#F02801"/>
<path d="M9.72171 24.9742L7.82031 27.2947L9.36731 28.5623L11.2687 26.2418L9.72171 24.9742Z" fill="#F02801"/>
<path d="M24.0401 13.7241L23.1992 16.6038L25.119 17.1644L25.9599 14.2847L24.0401 13.7241Z" fill="#F02801"/>
<path d="M22.639 18.5163L21.7969 21.3957L23.7165 21.9571L24.5586 19.0777L22.639 18.5163Z" fill="#F02801"/>
<path d="M13.553 13.0593L11.3477 15.0933L12.703 16.5628L14.9083 14.5288L13.553 13.0593Z" fill="#F02801"/>
<path d="M9.87717 16.4525L7.67188 18.4865L9.0272 19.956L11.2325 17.922L9.87717 16.4525Z" fill="#F02801"/>
<path d="M6.20335 19.8403L3.99805 21.8743L5.35337 23.3437L7.55867 21.3097L6.20335 19.8403Z" fill="#F02801"/>
<path d="M2.52952 23.2303L0.324219 25.2643L1.67954 26.7338L3.88484 24.6998L2.52952 23.2303Z" fill="#F02801"/>
<path d="M40.7753 13.5755L39.2285 14.8419L41.129 17.1633L42.6758 15.8969L40.7753 13.5755Z" fill="#F02801"/>
<path d="M43.9378 17.4373L42.3906 18.7047L44.2917 21.0255L45.8389 19.7581L43.9378 17.4373Z" fill="#F02801"/>
<path d="M47.1095 21.3081L45.5625 22.5755L47.4636 24.896L49.0106 23.6286L47.1095 21.3081Z" fill="#F02801"/>
<path d="M50.2697 25.1805L48.7227 26.4479L50.6238 28.7684L52.1708 27.501L50.2697 25.1805Z" fill="#F02801"/>
<path d="M35.9591 13.9413L34.0391 14.5013L34.8791 17.3813L36.7991 16.8213L35.9591 13.9413Z" fill="#F02801"/>
<path d="M37.3591 18.726L35.4395 19.2872L36.2813 22.1666L38.2009 21.6054L37.3591 18.726Z" fill="#F02801"/>
<path d="M46.4452 13.2654L45.0898 14.7347L47.2948 16.7687L48.6502 15.2994L46.4452 13.2654Z" fill="#F02801"/>
<path d="M50.1211 16.6584L48.7656 18.1274L50.9703 20.1617L52.3258 18.6927L50.1211 16.6584Z" fill="#F02801"/>
<path d="M53.793 20.0502L52.4375 21.5192L54.6422 23.5535L55.9977 22.0845L53.793 20.0502Z" fill="#F02801"/>
<path d="M57.4686 23.4367L56.1133 24.906L58.3183 26.94L59.6736 25.4707L57.4686 23.4367Z" fill="#F02801"/>
</g>
<defs>
<clipPath id="clip0_676_3051">
<rect width="60" height="60" fill="white"/>
</clipPath>
</defs>
</svg>
