<svg width="60" height="60" viewBox="0 0 60 60" fill="none" xmlns="http://www.w3.org/2000/svg">
<g clip-path="url(#clip0_676_3168)">
<path d="M32.0158 22.924C30.218 22.924 28.4605 23.4571 26.9657 24.456C25.4708 25.4548 24.3057 26.8744 23.6177 28.5354C22.9297 30.1964 22.7497 32.0241 23.1004 33.7874C23.4512 35.5507 24.3169 37.1704 25.5882 38.4416C26.8594 39.7129 28.4791 40.5786 30.2424 40.9293C32.0057 41.2801 33.8334 41.1001 35.4944 40.4121C37.1554 39.7241 38.575 38.559 39.5738 37.0641C40.5727 35.5693 41.1058 33.8118 41.1058 32.014C41.1026 29.6042 40.1439 27.2939 38.4399 25.5899C36.7359 23.8859 34.4256 22.9272 32.0158 22.924ZM32.0158 38.104C30.8113 38.104 29.6339 37.7468 28.6324 37.0777C27.6309 36.4085 26.8503 35.4574 26.3894 34.3446C25.9284 33.2318 25.8078 32.0073 26.0428 30.8259C26.2778 29.6446 26.8578 28.5594 27.7095 27.7077C28.5612 26.856 29.6463 26.276 30.8277 26.041C32.009 25.806 33.2335 25.9266 34.3463 26.3876C35.4591 26.8485 36.4103 27.6291 37.0794 28.6306C37.7486 29.6321 38.1058 30.8095 38.1058 32.014C38.1037 33.6285 37.4614 35.1763 36.3197 36.318C35.1781 37.4596 33.6303 38.1019 32.0158 38.104Z" fill="#F02801"/>
<path d="M32.0169 4.632C31.9029 4.632 31.7929 4.644 31.6809 4.644V4.11C31.6805 3.61045 31.5732 3.11678 31.3662 2.66213C31.1592 2.20748 30.8574 1.80237 30.4809 1.474C30.0981 1.14279 29.6492 0.896791 29.1641 0.752313C28.6789 0.607836 28.1686 0.568186 27.6669 0.635997C20.8368 1.59247 14.5042 4.74785 9.6275 9.62457C4.75078 14.5013 1.5954 20.8339 0.638923 27.664C0.569514 28.166 0.608389 28.677 0.752933 29.1628C0.897477 29.6485 1.14434 30.0976 1.47692 30.48C1.8049 30.8564 2.20966 31.1582 2.66398 31.3652C3.11831 31.5722 3.61167 31.6795 4.11092 31.68H4.64692C4.64692 31.794 4.63492 31.904 4.63492 32.016C4.63532 37.4316 6.24158 42.7254 9.25059 47.2281C12.2596 51.7308 16.5362 55.2401 21.5397 57.3122C26.5431 59.3844 32.0487 59.9264 37.3601 58.8696C42.6716 57.8128 47.5504 55.2048 51.3796 51.3753C55.2089 47.5458 57.8166 42.6668 58.8729 37.3552C59.9293 32.0437 59.3869 26.5382 57.3144 21.5349C55.2419 16.5316 51.7322 12.2552 47.2293 9.24656C42.7264 6.23787 37.4325 4.632 32.0169 4.632ZM3.73692 28.508C3.68577 28.4487 3.64803 28.379 3.62628 28.3038C3.60454 28.2285 3.5993 28.1495 3.61092 28.072C4.47622 21.8899 7.33217 16.158 11.7464 11.7441C16.1606 7.33027 21.8927 4.47479 28.0749 3.61C28.1521 3.59785 28.231 3.60285 28.306 3.62462C28.381 3.6464 28.4503 3.68442 28.5089 3.736C28.5633 3.78186 28.6069 3.83916 28.6367 3.9038C28.6664 3.96844 28.6815 4.03885 28.6809 4.11V15.33C25.3814 15.9768 22.3493 17.592 19.9716 19.9694C17.5939 22.3467 15.9783 25.3785 15.3309 28.678H4.11092C4.03997 28.6786 3.96975 28.6636 3.90516 28.6343C3.84057 28.6049 3.78316 28.5618 3.73692 28.508ZM32.0169 56.4C28.8146 56.4003 25.6436 55.7696 22.6851 54.5442C19.7266 53.3187 17.0384 51.5224 14.7742 49.2578C12.5101 46.9933 10.7142 44.3049 9.48921 41.3461C8.26423 38.3874 7.63413 35.2163 7.63492 32.014C7.63492 31.902 7.63492 31.792 7.64692 31.678H16.6129C16.9803 31.6781 17.335 31.5433 17.6096 31.2993C17.8843 31.0552 18.0598 30.7189 18.1029 30.354C18.4638 27.229 19.8705 24.3178 22.0948 22.0932C24.319 19.8686 27.23 18.4613 30.3549 18.1C30.4333 18.0827 30.5102 18.0593 30.5849 18.03C30.6641 18.0114 30.7416 17.9866 30.8169 17.956C30.9152 17.9057 31.0072 17.8439 31.0909 17.772C31.1519 17.7307 31.2101 17.6852 31.2649 17.636C31.3435 17.5437 31.4106 17.4423 31.4649 17.334C31.4949 17.278 31.5389 17.232 31.5629 17.174C31.6363 16.9956 31.675 16.8049 31.6769 16.612V7.644C31.7889 7.644 31.8989 7.632 32.0129 7.632C38.4794 7.632 44.6811 10.2008 49.2536 14.7733C53.8261 19.3458 56.3949 25.5475 56.3949 32.014C56.3949 38.4805 53.8261 44.6822 49.2536 49.2547C44.6811 53.8272 38.4794 56.396 32.0129 56.396L32.0169 56.4Z" fill="#F02801"/>
<path d="M31.9316 44.816C31.5338 44.816 31.1523 44.974 30.871 45.2553C30.5897 45.5367 30.4316 45.9182 30.4316 46.316V50.04C30.4316 50.4378 30.5897 50.8194 30.871 51.1007C31.1523 51.382 31.5338 51.54 31.9316 51.54C32.3295 51.54 32.711 51.382 32.9923 51.1007C33.2736 50.8194 33.4316 50.4378 33.4316 50.04V46.316C33.4316 45.9182 33.2736 45.5367 32.9923 45.2553C32.711 44.974 32.3295 44.816 31.9316 44.816Z" fill="#F02801"/>
<path d="M43.2095 40.918C42.9265 40.6449 42.5475 40.4939 42.1542 40.4975C41.7609 40.5011 41.3848 40.659 41.1068 40.9372C40.8288 41.2155 40.6713 41.5918 40.668 41.9851C40.6648 42.3784 40.8162 42.7572 41.0895 43.04L43.7235 45.672C44.0079 45.937 44.384 46.0812 44.7726 46.0743C45.1612 46.0675 45.532 45.9101 45.8068 45.6352C46.0816 45.3604 46.239 44.9896 46.2459 44.601C46.2527 44.2124 46.1085 43.8363 45.8435 43.552L43.2095 40.918Z" fill="#F02801"/>
<path d="M44.8105 31.688C44.8105 32.0858 44.9686 32.4673 45.2499 32.7486C45.5312 33.03 45.9127 33.188 46.3105 33.188H50.0345C50.4324 33.188 50.8139 33.03 51.0952 32.7486C51.3765 32.4673 51.5345 32.0858 51.5345 31.688C51.5345 31.2902 51.3765 30.9086 51.0952 30.6273C50.8139 30.346 50.4324 30.188 50.0345 30.188H46.3105C45.9127 30.188 45.5312 30.346 45.2499 30.6273C44.9686 30.9086 44.8105 31.2902 44.8105 31.688Z" fill="#F02801"/>
<path d="M41.9733 22.968C42.3707 22.968 42.7519 22.8105 43.0333 22.53L45.6673 19.896C45.9487 19.6146 46.1068 19.233 46.1068 18.835C46.1068 18.4371 45.9487 18.0554 45.6673 17.774C45.3859 17.4926 45.0043 17.3345 44.6063 17.3345C44.2084 17.3345 43.8267 17.4926 43.5453 17.774L40.9113 20.4C40.7017 20.6099 40.559 20.8772 40.5013 21.1682C40.4436 21.4592 40.4735 21.7608 40.5871 22.0348C40.7008 22.3088 40.8932 22.5429 41.1399 22.7076C41.3867 22.8723 41.6767 22.9601 41.9733 22.96V22.968Z" fill="#F02801"/>
<path d="M20.5782 41.096L17.9462 43.73C17.7988 43.8673 17.6806 44.0329 17.5986 44.2169C17.5166 44.4009 17.4725 44.5996 17.469 44.801C17.4654 45.0024 17.5025 45.2024 17.5779 45.3892C17.6534 45.576 17.7657 45.7456 17.9081 45.8881C18.0505 46.0305 18.2202 46.1428 18.407 46.2183C18.5937 46.2937 18.7938 46.3307 18.9952 46.3272C19.1966 46.3236 19.3952 46.2796 19.5792 46.1976C19.7632 46.1156 19.9288 45.9974 20.0662 45.85L22.7002 43.216C22.9733 42.933 23.1243 42.554 23.1207 42.1607C23.1171 41.7674 22.9592 41.3913 22.6809 41.1133C22.4027 40.8353 22.0264 40.6777 21.6331 40.6745C21.2398 40.6713 20.8609 40.8226 20.5782 41.096Z" fill="#F02801"/>
</g>
<defs>
<clipPath id="clip0_676_3168">
<rect width="60" height="60" fill="white"/>
</clipPath>
</defs>
</svg>
