<svg width="50" height="50" viewBox="0 0 50 50" fill="none" xmlns="http://www.w3.org/2000/svg">
<path d="M13.9154 29.0841C14.4722 29.0841 15.0165 28.9154 15.485 28.5905L28.18 19.8024C29.4037 18.9549 29.7396 17.3044 28.9452 16.0456C28.5476 15.4165 27.929 14.9806 27.2024 14.8199C26.4773 14.6578 25.7302 14.7913 25.1035 15.1945L12.1193 23.5477C11.4891 23.9529 11.0588 24.5796 10.9067 25.3127C10.754 26.0453 10.8986 26.7919 11.3129 27.413L11.6031 27.8489C12.0189 28.4725 12.653 28.8933 13.3891 29.0339C13.5649 29.0675 13.7406 29.0841 13.9154 29.0841ZM13.0643 26.8768L12.7741 26.4399C12.6214 26.212 12.5682 25.9388 12.6249 25.6707C12.6807 25.4016 12.8383 25.1721 13.0683 25.0235L26.053 16.6702C26.2192 16.5638 26.408 16.5091 26.6009 16.5091C26.6742 16.5091 26.749 16.5166 26.8228 16.5332C27.0884 16.5919 27.3154 16.7521 27.461 16.9826C27.7522 17.444 27.6292 18.0491 27.1808 18.3594L14.4863 27.1474C14.2598 27.3046 13.9877 27.3608 13.7185 27.3101C13.4484 27.2584 13.2159 27.1047 13.0643 26.8768Z" fill="white"/>
<path d="M48.2446 32.6045C48.2446 28.8526 42.9106 21.5237 41.2245 19.3004V12.4916C41.2245 10.7845 40.0897 9.35342 38.5407 8.86938V5.77332C38.5407 4.03148 37.1232 2.6145 35.3819 2.6145H30.2402C28.4989 2.6145 27.0814 4.03148 27.0814 5.77332V8.67958H26.5768C25.814 8.67958 25.0769 8.90452 24.4453 9.33132L8.21434 20.2775C6.356 21.5308 5.24683 23.6176 5.24683 25.8585V44.1923C5.24683 47.3948 7.85181 49.9998 11.0543 49.9998H35.417C38.6195 49.9998 41.225 47.3948 41.225 44.1923V40.672C45.1847 40.1166 48.2446 36.7153 48.2446 32.6045ZM28.8368 5.77332C28.8368 4.99956 29.4664 4.3694 30.2402 4.3694H35.3819C36.1557 4.3694 36.7853 4.99956 36.7853 5.77332V8.67958H28.8368V5.77332ZM35.417 48.2449H11.0538C8.81889 48.2449 7.00122 46.4267 7.00122 44.1923V25.8585C7.00122 24.2015 7.82168 22.659 9.19598 21.7321L25.4274 10.7855C25.7679 10.556 26.165 10.434 26.5768 10.434H37.413C38.5462 10.434 39.4696 11.3574 39.4696 12.4911V18.6657C39.4475 18.6878 39.4169 18.6968 39.3973 18.7214C38.6331 19.7 31.9334 28.4042 31.9334 32.6045C31.9334 36.8925 35.2619 40.4104 39.4696 40.7292V44.1928C39.4696 46.4267 37.652 48.2449 35.417 48.2449ZM40.0892 39.0054C36.5604 39.0054 33.6888 36.1338 33.6888 32.6045C33.6888 29.8669 37.8192 23.7572 40.0892 20.7098C42.3603 23.7566 46.4897 29.8649 46.4897 32.6045C46.4897 36.1338 43.6176 39.0054 40.0892 39.0054Z" fill="white"/>
<path d="M12.886 12.6799C14.6455 12.6799 16.0775 11.2484 16.0775 9.48846C16.0775 8.02278 14.1639 5.45796 13.5775 4.7068C13.2451 4.281 12.527 4.281 12.1946 4.7068C11.6081 5.45796 9.69458 8.02278 9.69458 9.48846C9.69508 11.2484 11.1266 12.6799 12.886 12.6799ZM12.886 6.73083C13.6618 7.85306 14.3226 9.03655 14.3226 9.48846C14.3226 10.2803 13.6779 10.925 12.886 10.925C12.0947 10.925 11.45 10.2803 11.45 9.48846C11.45 9.03756 12.1103 7.85357 12.886 6.73083Z" fill="white"/>
<path d="M8.17954 5.10101C8.17954 3.63533 6.26598 1.07051 5.6795 0.319347C5.3471 -0.106449 4.62907 -0.106449 4.29667 0.319347C3.7102 1.07051 1.79663 3.63533 1.79663 5.10101C1.79663 6.86093 3.22867 8.29247 4.98809 8.29247C6.74751 8.29247 8.17954 6.86093 8.17954 5.10101ZM4.98859 6.53757C4.19675 6.53757 3.55203 5.89285 3.55203 5.10101C3.55203 4.65011 4.21282 3.46611 4.98859 2.34288C5.76386 3.46561 6.42464 4.6491 6.42464 5.10101C6.42464 5.89335 5.78043 6.53757 4.98859 6.53757Z" fill="white"/>
<path d="M43.8571 31.1333C43.3721 31.1333 42.9794 31.5265 42.9794 32.011C42.9794 33.7041 41.6016 35.0825 39.908 35.0825C39.4229 35.0825 39.0308 35.4751 39.0308 35.9597C39.0308 36.4442 39.4229 36.8374 39.908 36.8374C42.5692 36.8374 44.7343 34.6722 44.7343 32.011C44.7343 31.5265 44.3422 31.1333 43.8571 31.1333Z" fill="white"/>
<path d="M32.4494 42.1025H14.0212C13.5362 42.1025 13.144 42.4952 13.144 42.9797C13.144 43.4643 13.5362 43.8574 14.0212 43.8574H32.4494C32.9345 43.8574 33.3266 43.4643 33.3266 42.9797C33.3266 42.4952 32.9345 42.1025 32.4494 42.1025Z" fill="white"/>
</svg>
