<svg width="50" height="50" viewBox="0 0 50 50" fill="none" xmlns="http://www.w3.org/2000/svg">
<g clip-path="url(#clip0_417_2797)">
<path d="M14.5169 31.1324C11.5975 29.4387 7.75422 29.4403 4.8395 31.1308C3.36599 31.9782 2.13938 33.204 1.29434 34.676C0.447722 36.1357 0 37.8088 0 39.5162C0 41.2237 0.447722 42.8968 1.29276 44.3534C2.14017 45.8277 3.36678 47.0543 4.83792 47.8993C6.29765 48.7459 7.9708 49.1937 9.67742 49.1937C11.384 49.1937 13.0572 48.7459 14.5153 47.9009C15.9888 47.0535 17.2155 45.8277 18.0605 44.3557C18.9071 42.8968 19.3548 41.2237 19.3548 39.5162C19.3548 37.8088 18.9071 36.1357 18.0621 34.6791C17.2147 33.2048 15.9881 31.9782 14.5169 31.1324ZM14.3822 46.0549L13.6018 44.7019L12.2047 45.5083L12.9839 46.859C12.1936 47.2098 11.3482 47.4268 10.4839 47.5107V45.9679H8.87097V47.5099C8.00742 47.4268 7.16198 47.2098 6.37089 46.8582L7.15017 45.5075L5.75306 44.7011L4.97259 46.0541C4.26537 45.5469 3.64754 44.9283 3.13878 44.2203L4.49179 43.4398L3.68534 42.0427L2.33233 42.8236C1.97675 42.0348 1.7523 41.1922 1.66528 40.3227H3.22581V38.7098H1.66528C1.75151 37.8411 1.97675 36.9984 2.33233 36.2081L3.68534 36.989L4.49179 35.5919L3.13878 34.8114C3.64675 34.1042 4.26459 33.4864 4.97259 32.9776L5.75306 34.3306L7.15017 33.5242L6.36931 32.1712C7.15883 31.8156 8.00151 31.5911 8.87097 31.5041V33.0646H10.4839V31.5041C11.3525 31.5903 12.1952 31.8156 12.9855 32.1712L12.2047 33.5242L13.6018 34.3306L14.3822 32.9776C15.0895 33.4848 15.7073 34.1034 16.2161 34.8114L14.863 35.5919L15.6695 36.989L17.0225 36.2081C17.3781 36.9969 17.6025 37.8403 17.6896 38.7098H16.129V40.3227H17.6896C17.6033 41.1914 17.3781 42.034 17.0225 42.8243L15.6695 42.0435L14.863 43.4406L16.2161 44.2211C15.7081 44.9283 15.0903 45.5469 14.3822 46.0549Z" fill="white"/>
<path d="M9.6774 35.4839C7.45415 35.4839 5.64514 37.2929 5.64514 39.5161C5.64514 41.7394 7.45415 43.5484 9.6774 43.5484C11.9007 43.5484 13.7097 41.7394 13.7097 39.5161C13.7097 37.2929 11.9007 35.4839 9.6774 35.4839ZM9.6774 41.9355C8.34368 41.9355 7.25804 40.8499 7.25804 39.5161C7.25804 38.1824 8.34368 37.0968 9.6774 37.0968C11.0111 37.0968 12.0968 38.1824 12.0968 39.5161C12.0968 40.8499 11.0111 41.9355 9.6774 41.9355Z" fill="white"/>
<path d="M8.87097 38.7097H10.4839V40.3226H8.87097V38.7097Z" fill="white"/>
<path d="M49.9717 24.9275C49.9531 24.7404 49.924 24.553 49.887 24.366L48.3548 16.6968C47.9386 14.6145 46.4009 12.9933 44.4541 12.3767C45.3838 11.4942 45.9677 10.2507 45.9677 8.87091V5.64511C45.9677 4.35786 45.4669 3.14266 44.5509 2.2169C43.6315 1.30728 42.4163 0.806396 41.129 0.806396C38.4604 0.806396 36.2903 2.97649 36.2903 5.64511H33.871V7.25801H36.2903V8.87091C36.2903 10.9587 37.6217 12.7362 39.4783 13.4135L32.175 20.7169L24.7992 19.5379L21.992 13.2178L25.9435 6.83628C27.6548 4.07001 30.6184 2.4193 33.871 2.4193V0.806396C30.0565 0.806396 26.5798 2.74259 24.5728 5.9869L17.5604 17.3095L5.64516 6.02156C4.25986 4.70162 2.63239 4.0322 0.806452 4.0322H0V33.3436L1.39751 31.8394C3.56209 29.5087 6.50162 28.2258 9.67742 28.2258C10.4268 28.2258 11.1765 28.299 11.9058 28.4443C16.0912 29.287 19.5009 32.4951 20.5921 36.6218C20.8409 37.5492 20.9677 38.5234 20.9677 39.5161V41.9354H38.5329L38.0186 44.5147C38.0048 44.5781 37.9662 44.6312 37.9139 44.6572L35.6725 45.7791C35.059 46.0854 34.6774 46.7009 34.6774 47.3869C34.6774 48.3831 35.4878 49.1935 36.4841 49.1935H48.3871C49.2766 49.1935 50 48.4701 50 47.5806V25.4839C50 25.2961 49.9909 25.1169 49.9717 24.9275ZM39.8556 43.5483L40.2104 41.7716C40.7518 41.5098 41.129 40.9557 41.129 40.2985L40.8873 32.2419C40.8873 31.2791 40.3348 30.4427 39.5161 30.0541V28.2072C40.4218 28.1773 41.3177 28.0966 42.1942 27.9663C43.0889 32.3379 43.5484 36.8211 43.5484 41.3066V43.5483H39.8556ZM43.7807 27.6772C45.3283 27.3539 46.849 26.8838 48.3111 26.2557L48.3871 26.2234V43.5483H45.1613V41.3066C45.1613 36.7128 44.6911 32.1226 43.7807 27.6772ZM46.7742 17.0138L48.2733 24.5191L47.6736 24.7751C46.0725 25.463 44.3966 25.9596 42.6841 26.2557C41.5992 26.4557 40.4766 26.553 39.3437 26.5845C39.2547 26.1734 39.1428 25.767 38.9837 25.3748C38.7404 24.753 38.4033 24.1734 37.9855 23.6379L44.2548 17.3686C44.8313 16.7929 45.1613 15.9975 45.1613 15.1855C45.1613 14.9323 45.1211 14.687 45.0621 14.4476C45.9201 15.0386 46.5588 15.9372 46.7742 17.0138ZM37.9032 28.0804V29.678L30.6452 28.3581V26.6128H37.704C37.7863 26.9105 37.8434 27.2122 37.8757 27.517C37.8969 27.7048 37.9032 27.8926 37.9032 28.0804ZM42.4986 13.7758C42.7266 13.8404 42.9396 13.9668 43.1152 14.1428C43.3952 14.4224 43.5484 14.7925 43.5484 15.1855C43.5484 15.5726 43.3905 15.9522 43.1152 16.2282L36.8515 22.492C36.0426 21.8218 35.1098 21.3461 34.0927 21.0799L41.0306 14.142C41.4082 13.7644 41.9548 13.6041 42.4986 13.7758ZM41.129 2.4193C41.9886 2.4193 42.8018 2.7548 43.4106 3.35727C44.0193 3.97314 44.3548 4.78628 44.3548 5.64511H37.9032C37.9032 3.86603 39.35 2.4193 41.129 2.4193ZM37.9032 8.87091V7.25801H44.3548V8.87091C44.3548 10.65 42.9081 12.0967 41.129 12.0967C39.35 12.0967 37.9032 10.65 37.9032 8.87091ZM20.963 14.8791L22.8984 19.2347L18.9209 18.5983L18.7563 18.4428L20.963 14.8791ZM4.53393 7.19028L16.526 18.5483H13.979L11.0147 16.3243L3.12736 8.43776C2.69579 8.00815 2.17994 7.6888 1.6129 7.48876V5.70496C2.68948 5.86838 3.66841 6.36611 4.53393 7.19028ZM3.22581 17.3387C3.22581 17.4741 3.23959 17.6088 3.25888 17.7419H1.6129V9.27886C1.74521 9.36707 1.87161 9.46354 1.9862 9.57735L6.92414 14.5161H6.04839C4.49179 14.5161 3.22581 15.7821 3.22581 17.3387ZM6.04839 16.129H8.53705L9.91368 17.5056L11.2982 18.5483H6.04839C5.72825 18.5483 5.4152 18.42 5.18799 18.192C5.15649 18.1613 5.12341 18.125 5.07891 18.062C4.92416 17.8573 4.83871 17.6001 4.83871 17.3387C4.83871 16.6716 5.38133 16.129 6.04839 16.129ZM1.6129 29.4453V19.3548H4.07321C4.60323 19.8734 5.30258 20.1612 6.04839 20.1612H12.8839C12.7961 22.4337 12.3338 24.6467 11.5104 26.7574C10.9032 26.6719 10.2913 26.6128 9.67742 26.6128C6.73946 26.6128 3.88774 27.628 1.6129 29.4453ZM13.1155 27.0767C13.9475 24.859 14.4114 22.5396 14.4968 20.1612H18.4862L33.1476 22.5058C34.3565 22.6983 35.4469 23.2662 36.3017 24.1506C36.5605 24.4168 36.7888 24.6999 36.9846 24.9999H29.0323V29.7056L38.5872 31.4417C38.9853 31.5031 39.2744 31.8394 39.2751 32.2659L39.3708 35.4838H21.9313C20.5885 31.413 17.2458 28.2258 13.1155 27.0767ZM22.3523 37.0967H39.4193L39.5161 40.3225H22.5806V39.5161C22.5806 38.6951 22.5023 37.8847 22.3523 37.0967ZM36.2903 47.3869C36.2903 47.3175 36.3305 47.2534 36.3927 47.2219L38.6349 46.1C39.0275 45.9031 39.3244 45.5708 39.4913 45.1612H42.551L41.3169 45.7791C40.7042 46.0854 40.3226 46.7009 40.3226 47.3869V47.5806H36.4841C36.3718 47.5806 36.2903 47.4991 36.2903 47.3869ZM41.9355 47.5806V47.3869C41.9355 47.3175 41.9757 47.2534 42.0379 47.2219L44.1662 46.1571C44.5872 45.9468 44.8864 45.5853 45.0412 45.162H48.3871V47.5814H41.9355V47.5806Z" fill="white"/>
</g>
<defs>
<clipPath id="clip0_417_2797">
<rect width="50" height="50" fill="white"/>
</clipPath>
</defs>
</svg>
