<svg width="50" height="50" viewBox="0 0 50 50" fill="none" xmlns="http://www.w3.org/2000/svg">
<path fill-rule="evenodd" clip-rule="evenodd" d="M22.0255 47.0243C21.1399 47.0243 20.3744 46.3633 20.244 45.4867L19.5585 40.8624C19.543 40.7565 19.4733 40.6674 19.3764 40.6326C18.8588 40.4389 18.3462 40.2169 17.8505 39.9716C17.755 39.9251 17.6414 39.9355 17.5536 39.9987L13.7735 42.7253C13.0532 43.2455 12.0746 43.1668 11.4459 42.5381L7.38316 38.4753C6.75703 37.8492 6.68215 36.841 7.21016 36.1283L10.0826 32.2579C10.1459 32.1727 10.1575 32.0578 10.1136 31.9584C9.90833 31.504 9.72243 31.0354 9.55976 30.5655C9.52361 30.4609 9.43454 30.3834 9.32738 30.3666L4.58945 29.5998C3.71158 29.4578 3.07642 28.7103 3.07642 27.8221V22.0759C3.07642 21.189 3.73611 20.4247 4.61398 20.2943L9.44616 19.5779C9.55202 19.5624 9.64109 19.4875 9.68112 19.3842C9.84636 18.9362 10.0348 18.4908 10.2388 18.0596C10.2866 17.9602 10.2763 17.8453 10.213 17.7576L7.37541 13.8265C6.85514 13.1061 6.93389 12.1276 7.5626 11.4988L11.6253 7.4361C12.2515 6.80997 13.2597 6.73509 13.9724 7.26311L17.8544 10.1433C17.9409 10.2079 18.057 10.2182 18.159 10.1704C18.6083 9.95998 19.0731 9.76633 19.543 9.59592C19.6463 9.55849 19.7198 9.4707 19.7379 9.36484L20.5022 4.63982C20.6442 3.76195 21.3917 3.12549 22.2799 3.12549H28.0248C28.9104 3.12549 29.6759 3.78518 29.8063 4.66306L30.4957 9.30932C30.5112 9.41648 30.5835 9.50685 30.6842 9.5417C31.2045 9.72373 31.7209 9.93674 32.2192 10.1704C32.3134 10.2143 32.4258 10.2027 32.5148 10.1394L36.2768 7.42319C36.9971 6.90292 37.9757 6.98167 38.6044 7.61038L42.6672 11.6731C43.2933 12.2993 43.3682 13.3075 42.8402 14.0201L40.1278 17.6775C40.0632 17.7653 40.0516 17.8828 40.1007 17.9861C40.3563 18.5192 40.5861 19.0718 40.7836 19.6321C40.8211 19.7366 40.9101 19.8141 41.016 19.8296L45.4622 20.5487C46.34 20.6907 46.9765 21.4382 46.9765 22.3264V28.0726C46.9765 28.9582 46.3155 29.7237 45.4389 29.8541L41.0005 30.5125C40.8921 30.528 40.8017 30.6042 40.7655 30.7113C40.5603 31.2884 40.3189 31.859 40.0503 32.4103C40.0013 32.511 40.0103 32.6285 40.0736 32.7162L42.6775 36.3258C43.1978 37.0462 43.119 38.0248 42.4903 38.6535L38.4276 42.7162C37.8014 43.3424 36.7932 43.4172 36.0805 42.8892L32.4361 40.1859C32.3496 40.1226 32.2334 40.111 32.1314 40.1575C31.5944 40.4054 31.0367 40.6287 30.4738 40.8172C30.3679 40.8533 30.2918 40.9411 30.2737 41.047L29.552 45.5112C29.41 46.3891 28.6625 47.0256 27.7743 47.0256L22.0255 47.0243ZM18.5179 38.6199C18.9685 38.842 19.4345 39.0447 19.9045 39.2202C20.5138 39.4487 20.9527 39.9923 21.0483 40.6416L21.7338 45.2672C21.7557 45.4105 21.8797 45.519 22.0243 45.519H27.7705C27.9163 45.519 28.0377 45.4157 28.0609 45.2711L28.7826 40.8069C28.8897 40.1472 29.3519 39.6037 29.9897 39.3894C30.5009 39.2177 31.0082 39.015 31.4962 38.7903C32.0991 38.5115 32.8014 38.5838 33.3307 38.9762L36.9739 41.6783C37.0901 41.7648 37.2553 41.7519 37.3573 41.6499L41.4201 37.5871C41.5221 37.4852 41.5363 37.3251 41.4511 37.2076L38.8458 33.5967C38.456 33.0571 38.3979 32.347 38.6909 31.7467C38.9349 31.2458 39.1544 30.7281 39.3403 30.204C39.5649 29.5714 40.1162 29.1183 40.7746 29.0214L45.213 28.363C45.3563 28.3411 45.4647 28.2171 45.4647 28.0726V22.3264C45.4647 22.1805 45.3602 22.0591 45.2169 22.0359L40.7707 21.3168C40.1188 21.211 39.5778 20.7565 39.3584 20.1317C39.1802 19.6243 38.9711 19.1221 38.7387 18.638C38.4469 18.03 38.5128 17.3173 38.913 16.779L41.6253 13.1216C41.7118 13.0054 41.6989 12.8402 41.5969 12.7382L37.5342 8.67545C37.4322 8.57217 37.2721 8.55926 37.1546 8.64447L33.3914 11.3594C32.8595 11.7428 32.1637 11.8087 31.5737 11.5324C31.1206 11.3194 30.6519 11.127 30.1794 10.9618C29.5507 10.7397 29.0976 10.1911 28.9995 9.52879L28.3114 4.88381C28.2894 4.74052 28.1655 4.63207 28.0209 4.63207H22.2747C22.1288 4.63207 22.0075 4.73535 21.9842 4.87994L21.22 9.60496C21.1167 10.2492 20.6674 10.7888 20.0516 11.0121C19.6256 11.1658 19.2034 11.3413 18.7942 11.5337C18.1913 11.8177 17.4851 11.7467 16.952 11.3517L13.0687 8.47147C12.9525 8.38498 12.7872 8.39789 12.6852 8.49988L8.62509 12.5639C8.5231 12.6659 8.5089 12.826 8.5941 12.9435L11.4317 16.8758C11.8151 17.4077 11.8797 18.11 11.5969 18.7051C11.411 19.0963 11.2406 19.5017 11.0896 19.9096C10.8598 20.5293 10.3137 20.9747 9.66304 21.0702L4.83087 21.7867C4.68757 21.8087 4.57913 21.9326 4.57913 22.0772V27.8221C4.57913 27.968 4.68241 28.0893 4.827 28.1126L9.56493 28.8794C10.2207 28.9853 10.7617 29.4423 10.9811 30.0723C11.1283 30.4996 11.2974 30.9243 11.4846 31.3375C11.7544 31.9339 11.6809 32.631 11.291 33.1552L8.41982 37.0256C8.33332 37.1418 8.34623 37.307 8.44822 37.409L12.5097 41.4717C12.6117 41.575 12.7717 41.5879 12.8892 41.5027L16.6692 38.7761C17.2321 38.3734 17.9396 38.3333 18.5179 38.6199Z" fill="white"/>
<path fill-rule="evenodd" clip-rule="evenodd" d="M25.0232 37.6195C18.1061 37.6195 12.4774 31.9921 12.4774 25.0737C12.4774 18.1553 18.1048 12.5278 25.0232 12.5278C31.9417 12.5278 37.5691 18.1553 37.5691 25.0737C37.5691 31.9921 31.9404 37.6195 25.0232 37.6195ZM25.0232 14.0357C18.9362 14.0357 13.9853 18.9866 13.9853 25.0737C13.9853 31.1607 18.9362 36.1116 25.0232 36.1116C31.1103 36.1116 36.0612 31.1607 36.0612 25.0737C36.0612 18.9866 31.109 14.0357 25.0232 14.0357Z" fill="white"/>
<path fill-rule="evenodd" clip-rule="evenodd" d="M27.6336 37.3289C27.2179 37.3289 26.8796 36.992 26.8796 36.575V29.7676C26.8796 29.4823 27.0397 29.2228 27.2927 29.095C30.3227 27.5613 30.9411 23.6199 28.7671 21.2225V24.1944C28.7671 24.49 28.5954 24.7573 28.3268 24.8799L25.3369 26.2471C25.1381 26.3387 24.9096 26.3387 24.7095 26.2471L21.7195 24.8799C21.451 24.7573 21.2793 24.4887 21.2793 24.1944V21.2238C19.104 23.6199 19.7237 27.5639 22.7536 29.0963C23.0067 29.2254 23.1667 29.4849 23.1667 29.7689V36.5763C23.1667 36.992 22.8298 37.3302 22.4128 37.3302C21.9958 37.3302 21.6589 36.9932 21.6589 36.5763V30.2143C17.4438 27.6955 17.3986 21.5582 21.6434 18.9943C22.1456 18.6909 22.7872 19.0524 22.7872 19.6385V23.7103L25.0232 24.7327L27.2592 23.7103V19.6385C27.2592 19.0524 27.9008 18.6909 28.403 18.9943C32.6516 21.5621 32.5974 27.6981 28.3875 30.2143V36.5763C28.3875 36.992 28.0493 37.3289 27.6336 37.3289Z" fill="white"/>
</svg>
