<svg width="60" height="60" viewBox="0 0 60 60" fill="none" xmlns="http://www.w3.org/2000/svg">
<path d="M16.6991 34.901C17.3673 34.901 18.0205 34.6985 18.5827 34.3087L33.8167 23.763C35.2851 22.7459 35.6882 20.7654 34.735 19.2548C34.2578 18.4998 33.5154 17.9768 32.6435 17.784C31.7735 17.5894 30.8769 17.7497 30.1249 18.2335L14.5438 28.2574C13.7876 28.7436 13.2713 29.4956 13.0887 30.3753C12.9055 31.2544 13.0791 32.1504 13.5762 32.8957L13.9244 33.4187C14.4233 34.1671 15.1843 34.672 16.0677 34.8407C16.2785 34.8811 16.4894 34.901 16.6991 34.901ZM15.6778 32.2522L15.3295 31.728C15.1464 31.4545 15.0825 31.1267 15.1506 30.8049C15.2175 30.482 15.4067 30.2066 15.6826 30.0282L31.2643 20.0044C31.4638 19.8766 31.6903 19.811 31.9217 19.811C32.0097 19.811 32.0995 19.82 32.188 19.8399C32.5068 19.9104 32.7791 20.1026 32.9539 20.3792C33.3033 20.9329 33.1557 21.659 32.6176 22.0313L17.3842 32.577C17.1125 32.7656 16.7859 32.8331 16.4629 32.7722C16.1388 32.7101 15.8598 32.5258 15.6778 32.2522Z" fill="#F02801"/>
<path d="M57.8942 39.1254C57.8942 34.6232 51.4934 25.8285 49.4701 23.1605V14.99C49.4701 12.9414 48.1084 11.2241 46.2495 10.6433V6.92803C46.2495 4.83782 44.5486 3.13745 42.459 3.13745H36.2889C34.1993 3.13745 32.4984 4.83782 32.4984 6.92803V10.4155H31.8928C30.9775 10.4155 30.093 10.6855 29.335 11.1976L9.85789 24.333C7.62789 25.837 6.29688 28.3411 6.29688 31.0303V53.0308C6.29688 56.8738 9.42286 59.9998 13.2659 59.9998H42.5011C46.3441 59.9998 49.4707 56.8738 49.4707 53.0308V48.8064C54.2224 48.14 57.8942 44.0584 57.8942 39.1254ZM34.6048 6.92803C34.6048 5.99952 35.3604 5.24333 36.2889 5.24333H42.459C43.3875 5.24333 44.1431 5.99952 44.1431 6.92803V10.4155H34.6048V6.92803ZM42.5011 57.8939H13.2653C10.5833 57.8939 8.40215 55.7121 8.40215 53.0308V31.0303C8.40215 29.0419 9.3867 27.1909 11.0359 26.0786L30.5136 12.9426C30.9221 12.6672 31.3987 12.5208 31.8928 12.5208H44.8962C46.2562 12.5208 47.3642 13.6289 47.3642 14.9894V22.3989C47.3377 22.4254 47.301 22.4362 47.2775 22.4658C46.3604 23.6401 38.3207 34.0851 38.3207 39.1254C38.3207 44.2711 42.3149 48.4925 47.3642 48.8751V53.0314C47.3642 55.7121 45.183 57.8939 42.5011 57.8939ZM48.1078 46.8066C43.8731 46.8066 40.4272 43.3607 40.4272 39.1254C40.4272 35.8403 45.3837 28.5086 48.1078 24.8518C50.8331 28.508 55.7884 35.8379 55.7884 39.1254C55.7884 43.3607 52.3418 46.8066 48.1078 46.8066Z" fill="#F02801"/>
<path d="M15.4626 15.216C17.5739 15.216 19.2923 13.4981 19.2923 11.3862C19.2923 9.62741 16.996 6.54963 16.2923 5.64823C15.8934 5.13728 15.0317 5.13728 14.6329 5.64823C13.9291 6.54963 11.6328 9.62741 11.6328 11.3862C11.6334 13.4981 13.3513 15.216 15.4626 15.216ZM15.4626 8.07707C16.3935 9.42375 17.1864 10.8439 17.1864 11.3862C17.1864 12.3364 16.4128 13.1101 15.4626 13.1101C14.513 13.1101 13.7393 12.3364 13.7393 11.3862C13.7393 10.8451 14.5316 9.42435 15.4626 8.07707Z" fill="#F02801"/>
<path d="M9.81575 6.12121C9.81575 4.36239 7.51946 1.28462 6.8157 0.383216C6.41681 -0.127739 5.55518 -0.127739 5.1563 0.383216C4.45253 1.28462 2.15625 4.36239 2.15625 6.12121C2.15625 8.23312 3.8747 9.95096 5.986 9.95096C8.0973 9.95096 9.81575 8.23312 9.81575 6.12121ZM5.9866 7.84508C5.03639 7.84508 4.26273 7.07142 4.26273 6.12121C4.26273 5.58013 5.05568 4.15934 5.9866 2.81145C6.91692 4.15874 7.70987 5.57892 7.70987 6.12121C7.70987 7.07202 6.93681 7.84508 5.9866 7.84508Z" fill="#F02801"/>
<path d="M52.6276 37.3599C52.0455 37.3599 51.5743 37.8317 51.5743 38.4132C51.5743 40.4449 49.9209 42.0989 47.8886 42.0989C47.3065 42.0989 46.8359 42.5701 46.8359 43.1515C46.8359 43.733 47.3065 44.2048 47.8886 44.2048C51.082 44.2048 53.6802 41.6066 53.6802 38.4132C53.6802 37.8317 53.2096 37.3599 52.6276 37.3599Z" fill="#F02801"/>
<path d="M38.9399 50.523H16.8261C16.244 50.523 15.7734 50.9942 15.7734 51.5756C15.7734 52.1571 16.244 52.6289 16.8261 52.6289H38.9399C39.522 52.6289 39.9926 52.1571 39.9926 51.5756C39.9926 50.9942 39.522 50.523 38.9399 50.523Z" fill="#F02801"/>
</svg>
