<svg width="30" height="30" viewBox="0 0 30 30" fill="none" xmlns="http://www.w3.org/2000/svg">
<path d="M7.55847 8.71916C7.64325 8.71912 7.72721 8.73579 7.80556 8.7682C7.8839 8.80062 7.95509 8.84815 8.01506 8.90808L13.9379 14.8309L14.7499 14.0193L8.82711 8.09603C8.71821 7.9871 8.65184 7.84282 8.64001 7.68924C8.62817 7.53566 8.67164 7.38291 8.76256 7.25858C8.86455 7.11946 8.90934 6.94654 8.88773 6.7754C8.86612 6.60426 8.77974 6.44791 8.64637 6.33851L5.63398 3.86146L3.76931 5.7072L6.25668 8.72691C6.36611 8.8605 6.52259 8.94705 6.69391 8.96874C6.86522 8.99044 7.03834 8.94562 7.17761 8.84353C7.28816 8.76273 7.42154 8.71918 7.55847 8.71916ZM13.9379 16.3896C13.8531 16.3897 13.7691 16.373 13.6908 16.3405C13.6125 16.308 13.5415 16.2603 13.4817 16.2002L7.43367 10.1526C7.05305 10.2873 6.64017 10.3014 6.25124 10.1931C5.8623 10.0847 5.51619 9.8592 5.26001 9.54714L2.39867 6.07385C2.29612 5.94969 2.24368 5.79169 2.25164 5.63086C2.25961 5.47003 2.32739 5.31798 2.4417 5.20456L5.13607 2.53644C5.2496 2.4237 5.40095 2.35713 5.56078 2.34966C5.7206 2.34218 5.8775 2.39433 6.00106 2.49599L9.46746 5.34098C9.77898 5.59764 10.0039 5.94399 10.1117 6.33297C10.2195 6.72194 10.2049 7.13467 10.0699 7.51507L16.1193 13.5627C16.2403 13.6837 16.3083 13.8479 16.3083 14.019C16.3083 14.1902 16.2403 14.3544 16.1193 14.4754L14.3944 16.2002C14.3345 16.2602 14.2633 16.3078 14.185 16.3403C14.1066 16.3728 14.0227 16.3896 13.9379 16.3896Z" fill="#F02801"/>
<path d="M15.2957 17.0127C15.4502 17.0129 15.5996 17.0685 15.7166 17.1694C15.8336 17.2703 15.9106 17.4099 15.9334 17.5627L16.1228 18.8223C16.1754 19.1691 16.3373 19.4901 16.585 19.7385L23.0401 26.1936C23.2447 26.3981 23.522 26.5129 23.8113 26.5129C24.1005 26.5129 24.3779 26.3981 24.5824 26.1936L26.1132 24.6629C26.3174 24.4583 26.4321 24.181 26.4321 23.8919C26.4321 23.6029 26.3174 23.3256 26.1132 23.121L19.658 16.6659C19.4094 16.4185 19.0885 16.2567 18.7418 16.2037L17.4818 16.0143C17.3209 15.9901 17.1751 15.9061 17.0735 15.779C16.9719 15.6518 16.9221 15.4911 16.934 15.3288L17.02 14.141C17.0232 14.0949 17.0122 14.0489 16.9886 14.0092C16.9649 13.9694 16.9298 13.9378 16.8878 13.9185C16.8458 13.8991 16.7989 13.893 16.7534 13.901C16.7078 13.9089 16.6657 13.9305 16.6327 13.9629L13.8828 16.7128C13.8505 16.7458 13.8289 16.7878 13.8209 16.8334C13.813 16.8789 13.8191 16.9258 13.8384 16.9678C13.8578 17.0098 13.8894 17.045 13.9291 17.0686C13.9689 17.0922 14.0149 17.1032 14.061 17.1001L15.2488 17.014H15.2965L15.2957 17.0127ZM23.8121 27.8053C23.4993 27.806 23.1894 27.7448 22.9003 27.6251C22.6113 27.5053 22.3489 27.3295 22.1282 27.1077L15.6731 20.6525C15.2313 20.2088 14.9421 19.6361 14.8472 19.0172L14.747 18.3489L14.1561 18.392C13.847 18.4147 13.5382 18.3424 13.2714 18.1846C13.0045 18.0269 12.7923 17.7912 12.6633 17.5094C12.5342 17.2275 12.4945 16.9129 12.5494 16.6078C12.6043 16.3027 12.7513 16.0218 12.9705 15.8026L15.7204 13.0527C15.9397 12.8337 16.2207 12.6869 16.5257 12.6322C16.8308 12.5774 17.1453 12.6172 17.4271 12.7463C17.7089 12.8753 17.9444 13.0875 18.1022 13.3542C18.26 13.621 18.3324 13.9296 18.3098 14.2387L18.2667 14.8292L18.9351 14.9268C19.554 15.0218 20.1267 15.3112 20.5704 15.7531L27.0255 22.2082C27.4715 22.6553 27.7219 23.2609 27.7219 23.8924C27.7219 24.5238 27.4715 25.1295 27.0255 25.5765L25.4948 27.1068C25.2741 27.3286 25.0117 27.5045 24.7226 27.6242C24.4336 27.7439 24.1237 27.8052 23.8108 27.8044L23.8121 27.8053Z" fill="#F02801"/>
<path d="M23.9636 24.6904C23.8789 24.6905 23.7949 24.6738 23.7167 24.6413C23.6384 24.6088 23.5673 24.5612 23.5075 24.5011L17.5533 18.5477C17.4357 18.426 17.3706 18.2629 17.3721 18.0937C17.3736 17.9244 17.4415 17.7625 17.5611 17.6428C17.6808 17.5232 17.8427 17.4553 18.012 17.4538C18.1812 17.4523 18.3443 17.5174 18.466 17.635L24.4202 23.5883C24.5106 23.6786 24.5721 23.7937 24.597 23.9189C24.622 24.0442 24.6092 24.174 24.5603 24.292C24.5114 24.41 24.4286 24.5108 24.3224 24.5817C24.2162 24.6527 24.0914 24.6905 23.9636 24.6904Z" fill="#F02801"/>
<path d="M19.884 14.2568C19.7564 14.2568 19.6316 14.2189 19.5255 14.148C19.4194 14.0771 19.3367 13.9763 19.2878 13.8584C19.2389 13.7405 19.2261 13.6108 19.251 13.4856C19.2758 13.3604 19.3372 13.2454 19.4274 13.1551L21.4018 11.1807C21.4768 11.1057 21.5691 11.0503 21.6706 11.0195C21.7721 10.9886 21.8796 10.9833 21.9836 11.0038C22.5511 11.1169 23.137 11.0961 23.695 10.9432C24.253 10.7903 24.7677 10.5094 25.1982 10.1229C25.6287 9.73636 25.9632 9.2548 26.1752 8.71644C26.3871 8.17808 26.4707 7.59774 26.4192 7.02146L25.2572 8.18338C24.9079 8.53184 24.4347 8.72753 23.9413 8.72753C23.4479 8.72753 22.9746 8.53184 22.6253 8.18338L21.8804 7.43846C21.5315 7.08944 21.3355 6.61616 21.3355 6.12269C21.3355 5.62921 21.5315 5.15594 21.8804 4.80692L23.0423 3.64499C22.466 3.59351 21.8857 3.67706 21.3473 3.889C20.8089 4.10094 20.3274 4.43543 19.9408 4.86595C19.5543 5.29646 19.2734 5.81114 19.1205 6.36914C18.9676 6.92714 18.9468 7.51311 19.0599 8.08053C19.0805 8.18458 19.0751 8.29209 19.0443 8.39357C19.0134 8.49505 18.958 8.58737 18.883 8.66235L16.1159 11.4295C16.0564 11.4911 15.9852 11.5403 15.9064 11.5741C15.8276 11.6079 15.7429 11.6257 15.6572 11.6265C15.5715 11.6272 15.4865 11.6109 15.4072 11.5784C15.3279 11.546 15.2558 11.4981 15.1952 11.4375C15.1346 11.3768 15.0866 11.3048 15.0542 11.2254C15.0217 11.1461 15.0054 11.0611 15.0061 10.9754C15.0069 10.8897 15.0247 10.805 15.0585 10.7262C15.0923 10.6475 15.1415 10.5762 15.2032 10.5167L17.737 7.98284C17.6282 7.11939 17.746 6.24248 18.0787 5.43833C18.4115 4.63419 18.9479 3.9305 19.635 3.39646C20.3222 2.86243 21.1365 2.51643 21.9979 2.3925C22.8594 2.26857 23.7382 2.37097 24.548 2.68964C24.6473 2.72896 24.7352 2.79228 24.8039 2.87392C24.8727 2.95556 24.9201 3.05297 24.942 3.15743C24.9639 3.26189 24.9595 3.37015 24.9293 3.47251C24.899 3.57487 24.8439 3.66814 24.7688 3.74397L22.7953 5.71838C22.7423 5.77126 22.7003 5.83405 22.6717 5.90316C22.643 5.97228 22.6283 6.04636 22.6283 6.12118C22.6283 6.196 22.643 6.27008 22.6717 6.3392C22.7003 6.40832 22.7423 6.47111 22.7953 6.52398L23.5398 7.26933C23.6467 7.37603 23.7915 7.43595 23.9426 7.43595C24.0936 7.43595 24.2385 7.37603 24.3454 7.26933L26.3189 5.29579C26.3946 5.21998 26.4881 5.16422 26.5907 5.13354C26.6934 5.10286 26.8021 5.09821 26.907 5.12003C27.0119 5.14185 27.1097 5.18945 27.1917 5.25852C27.2736 5.32759 27.337 5.41597 27.3763 5.51569C27.6955 6.32553 27.7983 7.20454 27.6746 8.06618C27.5508 8.92782 27.2049 9.7424 26.6707 10.4297C26.1366 11.117 25.4326 11.6534 24.6282 11.986C23.8238 12.3187 22.9466 12.4361 22.083 12.3267L20.3402 14.0679C20.2804 14.1279 20.2093 14.1755 20.131 14.208C20.0527 14.2404 19.9687 14.257 19.884 14.2568Z" fill="#F02801"/>
<path d="M7.26331 27.8134C6.63477 27.8136 6.01182 27.6953 5.42704 27.4649C5.32741 27.4256 5.23911 27.3622 5.17009 27.2803C5.10108 27.1984 5.05352 27.1006 5.03171 26.9958C5.00989 26.8909 5.01451 26.7823 5.04513 26.6797C5.07576 26.5771 5.13143 26.4837 5.20714 26.4079L7.18069 24.4344C7.2873 24.3274 7.34716 24.1824 7.34716 24.0314C7.34716 23.8803 7.2873 23.7354 7.18069 23.6284L6.43577 22.8834C6.32874 22.7768 6.18382 22.717 6.03275 22.717C5.88168 22.717 5.73677 22.7768 5.62974 22.8834L3.65791 24.857C3.58219 24.9331 3.48869 24.9891 3.38586 25.02C3.28304 25.0508 3.17415 25.0555 3.06904 25.0337C2.96393 25.0119 2.86593 24.9642 2.7839 24.8949C2.70188 24.8257 2.63842 24.737 2.59927 24.6371C2.28051 23.8272 2.17803 22.9483 2.30191 22.0868C2.4258 21.2254 2.77177 20.411 3.30582 19.7237C3.83987 19.0365 4.5436 18.5001 5.3478 18.1673C6.152 17.8345 7.02897 17.7168 7.89247 17.8256L10.4341 15.2845C10.494 15.2245 10.5652 15.177 10.6435 15.1446C10.7219 15.1121 10.8058 15.0955 10.8906 15.0955C10.9754 15.0955 11.0593 15.1122 11.1376 15.1447C11.216 15.1771 11.2871 15.2247 11.347 15.2847C11.407 15.3446 11.4545 15.4158 11.4869 15.4941C11.5194 15.5725 11.536 15.6564 11.536 15.7412C11.536 15.826 11.5193 15.9099 11.4868 15.9882C11.4544 16.0666 11.4068 16.1377 11.3468 16.1976L8.57241 18.9721C8.49769 19.0471 8.40565 19.1026 8.30441 19.1337C8.20317 19.1647 8.09584 19.1704 7.99188 19.1502C7.42458 19.0372 6.83874 19.058 6.28085 19.2108C5.72295 19.3637 5.20835 19.6444 4.77787 20.0308C4.34738 20.4172 4.01285 20.8986 3.80082 21.4367C3.58879 21.9749 3.50508 22.5551 3.55635 23.1313L4.71827 21.9694C5.06729 21.6205 5.54057 21.4246 6.03404 21.4246C6.52752 21.4246 7.00079 21.6205 7.34981 21.9694L8.09474 22.7143C8.44317 23.0636 8.63885 23.5367 8.63885 24.0301C8.63885 24.5234 8.44317 24.9966 8.09474 25.3459L6.93281 26.5078C7.50908 26.5591 8.08939 26.4755 8.62772 26.2636C9.16605 26.0516 9.64758 25.7171 10.0341 25.2866C10.4207 24.8561 10.7016 24.3415 10.8546 23.7836C11.0076 23.2256 11.0285 22.6397 10.9156 22.0722C10.895 21.9682 10.9003 21.8607 10.9311 21.7593C10.9618 21.6578 11.0171 21.5654 11.0921 21.4904L13.0738 19.5087C13.1959 19.3932 13.3583 19.3299 13.5264 19.3323C13.6945 19.3347 13.855 19.4025 13.9738 19.5214C14.0926 19.6403 14.1604 19.8009 14.1627 19.9689C14.165 20.137 14.1017 20.2994 13.9861 20.4215L12.2381 22.1699C12.3274 22.8759 12.2655 23.5929 12.0563 24.2731C11.8472 24.9533 11.4956 25.5812 11.0251 26.115C10.5545 26.6489 9.97564 27.0764 9.32705 27.3693C8.67845 27.6621 7.97495 27.8135 7.26331 27.8134Z" fill="#F02801"/>
</svg>
