<svg width="50" height="50" viewBox="0 0 50 50" fill="none" xmlns="http://www.w3.org/2000/svg">
<g clip-path="url(#clip0_541_1681)">
<path d="M48.9383 32.6967C48.5934 31.6784 47.7696 30.9389 46.6187 30.6144C45.3801 30.2651 43.7696 30.3765 41.8314 30.945L33.0084 33.5334C32.9713 33.4579 32.9316 33.3834 32.8891 33.3098C32.3964 32.4563 31.6038 31.8467 30.6574 31.5931L24.3891 29.9135C19.8145 26.7078 17.3631 27.6287 13.7583 29.3916C12.0337 30.2349 10.3205 31.0503 8.70054 31.8158L8.36079 31.0001C7.90991 29.9178 6.66206 29.4027 5.57925 29.8525L2.19331 31.2585C1.66548 31.4777 1.25561 31.8872 1.03931 32.4116C0.822997 32.9359 0.824852 33.5153 1.04458 34.0429L6.77817 47.8106C7.11821 48.6274 7.91206 49.121 8.74643 49.1209C9.01792 49.1209 9.2938 49.0687 9.55972 48.9582L12.9457 47.5522C13.4735 47.333 13.8833 46.9235 14.0997 46.3991C14.316 45.8748 14.3141 45.2954 14.0944 44.7679L13.7103 43.8456L15.9171 42.7727C16.7232 42.3808 17.5334 42.3117 18.3943 42.5615L25.4372 44.6064C25.9557 44.757 26.4916 44.8215 27.0353 44.8215C28.9072 44.8214 30.8702 44.0576 32.5202 43.4155C32.6655 43.3589 32.8082 43.3034 32.9476 43.2497L46.1654 38.1562C48.3052 37.3318 49.6269 34.7295 48.9383 32.6967ZM12.8358 45.878C12.7588 46.0645 12.6117 46.2108 12.4212 46.2898L9.0353 47.6958C8.6478 47.8564 8.20141 47.6725 8.04018 47.2852L2.30669 33.5175C2.22749 33.3272 2.22622 33.1197 2.30317 32.9333C2.38013 32.7468 2.52729 32.6005 2.71772 32.5215L6.10356 31.1154C6.19868 31.076 6.29731 31.0572 6.39448 31.0572C6.69302 31.0572 6.977 31.2338 7.09868 31.5259L12.8323 45.2938C12.9115 45.484 12.9127 45.6915 12.8358 45.878ZM45.6737 36.8807L32.4559 41.9742C32.3151 42.0285 32.171 42.0846 32.0243 42.1417C30.0875 42.8954 27.6769 43.8334 25.8183 43.2938L18.7754 41.2489C17.5912 40.9051 16.4283 41.0042 15.3193 41.5434L13.1837 42.5816L9.22661 33.0795C10.8681 32.3039 12.6065 31.4768 14.3588 30.62C17.7281 28.9724 19.6738 28.2456 23.6992 31.1001C23.7654 31.147 23.8393 31.1817 23.9176 31.2027L30.3035 32.9139C30.8971 33.0728 31.3949 33.4563 31.705 33.9935C32.0151 34.5306 32.0983 35.1534 31.9392 35.7471C31.7802 36.3408 31.3967 36.8385 30.8595 37.1486C30.3224 37.4587 29.6998 37.5419 29.1059 37.3828L20.6195 35.1088C20.2547 35.0113 19.8799 35.2274 19.7823 35.5922C19.6845 35.9568 19.9009 36.3316 20.2657 36.4294L28.7521 38.7033C29.6985 38.957 30.6897 38.8252 31.5431 38.3325C32.3965 37.8397 33.0062 37.0472 33.2599 36.1008C33.3706 35.6877 33.4079 35.266 33.3738 34.851L42.2163 32.2568C45.1379 31.3998 47.1667 31.7281 47.6434 33.1353C48.095 34.4685 47.1193 36.3236 45.6737 36.8807ZM22.7769 25.743L25.7319 25.1466L26.6928 28.0039C26.7785 28.2586 27.0054 28.4395 27.2728 28.4662C27.2956 28.4685 27.3183 28.4696 27.341 28.4696C27.5833 28.4696 27.8099 28.3407 27.9328 28.1278L31.8423 21.3563C32.3747 21.4414 32.9203 21.4862 33.4761 21.4862C34.0321 21.4862 34.5776 21.4414 35.1099 21.3563L39.0195 28.1278C39.1423 28.3407 39.3689 28.4696 39.6113 28.4696C39.6338 28.4696 39.6566 28.4685 39.6794 28.4662C39.9468 28.4395 40.1738 28.2586 40.2594 28.0039L41.2204 25.1466L44.1753 25.743C44.4387 25.796 44.7088 25.6901 44.8657 25.4719C45.0225 25.2537 45.037 24.9638 44.9026 24.7312L41.0864 18.1214C42.7585 16.289 43.7797 13.8528 43.7797 11.1825C43.7798 5.50107 39.1576 0.878906 33.4761 0.878906C27.7947 0.878906 23.1724 5.50117 23.1724 11.1826C23.1724 13.8529 24.1936 16.2891 25.8658 18.1215L22.0497 24.7313C21.9153 24.964 21.9297 25.2538 22.0866 25.472C22.2434 25.6901 22.5138 25.7961 22.7769 25.743ZM40.8999 23.6872C40.5623 23.6188 40.2265 23.8129 40.1166 24.1394L39.4462 26.1328L36.5017 21.0327C37.8233 20.626 39.0323 19.9599 40.0693 19.0941L42.9613 24.1033L40.8999 23.6872ZM33.4761 2.24609C38.4037 2.24609 42.4126 6.25498 42.4126 11.1826C42.4126 16.1103 38.4038 20.1191 33.4761 20.1191C28.5485 20.1191 24.5396 16.1103 24.5396 11.1826C24.5396 6.25498 28.5485 2.24609 33.4761 2.24609ZM26.8829 19.0941C27.9199 19.9598 29.1289 20.6259 30.4504 21.0327L27.5059 26.1328L26.8355 24.1394C26.7256 23.8128 26.3895 23.6188 26.0523 23.6872L23.9908 24.1033L26.8829 19.0941ZM31.1762 9.76572C31.1762 8.81709 31.8513 8.01152 32.7805 7.73818L32.7736 7.44893C32.7646 7.07148 33.0632 6.7582 33.4407 6.74922C33.8149 6.73984 34.1314 7.03887 34.1404 7.41631L34.1484 7.75098C34.6518 7.9 35.2055 8.19424 35.4813 8.61387C35.6887 8.9293 35.601 9.35322 35.2855 9.56055C34.9701 9.76787 34.5461 9.68027 34.3388 9.36475C34.2407 9.23291 33.7333 9.00596 33.4761 9.00596C32.9619 9.00596 32.5434 9.34678 32.5434 9.76572C32.5434 10.1847 32.9619 10.5255 33.4761 10.5255C34.7443 10.5255 35.776 11.4797 35.776 12.6524C35.776 13.6007 35.1015 14.4061 34.1729 14.6796L34.1787 14.916C34.1877 15.2935 33.8892 15.6068 33.5118 15.6159C33.5062 15.616 33.5005 15.6161 33.495 15.6161C33.125 15.6161 32.8209 15.3209 32.8119 14.949L32.8057 14.6923C32.308 14.5528 31.9648 14.2652 31.6547 13.9728C31.3801 13.7137 31.3675 13.2811 31.6266 13.0063C31.8856 12.7317 32.3183 12.7191 32.593 12.9782C32.9438 13.3092 33.1114 13.4122 33.4762 13.4122C33.9906 13.4122 34.4089 13.0714 34.4089 12.6524C34.4089 12.2335 33.9905 11.8927 33.4762 11.8927C32.208 11.8927 31.1762 10.9386 31.1762 9.76572ZM33.4761 17.1508C36.767 17.1508 39.4444 14.4734 39.4444 11.1825C39.4444 7.8916 36.767 5.21426 33.4761 5.21426C30.1852 5.21426 27.5079 7.8916 27.5079 11.1825C27.5079 14.4734 30.1852 17.1508 33.4761 17.1508ZM33.4761 6.58154C36.0131 6.58154 38.0772 8.64561 38.0772 11.1826C38.0772 13.7196 36.0131 15.7837 33.4761 15.7837C30.9391 15.7837 28.875 13.7196 28.875 11.1826C28.875 8.64561 30.9391 6.58154 33.4761 6.58154Z" fill="#F02801"/>
</g>
<defs>
<clipPath id="clip0_541_1681">
<rect width="50" height="50" fill="white"/>
</clipPath>
</defs>
</svg>
