<svg width="50" height="50" viewBox="0 0 50 50" fill="none" xmlns="http://www.w3.org/2000/svg">
<g clip-path="url(#clip0_541_1673)">
<path d="M25 0C11.2149 0 0 11.2149 0 25C0 30.7065 1.97305 36.2876 5.55586 40.7152C5.90322 41.1445 6.53311 41.2109 6.96221 40.8635C7.3915 40.5161 7.45791 39.8864 7.11045 39.457C3.81494 35.3844 2 30.25 2 25C2 12.3178 12.3178 2 25 2C37.6822 2 48 12.3178 48 25C48 37.6822 37.6822 48 25 48C19.75 48 14.6159 46.1851 10.5432 42.8895C10.1139 42.5424 9.48438 42.6086 9.13682 43.038C8.78945 43.4673 8.85586 44.0969 9.28525 44.4444C13.7127 48.027 19.2936 50 25 50C38.7851 50 50 38.7851 50 25C50 11.2149 38.7851 0 25 0Z" fill="#F02801"/>
<path d="M35.1756 10.9306C35.4733 10.4655 35.3377 9.84697 34.8727 9.54922C31.9269 7.66338 28.513 6.6665 24.9998 6.6665C14.8907 6.6665 6.6665 14.8907 6.6665 24.9998C6.6665 35.1089 14.8907 43.3331 24.9998 43.3331C35.1089 43.3331 43.3331 35.1089 43.3331 24.9998C43.3331 20.7254 41.8303 16.5645 39.1014 13.2835C38.7481 12.8588 38.1177 12.801 37.6931 13.1542C37.2684 13.5072 37.2105 14.1378 37.5638 14.5625C39.9944 17.4851 41.3331 21.1917 41.3331 24.9998C41.3331 34.0061 34.0061 41.3331 24.9998 41.3331C15.9936 41.3331 8.6665 34.0061 8.6665 24.9998C8.6665 15.9936 15.9936 8.6665 24.9998 8.6665C28.1301 8.6665 31.171 9.5542 33.7942 11.2337C34.2592 11.5314 34.8776 11.3959 35.1756 10.9306Z" fill="#F02801"/>
<path d="M28 21.0002C28 21.5524 28.4478 22.0002 29 22.0002C29.5522 22.0002 30 21.5524 30 21.0002C30 18.5855 28.2795 16.5654 26 16.1009V14.3335C26 13.7812 25.5522 13.3335 25 13.3335C24.4478 13.3335 24 13.7812 24 14.3335V16.1009C21.7205 16.5654 20 18.5855 20 21.0002C20 23.4148 21.7205 25.435 24 25.8995V31.8282C22.8361 31.4154 22 30.3039 22 29.0002C22 28.4479 21.5522 28.0002 21 28.0002C20.4478 28.0002 20 28.4479 20 29.0002C20 31.4148 21.7205 33.435 24 33.8995V35.6669C24 36.2191 24.4478 36.6669 25 36.6669C25.5522 36.6669 26 36.2191 26 35.6669V33.8995C28.2795 33.435 30 31.4148 30 29.0002C30 26.5855 28.2795 24.5654 26 24.1009V18.1722C27.1639 18.585 28 19.6965 28 21.0002ZM24 23.8282C22.8361 23.4154 22 22.3039 22 21.0002C22 19.6965 22.8361 18.585 24 18.1722V23.8282ZM28 29.0002C28 30.3039 27.1639 31.4154 26 31.8282V26.1723C27.1639 26.585 28 27.6965 28 29.0002Z" fill="#F02801"/>
</g>
<defs>
<clipPath id="clip0_541_1673">
<rect width="50" height="50" fill="white"/>
</clipPath>
</defs>
</svg>
