<svg width="50" height="50" viewBox="0 0 50 50" fill="none" xmlns="http://www.w3.org/2000/svg">
<path fill-rule="evenodd" clip-rule="evenodd" d="M22.0258 47.0243C21.1402 47.0243 20.3746 46.3633 20.2442 45.4867L19.5587 40.8624C19.5432 40.7565 19.4735 40.6674 19.3767 40.6326C18.859 40.4389 18.3465 40.2169 17.8507 39.9716C17.7552 39.9251 17.6416 39.9355 17.5538 39.9987L13.7738 42.7253C13.0534 43.2455 12.0749 43.1668 11.4461 42.5381L7.3834 38.4753C6.75727 37.8492 6.68239 36.841 7.21041 36.1283L10.0829 32.2579C10.1461 32.1727 10.1577 32.0578 10.1138 31.9584C9.90857 31.504 9.72267 31.0354 9.56001 30.5655C9.52386 30.4609 9.43478 30.3834 9.32763 30.3666L4.5897 29.5998C3.71183 29.4578 3.07666 28.7103 3.07666 27.8221V22.0759C3.07666 21.189 3.73636 20.4247 4.61423 20.2943L9.4464 19.5779C9.55226 19.5624 9.64134 19.4875 9.68136 19.3842C9.84661 18.9362 10.0351 18.4908 10.2391 18.0596C10.2868 17.9602 10.2765 17.8453 10.2132 17.7576L7.37565 13.8265C6.85538 13.1061 6.93413 12.1276 7.56285 11.4988L11.6256 7.4361C12.2517 6.80997 13.26 6.73509 13.9726 7.26311L17.8546 10.1433C17.9411 10.2079 18.0573 10.2182 18.1593 10.1704C18.6085 9.95998 19.0733 9.76633 19.5432 9.59592C19.6465 9.55849 19.7201 9.4707 19.7382 9.36484L20.5024 4.63982C20.6444 3.76195 21.3919 3.12549 22.2801 3.12549H28.025C28.9106 3.12549 29.6762 3.78518 29.8066 4.66306L30.496 9.30932C30.5115 9.41648 30.5838 9.50685 30.6845 9.5417C31.2047 9.72373 31.7211 9.93674 32.2194 10.1704C32.3137 10.2143 32.426 10.2027 32.5151 10.1394L36.277 7.42319C36.9974 6.90292 37.976 6.98167 38.6047 7.61038L42.6674 11.6731C43.2935 12.2993 43.3684 13.3075 42.8404 14.0201L40.128 17.6775C40.0635 17.7653 40.0519 17.8828 40.1009 17.9861C40.3565 18.5192 40.5863 19.0718 40.7839 19.6321C40.8213 19.7366 40.9104 19.8141 41.0162 19.8296L45.4624 20.5487C46.3403 20.6907 46.9767 21.4382 46.9767 22.3264V28.0726C46.9767 28.9582 46.3157 29.7237 45.4392 29.8541L41.0007 30.5125C40.8923 30.528 40.8019 30.6042 40.7658 30.7113C40.5605 31.2884 40.3191 31.859 40.0506 32.4103C40.0015 32.511 40.0106 32.6285 40.0738 32.7162L42.6777 36.3258C43.198 37.0462 43.1193 38.0248 42.4906 38.6535L38.4278 42.7162C37.8017 43.3424 36.7934 43.4172 36.0808 42.8892L32.4363 40.1859C32.3498 40.1226 32.2336 40.111 32.1317 40.1575C31.5946 40.4054 31.0369 40.6287 30.474 40.8172C30.3682 40.8533 30.292 40.9411 30.2739 41.047L29.5523 45.5112C29.4103 46.3891 28.6628 47.0256 27.7746 47.0256L22.0258 47.0243ZM18.5182 38.6199C18.9687 38.842 19.4348 39.0447 19.9047 39.2202C20.514 39.4487 20.953 39.9923 21.0485 40.6416L21.734 45.2672C21.756 45.4105 21.8799 45.519 22.0245 45.519H27.7707C27.9166 45.519 28.0379 45.4157 28.0612 45.2711L28.7828 40.8069C28.89 40.1472 29.3522 39.6037 29.9899 39.3894C30.5011 39.2177 31.0085 39.015 31.4965 38.7903C32.0994 38.5115 32.8017 38.5838 33.331 38.9762L36.9742 41.6783C37.0903 41.7648 37.2556 41.7519 37.3576 41.6499L41.4203 37.5871C41.5223 37.4852 41.5365 37.3251 41.4513 37.2076L38.8461 33.5967C38.4562 33.0571 38.3981 32.347 38.6912 31.7467C38.9352 31.2458 39.1546 30.7281 39.3405 30.204C39.5652 29.5714 40.1164 29.1183 40.7748 29.0214L45.2132 28.363C45.3565 28.3411 45.465 28.2171 45.465 28.0726V22.3264C45.465 22.1805 45.3604 22.0591 45.2171 22.0359L40.771 21.3168C40.119 21.211 39.5781 20.7565 39.3586 20.1317C39.1805 19.6243 38.9713 19.1221 38.7389 18.638C38.4472 18.03 38.513 17.3173 38.9132 16.779L41.6256 13.1216C41.7121 13.0054 41.6992 12.8402 41.5972 12.7382L37.5344 8.67545C37.4325 8.57217 37.2724 8.55926 37.1549 8.64446L33.3917 11.3594C32.8598 11.7428 32.1639 11.8087 31.5739 11.5324C31.1208 11.3194 30.6522 11.127 30.1797 10.9618C29.551 10.7397 29.0978 10.1911 28.9997 9.52879L28.3116 4.88381C28.2897 4.74052 28.1657 4.63207 28.0211 4.63207H22.275C22.1291 4.63207 22.0077 4.73535 21.9845 4.87994L21.2202 9.60496C21.1169 10.2492 20.6677 10.7888 20.0519 11.0121C19.6258 11.1658 19.2037 11.3413 18.7944 11.5337C18.1916 11.8177 17.4854 11.7467 16.9522 11.3517L13.0689 8.47147C12.9527 8.38498 12.7875 8.39789 12.6855 8.49988L8.62533 12.5639C8.52334 12.6659 8.50914 12.826 8.59435 12.9435L11.4319 16.8758C11.8154 17.4077 11.8799 18.11 11.5972 18.7051C11.4113 19.0963 11.2409 19.5017 11.0898 19.9096C10.86 20.5293 10.3139 20.9747 9.66329 21.0702L4.83111 21.7867C4.68781 21.8087 4.57937 21.9326 4.57937 22.0772V27.8221C4.57937 27.968 4.68265 28.0893 4.82724 28.1126L9.56517 28.8794C10.221 28.9853 10.7619 29.4423 10.9814 30.0723C11.1286 30.4996 11.2977 30.9243 11.4849 31.3375C11.7547 31.9339 11.6811 32.631 11.2912 33.1552L8.42006 37.0256C8.33357 37.1418 8.34648 37.307 8.44847 37.409L12.5099 41.4717C12.6119 41.575 12.772 41.5879 12.8895 41.5027L16.6695 38.7761C17.2324 38.3734 17.9398 38.3333 18.5182 38.6199Z" fill="#F02801"/>
<path fill-rule="evenodd" clip-rule="evenodd" d="M25.0234 37.6195C18.1063 37.6195 12.4775 31.9921 12.4775 25.0737C12.4775 18.1553 18.105 12.5278 25.0234 12.5278C31.9418 12.5278 37.5692 18.1553 37.5692 25.0737C37.5692 31.9921 31.9405 37.6195 25.0234 37.6195ZM25.0234 14.0357C18.9364 14.0357 13.9854 18.9866 13.9854 25.0737C13.9854 31.1607 18.9364 36.1116 25.0234 36.1116C31.1104 36.1116 36.0613 31.1607 36.0613 25.0737C36.0613 18.9866 31.1091 14.0357 25.0234 14.0357Z" fill="#F02801"/>
<path fill-rule="evenodd" clip-rule="evenodd" d="M27.6339 37.3291C27.2182 37.3291 26.88 36.9922 26.88 36.5752V29.7678C26.88 29.4825 27.0401 29.223 27.2931 29.0952C30.3231 27.5615 30.9414 23.6201 28.7674 21.2228V24.1946C28.7674 24.4903 28.5957 24.7575 28.3272 24.8801L25.3373 26.2473C25.1384 26.339 24.9099 26.339 24.7098 26.2473L21.7199 24.8801C21.4514 24.7575 21.2797 24.489 21.2797 24.1946V21.2241C19.1044 23.6201 19.724 27.5641 22.754 29.0965C23.007 29.2256 23.1671 29.4851 23.1671 29.7691V36.5765C23.1671 36.9922 22.8302 37.3304 22.4132 37.3304C21.9962 37.3304 21.6592 36.9935 21.6592 36.5765V30.2145C17.4442 27.6958 17.399 21.5584 21.6437 18.9945C22.1459 18.6911 22.7876 19.0526 22.7876 19.6387V23.7105L25.0236 24.733L27.2595 23.7105V19.6387C27.2595 19.0526 27.9012 18.6911 28.4034 18.9945C32.652 21.5623 32.5978 27.6984 28.3879 30.2145V36.5765C28.3879 36.9922 28.0496 37.3291 27.6339 37.3291Z" fill="#F02801"/>
</svg>
