<?xml version="1.0" encoding="UTF-8"?>
<svg id="Layer_1" xmlns="http://www.w3.org/2000/svg" version="1.1" viewBox="0 0 906.02 342.07">
  <!-- Generator: Adobe Illustrator 30.3.0, SVG Export Plug-In . SVG Version: 2.1.3 Build 182)  -->
  <defs>
    <style>
      .st0 {
        fill: none;
      }

      .st1 {
        fill: #fff;
      }
    </style>
  </defs>
  <g>
    <path class="st1" d="M864.54,105.67c-22.59-19.75-54.88-37.47-95.98-52.67-41.01-15.17-88.76-27.08-141.91-35.39-55-8.6-113.43-12.97-173.65-12.97s-118.65,4.36-173.65,12.97c-53.15,8.31-100.9,20.22-141.91,35.39-41.1,15.2-73.39,32.92-95.98,52.67C17.87,126.31,5.91,148.3,5.91,171.03s11.97,44.73,35.57,65.36c22.59,19.75,54.88,37.47,95.98,52.67,41.01,15.17,88.76,27.08,141.91,35.39,55,8.6,113.43,12.97,173.65,12.97s118.65-4.36,173.65-12.97c53.15-8.31,100.9-20.22,141.91-35.39,41.1-15.2,73.39-32.92,95.98-52.67,23.6-20.64,35.57-42.63,35.57-65.36s-11.97-44.73-35.57-65.36Z"/>
    <ellipse cx="453.01" cy="171.03" rx="432.48" ry="161.65"/>
  </g>
  <g>
    <path class="st0" d="M547.71,220.86h-.27c-.27,5.73-.69,11.99-1.51,16.77l-1.51,9.34h6.45l-1.51-9.34c-.69-4.78-1.23-11.04-1.65-16.77Z"/>
    <path class="st0" d="M609.16,210.89h-2.47v23.14h2.47c5.21,0,7.41-4.46,7.41-11.46s-2.19-11.68-7.41-11.68Z"/>
    <path class="st0" d="M487.23,210.89h-2.88v23.14h2.88c5.21,0,6.99-4.46,6.99-11.46s-1.78-11.68-6.99-11.68Z"/>
    <path class="st0" d="M177.95,220.86h-.27c-.27,5.73-.69,11.99-1.51,16.77l-1.51,9.34h6.45l-1.51-9.34c-.69-4.78-1.23-11.04-1.65-16.77Z"/>
    <path class="st0" d="M367.91,210.57c-3.57,0-6.03,10.08-6.03,27.17s2.47,27.17,6.03,27.17,6.17-10.08,6.17-27.17-2.61-27.17-6.17-27.17Z"/>
    <path class="st0" d="M432.86,124.76v-12.06h-60.31c0-9.65-7.28-13.36-26.59-13.73h-16.14l-22.79-.19-23.42.19q-30.7,0-38.3,1.11c-11.71,1.67-16.77,5.2-18.36,12.99-.95,3.34-1.58,14.66-1.58,22.64,0,16.7,2.85,23.38,11.71,26.91,7.28,2.78,16.14,3.9,32.92,4.08q6.96.19,46.53.19c42.09.19,50.01-1.11,55.39-9.28.63-1.48.95-3.15.95-6.87v-2.97h-106.46v-23.01h166.46Z"/>
    <path class="st0" d="M482.28,150.48l4.86-3.84h-14.97l-2.94,2.27c-1.71,1.39-3.36,2.64-4.97,3.75-.08.05-.16.11-.24.16l-13-10.36c-1.36-1.2-2.29-2.28-2.81-3.23-.52-.95-.57-1.85-.18-2.7.49-1.05,1.51-1.89,3.06-2.53,1.55-.64,3.35-.96,5.4-.96,1.85,0,3.26.31,4.23.93.97.62,1.12,1.57.46,2.85h14.18c.95-1.9,1.01-3.62.18-5.17-.83-1.55-2.54-2.81-5.13-3.78-2.59-.97-6.13-1.45-10.62-1.45s-8.52.46-12.09,1.37c-3.56.91-6.53,2.13-8.89,3.66-2.37,1.53-3.99,3.25-4.88,5.14-.74,1.59-.84,3.11-.29,4.56.33.88.97,1.82,1.91,2.83-.92.22-1.82.46-2.69.71-1.44.41-2.79.86-4.07,1.35-3.42,1.3-6.19,2.79-8.33,4.47-2.14,1.69-3.67,3.52-4.59,5.49-1.16,2.48-1.15,4.66.02,6.54,1.17,1.88,3.43,3.33,6.79,4.36,2.78.85,6.17,1.35,10.18,1.49.83.03,1.69.05,2.58.05,5.81,0,11.32-.64,16.51-1.92,2.79-.69,5.57-1.59,8.31-2.7l5.02,3.98h17.55l-11.8-9.4c1.23-.74,2.47-1.53,3.71-2.37,2.5-1.69,5.02-3.54,7.54-5.55ZM449.64,159.99c-3.23.91-6.6,1.37-10.1,1.37-2.45,0-4.44-.26-5.98-.78-.25-.08-.48-.18-.7-.27-1.15-.49-1.94-1.12-2.36-1.88-.5-.91-.5-1.91,0-2.99.46-1,1.25-1.92,2.35-2.78.7-.54,1.53-1.06,2.49-1.55,1.65-.84,3.69-1.56,6.13-2.15l12.17,9.65c-1.35.55-2.69,1.02-4.01,1.39Z"/>
    <path class="st1" d="M435.35,151.09c-.96.49-1.79,1.01-2.49,1.55-1.1.86-1.89,1.78-2.35,2.78-.51,1.09-.51,2.08,0,2.99.42.76,1.21,1.39,2.36,1.88.22.09.45.19.7.27,1.54.52,3.53.78,5.98.78,3.5,0,6.87-.45,10.1-1.37,1.33-.37,2.66-.84,4.01-1.39l-12.17-9.65c-2.43.59-4.48,1.31-6.13,2.15Z"/>
    <path class="st1" d="M684.23,70.19h-33.8s-.03,0-.04,0l-61.35,78.83-61.35-78.83s-.03,0-.04.01h0s-31.8-.01-31.8-.01h-62.99v23.88c-4.86-12.49-16.83-18.38-40.06-21.82-13.29-1.86-31.65-2.41-89.25-2.41-40.2,0-65.83.56-80.39,1.67-27.22,2.23-42.1,7.24-51.59,16.89-8.23,8.72-10.76,19.3-10.76,45.83,0,23.01,1.58,31.73,7.91,40.08,7.28,10.21,20.89,15.96,43.99,18.93,13.29,1.67,31.97,2.23,80.39,2.23,62.35,0,81.66-.19,88.3-.56,26.59-1.67,41.46-7.24,48.74-18.74,1.1-1.78,1.99-3.6,2.71-5.69v25.34h62.99v-98.88l76.68,98.53h33.01l76.68-98.53v98.88h62.99v-125.62h-60.98ZM372.86,147.77v2.97c0,3.71-.32,5.38-.95,6.87-5.38,8.16-13.29,9.46-55.39,9.28q-39.56,0-46.53-.19c-16.77-.19-25.64-1.3-32.92-4.08-8.86-3.53-11.71-10.21-11.71-26.91,0-7.98.63-19.3,1.58-22.64,1.58-7.79,6.65-11.32,18.36-12.99q7.6-1.11,38.3-1.11l23.42-.19,22.79.19h16.14c19.31.37,26.59,4.08,26.59,13.73h60.31v12.06h-166.46v23.01h106.46ZM482.82,167.8h-17.55l-5.02-3.98c-2.75,1.1-5.52,2.01-8.31,2.7-5.19,1.28-10.69,1.92-16.51,1.92-.89,0-1.75-.02-2.58-.05-4.01-.15-7.41-.64-10.18-1.49-3.36-1.03-5.62-2.48-6.79-4.36-1.17-1.88-1.18-4.06-.02-6.54.92-1.98,2.45-3.81,4.59-5.49,2.14-1.69,4.92-3.18,8.33-4.47,1.28-.49,2.64-.94,4.07-1.35.87-.25,1.77-.48,2.69-.71-.94-1-1.58-1.94-1.91-2.83-.55-1.45-.45-2.97.29-4.56.88-1.9,2.51-3.61,4.88-5.14,2.36-1.53,5.33-2.75,8.89-3.66,3.56-.91,7.59-1.37,12.09-1.37s8.03.48,10.62,1.45c2.59.97,4.3,2.23,5.13,3.78.83,1.55.77,3.27-.18,5.17h-14.18c.66-1.28.51-2.23-.46-2.85-.97-.62-2.38-.93-4.23-.93-2.05,0-3.85.32-5.4.96-1.55.64-2.57,1.48-3.06,2.53-.4.85-.34,1.75.18,2.7.51.95,1.45,2.02,2.81,3.23l13,10.36c.08-.05.16-.1.24-.16,1.61-1.1,3.26-2.35,4.97-3.75l2.94-2.27h14.97l-4.86,3.84c-2.52,2.02-5.04,3.86-7.54,5.55-1.24.83-2.48,1.62-3.71,2.37l11.8,9.4Z"/>
    <path class="st1" d="M173.56,203.88l-12.21,67.72h9.33l2.88-17.94h8.5l2.88,17.94h10.01l-12.34-67.72h-9.05ZM174.66,246.97l1.51-9.34c.82-4.78,1.23-11.04,1.51-16.77h.27c.41,5.73.96,11.99,1.65,16.77l1.51,9.34h-6.45Z"/>
    <path class="st1" d="M248.58,260.67c0,3.08-2.33,4.56-5.9,4.56s-6.03-1.49-6.03-4.56v-56.78h-10.01v57.32c0,6.69,6.31,11.04,15.91,11.04s16.05-4.35,16.05-11.04v-57.32h-10.01v56.78Z"/>
    <polygon class="st1" points="290.41 210.89 301.39 210.89 301.39 271.6 311.4 271.6 311.4 210.89 322.37 210.89 322.37 203.88 290.41 203.88 290.41 210.89"/>
    <path class="st1" d="M367.91,203.56c-13.3,0-16.05,13.9-16.05,34.18s2.74,34.18,16.05,34.18,16.18-13.9,16.18-34.18-3.02-34.18-16.18-34.18ZM367.91,264.91c-3.57,0-6.03-10.08-6.03-27.17s2.47-27.17,6.03-27.17,6.17,10.08,6.17,27.17-2.61,27.17-6.17,27.17Z"/>
    <path class="st1" d="M432.23,210.57c2.06,0,3.98.53,4.94,1.17l1.78-6.69c-1.78-.85-4.39-1.49-7.95-1.49-8.23,0-14.4,4.46-14.4,12.31,0,14.22,14.68,31.1,14.68,42.77,0,3.82-2.33,6.05-6.31,6.05-3.29,0-6.31-1.27-8.91-2.97l.55,7.75c2.61,1.49,6.17,2.44,10.29,2.44,8.37,0,14.54-4.46,14.54-12.95,0-14.12-14.81-32.37-14.81-42.77,0-3.93,2.61-5.63,5.62-5.63Z"/>
    <path class="st1" d="M488.33,203.88h-13.99v67.72h10.01v-30.57h4.11c11.38,0,15.77-8.28,15.77-18.68s-4.53-18.47-15.91-18.47ZM487.23,234.02h-2.88v-23.14h2.88c5.21,0,6.99,4.67,6.99,11.68s-1.78,11.46-6.99,11.46Z"/>
    <path class="st1" d="M543.32,203.88l-12.21,67.72h9.33l2.88-17.94h8.5l2.88,17.94h10.01l-12.34-67.72h-9.05ZM544.42,246.97l1.51-9.34c.82-4.78,1.23-11.04,1.51-16.77h.27c.41,5.73.96,11.99,1.65,16.77l1.51,9.34h-6.45Z"/>
    <path class="st1" d="M626.71,222.56c0-10.61-4.66-18.68-16.05-18.68h-13.99v67.72h10.01v-30.57h2.19l10.42,30.57h10.56l-11.25-31.74c5.49-2.65,8.09-9.45,8.09-17.3ZM609.16,234.02h-2.47v-23.14h2.47c5.21,0,7.41,4.67,7.41,11.68s-2.19,11.46-7.41,11.46Z"/>
    <polygon class="st1" points="672.11 241.03 686.1 241.03 686.1 234.02 672.11 234.02 672.11 210.89 687.47 210.89 687.47 203.88 662.1 203.88 662.1 271.6 688.57 271.6 688.57 264.59 672.11 264.59 672.11 241.03"/>
    <path class="st1" d="M734.65,210.57c2.06,0,3.98.53,4.94,1.17l1.78-6.69c-1.78-.85-4.39-1.49-7.95-1.49-8.23,0-14.4,4.46-14.4,12.31,0,14.22,14.68,31.1,14.68,42.77,0,3.82-2.33,6.05-6.31,6.05-3.29,0-6.31-1.27-8.91-2.97l.55,7.75c2.61,1.49,6.17,2.44,10.29,2.44,8.37,0,14.54-4.46,14.54-12.95,0-14.12-14.81-32.37-14.81-42.77,0-3.93,2.61-5.63,5.62-5.63Z"/>
  </g>
</svg>