<svg width="141" height="100" viewBox="0 0 141 100" fill="none" xmlns="http://www.w3.org/2000/svg">
<path d="M124.314 84.7855H120.832V93.574H124.314V88.0501H136.99V93.574H140.475V84.8257H124.314V84.7855ZM66.36 82.4966H78.7821C80.6693 82.0195 82.0399 80.7678 82.4281 79.3607H62.8782V88.0715H79.0359V90.3417H66.5242C64.6788 90.9715 63.3231 92.049 62.9409 93.4374L62.8782 93.574H82.5177V84.9249H66.36V82.4939V82.4966ZM97.0688 90.2452V79.358H93.5751V93.574H109.536V93.44C111.277 92.7914 112.531 91.6603 112.895 90.3309L97.0688 90.2425V90.2452ZM123.863 82.4966H137.345C139.229 81.8694 140.618 80.7035 141 79.2883H120.211C120.587 80.7035 121.985 81.8694 123.863 82.4966ZM35.3346 82.4966H48.8138C50.698 81.8694 52.0746 80.7035 52.4687 79.2883H31.6797C32.0589 80.7035 33.4504 81.8694 35.3346 82.4966ZM35.3346 93.5472H48.8138C50.698 92.9254 52.0746 91.7434 52.4687 90.3336H31.6797C32.0589 91.7408 33.4504 92.9254 35.3346 93.5472ZM0.292969 79.3929C0.699076 80.7893 2.07267 81.9605 3.93897 82.5824H9.61252L9.90217 82.6949V93.5714H13.4407V82.6949L13.7572 82.5824H19.4278C21.2881 81.9605 22.6677 80.7893 23.0648 79.3929V79.358H0.292969V79.3929ZM35.3346 88.0688H48.8138C50.698 87.455 52.0746 86.265 52.4687 84.8686H31.6797C32.0589 86.265 33.4504 87.455 35.3346 88.0688Z" fill="#797E88"/>
<path d="M70.8832 58.7572L77.3768 21.0437C83.5671 21.0437 85.52 21.746 85.8034 24.6052C85.8034 24.6052 89.9586 23.0073 92.0533 19.7589C83.8789 15.8492 75.6676 15.6736 75.6676 15.6736L70.8747 21.6992H70.886L66.093 15.6736C66.093 15.6736 57.879 15.8492 49.7074 19.7589C51.802 23.0044 55.9572 24.6052 55.9572 24.6052C56.2407 21.7431 58.1907 21.0437 64.3414 21.0378L70.8888 58.7572H70.8832Z" fill="#797E88"/>
<path d="M70.8803 13.9324C77.4873 13.8797 85.0523 14.9888 92.793 18.4713C93.8276 16.5486 94.0912 15.7 94.0912 15.7C85.6277 12.2409 77.7027 11.0586 70.8775 11.0293C64.0551 11.0586 56.1301 12.2409 47.6666 15.7C47.6666 15.7 48.0436 16.7476 48.9676 18.4713C56.7083 14.9888 64.2733 13.8797 70.8803 13.9324Z" fill="#797E88"/>
</svg>
