<svg width="120" height="100" viewBox="0 0 120 100" fill="none" xmlns="http://www.w3.org/2000/svg">
<path fill-rule="evenodd" clip-rule="evenodd" d="M29.1042 19.8691C29.1042 19.8691 28.6486 25.3541 29.0802 31.5247C29.9914 44.5166 32.2932 50.9429 35.0986 52.8719C40.9132 56.8578 51.7631 56.3465 60.2872 56.3465V57.834C47.3032 57.404 37.5683 57.8572 33.1804 52.7673C30.5309 49.6878 28.9723 39.45 28.6726 31.3271C28.4328 24.6336 28.9603 19.8342 28.9603 19.8342C28.9603 19.8342 28.9843 19.8342 29.0443 19.8575C29.0682 19.8575 29.0922 19.8575 29.1162 19.8691H29.1042Z" fill="#797E88"/>
<path fill-rule="evenodd" clip-rule="evenodd" d="M35.4463 14.2678C35.2425 14.4538 35.0626 14.6513 34.8828 14.8837C32.4251 18.0678 32.7128 22.8439 32.6649 26.609C32.6049 31.4084 32.8327 36.2891 33.5161 41.0536C33.8877 43.6334 34.1635 46.8872 35.4463 49.3391L34.1994 49.804C34.1994 49.804 31.0583 43.8774 31.0583 26.7485C31.0583 14.477 35.4343 14.2678 35.4343 14.2678H35.4463Z" fill="#797E88"/>
<path fill-rule="evenodd" clip-rule="evenodd" d="M35.3743 49.1881C35.2664 48.9557 34.7628 47.4334 34.4991 46.3759C34.4391 46.1202 33.9596 43.6218 33.8757 43.157C33.5759 41.8206 33.2163 39.5662 32.9645 36.9864C32.461 31.8616 32.1493 26.0629 32.1493 24.2268C32.0773 24.4825 32.0414 27.3063 32.0174 27.6898C31.9934 27.9222 31.9934 29.4445 31.9934 29.735C31.9934 37.0909 33.6239 48.4328 35.3862 49.1881H35.3743Z" fill="#797E88"/>
<path fill-rule="evenodd" clip-rule="evenodd" d="M33.588 14.454C31.3341 17.5452 31.0583 21.4613 31.0583 27.7133C31.0583 31.0833 31.5259 41.9951 33.3722 47.7242C33.4441 47.9566 34.0556 49.0373 34.2714 48.8281C34.4872 48.6306 34.3553 48.2122 34.2114 47.8868C34.0675 47.5498 32.0654 38.9157 32.0654 27.7365C32.0654 26.7371 31.9815 20.2528 32.7248 18.4167C33.588 16.3017 34.2474 15.6394 35.2185 14.4889C36.5253 12.9201 40.3257 12.0718 40.3257 12.0718C40.3257 12.0718 40.5056 12.0369 40.5655 12.0602C40.7333 12.1067 40.7933 12.1996 40.7933 12.1996C40.7933 12.1996 41.1649 11.6418 42.3638 11.2119C43.7665 10.7122 45.0373 10.6076 45.0373 10.6076L46.488 11.4327C46.488 11.4327 46.512 11.4094 46.5599 11.3862C46.9076 11.2351 52.6382 10.6425 60.2751 10.7354V9.75928C45.8166 9.75928 36.7171 10.1544 33.576 14.454H33.588Z" fill="#797E88"/>
<path fill-rule="evenodd" clip-rule="evenodd" d="M32.0653 25.4121C32.0653 25.4121 31.9574 22.4256 32.1852 20.1944C32.2572 19.4275 32.377 18.7535 32.5449 18.3235C32.9885 17.1963 33.492 16.3596 33.9476 15.7553C34.1874 15.4416 34.4151 15.1859 34.607 14.9884C35.0146 14.5816 35.2783 14.4189 35.2783 14.4189C35.2783 14.4189 33.5999 16.1156 32.9645 18.5559C32.9285 18.6954 32.8926 18.8464 32.8686 18.9975C32.5689 20.5663 32.1972 23.6342 32.1133 24.9473C32.0893 25.1216 32.0893 25.2959 32.0773 25.3657C32.0773 25.4005 32.0533 25.4121 32.0773 25.4121H32.0653Z" fill="#797E88"/>
<path d="M60.2871 55.8701C44.5937 55.8701 36.8849 56.0561 33.8877 49.1301C31.6698 43.9821 31.0583 31.3969 31.0583 27.7248C31.0583 11.6649 33.3242 9.77075 60.2871 9.77075" fill="#797E88"/>
<path d="M60.2871 55.8701C44.5937 55.8701 36.8849 56.0561 33.8877 49.1301C31.6698 43.9821 31.0583 31.3969 31.0583 27.7248C31.0583 11.6649 33.3242 9.77075 60.2871 9.77075" stroke="#797E88" stroke-width="0.203489" stroke-miterlimit="22.93"/>
<path fill-rule="evenodd" clip-rule="evenodd" d="M91.4701 19.8692C91.4701 19.8692 90.7268 12.8735 85.14 11.0142C77.635 8.51575 68.7992 8.79465 60.2751 8.79465V7.9231C63.0086 7.9231 79.2175 7.95796 85.6675 10.5842C91.4221 12.92 91.602 19.8343 91.602 19.8343C91.602 19.8343 91.602 19.8343 91.4581 19.8692H91.4701Z" fill="#797E88"/>
<path fill-rule="evenodd" clip-rule="evenodd" d="M91.4701 19.8691C91.4701 19.8691 91.9256 25.3541 91.494 31.5247C90.5829 44.5166 88.281 50.9429 85.4757 52.8719C79.6611 56.8578 68.8112 56.3465 60.2871 56.3465V57.834C73.271 57.404 83.006 57.8572 87.3939 52.7673C90.0434 49.6878 91.6019 39.45 91.9017 31.3271C92.1534 24.6336 91.6139 19.8342 91.6139 19.8342C91.6139 19.8342 91.59 19.8342 91.542 19.8575C91.518 19.8575 91.4941 19.8575 91.4701 19.8691Z" fill="#797E88"/>
<path fill-rule="evenodd" clip-rule="evenodd" d="M89.5039 26.7485C89.5039 43.8774 86.3628 49.804 86.3628 49.804L85.116 49.3391C86.4108 46.8872 86.6865 43.6334 87.0462 41.0536C87.7295 36.2891 87.9573 31.4084 87.8974 26.609C87.8494 22.8439 88.1372 18.0678 85.6794 14.8837C85.5116 14.6629 85.3198 14.4538 85.116 14.2678C85.116 14.2678 89.5039 14.477 89.5039 26.7485Z" fill="#797E88"/>
<path fill-rule="evenodd" clip-rule="evenodd" d="M86.9863 14.454C89.2402 17.5452 89.5159 21.4613 89.5159 27.7133C89.5159 31.0833 89.0364 41.9951 87.2021 47.7242C87.1301 47.9566 86.5187 49.0373 86.3029 48.8281C86.0991 48.6306 86.219 48.2122 86.3629 47.8868C86.5067 47.5498 88.5089 38.9157 88.5089 27.7365C88.5089 26.7371 88.5928 20.2528 87.8495 18.4167C86.9863 16.3017 86.3269 15.6394 85.3558 14.4889C84.049 12.9201 80.2485 12.0718 80.2485 12.0718C80.2485 12.0718 80.0687 12.0369 79.9968 12.0602C79.8289 12.1067 79.769 12.1996 79.769 12.1996C79.769 12.1996 79.3973 11.6418 78.1985 11.2119C76.7958 10.7122 75.513 10.6076 75.513 10.6076L74.0623 11.4327C74.0623 11.4327 74.0383 11.4094 73.9904 11.3862C73.6427 11.2351 67.912 10.6425 60.2751 10.7354V9.75928C74.7337 9.75928 83.8332 10.1544 86.9743 14.454H86.9863Z" fill="#797E88"/>
<path fill-rule="evenodd" clip-rule="evenodd" d="M88.5087 25.4121C88.5087 25.4121 88.6165 22.4256 88.3888 20.1944C88.3168 19.4275 88.1969 18.7535 88.0291 18.3235C87.5855 17.1963 87.082 16.3596 86.6264 15.7553C86.3866 15.4416 86.1588 15.1859 85.967 14.9884C85.5594 14.5816 85.2957 14.4189 85.2957 14.4189C85.2957 14.4189 86.9741 16.1156 87.6095 18.5559C87.6455 18.6954 87.6814 18.8464 87.7054 18.9975C88.0171 20.5663 88.3768 23.6342 88.4607 24.9473C88.4847 25.1216 88.4847 25.2959 88.4967 25.3657C88.4967 25.4005 88.5206 25.4121 88.4967 25.4121H88.5087Z" fill="#797E88"/>
<path d="M60.2871 55.8701C75.9805 55.8701 83.6893 56.0561 86.6865 49.1301C88.9044 43.9821 89.5159 31.3969 89.5159 27.7248C89.5159 11.6649 87.25 9.77075 60.2871 9.77075" fill="#797E88"/>
<path d="M60.2871 55.8701C75.9805 55.8701 83.6893 56.0561 86.6865 49.1301C88.9044 43.9821 89.5159 31.3969 89.5159 27.7248C89.5159 11.6649 87.25 9.77075 60.2871 9.77075" stroke="#797E88" stroke-width="0.203489" stroke-miterlimit="22.93"/>
<path d="M60.2871 9.75928C33.3362 9.75928 31.0583 11.6418 31.0583 27.7133C31.0583 31.3854 31.6698 43.9707 33.8877 49.1186C36.8849 56.0562 44.5818 55.8587 60.2871 55.8587C75.9925 55.8587 83.6893 56.0446 86.6865 49.1186C88.9045 43.9707 89.5159 31.3854 89.5159 27.7133C89.5159 11.6535 87.25 9.75928 60.2871 9.75928Z" fill="white"/>
<path d="M60.2871 9.75928C33.3362 9.75928 31.0583 11.6418 31.0583 27.7133C31.0583 31.3854 31.6698 43.9707 33.8877 49.1186C36.8849 56.0562 44.5818 55.8587 60.2871 55.8587C75.9925 55.8587 83.6893 56.0446 86.6865 49.1186C88.9045 43.9707 89.5159 31.3854 89.5159 27.7133C89.5159 11.6535 87.25 9.75928 60.2871 9.75928Z" stroke="#797E88" stroke-width="0.101744" stroke-miterlimit="22.93"/>
<path fill-rule="evenodd" clip-rule="evenodd" d="M87.1302 15.2091C87.0942 15.1394 85.2479 13.129 83.2698 12.4899C82.6104 12.2807 80.4404 11.7229 79.793 11.8624C79.6132 11.8972 79.6371 11.9786 79.6371 12.0367C79.0976 11.6532 78.8219 11.4673 78.654 11.3975C78.0306 11.1535 77.9107 11.0489 75.8367 10.6538C75.9326 10.6538 76.2203 10.6771 76.3522 10.6887C77.5751 10.7468 80.4044 11.107 83.4136 12.1877C85.7155 13.0128 87.1661 15.1045 87.2021 15.1743C87.2021 15.1743 87.1781 15.1859 87.1781 15.1975C87.1661 15.1975 87.1541 15.2091 87.1421 15.2208L87.1302 15.2091Z" fill="#797E88"/>
<path fill-rule="evenodd" clip-rule="evenodd" d="M87.0581 41.0421C86.5905 44.3308 86.2668 48.6305 83.8331 51.1754C82.9819 52.0702 76.3401 55.8237 76.6518 52.9301C77.8746 43.9125 78.546 34.8599 79.1215 25.7841C79.2893 21.9725 79.5171 18.1609 79.5651 14.3494C79.625 13.7102 79.2054 12.1182 80.2484 12.0833C82.2146 12.6411 84.3846 13.1989 85.6913 14.8723C88.1491 18.0564 87.8613 22.8325 87.9093 26.5976C87.9692 31.3969 87.7414 36.2776 87.0581 41.0421ZM74.0382 12.002C72.6835 16.7665 71.1249 23.0765 69.7462 27.8642C68.6312 31.6875 67.3604 36.6263 62.5409 37.1143C61.8216 37.1841 61.0543 37.2422 60.287 37.2538C59.5197 37.2538 58.7524 37.1841 58.0331 37.1143C53.2136 36.6263 51.9428 31.6991 50.8278 27.8642C49.4371 23.0765 47.8786 16.7665 46.5358 12.002C46.308 11.1769 46.6557 11.3628 48.3941 11.142C51.5352 10.7353 56.2108 10.6656 60.287 10.7121C64.3752 10.6772 69.0508 10.7353 72.1799 11.142C73.9303 11.3744 74.278 11.1885 74.0382 12.002ZM68.895 54.7197C68.5114 54.7894 67.2046 54.7778 65.7539 54.8127C63.9316 54.8592 62.1093 54.8592 60.275 54.8592C58.4407 54.8592 56.6304 54.8592 54.7961 54.8127C53.3575 54.7778 52.0507 54.7778 51.6551 54.7197C51.2714 54.65 50.8638 54.6268 50.9837 54.2084C51.1036 53.7901 52.8539 48.3051 52.8539 48.3051C54.0049 44.6678 54.0888 44.4238 57.038 43.866C58.0211 43.68 59.1361 43.5638 60.275 43.5522C61.402 43.5522 62.5289 43.68 63.512 43.866C66.4613 44.4238 66.5452 44.6678 67.6961 48.3051C67.6961 48.3051 69.4465 53.7784 69.5664 54.2084C69.6863 54.6268 69.2786 54.65 68.895 54.7197ZM36.7409 51.187C34.2952 48.6421 33.9835 44.3424 33.5159 41.0538C32.8326 36.2893 32.6048 31.4086 32.6647 26.6092C32.7127 22.8441 32.425 18.068 34.8827 14.8839C36.1775 13.1989 38.3474 12.6411 40.3256 12.0949C41.3686 12.1414 40.949 13.7218 41.009 14.361C41.0689 18.1726 41.2847 21.9842 41.4526 25.7958C42.028 34.8715 42.6994 43.9241 43.9223 52.9417C44.234 55.8237 37.5921 52.0818 36.7409 51.187ZM91.9136 22.542C91.6978 18.986 91.1583 15.1047 88.4368 12.4784C85.9551 10.0845 82.3824 9.41055 79.0495 8.98058C72.7914 8.15551 66.6051 7.9231 60.287 7.9231C53.9569 7.9231 47.7827 8.14389 41.5125 8.95734C38.1796 9.38731 34.6069 10.0613 32.1252 12.4552C29.4038 15.0815 28.8643 18.9628 28.6485 22.5187C28.3967 26.6441 28.6125 30.7462 28.8763 34.8599C29.14 38.9039 29.6076 42.9944 30.6266 46.9338C31.0942 48.7583 31.7416 50.5944 32.8326 52.1748C33.8876 53.6855 35.3982 54.7546 37.1006 55.5099C40.7092 57.102 44.8694 57.2414 48.7657 57.4738C52.5902 57.7062 56.4386 57.8457 60.287 57.8573C64.1354 57.8341 67.9838 57.7062 71.8083 57.4738C75.7047 57.2414 79.8648 57.102 83.4734 55.5099C85.1758 54.7546 86.6864 53.6855 87.7414 52.1748C88.8324 50.606 89.4798 48.7699 89.9474 46.9338C90.9664 42.9944 91.434 38.9039 91.6978 34.8599C91.9615 30.7462 92.1773 26.6324 91.9255 22.5187L91.9136 22.542Z" fill="#797E88"/>
<path fill-rule="evenodd" clip-rule="evenodd" d="M49.1372 55.1844C49.1492 55.1147 49.1372 55.1844 49.1492 55.1147C49.6048 53.2321 49.8326 52.2095 50.3121 50.5245C50.8396 48.6884 51.2712 47.4915 51.9546 45.76C52.3862 44.6676 53.3573 43.2267 54.796 42.7037C56.1747 42.2157 57.3016 41.9368 60.2868 41.9368V43.215C60.2868 43.3313 60.2868 43.1802 60.2868 43.6101C57.8891 43.6101 56.4384 43.7612 55.2755 44.4817C54.6641 44.8652 53.9208 45.6322 53.4772 46.6896C52.8178 48.2701 52.4941 49.3624 52.0146 50.8499C51.511 52.4419 51.2712 53.2321 51.0195 54.1618C51.0195 54.1966 50.9835 54.3012 50.9835 54.3826C50.9835 54.429 50.9835 54.4639 51.0075 54.4871C50.432 54.7428 50.2642 54.8009 50.1803 54.8241C50.0724 54.859 49.8326 54.952 49.5808 55.0333C49.4489 55.0798 49.3291 55.1147 49.1252 55.1728L49.1372 55.1844Z" fill="#797E88"/>
<path fill-rule="evenodd" clip-rule="evenodd" d="M44.9173 10.7353C45.6726 14.3725 47.5908 22.8324 47.9744 24.5523C48.37 26.2722 50.4561 33.8721 51.631 35.7895C52.2424 36.7889 52.9258 37.4978 53.7291 38.0091C55.2756 38.9736 57.3017 39.1595 60.287 39.1595V37.1259C57.8892 37.1259 56.4385 37.0446 55.2756 36.3125C54.6642 35.929 54.1367 35.3712 53.5852 34.5577C51.8708 32.0012 50.5041 26.7486 49.7608 24.1572C49.2812 22.4606 46.9913 13.6985 46.4518 11.63C46.0442 11.3976 45.8524 11.3163 45.6845 11.1768C45.5287 11.0606 45.3848 10.9909 44.9053 10.7236L44.9173 10.7353Z" fill="#797E88"/>
<path fill-rule="evenodd" clip-rule="evenodd" d="M60.2868 39.2525C53.1055 39.2525 51.2352 37.9858 48.3939 26.2257C45.5645 14.4655 44.9411 10.7236 44.9411 10.7236C44.9411 10.7236 43.6943 10.8863 42.4474 11.3279C41.2006 11.7695 40.8769 12.3157 40.8769 12.3157C40.8769 12.3157 40.6131 20.6245 42.1477 35.7779C43.6703 50.9313 43.982 53.5111 43.982 53.5111C43.982 53.5111 46.4277 54.9056 47.6026 55.0683C48.6456 55.2077 49.1372 55.1845 49.1372 55.1845C49.1372 55.1845 49.8445 51.8493 50.8995 48.7234C52.4581 44.1216 52.8178 41.9369 60.2868 41.9369V39.2409V39.2525Z" fill="#797E88"/>
<path fill-rule="evenodd" clip-rule="evenodd" d="M60.287 41.9369C55.7672 41.9369 53.7051 42.8433 52.6021 44.5283C51.9068 45.5974 51.4752 47.0267 50.8638 48.8163C50.2763 50.5594 50.2403 51.001 49.9526 51.861C49.6769 52.7209 49.1254 55.1845 49.1254 55.1845C49.1254 55.1845 47.4589 55.1729 46.6437 54.9172C45.205 54.464 44.6775 54.2548 43.8263 53.8016C43.8263 53.8016 43.9822 53.6506 43.9582 53.4646C43.8263 52.0934 42.6754 41.1931 42.5555 39.9962C42.3277 37.7418 42.4716 39.2176 42.1359 35.7779C41.6444 30.9437 41.3446 26.8067 41.1528 23.4134C40.7452 16.1737 40.8651 12.3157 40.8651 12.3157C40.8651 12.3157 41.1528 11.8392 42.2078 11.4092C42.3996 11.3395 43.9342 10.6888 43.9702 11.0141C43.9942 11.2814 44.0901 12.0368 44.3418 13.4894C44.7255 15.7205 45.4928 19.5902 46.9914 25.8189C47.0273 25.9468 47.0513 26.0862 47.0873 26.214C48.502 32.1638 48.5739 35.4293 50.1924 37.614C50.8518 38.4971 51.4752 39.1363 52.1825 39.6243C53.861 40.7516 56.019 41.4837 60.275 41.9369H60.287Z" fill="#797E88"/>
<path fill-rule="evenodd" clip-rule="evenodd" d="M29.104 19.8692C29.104 19.8692 29.8474 12.8735 35.4341 11.0142C42.9392 8.51575 51.7749 8.79465 60.299 8.79465V7.9231C57.5655 7.9231 41.3566 7.95796 34.9066 10.5842C29.152 12.92 28.9722 19.8343 28.9722 19.8343C28.9722 19.8343 28.9722 19.8343 29.116 19.8692H29.104Z" fill="#797E88"/>
<path d="M49.2693 54.5454V55.6145H60.287V54.5454H49.2693Z" fill="#797E88"/>
<path fill-rule="evenodd" clip-rule="evenodd" d="M49.2693 55.2078C49.581 55.1032 50.0126 54.987 50.2883 54.8824C50.5401 54.7894 50.8039 54.6616 51.0796 54.5454C51.2115 54.6384 51.3793 54.65 51.5352 54.6616C51.9548 54.7081 52.9738 54.7662 55.2397 54.8127C58.2969 54.8708 60.287 54.8708 60.287 54.8708V55.5797C60.287 55.5797 57.8533 55.6145 54.5324 55.4983C52.1826 55.417 51.9188 55.4053 51.2834 55.3705C51.0197 55.3705 49.2813 55.2078 49.2813 55.2078H49.2693Z" fill="#797E88"/>
<path fill-rule="evenodd" clip-rule="evenodd" d="M34.1992 49.7926C34.403 50.3271 35.47 51.9192 36.609 52.814C39.0787 54.7546 44.4617 55.7075 46.7156 55.5216C46.9913 55.4983 48.2501 55.5448 48.4539 55.4867C47.6267 55.3937 46.3559 55.0567 45.0012 54.4641C44.6415 54.3014 44.114 54.0574 43.7783 53.8714C43.7064 53.9412 43.5865 53.9876 43.4186 54.0109C42.7952 54.0922 38.8149 53.4182 37.2444 51.6984C36.7888 51.1987 35.9616 50.4201 35.4461 49.3394C35.2422 49.4207 35.0264 49.4904 34.8226 49.5718C34.6188 49.6531 34.403 49.7228 34.1992 49.8042V49.7926Z" fill="#797E88"/>
<path fill-rule="evenodd" clip-rule="evenodd" d="M46.476 11.5487C46.476 11.5487 46.4759 11.4208 46.5958 11.386C46.7397 11.3395 47.0035 11.293 47.5669 11.2117C48.3222 11.1187 49.617 11.0025 51.823 10.9328C56.7144 10.7817 60.1073 10.7468 60.2871 10.7468V10.2007C60.2871 10.2007 55.1559 10.1077 51.4753 10.2588C48.0825 10.3982 45.9484 10.4912 45.1092 10.619C44.9654 10.6422 44.9534 10.6771 44.9534 10.6771C45.325 10.8863 45.337 10.8863 45.4449 10.9444C45.5648 11.0141 46.0204 11.2814 46.4879 11.5487H46.476Z" fill="#797E88"/>
<path fill-rule="evenodd" clip-rule="evenodd" d="M33.444 15.2091C33.48 15.1394 35.3263 13.129 37.3044 12.4899C37.9638 12.2807 40.1338 11.7229 40.7812 11.8624C40.961 11.8972 40.9371 11.9786 40.9371 12.0367C41.4765 11.6532 41.7523 11.4673 41.9201 11.3975C42.5436 11.1535 42.6634 11.0489 44.7375 10.6538C44.6416 10.6538 44.3539 10.6771 44.222 10.6887C42.9871 10.7468 40.1698 11.107 37.1606 12.1877C34.8587 13.0128 33.4081 15.1045 33.3601 15.1743C33.3601 15.1743 33.3841 15.1859 33.3961 15.1975C33.4081 15.1975 33.4201 15.2091 33.432 15.2208L33.444 15.2091Z" fill="#797E88"/>
<path fill-rule="evenodd" clip-rule="evenodd" d="M71.4367 55.1844C71.4247 55.1147 71.4367 55.1844 71.4247 55.1147C70.9692 53.2321 70.7414 52.2095 70.2618 50.5245C69.7343 48.6884 69.3027 47.4915 68.6193 45.76C68.1877 44.6676 67.2286 43.2267 65.778 42.7037C64.3993 42.2157 63.2843 41.9368 60.2871 41.9368V43.215C60.2871 43.3313 60.2871 43.1802 60.2871 43.6101C62.6849 43.6101 64.1355 43.7612 65.2984 44.4817C65.9099 44.8652 66.6532 45.6322 67.0968 46.6896C67.7562 48.2701 68.0799 49.3624 68.5594 50.8499C69.0629 52.4419 69.3027 53.2321 69.5545 54.1618C69.5545 54.1966 69.5904 54.3012 69.5904 54.3826C69.5904 54.429 69.5904 54.4639 69.5665 54.4871C70.1419 54.7428 70.3098 54.8009 70.3937 54.8241C70.5016 54.859 70.7414 54.952 70.9931 55.0333C71.125 55.0798 71.2449 55.1147 71.4487 55.1728L71.4367 55.1844Z" fill="#797E88"/>
<path fill-rule="evenodd" clip-rule="evenodd" d="M75.6568 10.7353C74.9015 14.3725 72.9953 22.8324 72.5996 24.5523C72.204 26.2722 70.1179 33.8721 68.943 35.7895C68.3316 36.7889 67.6482 37.4978 66.845 38.0091C65.2984 38.9736 63.2723 39.1595 60.2871 39.1595V37.1259C62.6849 37.1259 64.1355 37.0446 65.2984 36.3125C65.9099 35.929 66.4374 35.3712 66.9889 34.5577C68.7033 32.0012 70.07 26.7486 70.8133 24.1572C71.2929 22.4606 73.5827 13.6985 74.1222 11.63C74.5298 11.3976 74.7217 11.3163 74.9015 11.1768C75.0574 11.0606 75.2012 10.9909 75.6688 10.7236L75.6568 10.7353Z" fill="#797E88"/>
<path fill-rule="evenodd" clip-rule="evenodd" d="M60.2871 39.2525C67.4684 39.2525 69.3387 37.9858 72.18 26.2257C75.0214 14.4655 75.6448 10.7236 75.6448 10.7236C75.6448 10.7236 76.8916 10.8863 78.1385 11.3279C79.3853 11.7695 79.709 12.3157 79.709 12.3157C79.709 12.3157 79.9728 20.6245 78.4382 35.7779C76.9156 50.9313 76.6039 53.5111 76.6039 53.5111C76.6039 53.5111 74.1582 54.9056 72.9833 55.0683C71.9403 55.2077 71.4487 55.1845 71.4487 55.1845C71.4487 55.1845 70.7414 51.8493 69.6864 48.7234C68.1278 44.1216 67.7681 41.9369 60.2991 41.9369V39.2409L60.2871 39.2525Z" fill="#797E88"/>
<path fill-rule="evenodd" clip-rule="evenodd" d="M60.2871 41.9369C64.8069 41.9369 66.869 42.8433 67.972 44.5283C68.6673 45.5974 69.0989 47.0267 69.7103 48.8163C70.2978 50.5594 70.3338 51.001 70.6215 51.861C70.8972 52.7209 71.4487 55.1845 71.4487 55.1845C71.4487 55.1845 73.1152 55.1729 73.9184 54.9172C75.3571 54.464 75.8846 54.2548 76.7358 53.8016C76.7358 53.8016 76.5919 53.6506 76.6039 53.4646C76.7358 52.0934 77.8867 41.1931 78.0066 39.9962C78.2344 37.7418 78.0905 39.2176 78.4262 35.7779C78.9178 30.9437 79.2175 26.8067 79.4093 23.4134C79.8169 16.1737 79.697 12.3157 79.697 12.3157C79.697 12.3157 79.4213 11.8392 78.3543 11.4092C78.1625 11.3395 76.6279 10.6888 76.5919 11.0141C76.5679 11.2814 76.472 12.0368 76.2203 13.4894C75.8366 15.7205 75.0693 19.5902 73.5707 25.8189C73.5348 25.9468 73.5108 26.0862 73.4748 26.214C72.0601 32.1638 71.9882 35.4293 70.3697 37.614C69.7103 38.4971 69.0869 39.1363 68.3796 39.6243C66.7011 40.7516 64.5431 41.4837 60.2871 41.9369Z" fill="#797E88"/>
<path d="M60.2869 54.5454V55.6145H71.2926V54.5454H60.2869Z" fill="#797E88"/>
<path fill-rule="evenodd" clip-rule="evenodd" d="M71.2929 55.2078C70.9932 55.1032 70.5496 54.987 70.2739 54.8824C70.0221 54.7894 69.7583 54.6616 69.4826 54.5454C69.3507 54.6384 69.1829 54.65 69.027 54.6616C68.6074 54.7081 67.5884 54.7662 65.3105 54.8127C62.2533 54.8708 60.2632 54.8708 60.2632 54.8708V55.5797C60.2632 55.5797 62.6969 55.6145 66.0178 55.4983C68.3676 55.417 68.6314 55.4053 69.2668 55.3705C69.5305 55.3705 71.2689 55.2078 71.2689 55.2078H71.2929Z" fill="#797E88"/>
<path fill-rule="evenodd" clip-rule="evenodd" d="M86.3626 49.7926C86.1588 50.3271 85.0918 51.9192 83.9529 52.814C81.4832 54.7546 76.1002 55.7075 73.8463 55.5216C73.5705 55.4983 72.3117 55.5448 72.1079 55.4867C72.9471 55.3937 74.206 55.0567 75.5607 54.4641C75.9204 54.3014 76.4359 54.0574 76.7836 53.8714C76.8555 53.9412 76.9754 53.9876 77.1432 54.0109C77.7666 54.0922 81.7469 53.4182 83.3175 51.6984C83.773 51.1987 84.6003 50.4201 85.1158 49.3394C85.3196 49.4207 85.5354 49.4904 85.7392 49.5718C85.943 49.6531 86.1588 49.7228 86.3626 49.8042V49.7926Z" fill="#797E88"/>
<path fill-rule="evenodd" clip-rule="evenodd" d="M85.1878 49.1881C85.2957 48.9557 85.8112 47.4334 86.063 46.3759C86.1229 46.1202 86.6024 43.6218 86.6864 43.157C86.9861 41.8206 87.3458 39.5662 87.5975 36.9864C88.1011 31.8616 88.4128 26.0629 88.4128 24.2268C88.4727 24.4825 88.5207 27.3063 88.5446 27.6898C88.5566 27.9222 88.5686 29.4445 88.5686 29.735C88.5686 37.0909 86.9381 48.4328 85.1758 49.1881H85.1878Z" fill="#797E88"/>
<path fill-rule="evenodd" clip-rule="evenodd" d="M74.0982 11.5487C74.0982 11.5487 74.0982 11.4208 73.9784 11.386C73.8345 11.3395 73.5707 11.293 73.0073 11.2117C72.252 11.1187 70.9572 11.0025 68.7512 10.9328C63.8598 10.7817 60.4669 10.7468 60.2871 10.7468V10.2007C60.2871 10.2007 65.4183 10.1077 69.0989 10.2588C72.4917 10.3982 74.6258 10.4912 75.465 10.619C75.6088 10.6422 75.6208 10.6771 75.6208 10.6771C75.2492 10.8863 75.2372 10.8863 75.1293 10.9444C75.0094 11.0141 74.5538 11.2814 74.0863 11.5487H74.0982Z" fill="#797E88"/>
<path fill-rule="evenodd" clip-rule="evenodd" d="M24.2976 90.9671C24.2717 90.6408 24.2458 90.4526 24.2458 90.1389V83.814C24.2458 83.4375 24.1164 82.8351 24.8932 82.7222L26.7964 82.5339V81.0657H16.6589V82.5339C17.0862 82.5339 18.2773 82.672 18.6139 82.7975C18.8081 82.8728 19.2095 83.0108 19.2095 83.8265V86.0854H11.1565V83.7261C11.1565 83.425 11.2212 82.9481 11.7909 82.7598C12.1405 82.6343 13.241 82.5967 13.7588 82.5465V81.0782H3.49194V82.5465C4.22992 82.6218 4.83842 82.6218 5.53755 82.7724C6.13311 82.9104 6.09427 83.5254 6.09427 83.8642V90.4024C6.08132 91.0424 6.08132 90.9044 6.08132 90.9044C6.08132 91.4817 5.48577 91.6573 5.05852 91.6699L3.50489 91.7828V93.2511H13.7588V91.7828C13.4352 91.7828 12.4253 91.6448 11.9851 91.5946C11.1695 91.4817 11.1565 91.0048 11.1565 90.5655V88.4071H19.2095V90.2644C19.2095 90.6659 19.3907 91.4189 18.5104 91.5569C17.7594 91.6699 16.9308 91.7828 16.6589 91.7828V93.2511H26.8611V91.7828C26.2526 91.7201 26.0325 91.7201 24.8802 91.5569C24.5307 91.5067 24.3494 91.2432 24.3235 91.0048L24.2976 90.9671Z" fill="#797E88"/>
<path fill-rule="evenodd" clip-rule="evenodd" d="M45.3106 82.2579C43.2779 80.9653 40.572 80.7144 37.7237 80.7144C35.212 80.7144 32.2213 81.0908 30.4346 82.1952C28.4408 83.425 27.4438 85.5082 27.4438 87.2526C27.4438 88.8338 28.5443 90.9421 30.2533 92.0966C32.0659 93.3265 34.9013 93.6779 37.5683 93.6779C40.4037 93.6779 42.9931 93.4896 45.0775 92.2472C47.0066 91.1178 48.1848 89.1852 48.146 87.2024C48.1201 85.2447 47.149 83.4752 45.3106 82.2579ZM33.2441 88.4699C32.8427 86.9514 33.1923 85.3576 34.0856 84.3537C35.5745 82.4964 40.0023 82.6219 41.4265 84.429C42.5658 85.7341 42.5658 87.7797 41.802 89.4487C40.9086 91.0927 39.1349 91.4315 36.921 91.3562C35.0048 91.1805 33.736 90.3146 33.2441 88.4824V88.4699Z" fill="#797E88"/>
<path fill-rule="evenodd" clip-rule="evenodd" d="M63.2809 81.0155V82.534C65.5467 82.5465 65.7926 83.0736 65.7926 84.454V90.3397L58.3352 81.0029H48.9617V82.4712C50.1139 82.4712 51.5381 82.8979 51.5381 84.4038V89.8C51.4345 91.2683 51.5122 91.695 49.0264 91.7577V93.226H56.8593V91.7577C54.4123 91.7201 54.4382 91.0173 54.4382 89.5993V84.1403L61.7144 93.3515H68.7187V85.1191C68.7187 84.6297 68.7057 84.0524 68.8352 83.5756C69.1071 82.6218 69.9357 82.5967 71.2692 82.4838V81.0155H63.268H63.2809Z" fill="#797E88"/>
<path fill-rule="evenodd" clip-rule="evenodd" d="M91.0389 82.5968C90.262 82.0697 89.2263 81.7309 88.1646 81.4548C86.8182 81.1034 84.9668 81.0658 83.6073 81.0532H81.1215L72.3176 81.0658V82.534L74.0396 82.6972C74.4927 82.7976 74.8034 83.1239 74.7905 83.7388V90.7539C74.7905 90.7539 74.7258 91.3688 74.2338 91.557C73.7418 91.7453 73.0297 91.7704 72.3047 91.7704V93.2387H81.5747C82.8694 93.2261 85.6918 93.3014 87.4655 93.0128C89.4205 92.699 91.4014 91.7578 92.2429 90.5531C93.3046 89.0221 93.4211 88.0809 93.4211 87.0142C93.4211 85.4079 92.7738 83.8141 91.0389 82.5968ZM87.4914 86.964C87.582 88.7585 87.2713 91.2182 83.1801 91.0174H79.5032V83.4H83.3484C84.7337 83.4 85.4976 83.5631 86.3262 84.178C87.2584 84.8808 87.4396 85.9098 87.4914 86.9514V86.964Z" fill="#797E88"/>
<path fill-rule="evenodd" clip-rule="evenodd" d="M96.9169 81.0279V82.5966C96.9169 82.5966 100.659 82.3331 99.0272 84.7049L96.0365 89.4611C95.0914 90.9168 94.8065 91.7576 92.4373 91.7702V93.2385H100.542V91.7702C99.4415 91.6949 97.8232 91.5067 98.7295 90.1513C98.7295 90.1513 99.1567 89.549 99.1438 89.5239H107.093L107.559 90.1513C108.867 91.9961 105.669 91.7702 105.669 91.7702V93.2385H116.493V91.7702C114.706 91.7325 114.343 91.469 113.696 90.5027L106.925 81.0154H96.9039L96.9169 81.0279ZM100.283 87.4783L103.015 83.3496L105.824 87.4783H100.283Z" fill="#797E88"/>
</svg>
