<svg width="112" height="100" viewBox="0 0 112 100" fill="none" xmlns="http://www.w3.org/2000/svg">
<path fill-rule="evenodd" clip-rule="evenodd" d="M85.5544 93.4672C85.5544 93.4672 85.5544 93.5259 85.5544 82.0508H80.842C80.842 93.5259 80.842 93.4672 80.842 93.4672H85.5544Z" fill="#797E88"/>
<path fill-rule="evenodd" clip-rule="evenodd" d="M60.6076 88.7305V82.2271H56.042V87.1988C56.042 88.6424 55.9833 89.0485 55.8952 89.4253C55.5771 90.4676 54.481 90.9276 53.3506 90.9276C51.7896 90.9276 51.0653 90.3208 50.7766 89.3666C50.6885 89.0485 50.6592 88.7011 50.6298 88.3537C50.6004 87.9769 50.6298 87.5756 50.6298 87.1401V82.2271H46.0055V88.7598C46.0055 90.2327 46.4948 91.3338 47.3072 92.0825C48.6969 93.4429 51.036 93.8441 53.2038 93.8441C55.8364 93.8441 57.8574 93.4673 59.301 92.0531C60.0546 91.3289 60.6027 90.3747 60.6027 88.7305H60.6076Z" fill="#797E88"/>
<path fill-rule="evenodd" clip-rule="evenodd" d="M38.1761 87.9181C38.0293 87.8888 37.7699 87.8594 37.4812 87.8594H32.2794C32.0201 87.8594 31.7314 87.8888 31.5846 87.9181C31.6727 87.83 31.8439 87.6588 32.0201 87.4288L34.3592 83.5532C34.6772 83.0345 34.824 82.687 34.8779 82.5402C34.9366 82.687 35.0785 83.0296 35.3966 83.5825L37.7944 87.4826C37.9118 87.6539 38.0831 87.83 38.1712 87.9181H38.1761ZM46.906 93.4673L36.5025 77.8572H30.6646L32.1963 79.6775C32.2256 79.7069 32.2843 79.7363 32.3431 79.7656C32.2843 79.795 32.2256 79.8243 32.1963 79.8537L23.1189 93.4673H28.3794L29.7936 91.1282C29.8523 91.0108 29.8817 90.8982 29.8817 90.8395C29.9404 90.8395 30.0823 90.8982 30.2291 90.8982H39.6245C39.7713 90.8982 39.8839 90.8689 39.9426 90.8395C39.9426 90.8982 39.9426 90.9863 40.0013 91.0695L41.4742 93.4673H46.906Z" fill="#797E88"/>
<path fill-rule="evenodd" clip-rule="evenodd" d="M79.5698 87.6C79.5698 86.3278 79.0511 84.8548 77.4313 82.7996L73.5313 77.8572H68.0995L71.1922 81.3266C71.7109 81.9041 72.3764 82.4228 72.3764 82.4228C71.6228 81.9873 70.6735 81.816 69.9199 81.816C68.1289 81.816 66.3085 82.1928 64.6888 83.0883C62.9565 84.0425 61.7968 85.6329 61.7968 87.742C61.7968 89.3617 62.521 90.6046 63.4458 91.5589C65.5256 93.6386 69.3131 93.8441 70.7028 93.8441C72.7532 93.8441 75.9633 93.3792 77.7837 91.735C78.8553 90.7514 79.5747 89.3959 79.5747 87.6H79.5698ZM75.0629 87.7469C75.0629 88.9311 74.2849 89.8266 73.3013 90.3208C72.4938 90.7563 71.5396 90.8689 70.6979 90.8689C69.8563 90.8689 68.8776 90.6976 68.0653 90.2915C67.0817 89.8021 66.333 88.8479 66.333 87.8056C66.333 86.5626 67.2872 85.5791 68.4127 85.0897C69.1076 84.7716 69.9444 84.6542 70.6099 84.6542C71.2754 84.6542 72.1709 84.7423 72.8951 85.031C74.1968 85.5791 75.0629 86.6214 75.0629 87.7469Z" fill="#797E88"/>
<path fill-rule="evenodd" clip-rule="evenodd" d="M92.3974 22.8569C87.835 22.8569 83.6465 24.0656 80.326 26.0964C77.0056 24.0656 72.8171 22.8569 68.2547 22.8569C63.6923 22.8569 59.5037 24.0656 56.1833 26.0964C52.8629 24.0656 48.6743 22.8569 44.1119 22.8569C39.5495 22.8569 35.361 24.0656 32.0406 26.0964C28.7201 24.0656 24.5316 22.8569 19.9692 22.8569C9.21586 22.8569 0.50293 29.5854 0.50293 37.8896C0.50293 46.1938 9.21586 52.9223 19.9692 52.9223C24.5316 52.9223 28.7201 51.7136 32.0406 49.6829C35.361 51.7087 39.5495 52.9223 44.1119 52.9223C48.6743 52.9223 52.8629 51.7136 56.1833 49.6829C59.5037 51.7087 63.6923 52.9223 68.2547 52.9223C72.8171 52.9223 77.0056 51.7136 80.326 49.6829C83.6465 51.7136 87.835 52.9223 92.3974 52.9223C103.151 52.9223 111.864 46.1938 111.864 37.8896C111.864 29.5854 103.151 22.8569 92.3974 22.8569ZM28.8532 47.2312C26.3756 48.6308 23.2706 49.4822 19.9692 49.4822C11.6745 49.4822 4.95761 44.3001 4.95761 37.8896C4.95761 31.4792 11.6682 26.297 19.9692 26.297C23.2769 26.297 26.3692 27.1485 28.8532 28.548C26.2108 31.1122 24.6393 34.3566 24.6393 37.8896C24.6393 41.4227 26.2298 44.6671 28.8532 47.2312ZM32.0406 44.7796C30.1903 42.8516 29.1067 40.4734 29.1067 37.8945C29.1067 35.3157 30.1903 32.9375 32.0406 31.0094C33.8909 32.9375 34.9808 35.3108 34.9808 37.8945C34.9808 40.4783 33.8909 42.8516 32.0406 44.7796ZM52.996 47.2312C50.5056 48.6454 47.426 49.4773 44.0993 49.4773C40.7725 49.4773 37.7119 48.6454 35.2216 47.2312C37.845 44.672 39.4355 41.408 39.4355 37.8896C39.4355 34.3712 37.864 31.1171 35.2216 28.548C37.7119 27.1338 40.7662 26.3019 44.0993 26.3019C47.4324 26.3019 50.5056 27.1338 52.996 28.548C50.3536 31.1122 48.7821 34.3566 48.7821 37.8896C48.7821 41.4227 50.3726 44.6671 52.996 47.2312ZM56.1833 44.7796C54.333 42.8516 53.2494 40.4734 53.2494 37.8945C53.2494 35.3157 54.333 32.9375 56.1833 31.0094C58.0336 32.9375 59.1235 35.3108 59.1235 37.8945C59.1235 40.4783 58.0336 42.8516 56.1833 44.7796ZM77.1387 47.2312C74.6484 48.6454 71.5688 49.4773 68.242 49.4773C64.9153 49.4773 61.8546 48.6454 59.3643 47.2312C61.9877 44.672 63.5782 41.408 63.5782 37.8896C63.5782 34.3712 62.0067 31.1171 59.3643 28.548C61.8546 27.1338 64.9089 26.3019 68.242 26.3019C71.5751 26.3019 74.6484 27.1338 77.1387 28.548C74.4963 31.1122 72.9248 34.3566 72.9248 37.8896C72.9248 41.4227 74.5153 44.6671 77.1387 47.2312ZM80.326 44.7796C78.4757 42.8516 77.3858 40.4734 77.3858 37.8945C77.3858 35.3157 78.4694 32.9375 80.326 31.0094C82.1764 32.9375 83.2599 35.3108 83.2599 37.8945C83.2599 40.4783 82.17 42.8516 80.326 44.7796ZM92.3974 49.4822C89.0897 49.4822 85.991 48.6308 83.5134 47.2312C86.1368 44.672 87.7273 41.408 87.7273 37.8896C87.7273 34.3712 86.1558 31.1171 83.5134 28.548C85.9974 27.1485 89.096 26.297 92.3974 26.297C100.692 26.297 107.409 31.4792 107.409 37.8896C107.409 44.3001 100.698 49.4822 92.3974 49.4822Z" fill="#797E88"/>
</svg>
