<svg width="100" height="100" viewBox="0 0 100 100" fill="none" xmlns="http://www.w3.org/2000/svg">
<path d="M11.4287 34.085C11.4287 47.5092 28.8416 58.4319 50.2414 58.4319C71.6413 58.4319 89.0542 47.5092 89.0542 34.085C89.0542 20.6607 71.6413 9.73804 50.2414 9.73804C28.8416 9.73804 11.4287 20.6577 11.4287 34.085ZM12.6197 34.085C12.6197 21.3204 29.4967 10.9351 50.2414 10.9351C70.9862 10.9351 87.8631 21.3204 87.8631 34.085C87.8631 46.8495 70.9862 57.2379 50.2414 57.2379C29.4967 57.2379 12.6197 46.8525 12.6197 34.085Z" fill="#797E88"/>
<path d="M46.573 14.1649C37.4885 14.7201 30.8901 17.1351 29.7676 20.3143C29.6515 20.6456 29.5919 20.98 29.5919 21.3113C29.5919 21.8487 29.7438 22.383 30.0445 22.8965C31.304 25.0488 35.2195 26.8249 40.7876 27.7802L41.3772 27.8757L41.4754 27.2846C42.3895 21.6934 44.3964 17.2993 46.984 15.2216L48.4489 14.0425L46.573 14.1589V14.1649ZM31.0718 22.2964C30.8782 21.9651 30.783 21.6397 30.783 21.3173C30.783 21.1143 30.8187 20.9173 30.8901 20.7143C31.7477 18.2844 37.5808 16.1619 45.0307 15.4783C42.9047 17.8874 41.273 21.7711 40.4184 26.4906C35.5769 25.5921 32.0961 24.0457 31.0718 22.2964Z" fill="#797E88"/>
<path d="M44.9117 27.6429L44.7955 28.2936L45.4536 28.3444C47.0109 28.4608 48.6217 28.5235 50.2385 28.5235C51.8554 28.5235 53.4692 28.4608 55.0265 28.3444L55.6816 28.2936L55.5654 27.6429C54.6692 22.598 52.6772 19.5859 50.2385 19.5859C47.7999 19.5859 45.8049 22.598 44.9117 27.6429ZM50.2385 20.78C51.906 20.78 53.4454 23.2816 54.2553 27.1891C52.9362 27.2757 51.5963 27.3294 50.2385 27.3294C48.8808 27.3294 47.5409 27.2757 46.2248 27.1891C47.0317 23.2816 48.5741 20.78 50.2415 20.78H50.2385Z" fill="#797E88"/>
<path d="M53.496 15.2247C56.0805 17.2994 58.0904 21.6966 59.0045 27.2878L59.1028 27.8788L59.6923 27.7833C65.2634 26.831 69.1789 25.0549 70.4354 22.8996C70.9238 22.0727 71.0161 21.1771 70.7153 20.3144C69.5898 17.1352 62.9915 14.7202 53.9099 14.165L52.037 14.0486L53.499 15.2277L53.496 15.2247ZM55.4523 15.4785C62.8992 16.1621 68.7323 18.2875 69.5868 20.7144C69.6613 20.9174 69.697 21.1145 69.697 21.3174C69.697 21.6398 69.5987 21.9652 69.4112 22.2966C68.3839 24.0459 64.9031 25.5922 60.0645 26.4907C59.213 21.7742 57.5812 17.8905 55.4553 15.4785H55.4523Z" fill="#797E88"/>
<path d="M24.0179 22.6578C19.9356 26.0847 17.7769 30.1595 17.7769 34.4372C17.7769 44.5031 30.0207 53.0138 46.2544 54.2258L48.0678 54.3631L46.6862 53.181C43.128 50.1302 40.9216 42.8941 40.9216 34.2909L40.9573 32.258L40.46 32.1565C31.9204 30.6222 25.8461 27.0221 24.9796 22.9921L24.7712 22.0249L24.0119 22.6578H24.0179ZM18.9709 34.4372C18.9709 30.7684 20.7574 27.2459 24.1072 24.1891C25.6704 28.2609 31.5035 31.655 39.7514 33.2342C39.7395 33.6999 39.7305 34.2909 39.7305 34.2909C39.7305 42.2673 41.6183 49.154 44.7329 52.8705C29.9403 51.2884 18.9679 43.5419 18.9679 34.4372H18.9709Z" fill="#797E88"/>
<path d="M44.4262 33.3627V33.5806C44.4233 41.5748 46.9244 47.6079 50.2385 47.6079C53.5525 47.6079 56.0537 41.5748 56.0537 33.5806L56.0447 32.7179L55.4046 32.7716C53.7193 32.9209 51.9804 32.9925 50.2355 32.9925C48.4906 32.9925 46.7517 32.9179 45.0694 32.7716L44.4262 32.7119L44.4203 33.3627H44.4262ZM54.8567 34.0045C54.7674 41.4435 52.43 46.4138 50.2385 46.4138C48.047 46.4138 45.7096 41.4435 45.6203 34.0045C47.1358 34.1149 48.6812 34.1866 50.2385 34.1866C51.7957 34.1866 53.3381 34.1179 54.8567 34.0045Z" fill="#797E88"/>
<path d="M75.4942 22.9919C74.6307 27.0219 68.5535 30.622 60.0168 32.1563L59.5165 32.2489L59.5552 34.2877C59.5552 42.891 57.3459 50.127 53.7907 53.1778L52.4091 54.3599L54.2194 54.2226C70.4562 53.0106 82.7 44.5 82.7 34.434C82.7 30.1563 80.5412 26.0815 76.459 22.6546L75.7027 22.0217L75.4942 22.9889V22.9919ZM76.3696 24.189C79.7254 27.2487 81.5119 30.7682 81.5119 34.437C81.5119 43.5417 70.5395 51.2852 55.7469 52.8703C58.8615 49.1538 60.7493 42.2671 60.7493 34.2907C60.7493 34.2907 60.7373 33.6997 60.7284 33.234C68.9733 31.6548 74.8094 28.2607 76.3726 24.189H76.3696Z" fill="#797E88"/>
<path d="M75.9169 19.9175C75.9705 20.0698 76.0211 20.225 76.0598 20.3802C76.2832 21.2758 76.2385 22.1534 75.9467 23.0072C79.8205 26.2103 82.1043 30.1596 82.1043 34.4374C82.1043 45.1182 67.8387 53.7782 50.2413 53.7782C32.6438 53.7782 18.3752 45.1182 18.3752 34.4374C18.3752 30.1626 20.662 26.2073 24.5299 23.0072C24.241 22.1504 24.1964 21.2728 24.4197 20.3802C24.4614 20.222 24.5269 20.0549 24.6043 19.8877C19.3191 23.6609 16.1152 28.6103 16.1152 34.0284C16.1152 45.8586 31.3932 55.4499 50.2413 55.4499C69.0893 55.4499 84.3673 45.8616 84.3673 34.0284C84.3673 28.6223 81.1753 23.6848 75.9199 19.9205L75.9169 19.9175Z" fill="#797E88"/>
<path d="M54.9817 27.7476C53.4781 27.861 51.891 27.9237 50.2384 27.9237C48.5859 27.9237 47.0018 27.861 45.4981 27.7476H45.4922L44.5096 28.464C46.3229 28.6222 48.2375 28.7118 50.2384 28.7118C52.2394 28.7118 54.154 28.6222 55.9673 28.464L54.9788 27.7476H54.9817ZM72.4125 20.2429C71.2155 16.2726 61.3389 13.3591 50.2414 13.3591C39.144 13.3591 29.2703 16.2756 28.0704 20.2429C27.0312 23.6878 32.7065 26.8729 41.66 28.1386L40.8829 27.1894C33.6385 25.9535 29.3329 23.3176 30.3274 20.5146C31.5303 17.1145 40.2755 14.6487 50.2384 14.6487C60.2014 14.6487 68.9495 17.1115 70.1525 20.5146C71.144 23.3176 66.8414 25.9505 59.594 27.1894L58.8168 28.1386C67.7674 26.8759 73.4487 23.6878 72.4095 20.2429H72.4125Z" fill="#797E88"/>
<path d="M45.5101 27.7474C46.3409 23.1144 48.1453 20.2188 50.2385 20.2188C52.3317 20.2188 54.1362 23.1144 54.9699 27.7474H54.9848L55.9584 28.4549C55.1366 22.3353 52.8886 18.4277 50.2415 18.4277C47.5944 18.4277 45.3434 22.3383 44.5245 28.4549L45.4982 27.7474H45.5131H45.5101Z" fill="#797E88"/>
<path d="M56.2532 31.9238L55.4582 33.3657C55.4582 33.4701 55.4641 33.5776 55.4641 33.6881C55.4641 41.3689 53.1208 47.1899 50.2415 47.1899C47.3622 47.1899 45.0188 41.3659 45.0188 33.6881C45.0188 33.5657 45.0188 33.4463 45.0248 33.3298L44.2268 31.9238C44.2029 32.5 44.191 33.0821 44.191 33.6821C44.191 42.3898 46.8977 48.984 50.2415 48.984C53.5853 48.984 56.2919 42.3898 56.2919 33.6821C56.2919 33.0851 56.277 32.5 56.2532 31.9238Z" fill="#797E88"/>
<path d="M41.675 28.1416C42.8184 19.6369 46.2218 13.3591 50.2415 13.3591C45.933 13.3591 42.2586 18.9205 40.8949 27.2043L41.6631 28.1416H41.675Z" fill="#797E88"/>
<path d="M58.808 28.1416H58.8169L59.5851 27.2043C58.2243 18.9205 54.55 13.3591 50.2415 13.3591C54.2612 13.3591 57.6646 19.6369 58.808 28.1416Z" fill="#797E88"/>
<path d="M60.1181 32.7388L59.1415 31.5686H59.1326C59.1861 32.497 59.2189 33.4433 59.2189 34.4015C59.2189 46.0227 55.1992 55.4469 50.2385 55.4469C55.7977 55.4469 60.1479 46.7093 60.1479 34.4015C60.1479 33.8373 60.136 33.2851 60.1152 32.7388H60.1181Z" fill="#797E88"/>
<path d="M41.2641 34.4044C41.2641 33.4462 41.2969 32.4999 41.3505 31.5715H41.3445L40.3649 32.7387C40.3441 33.291 40.3322 33.8432 40.3322 34.4044C40.3322 46.7093 44.6854 55.4498 50.2445 55.4498C45.2898 55.4498 41.2671 46.0286 41.2671 34.4044H41.2641Z" fill="#797E88"/>
<path d="M75.9469 23.0071C77.4267 24.231 78.6773 25.5684 79.654 26.9863C79.3086 24.6788 78.3885 22.5564 77.0486 20.7712C76.6794 20.4787 76.3042 20.1921 75.9171 19.9175C75.9707 20.0697 76.0213 20.225 76.06 20.3802C76.2834 21.2757 76.2387 22.1534 75.9469 23.0071Z" fill="#797E88"/>
<path d="M24.5302 23.0072C24.2413 22.1504 24.1967 21.2728 24.42 20.3802C24.4617 20.222 24.5272 20.0549 24.6046 19.8877C24.1996 20.1802 23.8126 20.4728 23.4314 20.7743C22.0915 22.5594 21.1744 24.6819 20.826 26.9894C21.8027 25.5714 23.0503 24.2341 24.5302 23.0102V23.0072Z" fill="#797E88"/>
<path d="M12.0242 34.0851C12.0242 20.9713 29.1333 10.3352 50.2414 10.3352C71.3494 10.3352 88.4556 20.9683 88.4556 34.0851C88.4556 47.2019 71.3465 57.832 50.2414 57.832C29.1363 57.832 12.0242 47.2019 12.0242 34.0851ZM50.2414 55.4469C69.0865 55.4469 84.3674 45.8586 84.3674 34.0254C84.3674 22.1923 69.0865 12.6009 50.2414 12.6009C31.3963 12.6009 16.1154 22.1952 16.1154 34.0284C16.1154 45.8616 31.3933 55.4499 50.2414 55.4499V55.4469Z" fill="#797E88"/>
<path d="M41.264 34.4045C41.264 22.9027 45.2838 13.3591 50.2414 13.3591C55.1991 13.3591 59.2218 22.9027 59.2218 34.4045C59.2218 45.9063 55.2021 55.4498 50.2414 55.4498C45.2808 55.4498 41.264 46.0287 41.264 34.4045ZM50.2414 48.984C53.5823 48.984 56.2919 42.3898 56.2919 33.6851C56.2919 24.9803 53.5823 18.4309 50.2414 18.4309C46.9006 18.4309 44.191 24.655 44.191 33.6851C44.191 42.7152 46.8976 48.984 50.2414 48.984Z" fill="#797E88"/>
<path d="M24.4199 20.3801C25.4055 16.4695 37.3158 10.7798 50.2414 10.7798C63.1671 10.7798 74.6665 14.8456 76.063 20.3801C77.6262 26.5832 66.1447 32.1983 50.2414 32.1983C34.3382 32.1983 22.8566 26.5832 24.4199 20.3801ZM50.2414 13.359C39.144 13.359 29.2704 16.2755 28.0704 20.2427C26.7275 24.6876 36.5833 28.7116 50.2414 28.7116C63.8996 28.7116 73.7554 24.6876 72.4125 20.2427C71.2155 16.2725 61.3389 13.359 50.2414 13.359Z" fill="#797E88"/>
<path d="M44.2149 31.9118L44.2208 31.9178L45.0397 33.3685C46.7101 33.5118 48.4431 33.5924 50.2385 33.5924C52.034 33.5924 53.7818 33.5118 55.4612 33.3656L56.2592 31.9207L56.2651 31.9148C54.3446 32.0969 52.3347 32.1984 50.2415 32.1984C48.1483 32.1984 46.1354 32.0969 44.2149 31.9148V31.9118ZM76.1971 21.7205C75.9916 26.1564 69.1908 30.0849 59.1385 31.5655H59.1415L60.1211 32.7446C69.9561 30.9715 76.4263 26.6191 76.1941 21.7205H76.1971ZM24.286 21.7205C24.0537 26.6221 30.524 30.9715 40.3559 32.7446L41.3385 31.5715C31.2862 30.0879 24.4884 26.1564 24.283 21.7205H24.286Z" fill="#797E88"/>
<path d="M50 86.124C49.9882 81.9465 53.3301 78.5775 57.5015 78.5715C61.5748 78.5775 64.9168 81.9465 65 86.124C64.9197 90.2536 61.5748 93.6225 57.5015 93.6794C53.3271 93.6195 49.9852 90.2506 50 86.124ZM57.5015 90.8974C59.7552 90.8615 61.6194 88.7293 61.6432 86.124C61.6194 83.4677 59.7552 81.3356 57.5015 81.3505C55.1497 81.3356 53.2795 83.4677 53.3539 86.124C53.2795 88.7293 55.1497 90.8615 57.5015 90.8974Z" fill="#797E88"/>
<path d="M73.4767 81.2032V92.96H70.2955V81.2032H65.7142V78.5715H77.8571V81.2032H73.4767Z" fill="#797E88"/>
<path d="M82.1112 89.7117L80.9216 92.96H77.1428L83.1091 78.5715H87.0856L92.8571 92.96H89.0784L87.8857 89.7117H82.1112ZM85.0988 87.2816H87.0856L85.0988 82.0091L83.1091 87.2816H85.0988Z" fill="#797E88"/>
<path d="M14.8316 81.2032V92.96H11.5939V81.2032H7.14282V78.5715H19.2857V81.2032H14.8316Z" fill="#797E88"/>
<path d="M20 86.124C20.0059 81.9465 23.3456 78.5775 27.497 78.5715C31.595 78.5775 34.9405 81.9465 35 86.124C34.9405 90.2536 31.595 93.6225 27.497 93.6794C23.3456 93.6195 20.0059 90.2506 20 86.124ZM27.497 90.8974C29.778 90.8615 31.6425 88.7293 31.6425 86.124C31.6425 83.4677 29.775 81.3356 27.497 81.3505C25.1685 81.3356 23.301 83.4677 23.3575 86.124C23.3039 88.7293 25.1715 90.8615 27.497 90.8974Z" fill="#797E88"/>
<path d="M42.4984 92.96H44.1651V87.4861L50 78.5715H46.2524L42.4984 84.6499L38.9548 78.5715H35L40.8349 87.4861V92.96H42.4984Z" fill="#797E88"/>
</svg>
