<svg width="100" height="100" viewBox="0 0 100 100" fill="none" xmlns="http://www.w3.org/2000/svg">
<path fill-rule="evenodd" clip-rule="evenodd" d="M73.6077 10.384C73.6154 9.95042 73.6245 9.51807 73.6322 9.08445L49.9549 4.61768L26.3679 9.01725C26.3731 9.41664 26.3795 9.84519 26.386 10.3004C26.4866 10.2826 49.2404 6.09604 49.9549 6.04912C50.1187 6.03898 72.5708 10.1913 73.6077 10.384Z" fill="#797E88"/>
<path fill-rule="evenodd" clip-rule="evenodd" d="M50.1444 68.3607L51.3709 67.5518C51.8558 67.2323 52.3382 66.909 52.8166 66.5819C54.7886 65.2341 56.5903 63.8546 58.3494 62.247C59.2702 61.4063 60.1511 60.5252 60.9919 59.6072C63.3405 57.0423 65.342 54.2149 67.0418 51.1973C67.6673 50.0879 68.2529 48.9582 68.7971 47.8082C69.0125 47.3531 69.2201 46.8953 69.42 46.4338C70.1216 44.7704 70.7381 43.0574 71.2681 41.3217C71.4293 40.7803 71.5802 40.2364 71.7221 39.6912C72.002 38.6173 72.247 37.5358 72.4598 36.4479C72.6391 35.5274 72.7964 34.6057 72.9305 33.6839C73.5612 29.8359 73.5612 24.6096 73.5264 17.4245C73.5264 16.8299 73.5302 16.2352 73.5354 15.6393C73.5354 15.6292 73.5354 15.619 73.5354 15.6089L72.2947 15.0662C57.5433 8.61269 42.2155 8.63424 27.4512 15.1309L26.4607 15.5671C26.502 18.4033 26.5471 21.3436 26.5871 23.6106L26.6155 25.1929C26.6271 25.8649 26.6425 26.5356 26.6593 27.2076C26.6722 27.6906 26.689 28.175 26.7096 28.658C26.7225 28.9801 26.738 29.3008 26.7547 29.6229C26.778 30.0781 26.8076 30.5332 26.8437 30.9884C26.8592 31.1887 26.8773 31.3891 26.8992 31.5894C26.974 32.5061 27.0836 33.4202 27.2281 34.3293C27.3854 35.3246 27.5776 36.3148 27.8033 37.2987C28.4945 40.3201 29.4747 43.3262 30.6651 46.1917C31.9844 49.3677 33.7152 52.7086 35.7503 55.4929C36.1475 56.0368 36.555 56.5744 36.9703 57.1044C38.4483 58.991 40.0411 60.7686 41.8131 62.3953C42.3754 62.9113 42.9532 63.4109 43.5464 63.8914C44.2093 64.429 44.889 64.9463 45.5841 65.4433C46.2818 65.9403 46.9886 66.4246 47.7056 66.8938C48.0822 67.141 48.4588 67.3857 48.838 67.6292C49.2429 67.8903 49.6492 68.1503 50.0554 68.4102C50.0799 68.3962 50.1109 68.3785 50.1457 68.3582L50.1444 68.3607Z" fill="#797E88"/>
<path fill-rule="evenodd" clip-rule="evenodd" d="M58.0218 55.6984H58.4358C58.459 55.6984 58.4642 55.6984 58.4861 55.692C58.7002 55.6388 58.7337 55.6439 58.8717 55.5209C59.0639 55.351 59.3463 55.0885 59.2844 54.9719C59.1825 54.7792 59.0884 55.015 58.8446 55.1342C58.8124 55.1507 58.7815 55.1545 58.7324 55.1557C58.5622 55.1621 58.1572 55.1418 58.1572 55.1418C58.1572 55.1418 58.2733 54.7842 58.3713 54.5243C58.5764 53.9804 58.8163 53.6723 59.1709 53.1664C59.1838 53.1474 59.1877 53.1461 59.2109 53.1436C60.5767 53.0079 61.0281 53.0155 62.2249 52.4868C62.4635 52.3816 62.7498 52.2459 62.7498 52.2459L62.7137 52.0722C62.7137 52.0722 62.1475 52.218 61.7284 52.3106C60.9301 52.4855 60.0105 52.5451 59.2496 52.4767C57.4195 52.3118 57.2674 51.9822 56.0164 52.2992C55.4824 52.4348 54.9201 52.7087 54.6648 53.2032C54.501 53.5214 54.4868 53.8992 54.7215 54.2099C54.884 54.4254 55.2374 54.4711 55.476 54.4153C55.8036 54.3379 56.1376 54.1693 56.2653 53.917C56.304 53.8397 56.3852 53.6102 56.3556 53.562C56.3091 53.4884 56.2214 53.6089 56.1415 53.6837C55.8565 53.9512 55.436 53.9576 55.24 53.7015C54.9782 53.3604 55.3367 53.0396 55.6901 52.8976C56.1066 52.7302 56.46 52.7569 56.9411 52.8418C57.4853 52.9394 58.3855 53.1449 58.3855 53.1449C58.3855 53.1449 57.9161 53.6533 57.7188 53.9601C57.4557 54.3696 57.1693 55.0898 57.1049 55.1228C57.0378 55.157 56.9553 55.1545 56.8289 55.1887C56.5129 55.2762 56.3207 55.4537 56.175 55.6933C56.1531 55.7288 56.1415 55.7681 56.1634 55.7973C56.1905 55.8328 56.2588 55.8772 56.2588 55.8772C56.2588 55.8772 56.3414 55.81 56.4046 55.7643C56.5335 55.6718 56.7089 55.6286 56.8443 55.6756C56.8934 55.692 56.8895 55.7225 56.8856 55.8061C56.8856 55.829 56.883 55.8328 56.874 55.8531C56.4626 56.6873 56.2317 57.3289 55.5843 57.9121C55.0401 58.4041 54.0909 58.456 53.5195 58.0009C53.1804 57.7295 52.9147 57.1983 52.9972 56.771C53.0179 56.6658 53.063 56.52 53.1172 56.5048C53.1804 56.487 53.2977 56.5897 53.4022 56.6265C53.5711 56.6848 53.8445 56.5517 53.9426 56.4008C54.1038 56.1536 54.0457 55.8543 53.8252 55.6857C53.6279 55.5336 53.2913 55.5475 53.0746 55.6641C52.3898 56.0331 52.4491 57.1526 52.7367 57.7016C53.1236 58.4383 53.9348 58.863 54.7086 58.8427C55.5302 58.8199 56.2356 58.4155 56.8495 57.7524C56.9075 57.6902 56.9591 57.6281 57.012 57.5634C57.4389 57.0309 57.6723 56.378 57.987 55.7935C58.0076 55.7542 58.0218 55.7237 58.0218 55.7085C58.0218 55.7035 58.0218 55.6971 58.0218 55.6971V55.6984ZM42.5405 55.6286V55.621C42.5405 55.621 42.4231 55.6071 42.338 55.6096C42.0517 55.6185 41.7228 55.919 41.6055 56.1523C41.3811 56.6011 41.4494 57.2959 41.6841 57.6915C42.0182 58.2544 42.5572 58.5904 43.1827 58.7553C44.0146 58.9733 45.0915 58.7084 45.6847 58.1682C46.2393 57.6623 46.4624 57.036 46.3605 56.2854C46.3025 55.8518 46.1322 55.5044 45.8266 55.2217C45.7337 55.1367 45.0554 54.7196 44.8503 54.6232C44.4918 54.4546 42.9429 53.8967 42.743 53.3388C42.6501 53.0802 42.7442 52.8063 43.0022 52.6859C43.4884 52.4577 44.0159 52.6212 44.5124 52.8406C44.8155 52.975 45.214 53.245 45.4191 53.5176C45.5867 53.7408 45.8047 54.1148 45.8808 54.1478C45.9349 54.1706 45.9801 54.1579 46.011 54.1072C46.0407 54.0603 45.8601 53.6203 45.7634 53.2843C45.6847 53.0117 45.7054 52.5439 45.6396 52.3651C45.6125 52.2903 45.5687 52.2485 45.4822 52.2763C45.3881 52.3068 45.3107 52.426 45.2114 52.4754C44.9328 52.6161 44.319 52.2687 44.0842 52.1876C43.5451 52.0025 42.6978 52.1039 42.2929 52.568C42.044 52.8545 41.9524 53.0751 41.9317 53.4048C41.9253 53.5138 41.9227 53.6 41.9279 53.6774C41.9704 54.2378 42.6088 54.717 43.0383 54.9719C43.1686 55.0492 43.2898 55.1177 43.3517 55.1443C43.9733 55.4169 45.0592 55.8404 45.2295 55.9596C45.735 56.312 45.8885 56.9308 45.5828 57.514C45.0154 58.5942 43.1066 58.5866 42.2696 57.7422C42.0323 57.5026 41.8195 57.0423 41.9653 56.6835C42.0349 56.5124 42.111 56.6303 42.3483 56.6721C42.5908 56.7152 42.8655 56.4464 42.9119 56.2626C42.9674 56.042 42.8913 55.8252 42.6965 55.7098C42.6553 55.6857 42.6088 55.6629 42.5637 55.6413C42.5431 55.6312 42.5405 55.6299 42.5405 55.6274V55.6286ZM49.9394 67.2856L48.8315 66.5401C48.1403 66.0748 46.8725 65.2811 46.0562 64.7359C45.8176 64.5774 42.9106 62.2521 42.5805 61.9567C42.0285 61.4622 40.4422 59.9471 40.0514 59.5375C39.7909 59.2662 37.1419 56.1142 36.8968 55.7833C36.5641 55.3358 34.9043 52.8837 34.587 52.3702C32.116 48.3763 30.5348 44.5384 29.3019 40.0387C29.0813 39.2336 28.6042 37.262 28.4675 36.5951C28.0935 34.7617 27.7568 32.3477 27.6111 30.4027C27.5569 29.6787 27.5273 28.9827 27.4989 28.1547C27.3932 25.0687 27.25 16.2683 27.25 16.2683C27.25 16.2683 27.2861 16.248 27.3454 16.2138C42.3573 9.51676 57.8361 9.55734 72.8119 16.3329C72.8145 16.3355 72.8171 16.3393 72.8184 16.3418C72.8416 16.3824 72.8467 16.4255 72.8519 16.4699C72.8725 16.6448 72.6352 27.886 72.5927 28.7304C72.4302 31.9445 72.1877 34.0644 71.4552 37.4801C71.3275 38.076 70.711 40.471 70.5318 41.0682C70.3628 41.6324 69.3775 44.4738 69.1569 45.0329C66.9903 50.5406 63.9943 55.332 59.8493 59.6352C59.4689 60.0308 57.6427 61.764 57.2067 62.1431C56.8882 62.4207 53.7504 64.8513 53.4306 65.0668C52.9018 65.4244 51.9023 66.0507 50.9595 66.6428L49.9394 67.2844V67.2856ZM35.0371 33.3277H35.0255C35.0255 33.3277 35.0294 33.4824 35.0474 33.5598C35.0926 33.7411 35.4975 33.5991 35.6871 33.5306C36.1952 33.3455 36.9948 32.9182 37.0761 32.3857C37.1148 32.1334 36.96 32.1423 36.7949 31.7213C36.7511 31.611 36.7679 31.5235 36.8401 31.4043C36.8955 31.3131 36.9729 31.2294 37.0206 31.1343C37.0567 31.062 37.0748 30.9834 37.0877 30.9023C37.1909 30.2962 37.1935 30.1238 37.6178 29.6115C37.9879 29.1653 38.6121 28.525 38.8236 28.2169C38.9977 27.962 39.1435 27.6856 39.2634 27.4726C39.3008 27.4054 39.3421 27.3408 39.3975 27.3116C39.4414 27.2888 39.6877 27.2964 39.7702 27.3243C39.8902 27.3636 39.9598 27.4232 40.063 27.55C40.3235 27.8695 40.6201 28.4159 40.7955 28.5934C41.2469 29.0511 41.9975 29.6914 41.9782 29.7307C41.9111 29.8765 41.4468 29.6001 41.2908 29.5165C41.1966 29.467 40.0372 29.1602 39.7806 29.1183C38.9938 28.9877 38.6869 28.8673 38.1078 29.3618C37.7351 29.68 37.5133 30.0946 37.4707 30.4915C37.4591 30.5992 37.9389 34.4004 37.9776 34.5119C38.0511 34.7237 38.1336 35.0166 38.1349 35.1205C38.1401 35.4743 38.0679 35.5681 38.2923 35.9244C38.4174 36.1234 38.6005 36.287 38.732 36.4873C38.8649 36.6889 39.0119 37.1656 39.1718 37.5067C39.2724 37.7197 39.7625 38.521 40.0553 38.7644C40.3209 38.9851 40.5002 38.8976 40.7156 38.6047C41.0432 38.1584 41.0535 37.0566 40.8652 36.6407C40.793 36.481 40.6704 36.3466 40.5015 36.2718C40.2784 36.1741 39.8334 36.0753 39.8334 36.0753C39.8334 36.0753 39.7677 35.3462 39.6903 35.1091C39.6413 34.957 39.5587 34.8391 39.4878 34.711C39.1267 34.058 39.1705 33.4089 39.1383 32.6291C39.1306 32.4542 39.1177 32.2767 39.0712 32.108C39.0055 31.8722 38.8997 31.4944 38.9139 31.4436C38.95 31.3093 39.1048 31.2002 39.2518 31.2116C39.5974 31.237 39.8502 31.5045 40.1236 31.7099C40.2797 31.8266 41.1012 32.2754 41.5797 32.5404C41.7499 32.6342 41.9537 32.7762 42.0298 32.8611C42.102 32.941 42.1562 33.0323 42.2258 33.1211C42.3999 33.3442 42.6888 33.5813 42.9248 33.6688C43.5322 33.8957 43.6432 33.7715 43.883 34.0276C44.0017 34.1544 44.2364 34.5018 44.4015 34.7706C44.5769 35.0584 44.7291 35.3196 44.8967 35.5681C45.0205 35.7507 45.8279 36.6965 46.0162 36.8804C46.4211 37.2747 49.4764 39.7255 49.9948 40.2136C50.1096 40.3214 50.6552 40.8324 50.7222 41.0771C50.739 41.1379 50.7364 41.2127 50.681 41.2318C50.6577 41.2406 50.6307 41.2318 50.6023 41.2203C50.5455 41.1975 49.8001 40.4457 49.6905 40.3011C49.6337 40.2251 48.5697 39.3959 48.513 39.3819C48.4511 39.368 48.3853 39.3553 48.3853 39.3553C48.3853 39.3553 48.3376 39.5188 48.3092 39.6482C48.2202 40.0628 48.3002 40.9985 48.3544 41.3091C48.5543 42.4477 49.0405 43.6281 49.6505 44.6982C49.9665 45.2535 50.4488 46.018 50.4488 46.018C50.4488 46.018 50.3353 46.3147 50.236 46.4808C50.0774 46.7471 49.9381 46.7838 49.5938 46.7915C48.9657 46.8054 48.0693 46.8155 47.7237 46.7915C46.8674 46.7306 45.4758 46.5632 45.1882 46.581C45.0334 46.5899 44.8825 46.6089 44.7381 46.6469C44.6478 46.671 44.5601 46.7014 44.4673 46.7243C44.2261 46.7838 43.2846 46.775 42.89 46.846C42.476 46.9208 41.7551 47.1769 41.4933 47.504C41.2972 47.7487 41.4172 47.8971 41.6738 48.0758C41.7783 48.1481 42.4773 48.4562 42.654 48.5082C43.028 48.6159 43.6006 48.7656 43.8366 48.4372C43.8998 48.351 43.9462 48.2394 44.0172 48.1481C44.1552 47.9693 44.3357 47.8539 44.524 47.8882C44.671 47.9148 44.8129 48.0099 44.9638 48.0429C45.0502 48.0619 45.272 48.0492 45.4165 48.0162C46.2625 47.8235 46.3695 47.802 47.4877 47.8983C47.8462 47.9288 48.9334 48.0986 49.2004 48.1646C49.8117 48.3155 50.8073 48.5868 50.9918 48.6071C51.2678 48.6375 51.4922 48.6375 51.6456 48.4587C51.705 48.389 51.9165 47.9364 51.9268 47.8539C51.9384 47.7665 51.8933 47.4761 51.8481 47.3443C51.5502 46.4783 51.3219 46.1588 51.2059 45.4944C51.1749 45.3131 51.1323 44.1897 51.1491 43.9767C51.1891 43.4734 51.3439 42.8749 51.5657 42.3817C51.9049 41.6324 52.4053 41.086 52.591 40.4102C52.6722 40.1147 52.7599 39.6456 52.7599 39.6456C52.7599 39.6456 52.8064 39.6456 52.8386 39.657C52.9392 39.6925 52.9018 40.0957 52.8953 40.1553C52.8799 40.2999 52.8192 40.4926 52.7483 40.665C52.5484 41.1582 51.9706 42.1256 51.723 42.7139C51.349 43.6027 51.331 44.5853 51.5541 45.6377C51.6779 46.226 52.0403 47.3151 52.3085 47.7753C52.6168 48.3028 53.1649 49.1218 53.1984 49.2588C53.2487 49.4616 53.1442 49.6582 52.9959 49.8851C52.9237 49.9954 52.315 50.6256 52.168 50.7422C51.3116 51.4231 49.7679 52.644 49.7279 52.7074C49.6144 52.8887 49.546 53.0789 49.4119 53.2526C49.3036 53.3934 48.6381 53.8637 48.2435 54.1934C48.1287 54.2885 47.7959 54.6765 47.7443 54.7741C47.6399 54.9719 47.538 55.2178 47.7224 55.3167C47.8978 55.4106 48.5053 55.4651 48.6123 55.4714C49.2778 55.5133 49.7305 55.4778 50.2799 55.261C50.5146 55.1684 50.6797 55.0239 50.6062 54.7741C50.5494 54.5788 50.454 54.452 50.5275 54.2644C50.5662 54.1668 50.6539 54.0958 50.757 54.0387C51.1065 53.8447 51.2613 53.8447 51.3954 53.4897C51.4225 53.4174 51.4354 53.3464 51.4625 53.2792C51.5038 53.1791 51.6044 53.0586 51.6985 52.9509C52.422 52.1267 52.5897 51.915 53.4048 51.2963C53.6214 51.1314 54.3037 50.7042 54.4481 50.6433C54.7228 50.5267 55.0839 50.4037 55.1355 50.1222C55.1845 49.8597 55.1562 49.2486 55.0568 49.0153C54.9795 48.834 54.8144 48.6438 54.7073 48.4511C54.4326 47.9516 54.4494 47.3696 54.6854 46.8891C54.7796 46.6964 54.8711 46.5506 54.9898 46.4124C55.1123 46.2691 56.5567 45.3017 57.1255 44.8288C57.5808 44.4497 58.53 43.3263 58.7092 42.6581C58.815 42.2651 58.9285 41.5513 58.9904 41.4676C59.0716 41.3598 59.2354 41.375 59.3283 41.5107C59.4547 41.6945 59.4443 41.9849 59.4186 42.2042C59.3695 42.6201 59.2315 43.2642 59.1593 43.6661C59.1374 43.7853 59.1439 43.992 59.1709 44.087C59.2174 44.2481 59.318 44.4636 59.318 44.4636C59.318 44.4636 59.3502 44.1492 59.4082 43.921C59.4895 43.5976 59.6185 43.4468 59.6791 43.2236C59.7294 43.0372 59.7191 42.4794 59.9834 42.4375C60.1292 42.4134 60.1679 42.6784 60.1859 42.847C60.2362 43.2971 60.164 43.6496 59.9628 44.1365C59.7616 44.6196 59.0316 45.5109 59.1271 46.0586C59.1464 46.1651 59.207 46.3578 59.2741 46.4415C59.3334 46.5163 59.4431 46.6203 59.4431 46.6203V46.1613C59.4431 46.1385 59.4431 46.1334 59.4508 46.1131C59.5437 45.8507 59.652 45.658 59.848 45.3993C60.4077 44.6601 60.5444 44.6601 60.8398 43.9666C61.0268 43.5279 61.09 43.2287 61.1441 42.7596C61.1596 42.6277 61.1184 42.0584 61.0874 41.9849C61.0642 41.9278 60.6734 41.3662 60.8282 41.2533C60.9623 41.1557 61.2667 41.6552 61.3015 41.73C61.5362 42.2258 61.4653 42.4794 61.482 43.0702C61.4924 43.4163 61.5955 43.7751 61.8535 44.1073C61.8883 44.153 61.9334 44.1986 61.9657 44.1783C61.9773 44.1707 61.9837 44.153 61.9876 44.134C62.016 44.0122 61.8548 43.3504 61.8638 43.0702C61.8702 42.8952 62.0443 42.4768 62.0998 42.2283C62.1243 42.1218 62.1243 42.0039 62.0998 41.8847C62.0263 41.5335 61.7709 40.8793 61.7954 40.8146C61.829 40.7284 62.0869 40.6878 62.4042 40.5661C63.4359 40.1718 64.2188 39.1157 64.478 38.2509C64.6637 37.6271 64.7269 36.9767 64.6585 36.2908C64.5038 34.7376 64.2394 34.5893 64.518 33.1566C64.5463 33.012 64.5747 32.889 64.6353 32.7584C64.7566 32.496 65.2673 31.8621 65.4169 31.554C65.5691 31.2433 65.5974 31.0481 65.5471 30.6652C65.5226 30.4762 65.4646 30.3761 65.3666 30.4547C65.2931 30.513 65.0816 31.0924 64.8933 31.4842C64.8442 31.5869 64.2562 32.335 64.1452 32.4364C63.9312 32.6317 63.7558 32.7711 63.6423 32.5252C63.5056 32.2272 63.5404 31.7594 63.6203 31.4956C63.6732 31.3181 63.7441 31.1419 63.846 30.9644C64.0563 30.5967 64.6057 29.9653 64.8043 29.6128C64.9397 29.3719 65.2505 28.6758 65.1654 28.4172C65.1125 28.2574 65.0222 28.2777 64.9178 28.3994C64.8056 28.53 64.5502 28.9599 64.3877 29.2324C64.291 29.3947 64.1697 29.5608 64.0614 29.6635C63.8757 29.8385 63.5816 30.0439 63.521 30.1542C63.5094 30.177 63.503 30.1973 63.4862 30.2227C63.4166 30.3355 62.7588 30.8351 62.7588 30.8351C62.7588 30.8351 62.7253 30.4319 62.7305 30.1669C62.7421 29.5608 63.187 28.5554 63.5752 28.1129C63.9092 27.7325 64.567 27.1278 64.5889 27.0441C64.6108 26.9604 64.5799 26.9084 64.4767 26.9338C64.3825 26.9566 64.2858 27.0225 64.1878 27.0884C63.6926 27.4257 63.405 27.6146 63.0567 27.9785C62.6608 28.3918 62.3294 28.8648 62.1333 29.3364C61.8199 30.0883 61.7658 30.9657 61.8857 31.7391C61.9695 32.2792 62.221 33.0881 62.359 33.755C62.5486 34.6717 62.6441 36.2528 62.4042 37.1885C62.2197 37.9086 61.8277 38.5197 61.2499 39.0155C60.8346 39.3718 60.4335 39.5505 59.8454 39.7572C59.7668 39.7851 59.6971 39.8092 59.5862 39.8231C59.3837 39.851 59.0458 39.8472 59.0458 39.8472C59.0458 39.8472 58.7453 38.8621 58.539 38.3993C58.1779 37.5891 57.1332 36.4074 56.5451 35.8394C56.3117 35.6137 55.6166 35.0381 55.3909 34.8822C55.0749 34.6641 54.6725 34.4156 54.4713 34.247C53.771 33.6587 52.8205 32.2893 52.4543 31.4056C52.1705 30.721 52.0609 30.0921 52.2286 29.4011C52.2789 29.1931 52.3421 29.1386 52.5445 29.2236C52.6851 29.2832 52.8038 29.4074 52.9508 29.4898C53.103 29.5748 53.6163 29.6496 53.909 29.7561C54.0135 29.7941 54.1051 29.8448 54.2018 29.9108C54.5397 30.1453 55.1329 30.6411 55.2503 30.6753C55.3096 30.6931 55.3883 30.6994 55.4309 30.6538C55.5198 30.5561 55.3444 30.4864 55.2451 30.4217C55.1665 30.3697 55.0672 30.2556 55.0027 30.1504C54.7654 29.7599 54.7564 29.6749 54.4004 29.4138C54.3591 29.3833 54.3191 29.3554 54.2701 29.3364C54.1554 29.2908 53.9477 29.2882 53.8871 29.1995C53.8639 29.1665 53.8755 29.1437 53.9168 29.1259C54.0586 29.0664 54.5062 29.2198 54.5977 29.2705C54.8402 29.4062 55.2013 29.7536 55.307 29.7802C55.3561 29.7916 55.3909 29.7764 55.4089 29.7028C55.436 29.5887 55.3728 29.4974 55.307 29.4264C55.0478 29.1412 54.4571 28.6556 54.0793 28.5516C53.8252 28.4819 53.7697 28.5136 53.4938 28.3639C53.379 28.3018 53.3248 28.2295 53.3996 28.1864C53.4306 28.1687 54.2598 28.3551 54.3836 28.4083C54.7228 28.5529 55.6372 29.0207 56.175 29.0169C56.4755 29.0156 56.9759 28.9003 57.1951 28.7063C57.2364 28.6695 57.3202 28.5934 57.3241 28.5402C57.328 28.4958 57.3125 28.4299 57.3125 28.4299C57.3125 28.4299 57.257 28.4324 57.2106 28.4413C57.1474 28.4527 57.0043 28.5744 56.9063 28.6403C56.8521 28.6771 56.5129 28.7507 56.3994 28.7507C56.1698 28.7507 55.939 28.6974 55.7739 28.563C55.5482 28.3792 55.2516 27.9899 55.0311 27.8314C54.8195 27.6793 54.5436 27.6463 54.1683 27.5208C53.9387 27.4447 53.6124 27.2976 53.4306 27.1886C53.4112 27.1772 53.3171 27.1125 53.3674 27.0846C53.3751 27.0796 53.3893 27.0783 53.3906 27.0656C53.3906 27.0606 53.3906 27.0542 53.3906 27.0542C53.3906 27.0542 53.86 27.2127 54.2263 27.2609C54.492 27.2964 55.4386 27.1924 55.565 27.2317C55.7997 27.3027 56.0654 27.4942 56.2524 27.5309C56.3465 27.5487 56.3891 27.517 56.3697 27.427C56.3646 27.4054 56.362 27.4003 56.3452 27.3864C55.89 27.0225 55.5134 26.6333 54.9795 26.5673C54.8737 26.5547 54.4984 26.5711 54.4984 26.4799C54.4984 26.4444 54.6429 26.4 54.7435 26.3797C54.9782 26.3315 55.2219 26.381 55.4644 26.5128C55.792 26.6903 55.7907 26.7487 56.0615 26.812C56.2975 26.8678 56.7167 26.9388 56.9011 26.8235C56.963 26.7842 56.9462 26.6624 56.8959 26.6244C56.834 26.5775 56.6483 26.5648 56.5245 26.5242C56.4703 26.5065 56.4265 26.4849 56.3839 26.4583C56.1595 26.3188 55.8693 26.0348 55.6798 25.9486C55.2129 25.7369 54.8982 25.8852 54.5874 25.5125C54.5229 25.4364 54.5229 25.3755 54.5835 25.3502C54.6235 25.3337 54.8531 25.3844 54.9369 25.4275C55.1149 25.5201 55.4889 25.8332 55.6359 25.6709C55.7533 25.5404 55.3135 25.3629 55.1059 25.1575C55.053 25.1055 55.0053 25.0104 55.0491 24.9736C55.0633 24.9622 55.0878 24.966 55.1162 24.9736C55.3135 25.0294 55.7133 25.2931 55.9841 25.3831C56.1066 25.4237 56.2021 25.4288 56.3001 25.4833C56.4304 25.5556 56.8327 26.1147 57.0726 26.0044C57.2055 25.9423 57.0107 25.8066 56.9308 25.7343C56.8198 25.6342 56.6664 25.2982 56.5361 25.0903C56.3388 24.7745 56.1324 24.6338 55.8423 24.5197C55.7004 24.4639 55.5366 24.3752 55.4489 24.2978C55.2555 24.1267 55.1084 23.8376 54.9537 23.7222C54.8673 23.6575 54.768 23.6258 54.6364 23.5675C54.4275 23.4737 54.3798 23.442 54.4185 23.3634C54.4623 23.2759 54.5165 23.2734 54.6635 23.2784C54.6867 23.2784 54.6919 23.2797 54.7125 23.286C55.0904 23.4002 55.7791 23.5878 55.8436 23.6334C55.979 23.7285 56.0718 23.8617 56.2047 23.977C56.5374 24.2674 56.9372 24.4094 57.337 24.3752C57.4944 24.3625 57.7033 24.3384 57.6749 24.2205C57.6633 24.1698 57.6156 24.1241 57.5575 24.0874C57.3989 23.9859 57.0043 23.9289 56.8018 23.811C56.5387 23.6575 56.531 23.4838 56.4149 23.1935C56.3233 22.9627 56.1286 22.7485 55.9351 22.6027C55.6746 22.4074 55.3187 22.2464 55.0891 22.0486C55.0065 21.9776 54.679 21.6454 54.7899 21.5617C54.8105 21.5465 54.8505 21.5516 54.8918 21.5617C55.1136 21.615 55.5585 21.8977 55.9171 22.0156C56.184 22.1031 56.4923 22.1386 56.6496 22.2261C56.8624 22.3453 57.0907 22.6052 57.2467 22.6686C57.3048 22.6927 57.7484 22.803 57.8838 22.713C57.9664 22.6584 57.8813 22.5583 57.7948 22.5025C57.6659 22.4201 57.4827 22.3947 57.3654 22.3148C57.328 22.2895 57.297 22.2578 57.2699 22.2223C57.2067 22.1411 57.1603 22.0384 57.0894 21.9548C56.9669 21.8128 56.6148 21.6555 56.4923 21.5123C56.3904 21.3931 56.3504 21.2321 56.2563 21.1002C56.1054 20.891 55.694 20.6387 55.4566 20.5423C55.1381 20.413 54.6403 20.2735 54.6403 20.2735C54.6403 20.2735 54.6441 20.2178 54.6558 20.181C54.6854 20.0935 54.866 20.0745 54.9485 20.077C55.1807 20.0834 55.3728 20.2418 55.6127 20.3762C55.7649 20.4612 55.9854 20.5461 56.1312 20.5753C56.2691 20.6032 56.402 20.6083 56.5477 20.6412C57.1474 20.7782 57.3796 21.0457 57.7587 20.8289C57.8503 20.7769 57.8735 20.6945 57.791 20.6514C57.72 20.6146 57.5885 20.6247 57.4711 20.5956C57.337 20.5626 57.1087 20.3737 56.9411 20.2748C56.7502 20.162 56.4562 20.1391 56.1789 19.9984C56.1054 19.9604 55.4773 19.348 55.4644 19.3011C55.4515 19.2554 55.485 19.2161 55.5431 19.2351C55.6514 19.2694 55.819 19.438 55.9712 19.5344C56.2137 19.6865 56.6277 19.7233 56.9398 19.6675C57.181 19.6244 57.2596 19.5749 57.4131 19.5787C57.4879 19.5813 57.7639 19.684 57.8258 19.7334C57.8374 19.7423 58.1998 20.2013 58.2952 20.0986C58.303 20.091 58.3094 20.0796 58.3146 20.077C58.3185 20.0745 58.3223 20.077 58.3262 20.077C58.3455 20.0758 58.3339 19.9819 58.3146 19.9223C58.272 19.7943 57.9406 19.5179 57.8258 19.4456C57.2248 19.069 57.0713 19.1489 56.3672 19.0234C56.0551 18.9676 56.028 18.8193 55.7442 18.4947C55.6424 18.378 55.5327 18.2842 55.4141 18.2158C55.1652 18.0725 54.5951 17.9229 54.6867 17.7175C54.7138 17.6553 54.746 17.6693 54.8531 17.6718C54.8763 17.6718 54.8815 17.6731 54.9021 17.6807C55.4438 17.8481 56.0525 18.0978 56.4665 18.1054C56.9346 18.1143 57.2274 17.9939 57.515 18.1169C57.6814 18.1879 57.8761 18.3413 58.0554 18.4047C58.1959 18.4541 58.4448 18.5036 58.4165 18.3831C58.3868 18.2576 58.1315 18.1473 58.0051 18.0623C57.858 17.9634 57.7342 17.8075 57.6001 17.7073C57.4492 17.5958 57.0984 17.4664 56.8946 17.4411C56.7438 17.4221 56.6251 17.4499 56.4884 17.4195C56.3581 17.3891 55.8332 17.0201 55.5534 16.8553C55.4708 16.8071 55.396 16.7729 55.2722 16.7336C55.0246 16.655 54.581 16.5561 54.581 16.5561C54.581 16.5561 54.6996 16.4749 54.8105 16.4128C54.9911 16.3114 55.7262 16.1022 55.9029 16.1364C56.0809 16.1694 56.2382 16.3139 56.3646 16.2695C56.5065 16.2188 56.4897 16.1339 56.4097 16.0312C56.2498 15.8271 55.9996 15.6927 55.8242 15.6711C55.4928 15.6305 54.3694 15.7117 54.2805 15.6711C54.2637 15.6635 54.2482 15.6546 54.2315 15.6483C54.185 15.6305 54.1309 15.6318 54.078 15.6153C54.0264 15.6001 53.7465 15.3059 53.5647 15.1284C53.3519 14.9192 53.0785 14.8026 52.8373 14.7734C52.6722 14.7531 52.4556 14.757 52.266 14.7519C52.2428 14.7519 52.2389 14.7493 52.2234 14.7329C52.0261 14.5237 51.8197 14.2777 51.6276 14.1091C51.4432 13.9468 51.2729 13.8568 51.0072 13.6108C50.8538 13.47 50.6693 13.2773 50.6693 13.2773C50.6693 13.2773 50.4785 13.8212 50.4269 14.0545C50.4114 14.1243 50.4088 14.1674 50.4269 14.2206C50.5197 14.4894 50.6629 14.5351 50.4901 14.6745C50.3521 14.7861 50.2167 14.7772 50.0129 14.7379C49.7537 14.6872 49.243 14.4159 48.9515 14.3538C48.8199 14.3259 48.6394 14.3183 48.4782 14.3322C48.1919 14.3563 47.7211 14.4451 47.7211 14.4451C47.7211 14.4451 47.7882 14.5122 47.8578 14.5541C47.9778 14.6264 48.2228 14.6137 48.3428 14.6758C48.3969 14.7037 48.406 14.7329 48.3608 14.7646C48.2138 14.8673 47.7972 14.7684 47.6554 14.776C47.5754 14.7798 47.173 14.8825 47.0918 14.975C47.0724 14.9966 47.0698 15.0207 47.0969 15.0435C47.106 15.0511 47.1098 15.0524 47.133 15.0498C47.3368 15.0346 47.6154 14.9915 47.7456 15.008C48.0165 15.0397 48.4898 15.2565 48.669 15.2628C48.7593 15.2666 48.8935 15.254 48.8947 15.3136C48.8947 15.3288 48.8818 15.3465 48.8612 15.3643C48.8122 15.4074 48.7219 15.4581 48.7477 15.4949C48.7529 15.5025 48.7658 15.505 48.7812 15.5063C48.9373 15.519 49.0998 15.4581 49.1308 15.5545C49.1359 15.5735 49.1424 15.5988 49.1424 15.5988C49.1424 15.5988 48.6587 15.7789 48.3312 15.9374C47.9546 16.1199 47.7843 16.2746 47.5315 16.4242C47.351 16.532 46.1748 17.0569 45.7518 17.1444C45.165 17.2648 44.8645 17.2192 44.5575 17.5146C44.328 17.7352 43.9514 18.3907 43.9153 18.728C43.8985 18.8865 43.9449 19.2706 44.0172 19.3886C44.0649 19.4659 44.1229 19.4811 44.2196 19.4811C44.3512 19.4811 44.9238 19.3784 45.076 19.3264C45.2888 19.2529 45.5841 19.0957 45.6731 19.2554C45.7569 19.4063 45.3546 19.5268 45.1998 19.5584C44.9496 19.6117 44.5704 19.6421 44.6027 19.8349C44.6298 19.9984 44.9161 20.0884 45.0644 20.1011C45.1727 20.11 45.2862 20.1113 45.4023 20.0897C45.6692 20.0428 46.011 19.8551 46.2806 19.7905C46.3953 19.7638 46.5965 19.7588 46.7423 19.7791C47.2775 19.8551 48.3673 20.1632 48.6355 20.1772C48.8973 20.1911 49.1785 20.1569 49.4506 20.1455C49.4738 20.1455 49.4777 20.1455 49.4944 20.1607C49.7833 20.4232 49.6118 20.7148 49.4467 21.1408C49.3255 21.4539 48.7632 22.6356 48.6355 22.8461C48.522 23.0337 48.406 23.2036 48.2744 23.3849C48.1132 23.6081 47.4735 24.3435 47.3458 24.4525C47.1279 24.6389 46.9809 24.7289 46.7758 24.9888C46.4069 25.4579 46.2935 25.8244 45.8176 26.1033C45.5983 26.2314 45.2798 26.3138 45.0399 26.4139C44.8838 26.4799 44.7149 26.58 44.5034 26.7347C44.1951 26.9604 43.7321 27.3281 43.7321 27.3281C43.7321 27.3281 41.6338 26.0133 41.541 25.903C41.4791 25.8294 41.4365 25.761 41.3772 25.6874C41.0122 25.2285 40.4925 24.9356 39.9237 24.8519C39.0725 24.7251 38.6405 25.5137 38.1994 26.2643C37.8796 26.8095 37.454 27.4942 37.2528 27.8872C37.1135 28.1585 36.9936 28.4311 36.8465 28.7063C36.5383 29.2844 36.1088 29.874 35.8096 30.4002C35.7387 30.5244 35.6755 30.6461 35.6407 30.7767C35.5788 31.0075 35.6084 31.2674 35.5388 31.5083C35.4717 31.7441 35.3002 31.9736 35.2125 32.1841C35.1596 32.3109 35.1313 32.4592 35.1029 32.6849C35.0706 32.9448 35.0319 33.3252 35.0319 33.3252L35.0371 33.3277ZM49.212 14.0127C49.203 14.0419 49.2236 14.0913 49.2455 14.1306C49.3332 14.2853 49.7524 14.5097 49.9781 14.5452C50.129 14.5693 50.2025 14.5427 50.1922 14.3791C50.1883 14.3094 50.1586 14.2523 50.1251 14.1915C49.9897 13.9442 49.5705 13.3166 49.5267 13.2938C49.4893 13.2748 49.4635 13.5956 49.359 13.7655C49.3062 13.8504 49.2339 13.9455 49.212 14.0152V14.0127Z" fill="white"/>
<path fill-rule="evenodd" clip-rule="evenodd" d="M53.0797 15.5734C53.1055 15.6583 52.9559 15.638 52.934 15.6342C52.8411 15.619 52.4271 15.5214 52.5161 15.368C52.5961 15.2298 52.8295 15.283 52.9159 15.3527C52.9727 15.3984 53.0552 15.4935 53.0797 15.5746V15.5734Z" fill="white"/>
<path fill-rule="evenodd" clip-rule="evenodd" d="M53.5286 16.5307C53.5312 16.5472 53.5041 16.5687 53.4809 16.5802C53.3816 16.6309 52.9998 16.4787 52.956 16.3963C52.9044 16.3 52.9908 16.2416 53.103 16.2251C53.2513 16.2036 53.3467 16.2657 53.4525 16.3963C53.486 16.4381 53.5234 16.4914 53.5299 16.5294L53.5286 16.5307Z" fill="white"/>
<path fill-rule="evenodd" clip-rule="evenodd" d="M50.3418 16.6031C50.3456 16.617 50.3327 16.6436 50.3199 16.6589C50.2554 16.7286 50.178 16.5625 50.1238 16.5143C50.0697 16.4661 49.9974 16.4471 49.9213 16.4281C49.8414 16.4091 49.6892 16.3774 49.7111 16.2988C49.7253 16.2506 49.813 16.2354 49.8685 16.2366C50.0942 16.243 50.2812 16.3558 50.3418 16.6018V16.6031Z" fill="white"/>
<path fill-rule="evenodd" clip-rule="evenodd" d="M46.5824 17.4247C46.5695 17.4247 46.5566 17.4323 46.545 17.4234C46.5269 17.4094 46.5115 17.3613 46.5115 17.3613C46.5115 17.3613 46.8584 17.2357 47.1086 17.147C47.3511 17.0608 47.7173 16.8896 47.8179 16.8148C47.8979 16.7565 48.2487 16.4408 48.3312 16.5004C48.4241 16.5663 48.2577 16.7552 48.1623 16.8592C47.7638 17.2941 47.3975 17.3182 46.6263 17.4209C46.603 17.4234 46.5992 17.4247 46.5824 17.4259V17.4247Z" fill="white"/>
<path fill-rule="evenodd" clip-rule="evenodd" d="M49.2831 17.0571V17.0685L49.167 17.0596C49.1438 17.0584 49.1399 17.0571 49.1283 17.0457C49.0084 16.948 49.1631 16.749 49.2663 16.6805C49.3695 16.6121 49.6674 16.555 49.7693 16.5804C49.9963 16.6374 50.2632 17.014 50.2091 17.2447C50.1807 17.369 50.0904 17.4438 49.995 17.4108C49.8931 17.3766 49.737 17.1801 49.63 17.09C49.5836 17.0507 49.5242 17.0317 49.4546 17.0343C49.3849 17.0381 49.2856 17.0558 49.2856 17.0558L49.2831 17.0571Z" fill="white"/>
<path fill-rule="evenodd" clip-rule="evenodd" d="M53.1403 17.3347L54.0908 17.4209C54.114 17.4235 54.1179 17.4247 54.1373 17.4374C54.2082 17.4869 54.2572 17.5135 54.2288 17.5452C54.1656 17.6149 53.8277 17.5807 53.7787 17.5896C53.624 17.6175 53.1016 18.0168 53.0346 17.7227C53.0178 17.6466 53.041 17.4894 53.0797 17.4235C53.1029 17.3842 53.1403 17.3347 53.1403 17.3347Z" fill="white"/>
<path fill-rule="evenodd" clip-rule="evenodd" d="M44.978 18.3755C45.0218 18.4655 44.9599 18.5226 44.898 18.5517C44.8284 18.586 44.7407 18.6253 44.6684 18.6849C44.4956 18.8281 44.3602 19.0754 44.2802 18.8395C44.2274 18.6849 44.386 18.2119 44.6065 18.1638C44.7523 18.1321 44.9006 18.2132 44.978 18.3742V18.3755Z" fill="white"/>
<path fill-rule="evenodd" clip-rule="evenodd" d="M54.0831 18.6518C54.0972 18.6822 54.056 18.7139 54.0418 18.7177C53.9889 18.7342 53.7335 18.6784 53.7013 18.6683C53.6317 18.6455 53.4434 18.5719 53.4859 18.492C53.5375 18.3944 53.7439 18.3767 53.8122 18.3957C53.9257 18.4286 54.025 18.525 54.0831 18.6505V18.6518Z" fill="white"/>
<path fill-rule="evenodd" clip-rule="evenodd" d="M50.3367 18.6936L49.7332 19.4302C49.719 19.448 49.7151 19.4505 49.6945 19.4606C49.6519 19.4809 49.6119 19.5012 49.5642 19.5164C49.4198 19.5621 49.1348 19.5557 49.029 19.4949C48.9748 19.4632 49.0019 19.4175 49.0612 19.3731C49.216 19.2578 49.4984 19.1893 49.7383 19.0295C49.9756 18.8723 50.191 18.6226 50.3032 18.5871C50.3535 18.5706 50.3574 18.5909 50.3535 18.6505C50.3522 18.6733 50.3509 18.6771 50.3354 18.6948L50.3367 18.6936Z" fill="white"/>
<path fill-rule="evenodd" clip-rule="evenodd" d="M46.5333 18.9475C46.5823 19.0439 46.4289 19.1732 46.3644 19.1948C46.2844 19.2214 46.1916 19.1491 46.207 19.0502C46.2225 18.945 46.3592 18.8474 46.4546 18.8841C46.4882 18.8968 46.5217 18.9247 46.5333 18.9463V18.9475Z" fill="white"/>
<path fill-rule="evenodd" clip-rule="evenodd" d="M51.1982 19.2174C51.224 19.3721 51.1002 19.5483 50.9957 19.6054C50.9273 19.6421 50.5495 19.7791 50.4656 19.7385C50.4514 19.7309 50.4502 19.7182 50.454 19.7004C50.4643 19.6624 51.1569 19.1565 51.175 19.173C51.1879 19.1857 51.1956 19.2047 51.1969 19.2174H51.1982Z" fill="white"/>
<path fill-rule="evenodd" clip-rule="evenodd" d="M54.1502 19.4608C54.1773 19.5597 54.0947 19.5673 54.0148 19.5496C53.8793 19.5192 53.4421 19.4228 53.5079 19.2833C53.5763 19.1401 53.8432 19.1527 53.9412 19.2275C53.989 19.263 54.0406 19.3163 54.0934 19.3772C54.1179 19.4051 54.1424 19.4368 54.1502 19.4608Z" fill="white"/>
<path fill-rule="evenodd" clip-rule="evenodd" d="M51.4341 19.6484C51.4909 19.7638 51.3284 19.9476 51.26 20.0034C51.2355 20.0237 51.2136 20.0364 51.1852 20.0478C51.1207 20.0744 50.472 20.0921 50.3856 20.0693C50.3327 20.0566 50.3186 20.0364 50.3637 19.992C50.423 19.9324 50.8409 19.8842 51.0627 19.7955C51.1736 19.7511 51.2497 19.6839 51.3787 19.6484C51.4019 19.642 51.4277 19.637 51.4328 19.6484H51.4341Z" fill="white"/>
<path fill-rule="evenodd" clip-rule="evenodd" d="M54.2521 20.3242H54.2405V20.3357C54.2405 20.3357 54.1812 20.3357 54.1283 20.3357C53.9813 20.3331 53.4551 20.2139 53.5647 20.0212C53.6395 19.8906 53.8987 19.8919 54.02 19.973C54.0845 20.0162 54.1541 20.1049 54.207 20.162C54.2289 20.186 54.2469 20.2038 54.2521 20.2456C54.256 20.2773 54.2521 20.323 54.2521 20.323V20.3242Z" fill="white"/>
<path fill-rule="evenodd" clip-rule="evenodd" d="M54.2406 21.1992C54.2664 21.288 54.1425 21.2804 54.0948 21.2702C54.011 21.2525 53.4332 21.1434 53.5416 20.9596C53.6344 20.8024 53.8988 20.8303 54.0097 20.9114C54.1155 20.9887 54.207 21.0813 54.2406 21.1992Z" fill="white"/>
<path fill-rule="evenodd" clip-rule="evenodd" d="M54.2857 22.1512C54.3077 22.1905 54.2561 22.2361 54.2445 22.24C54.1245 22.2805 53.5803 22.0574 53.5584 22.0447C53.45 21.98 53.4126 21.9141 53.5235 21.819C53.637 21.7214 53.8692 21.7328 53.9917 21.7975C54.1052 21.8558 54.2006 22.0003 54.2844 22.1525L54.2857 22.1512Z" fill="white"/>
<path fill-rule="evenodd" clip-rule="evenodd" d="M51.1079 22.0524C51.1143 22.107 51.113 22.1919 51.1079 22.2743C51.1001 22.3922 50.9092 23.0667 50.8486 23.1897C50.6526 23.5866 50.2592 24.1445 49.9136 24.54C49.6415 24.8519 49.3732 25.1068 49.3281 25.0104C49.3152 24.9838 49.8943 24.0722 50.218 23.5701C50.3431 23.3774 50.4269 23.2126 50.4888 23.0389C50.6835 22.4823 50.7055 22.1057 50.917 21.8153C50.9557 21.7621 51.024 21.738 51.055 21.7951C51.0808 21.842 51.1014 21.9878 51.1079 22.0537V22.0524Z" fill="white"/>
<path fill-rule="evenodd" clip-rule="evenodd" d="M54.1167 23.0046C54.1347 23.0427 54.087 23.0794 54.0754 23.082C53.989 23.1035 53.6279 22.9907 53.5866 22.9717C53.4228 22.8918 53.3364 22.8043 53.4783 22.7054C53.6485 22.5875 53.8987 22.6762 54.0148 22.8322C54.0561 22.888 54.0947 22.9602 54.1167 23.0046Z" fill="white"/>
<path fill-rule="evenodd" clip-rule="evenodd" d="M53.9696 23.7691C54.0095 23.8692 53.8574 23.8527 53.8122 23.8464C53.6858 23.8286 53.335 23.7285 53.3956 23.5877C53.4472 23.4673 53.6678 23.4724 53.7671 23.5256C53.8122 23.5497 53.936 23.6841 53.9696 23.7691Z" fill="white"/>
<path fill-rule="evenodd" clip-rule="evenodd" d="M53.7335 24.577C53.6006 24.563 53.4252 24.5351 53.3388 24.4388C53.2885 24.3817 53.3221 24.317 53.4291 24.2892C53.4975 24.2714 53.5787 24.2955 53.6393 24.3335C53.7012 24.3728 53.776 24.4679 53.7786 24.511C53.7786 24.5262 53.776 24.5415 53.7593 24.5478C53.749 24.5516 53.7322 24.5554 53.7335 24.5655C53.7335 24.5706 53.7361 24.577 53.7335 24.577Z" fill="white"/>
<path fill-rule="evenodd" clip-rule="evenodd" d="M53.5751 25.2082C53.5867 25.2323 53.5622 25.2564 53.548 25.264C53.4525 25.3083 53.2165 25.2018 53.1688 25.127C53.143 25.0865 53.1572 25.0472 53.2088 25.0205C53.3429 24.9546 53.5106 25.07 53.5738 25.2082H53.5751Z" fill="white"/>
<path fill-rule="evenodd" clip-rule="evenodd" d="M40.1223 25.496C40.1223 25.496 40.1184 25.5416 40.1107 25.5695C40.1004 25.6088 40.0836 25.6126 40.0578 25.6177C39.8321 25.6684 39.6825 25.6912 39.5664 25.6202C39.5007 25.5797 39.5432 25.5201 39.6309 25.463C39.7715 25.3705 39.974 25.3147 40.0888 25.4579C40.0952 25.4655 40.1004 25.4732 40.1042 25.482C40.1094 25.4934 40.1107 25.496 40.1133 25.496H40.121H40.1223Z" fill="white"/>
<path fill-rule="evenodd" clip-rule="evenodd" d="M53.3957 25.7838C53.4035 25.799 53.3983 25.832 53.3841 25.8497C53.3428 25.9068 53.1146 25.8066 53.0617 25.7724C53.0114 25.7394 52.9817 25.7014 53.0011 25.6583C53.0501 25.5467 53.2087 25.5797 53.2771 25.6393C53.3209 25.6773 53.3738 25.742 53.3957 25.7838Z" fill="white"/>
<path fill-rule="evenodd" clip-rule="evenodd" d="M53.1134 26.3645C53.1546 26.419 53.165 26.4672 53.1056 26.4824C53.0579 26.4938 52.8722 26.4393 52.8425 26.3861C52.8051 26.3176 52.8954 26.2796 52.9547 26.2821C53.0115 26.2846 53.0721 26.3113 53.1121 26.3645H53.1134Z" fill="white"/>
<path fill-rule="evenodd" clip-rule="evenodd" d="M48.8315 27.0021C48.856 27.0376 48.8109 27.0769 48.8044 27.0795C48.7142 27.1226 48.6342 27.0389 48.4601 26.9464C48.228 26.8234 47.6411 26.7676 47.4683 26.7587C47.3342 26.7511 46.7629 26.8234 46.679 26.8589C46.5204 26.9261 46.2715 27.0693 46.3179 26.8373C46.3734 26.5635 47.2117 26.4671 47.4 26.4608C47.8488 26.4468 48.3195 26.5444 48.7026 26.8703C48.7541 26.9134 48.8044 26.9654 48.8315 27.0034V27.0021Z" fill="white"/>
<path fill-rule="evenodd" clip-rule="evenodd" d="M38.5553 26.7816C38.5579 26.8032 38.5592 26.8362 38.5553 26.8704C38.5501 26.9236 38.0059 27.7668 37.8795 27.9164C37.7931 28.0191 37.6577 28.17 37.5984 28.0724C37.5249 27.9519 37.7312 27.5893 37.8008 27.4676C37.8718 27.3433 38.1994 26.6891 38.4096 26.6701C38.4973 26.6625 38.5424 26.6789 38.5566 26.7804L38.5553 26.7816Z" fill="white"/>
<path fill-rule="evenodd" clip-rule="evenodd" d="M52.8658 26.9983C52.8825 27.03 52.8529 27.0617 52.8361 27.068C52.7845 27.0871 52.6401 27.0402 52.6181 26.9907C52.6065 26.9641 52.6233 26.9286 52.6594 26.9134C52.711 26.8905 52.8284 26.9286 52.8658 26.9983Z" fill="white"/>
<path fill-rule="evenodd" clip-rule="evenodd" d="M41.2211 28.2982C41.0096 28.1029 40.7246 27.7796 40.6962 27.5565C40.682 27.4436 40.7156 27.403 40.8136 27.4347C40.9722 27.4867 41.4765 28.0788 41.3836 28.2614C41.3785 28.2728 41.2843 28.3578 41.2211 28.2994V28.2982Z" fill="white"/>
<path fill-rule="evenodd" clip-rule="evenodd" d="M52.6066 27.6006C52.6247 27.6311 52.5886 27.6627 52.577 27.6666C52.5228 27.6868 52.3926 27.6463 52.3706 27.5816C52.3539 27.5322 52.4183 27.4929 52.4725 27.5005C52.5189 27.5068 52.5783 27.5512 52.6079 27.6006H52.6066Z" fill="white"/>
<path fill-rule="evenodd" clip-rule="evenodd" d="M43.8481 28.3412L42.8215 29.784C42.8086 29.8018 42.8061 29.8043 42.7945 29.8056C42.6397 29.8233 42.8796 29.3834 42.9492 29.2502C43.1556 28.8559 43.3207 28.4832 43.6186 28.2752C43.6998 28.2194 43.8649 28.1358 43.8726 28.2271C43.8739 28.2461 43.8701 28.2727 43.8662 28.2943C43.8623 28.3158 43.8597 28.3209 43.8468 28.3399L43.8481 28.3412Z" fill="white"/>
<path fill-rule="evenodd" clip-rule="evenodd" d="M38.5336 29.6496C38.5388 29.6623 38.5375 29.6839 38.5336 29.7054C38.522 29.7751 38.3544 30.0642 38.2563 30.0934C38.179 30.1162 38.1674 30.0313 38.1854 29.9488C38.2125 29.8208 38.2886 29.6484 38.4111 29.5938C38.4666 29.5697 38.5117 29.5875 38.5349 29.6496H38.5336Z" fill="white"/>
<path fill-rule="evenodd" clip-rule="evenodd" d="M36.2003 30.4028C36.2222 30.5334 36.0288 30.9315 35.9475 30.9784C35.8985 31.0063 35.8482 30.9949 35.8276 30.9492C35.7502 30.773 35.9617 30.4383 36.1048 30.3584C36.1074 30.3584 36.1887 30.3394 36.199 30.4028H36.2003Z" fill="white"/>
<path fill-rule="evenodd" clip-rule="evenodd" d="M53.7076 34.6719C53.7321 34.701 53.5954 34.6744 53.4845 34.6338C53.2137 34.5337 52.3341 33.726 52.2451 33.6322C51.7808 33.144 51.2624 32.1094 51.1528 31.3779C51.1089 31.0863 51.0999 30.787 51.3333 30.8352C51.3785 30.8441 51.403 30.8694 51.4236 30.9062C51.4932 31.0292 51.568 31.6771 51.6828 32.0866C51.7963 32.4923 52.1935 33.1339 52.4721 33.4547C52.8229 33.8579 53.4265 34.3447 53.7089 34.6731L53.7076 34.6719Z" fill="white"/>
<path fill-rule="evenodd" clip-rule="evenodd" d="M41.7214 31.9304C41.7318 31.9837 41.6853 32.0242 41.6724 32.0306C41.6428 32.0432 41.608 32.0458 41.5641 32.042C41.4996 32.0356 40.0358 31.2724 40.0204 31.2369C40.0062 31.2026 40.0139 31.1519 40.0694 31.1228C40.2344 31.034 40.9012 31.3751 41.0676 31.4664C41.0869 31.4765 41.5963 31.7516 41.6879 31.8695C41.7034 31.8898 41.7189 31.9139 41.7214 31.9317V31.9304Z" fill="white"/>
<path fill-rule="evenodd" clip-rule="evenodd" d="M38.2898 32.2804C38.2924 32.3311 38.2846 32.4059 38.2846 32.4845C38.2859 32.7419 38.54 33.7258 38.5103 33.7955C38.4949 33.8323 38.4523 33.8589 38.3904 33.8247C38.3001 33.7752 38.1531 33.4773 38.1273 33.4037C38.0693 33.2452 37.9609 32.4021 38.0705 32.1637C38.095 32.1092 38.1492 32.0813 38.2124 32.1194C38.2408 32.1358 38.2859 32.2106 38.2898 32.2804Z" fill="white"/>
<path fill-rule="evenodd" clip-rule="evenodd" d="M35.6148 32.6506C35.6432 32.78 35.5671 33.0437 35.4755 33.1046C35.4098 33.1489 35.3427 33.0564 35.3221 32.9714C35.3001 32.8789 35.3427 32.5213 35.491 32.5289C35.5465 32.5315 35.6006 32.5847 35.6148 32.6506Z" fill="white"/>
<path fill-rule="evenodd" clip-rule="evenodd" d="M49.1178 38.2777C49.1306 38.3018 49.0558 38.2942 48.9888 38.2777C48.9127 38.2587 48.6083 38.0698 48.509 37.9785C48.1492 37.6501 47.5882 37.2546 47.1755 36.8983C46.9756 36.7258 46.8105 36.5623 46.6351 36.3784C46.5668 36.3062 45.1907 34.8012 45.0578 34.3004C45.032 34.2027 45.0424 34.1279 45.1365 34.1457C45.1778 34.1533 45.2165 34.1812 45.2552 34.2116C45.428 34.3498 46.5926 35.8332 47.2039 36.4824C47.5456 36.845 48.2201 37.3699 48.7992 37.9151C48.9295 38.0381 49.07 38.1839 49.119 38.2765L49.1178 38.2777Z" fill="white"/>
<path fill-rule="evenodd" clip-rule="evenodd" d="M63.232 35.1472C63.232 35.1332 63.2553 35.118 63.2733 35.1091C63.4719 35.0077 63.5106 35.9891 63.5132 36.1615C63.5287 37.1606 63.4358 38.0316 62.8142 38.7366C62.6478 38.9255 62.0017 39.5683 61.7554 39.6609C61.7231 39.6735 61.6935 39.6799 61.6728 39.6596C61.6651 39.652 61.6599 39.6406 61.6535 39.6393C61.6496 39.638 61.6444 39.6393 61.6419 39.6393C61.6328 39.638 61.6419 39.6051 61.6535 39.5734C61.6922 39.4681 62.3512 38.8355 62.6336 38.483C63.0412 37.9746 63.2475 37.0439 63.2643 36.429C63.2772 35.9954 63.2282 35.4692 63.2308 35.1484L63.232 35.1472Z" fill="white"/>
<path fill-rule="evenodd" clip-rule="evenodd" d="M53.6769 37.1037C53.6833 37.1214 53.6704 37.1506 53.655 37.1772C53.5995 37.2685 53.103 37.5309 53.0243 37.64C52.8657 37.8593 52.9611 38.3639 52.7083 38.2562C52.3859 38.118 52.6464 37.5119 52.9263 37.271C53.072 37.1455 53.4796 36.9642 53.6085 37.039C53.6382 37.0555 53.6691 37.0834 53.6756 37.1049L53.6769 37.1037Z" fill="white"/>
<path fill-rule="evenodd" clip-rule="evenodd" d="M40.2563 38.166C40.2563 38.166 40.2486 38.218 40.2344 38.2497C40.2048 38.3131 40.0964 38.3232 40.0539 38.3093C39.9546 38.2776 39.8062 38.0417 39.7727 37.9441C39.7572 37.901 39.7495 37.8528 39.7727 37.83C39.7804 37.8224 39.7921 37.8173 39.7946 37.811C39.7959 37.8072 39.7946 37.8034 39.7946 37.7996C39.7972 37.7856 39.8449 37.7882 39.8849 37.7996C39.9752 37.8249 40.2254 38.0088 40.2434 38.1444C40.246 38.1635 40.246 38.166 40.2499 38.166H40.2576H40.2563Z" fill="white"/>
<path fill-rule="evenodd" clip-rule="evenodd" d="M58.285 40.8462C58.3237 41.2722 58.1715 41.773 57.9807 42.0152C57.902 42.1141 57.7911 42.1686 57.733 42.0697C57.7098 42.0304 57.7111 41.9632 57.7214 41.8985C57.7498 41.7363 57.8427 41.5955 57.8685 41.4218C57.9175 41.0846 57.7111 40.6522 57.9807 40.5242C58.0696 40.4823 58.1947 40.5736 58.2515 40.708C58.2696 40.7524 58.2824 40.8107 58.285 40.8449V40.8462Z" fill="white"/>
<path fill-rule="evenodd" clip-rule="evenodd" d="M52.4375 42.961C52.395 43.1563 52.2467 43.4796 52.2015 43.7256C52.1809 43.8397 52.1822 43.9373 52.1899 44.0463C52.2041 44.2327 52.2467 44.5142 52.1564 44.5776C52.0597 44.6461 51.981 44.4825 51.9423 44.3113C51.8443 43.8739 51.843 43.4618 52.0326 43.1538C52.0958 43.0511 52.2815 42.8216 52.3859 42.8824C52.413 42.8976 52.444 42.9369 52.4388 42.9598L52.4375 42.961Z" fill="white"/>
<path fill-rule="evenodd" clip-rule="evenodd" d="M50.7817 46.8195V46.8271C50.7817 46.8271 50.7275 46.8271 50.6965 46.8157C50.6011 46.784 50.703 46.6711 50.7546 46.628C50.8229 46.5684 50.9854 46.4924 51.019 46.6394C51.0215 46.6496 51.0215 46.661 51.0202 46.6711C51.019 46.6851 51.0164 46.6889 50.9983 46.7028C50.9132 46.7662 50.9003 46.7751 50.8062 46.8081C50.7842 46.8157 50.7817 46.8169 50.7817 46.8195Z" fill="white"/>
<path fill-rule="evenodd" clip-rule="evenodd" d="M45.9581 47.0258C45.9749 47.0524 45.9452 47.0841 45.931 47.0918C45.8678 47.126 45.7234 47.126 45.6769 47.0803C45.6047 47.0106 45.6886 46.984 45.7556 46.97C45.8536 46.9485 45.913 46.9497 45.9581 47.0258Z" fill="white"/>
<path fill-rule="evenodd" clip-rule="evenodd" d="M49.2015 47.1478C49.266 47.1998 49.2312 47.2493 49.1873 47.281C49.0493 47.3786 48.3529 47.3748 48.2007 47.3811C47.7674 47.3963 47.3908 47.4052 47.0181 47.2264C46.9678 47.2023 46.8607 47.1111 46.9059 47.035C46.9123 47.0248 46.9226 47.0147 46.9317 47.0071C46.9446 46.9957 46.9497 46.9944 46.9716 46.9969C47.4604 47.0489 48.113 47.1402 48.438 47.1491C48.6831 47.1567 48.9216 47.144 49.1628 47.139C49.186 47.139 49.1899 47.1389 49.2015 47.1504V47.1478Z" fill="white"/>
<path fill-rule="evenodd" clip-rule="evenodd" d="M42.8371 47.1921C42.8822 47.2897 42.6991 47.4152 42.6449 47.4355C42.5392 47.4761 42.4798 47.4507 42.4025 47.3911C42.3006 47.3125 42.3264 47.2377 42.4424 47.1806C42.5108 47.1477 42.7455 47.116 42.7803 47.1363C42.8061 47.1515 42.8281 47.1743 42.8371 47.1921Z" fill="white"/>
<path fill-rule="evenodd" clip-rule="evenodd" d="M54.6906 49.8279C54.6906 49.8279 54.6945 49.8571 54.6906 49.8837C54.6842 49.9281 54.6107 50.0143 54.5668 50.0282C54.5513 50.0333 54.5359 50.0358 54.5333 50.0498C54.5333 50.0548 54.5333 50.0612 54.5333 50.0612H54.4791C54.4559 50.0612 54.452 50.0612 54.443 50.0536C54.3811 50.0105 54.3953 49.8926 54.4095 49.8621C54.4494 49.7746 54.5965 49.7087 54.661 49.7911C54.6661 49.7987 54.6726 49.8063 54.6751 49.8152C54.679 49.8266 54.6803 49.8279 54.6842 49.8279H54.6919H54.6906Z" fill="white"/>
<path fill-rule="evenodd" clip-rule="evenodd" d="M53.2824 50.438C53.0618 50.7081 51.8366 51.9671 51.5851 52.0216C51.5542 52.0279 51.5129 52.0279 51.5026 51.9924C51.4833 51.9303 51.6019 51.768 51.6367 51.7236C51.7206 51.6133 52.9574 50.4697 53.0283 50.438C53.076 50.4164 53.1805 50.3632 53.2269 50.3822C53.254 50.3936 53.2953 50.4228 53.2837 50.438H53.2824Z" fill="white"/>
<path fill-rule="evenodd" clip-rule="evenodd" d="M50.4321 52.582V52.5744C50.4321 52.5744 50.4798 52.568 50.5108 52.5744C50.5688 52.5858 50.5843 52.6783 50.5675 52.7227C50.5366 52.8038 50.3354 52.9256 50.2632 52.9408C50.178 52.9585 50.1471 52.9091 50.1729 52.8191C50.2025 52.7138 50.2954 52.6758 50.4115 52.5997C50.4308 52.587 50.4321 52.5858 50.4321 52.582Z" fill="white"/>
<path fill-rule="evenodd" clip-rule="evenodd" d="M48.3942 54.968L48.2484 54.9756C48.2252 54.9769 48.2214 54.9756 48.2059 54.9655C48.1878 54.9528 48.1685 54.9325 48.1607 54.9135C48.1556 54.9021 48.1556 54.9008 48.1517 54.9008H48.144C48.144 54.9008 48.1375 54.8285 48.144 54.7791C48.1556 54.6853 48.3581 54.4596 48.3968 54.4241C48.5296 54.3024 48.745 54.2491 48.7862 54.4685C48.8159 54.6232 48.6973 54.5889 48.5438 54.6789C48.5244 54.6903 48.5115 54.7018 48.5038 54.7195C48.4857 54.7626 48.5038 54.8387 48.4819 54.8894C48.4716 54.9122 48.4522 54.93 48.4354 54.9477C48.42 54.9642 48.4161 54.9667 48.3929 54.968H48.3942Z" fill="white"/>
<path fill-rule="evenodd" clip-rule="evenodd" d="M73.5366 15.6103C73.5482 14.2904 73.565 12.9705 73.5856 11.6507L49.9547 7.47803L26.4167 11.6633V12.452C26.4309 13.4485 26.4464 14.5009 26.4619 15.5697L27.4524 15.1335C42.2166 8.63688 57.5445 8.61532 72.2959 15.0689L73.5366 15.6115V15.6103Z" fill="#797E88"/>
<path fill-rule="evenodd" clip-rule="evenodd" d="M8.85083 93.2016V91.5021H9.81269C10.2914 91.5021 11.2533 91.4062 11.2533 90.2733V80.0633C11.2533 79.4489 11.2045 77.9848 10.0033 77.9848H8.89959L10.1496 75.8103H84.1062V77.9848H16.0625C15.4376 77.9848 14.622 78.1286 14.622 79.3574V82.5733C14.7682 82.9524 15.3445 83.0919 15.6326 83.0919C15.9207 83.0919 16.9313 83.044 16.9313 81.4839H18.3719V86.7305H16.9313C16.9313 86.2599 16.3994 85.4668 15.6813 85.4058C15.1051 85.3579 14.622 85.5496 14.622 86.3035V90.2733C14.622 90.7003 15.1494 91.5021 16.3994 91.5021H17.2638V93.2016H8.85083Z" fill="#797E88"/>
<path fill-rule="evenodd" clip-rule="evenodd" d="M51.5317 80.4426C51.5317 80.8217 52.0105 81.2008 52.303 81.2923C52.6399 81.057 54.4173 80.0635 55.8136 80.0635C57.2098 80.0635 57.9279 80.7738 57.9279 81.8588V87.0575H54.5636V83.0397C54.5636 82.5212 54.4173 82.1421 53.9386 82.0941C53.4599 82.0462 52.2099 83.0397 51.873 83.5104V90.6961C51.873 91.3584 52.5468 91.8291 53.123 91.8291V93.2017H47.2588V91.7855C47.835 91.7855 48.46 91.5981 48.5088 90.744V82.7565C48.5088 82.5212 48.1231 81.8588 47.2588 81.8588V80.4426H51.5362H51.5317Z" fill="#797E88"/>
<path fill-rule="evenodd" clip-rule="evenodd" d="M91.779 80.4426H85.9148V81.8589C86.7791 81.8589 87.1648 82.5212 87.1648 82.7565V90.744C87.116 91.5938 86.491 91.7855 85.9148 91.7855V93.2017H91.779V91.8291C91.2028 91.8291 90.5291 91.3585 90.5291 90.6961V82.8524C90.5291 82.2859 91.154 81.8589 91.779 81.8589V80.4426Z" fill="#797E88"/>
<path fill-rule="evenodd" clip-rule="evenodd" d="M38.5532 80.4426C38.5532 80.8217 39.0319 81.2008 39.3245 81.2923C39.6614 81.057 41.4388 80.0635 42.835 80.0635C44.2313 80.0635 44.9494 80.7738 44.9494 81.8588V87.0575H41.5851V83.0397C41.5851 82.5212 41.4388 82.1421 40.9601 82.0941C40.4814 82.0462 39.2314 83.0397 38.8945 83.5104V90.6961C38.8945 91.3584 39.5683 91.8291 40.1445 91.8291V93.2017H34.2803V91.7855C34.8565 91.7855 35.4815 91.5981 35.5302 90.744V82.7565C35.5302 82.5212 35.1446 81.8588 34.2803 81.8588V80.4426H38.5577H38.5532Z" fill="#797E88"/>
<path fill-rule="evenodd" clip-rule="evenodd" d="M77.5505 80.4426C77.5505 80.8217 78.0293 81.2008 78.3218 81.2923C78.6587 81.057 80.4361 80.0635 81.8324 80.0635C83.2286 80.0635 83.9467 80.7738 83.9467 81.8588V87.0575H80.5824V83.0397C80.5824 82.5212 80.4361 82.1421 79.9574 82.0941C79.4787 82.0462 78.2287 83.0397 77.8918 83.5104V90.6961C77.8918 91.3584 78.5656 91.8291 79.1418 91.8291V93.2017H73.2776V91.7855C73.8538 91.7855 74.4788 91.5981 74.5276 90.744V82.7565C74.5276 82.5212 74.1419 81.8588 73.2776 81.8588V80.4426H77.555H77.5505Z" fill="#797E88"/>
<path fill-rule="evenodd" clip-rule="evenodd" d="M31.7361 89.2317H28.3718V90.5085C28.3718 91.027 28.2743 92.1164 26.6874 92.1164C25.1006 92.1164 24.6219 91.075 24.6219 90.3211V87.6281C24.6219 87.3928 24.8125 87.0616 25.1494 87.0616H31.7361V83.6104C31.7361 82.0503 31.3992 81.5797 30.7255 80.9174C30.0517 80.255 27.6981 80.0676 26.6387 80.0676C23.9481 80.0676 23.0794 80.4467 22.3125 81.0612C21.5413 81.6756 21.2532 82.9524 21.2532 83.898V89.2404C21.2532 90.6566 21.5413 91.6502 22.4544 92.5478C23.3675 93.4455 26.1555 93.4455 26.7318 93.4455C27.308 93.4455 29.2317 93.4935 30.6235 92.4999C32.0198 91.5064 31.7272 89.2404 31.7272 89.2404L31.7361 89.2317ZM24.6219 83.3707C24.6219 82.6125 24.8612 81.4795 26.5456 81.4795C28.23 81.4795 28.3718 82.7083 28.3718 83.3707V85.0702C28.3718 85.3534 28.1324 85.6367 27.7956 85.6367H25.1981C24.91 85.6367 24.6219 85.4014 24.6219 85.1181V83.3707Z" fill="#797E88"/>
<path fill-rule="evenodd" clip-rule="evenodd" d="M70.2901 90.6962V83.6063C70.2901 82.5213 70.2414 81.3839 69.0889 80.5821C67.9365 79.7803 66.0615 79.8239 65.339 79.8239C64.6165 79.8239 62.2141 79.8239 61.1104 81.0528C60.0067 82.2816 60.1973 83.4625 60.1973 83.9375H63.3444C63.3444 83.9375 63.5616 82.3295 63.9915 81.9068C64.4259 81.4798 65.5784 81.0092 66.4693 81.763C66.7973 82.0419 66.9259 82.3993 66.9259 82.8045V84.8352C66.9259 85.0225 66.7353 85.3058 66.4915 85.3058C66.4915 85.3058 62.1166 85.4017 61.3497 85.9682C60.5785 86.5346 59.9092 86.9138 59.9092 88.9923C59.9092 91.0709 60.4366 91.8771 61.0616 92.2998C61.6866 92.7268 61.9747 93.1974 64.8115 93.1974H71.5401V91.8248C70.9639 91.8248 70.2901 91.3542 70.2901 90.6918V90.6962ZM66.9259 91.498C66.9259 91.6156 66.7353 91.7812 66.589 91.7812H64.9312C63.7522 91.7812 63.4153 90.7877 63.4153 90.1733V88.3518C63.4153 86.5782 65.2903 86.6262 66.0349 86.6262C66.7796 86.6262 66.9259 87.2406 66.9259 87.6415V91.4936V91.498Z" fill="#797E88"/>
<path fill-rule="evenodd" clip-rule="evenodd" d="M88.6277 77.9629C90.312 77.9629 91.6728 77.4618 91.6728 76.8386C91.6728 76.2155 90.3076 75.7144 88.6277 75.7144C86.9477 75.7144 85.5825 76.2155 85.5825 76.8386C85.5825 77.4618 86.9477 77.9629 88.6277 77.9629Z" fill="#797E88"/>
</svg>
