<svg width="118" height="100" viewBox="0 0 118 100" fill="none" xmlns="http://www.w3.org/2000/svg">
<path fill-rule="evenodd" clip-rule="evenodd" d="M28.8764 19.8691C28.8764 19.8691 28.4322 25.3541 28.853 31.5247C29.7414 44.5166 31.9857 50.9429 34.7209 52.8719C40.3902 56.8578 50.9688 56.3465 59.2798 56.3465V57.834C46.6205 57.404 37.1289 57.8572 32.8507 52.7673C30.2674 49.6878 28.7478 39.45 28.4556 31.3271C28.2218 24.6336 28.7361 19.8342 28.7361 19.8342C28.7361 19.8342 28.7595 19.8342 28.8179 19.8575C28.8413 19.8575 28.8647 19.8575 28.8881 19.8691H28.8764Z" fill="#797E88"/>
<path fill-rule="evenodd" clip-rule="evenodd" d="M35.06 14.2678C34.8612 14.4538 34.6859 14.6513 34.5106 14.8837C32.1143 18.0678 32.3948 22.8439 32.3481 26.609C32.2896 31.4084 32.5117 36.2891 33.178 41.0536C33.5404 43.6334 33.8092 46.8872 35.06 49.3391L33.8443 49.804C33.8443 49.804 30.7817 43.8774 30.7817 26.7485C30.7817 14.477 35.0483 14.2678 35.0483 14.2678H35.06Z" fill="#797E88"/>
<path fill-rule="evenodd" clip-rule="evenodd" d="M34.9898 49.1881C34.8846 48.9557 34.3937 47.4334 34.1365 46.3759C34.0781 46.1202 33.6105 43.6218 33.5287 43.157C33.2364 41.8206 32.8858 39.5662 32.6403 36.9864C32.1494 31.8616 31.8454 26.0629 31.8454 24.2268C31.7753 24.4825 31.7402 27.3063 31.7169 27.6898C31.6935 27.9222 31.6935 29.4445 31.6935 29.735C31.6935 37.0909 33.2832 48.4328 35.0015 49.1881H34.9898Z" fill="#797E88"/>
<path fill-rule="evenodd" clip-rule="evenodd" d="M33.2481 14.454C31.0506 17.5452 30.7817 21.4613 30.7817 27.7133C30.7817 31.0833 31.2376 41.9951 33.0377 47.7242C33.1079 47.9566 33.704 49.0373 33.9144 48.8281C34.1248 48.6306 33.9962 48.2122 33.856 47.8868C33.7157 47.5498 31.7636 38.9157 31.7636 27.7365C31.7636 26.7371 31.6818 20.2528 32.4065 18.4167C33.2481 16.3017 33.891 15.6394 34.8379 14.4889C36.112 12.9201 39.8174 12.0718 39.8174 12.0718C39.8174 12.0718 39.9928 12.0369 40.0512 12.0602C40.2149 12.1067 40.2733 12.1996 40.2733 12.1996C40.2733 12.1996 40.6357 11.6418 41.8046 11.2119C43.1722 10.7122 44.4112 10.6076 44.4112 10.6076L45.8256 11.4327C45.8256 11.4327 45.849 11.4094 45.8958 11.3862C46.2347 11.2351 51.8221 10.6425 59.2681 10.7354V9.75928C45.171 9.75928 36.299 10.1544 33.2365 14.454H33.2481Z" fill="#797E88"/>
<path fill-rule="evenodd" clip-rule="evenodd" d="M31.7635 25.4121C31.7635 25.4121 31.6583 22.4256 31.8804 20.1944C31.9506 19.4275 32.0675 18.7535 32.2311 18.3235C32.6636 17.1963 33.1545 16.3596 33.5987 15.7553C33.8325 15.4416 34.0546 15.1859 34.2416 14.9884C34.6391 14.5816 34.8962 14.4189 34.8962 14.4189C34.8962 14.4189 33.2598 16.1156 32.6402 18.5559C32.6052 18.6954 32.5701 18.8464 32.5467 18.9975C32.2545 20.5663 31.8921 23.6342 31.8103 24.9473C31.7869 25.1216 31.7869 25.2959 31.7752 25.3657C31.7752 25.4005 31.7519 25.4121 31.7752 25.4121H31.7635Z" fill="#797E88"/>
<path d="M59.2798 55.8701C43.9787 55.8701 36.4626 56.0561 33.5404 49.1301C31.3779 43.9821 30.7817 31.3969 30.7817 27.7248C30.7817 11.6649 32.991 9.77075 59.2798 9.77075" fill="#797E88"/>
<path d="M59.2798 55.8701C43.9787 55.8701 36.4626 56.0561 33.5404 49.1301C31.3779 43.9821 30.7817 31.3969 30.7817 27.7248C30.7817 11.6649 32.991 9.77075 59.2798 9.77075" stroke="#797E88" stroke-width="0.203489" stroke-miterlimit="22.93"/>
<path fill-rule="evenodd" clip-rule="evenodd" d="M89.6831 19.8692C89.6831 19.8692 88.9584 12.8735 83.5113 11.0142C76.1939 8.51575 67.579 8.79465 59.2681 8.79465V7.9231C61.9332 7.9231 77.7369 7.95796 84.0256 10.5842C89.6364 12.92 89.8117 19.8343 89.8117 19.8343C89.8117 19.8343 89.8117 19.8343 89.6715 19.8692H89.6831Z" fill="#797E88"/>
<path fill-rule="evenodd" clip-rule="evenodd" d="M89.6832 19.8691C89.6832 19.8691 90.1274 25.3541 89.7065 31.5247C88.8182 44.5166 86.5739 50.9429 83.8386 52.8719C78.1694 56.8578 67.5907 56.3465 59.2798 56.3465V57.834C71.9391 57.404 81.4307 57.8572 85.7089 52.7673C88.2922 49.6878 89.8117 39.45 90.104 31.3271C90.3494 24.6336 89.8234 19.8342 89.8234 19.8342C89.8234 19.8342 89.8001 19.8342 89.7533 19.8575C89.7299 19.8575 89.7066 19.8575 89.6832 19.8691Z" fill="#797E88"/>
<path fill-rule="evenodd" clip-rule="evenodd" d="M87.7661 26.7485C87.7661 43.8774 84.7036 49.804 84.7036 49.804L83.4879 49.3391C84.7503 46.8872 85.0192 43.6334 85.3699 41.0536C86.0361 36.2891 86.2582 31.4084 86.1998 26.609C86.153 22.8439 86.4336 18.0678 84.0373 14.8837C83.8737 14.6629 83.6866 14.4538 83.4879 14.2678C83.4879 14.2678 87.7661 14.477 87.7661 26.7485Z" fill="#797E88"/>
<path fill-rule="evenodd" clip-rule="evenodd" d="M85.3114 14.454C87.509 17.5452 87.7778 21.4613 87.7778 27.7133C87.7778 31.0833 87.3102 41.9951 85.5218 47.7242C85.4517 47.9566 84.8555 49.0373 84.6451 48.8281C84.4464 48.6306 84.5633 48.2122 84.7036 47.8868C84.8438 47.5498 86.7959 38.9157 86.7959 27.7365C86.7959 26.7371 86.8777 20.2528 86.153 18.4167C85.3114 16.3017 84.6685 15.6394 83.7217 14.4889C82.4476 12.9201 78.7421 12.0718 78.7421 12.0718C78.7421 12.0718 78.5668 12.0369 78.4967 12.0602C78.333 12.1067 78.2746 12.1996 78.2746 12.1996C78.2746 12.1996 77.9122 11.6418 76.7433 11.2119C75.3757 10.7122 74.1249 10.6076 74.1249 10.6076L72.7105 11.4327C72.7105 11.4327 72.6872 11.4094 72.6404 11.3862C72.3014 11.2351 66.714 10.6425 59.2681 10.7354V9.75928C73.3651 9.75928 82.2372 10.1544 85.2997 14.454H85.3114Z" fill="#797E88"/>
<path fill-rule="evenodd" clip-rule="evenodd" d="M86.7959 25.4121C86.7959 25.4121 86.9011 22.4256 86.679 20.1944C86.6089 19.4275 86.492 18.7535 86.3283 18.3235C85.8958 17.1963 85.4049 16.3596 84.9607 15.7553C84.7269 15.4416 84.5048 15.1859 84.3178 14.9884C83.9204 14.5816 83.6632 14.4189 83.6632 14.4189C83.6632 14.4189 85.2997 16.1156 85.9192 18.5559C85.9543 18.6954 85.9893 18.8464 86.0127 18.9975C86.3166 20.5663 86.6673 23.6342 86.7491 24.9473C86.7725 25.1216 86.7725 25.2959 86.7842 25.3657C86.7842 25.4005 86.8076 25.4121 86.7842 25.4121H86.7959Z" fill="#797E88"/>
<path d="M59.2798 55.8701C74.5808 55.8701 82.0969 56.0561 85.0192 49.1301C87.1817 43.9821 87.7778 31.3969 87.7778 27.7248C87.7778 11.6649 85.5686 9.77075 59.2798 9.77075" fill="#797E88"/>
<path d="M59.2798 55.8701C74.5808 55.8701 82.0969 56.0561 85.0192 49.1301C87.1817 43.9821 87.7778 31.3969 87.7778 27.7248C87.7778 11.6649 85.5686 9.77075 59.2798 9.77075" stroke="#797E88" stroke-width="0.203489" stroke-miterlimit="22.93"/>
<path d="M59.2798 9.75928C33.0027 9.75928 30.7817 11.6418 30.7817 27.7133C30.7817 31.3854 31.3779 43.9707 33.5404 49.1186C36.4626 56.0562 43.9671 55.8587 59.2798 55.8587C74.5925 55.8587 82.0969 56.0446 85.0192 49.1186C87.1817 43.9707 87.7778 31.3854 87.7778 27.7133C87.7778 11.6535 85.5686 9.75928 59.2798 9.75928Z" fill="white"/>
<path d="M59.2798 9.75928C33.0027 9.75928 30.7817 11.6418 30.7817 27.7133C30.7817 31.3854 31.3779 43.9707 33.5404 49.1186C36.4626 56.0562 43.9671 55.8587 59.2798 55.8587C74.5925 55.8587 82.0969 56.0446 85.0192 49.1186C87.1817 43.9707 87.7778 31.3854 87.7778 27.7133C87.7778 11.6535 85.5686 9.75928 59.2798 9.75928Z" stroke="#797E88" stroke-width="0.101744" stroke-miterlimit="22.93"/>
<path fill-rule="evenodd" clip-rule="evenodd" d="M85.4517 15.2091C85.4166 15.1394 83.6165 13.129 81.6878 12.4899C81.0449 12.2807 78.9292 11.7229 78.298 11.8624C78.1226 11.8972 78.146 11.9786 78.146 12.0367C77.62 11.6532 77.3511 11.4673 77.1875 11.3975C76.5797 11.1535 76.4628 11.0489 74.4406 10.6538C74.5341 10.6538 74.8146 10.6771 74.9432 10.6887C76.1355 10.7468 78.8941 11.107 81.8281 12.1877C84.0724 13.0128 85.4868 15.1045 85.5218 15.1743C85.5218 15.1743 85.4985 15.1859 85.4985 15.1975C85.4868 15.1975 85.4751 15.2091 85.4634 15.2208L85.4517 15.2091Z" fill="#797E88"/>
<path fill-rule="evenodd" clip-rule="evenodd" d="M85.3815 41.0421C84.9257 44.3308 84.6101 48.6305 82.2372 51.1754C81.4072 52.0702 74.9315 55.8237 75.2354 52.9301C76.4277 43.9125 77.0823 34.8599 77.6433 25.7841C77.807 21.9725 78.0291 18.1609 78.0758 14.3494C78.1343 13.7102 77.7252 12.1182 78.7421 12.0833C80.6591 12.6411 82.7749 13.1989 84.049 14.8723C86.4452 18.0564 86.1647 22.8325 86.2115 26.5976C86.2699 31.3969 86.0478 36.2776 85.3815 41.0421ZM72.6872 12.002C71.3663 16.7665 69.8467 23.0765 68.5025 27.8642C67.4154 31.6875 66.1763 36.6263 61.4773 37.1143C60.776 37.1841 60.0279 37.2422 59.2797 37.2538C58.5316 37.2538 57.7835 37.1841 57.0822 37.1143C52.3832 36.6263 51.1441 31.6991 50.057 27.8642C48.7011 23.0765 47.1815 16.7665 45.8723 12.002C45.6502 11.1769 45.9892 11.3628 47.6841 11.142C50.7467 10.7353 55.3055 10.6656 59.2797 10.7121C63.2657 10.6772 67.8245 10.7353 70.8753 11.142C72.582 11.3744 72.9209 11.1885 72.6872 12.002ZM67.6725 54.7197C67.2985 54.7894 66.0244 54.7778 64.61 54.8127C62.8332 54.8592 61.0565 54.8592 59.2681 54.8592C57.4796 54.8592 55.7146 54.8592 53.9261 54.8127C52.5234 54.7778 51.2493 54.7778 50.8636 54.7197C50.4895 54.65 50.0921 54.6268 50.209 54.2084C50.3259 53.7901 52.0325 48.3051 52.0325 48.3051C53.1547 44.6678 53.2365 44.4238 56.112 43.866C57.0705 43.68 58.1576 43.5638 59.2681 43.5522C60.3668 43.5522 61.4656 43.68 62.4241 43.866C65.2996 44.4238 65.3815 44.6678 66.5036 48.3051C66.5036 48.3051 68.2102 53.7784 68.3271 54.2084C68.444 54.6268 68.0466 54.65 67.6725 54.7197ZM36.3223 51.187C33.9378 48.6421 33.6338 44.3424 33.178 41.0538C32.5117 36.2893 32.2896 31.4086 32.348 26.6092C32.3948 22.8441 32.1142 18.068 34.5105 14.8839C35.7729 13.1989 37.8887 12.6411 39.8174 12.0949C40.8343 12.1414 40.4252 13.7218 40.4837 14.361C40.5421 18.1726 40.7525 21.9842 40.9162 25.7958C41.4772 34.8715 42.1318 43.9241 43.3241 52.9417C43.628 55.8237 37.1523 52.0818 36.3223 51.187ZM90.1156 22.542C89.9052 18.986 89.3792 15.1047 86.7258 12.4784C84.3061 10.0845 80.8228 9.41055 77.5732 8.98058C71.4715 8.15551 65.4399 7.9231 59.2797 7.9231C53.1079 7.9231 47.088 8.14389 40.9746 8.95734C37.725 9.38731 34.2417 10.0613 31.822 12.4552C29.1686 15.0815 28.6426 18.9628 28.4322 22.5187C28.1867 26.6441 28.3971 30.7462 28.6543 34.8599C28.9114 38.9039 29.3673 42.9944 30.3609 46.9338C30.8168 48.7583 31.448 50.5944 32.5117 52.1748C33.5403 53.6855 35.0131 54.7546 36.673 55.5099C40.1914 57.102 44.2475 57.2414 48.0465 57.4738C51.7753 57.7062 55.5275 57.8457 59.2797 57.8573C63.032 57.8341 66.7842 57.7062 70.513 57.4738C74.3119 57.2414 78.3681 57.102 81.8865 55.5099C83.5463 54.7546 85.0192 53.6855 86.0478 52.1748C87.1115 50.606 87.7427 48.7699 88.1986 46.9338C89.1922 42.9944 89.6481 38.9039 89.9052 34.8599C90.1624 30.7462 90.3728 26.6324 90.1273 22.5187L90.1156 22.542Z" fill="#797E88"/>
<path fill-rule="evenodd" clip-rule="evenodd" d="M48.4089 55.1844C48.4206 55.1147 48.4089 55.1844 48.4206 55.1147C48.8648 53.2321 49.0869 52.2095 49.5544 50.5245C50.0688 48.6884 50.4896 47.4915 51.1558 45.76C51.5767 44.6676 52.5235 43.2267 53.9262 42.7037C55.2704 42.2157 56.3692 41.9368 59.2798 41.9368V43.215C59.2798 43.3313 59.2798 43.1802 59.2798 43.6101C56.942 43.6101 55.5276 43.7612 54.3937 44.4817C53.7976 44.8652 53.0729 45.6322 52.6404 46.6896C51.9975 48.2701 51.6819 49.3624 51.2143 50.8499C50.7234 52.4419 50.4896 53.2321 50.2441 54.1618C50.2441 54.1966 50.209 54.3012 50.209 54.3826C50.209 54.429 50.209 54.4639 50.2324 54.4871C49.6713 54.7428 49.5077 54.8009 49.4259 54.8241C49.3207 54.859 49.0869 54.952 48.8414 55.0333C48.7128 55.0798 48.5959 55.1147 48.3972 55.1728L48.4089 55.1844Z" fill="#797E88"/>
<path fill-rule="evenodd" clip-rule="evenodd" d="M44.2943 10.7353C45.0307 14.3725 46.901 22.8324 47.275 24.5523C47.6607 26.2722 49.6947 33.8721 50.8402 35.7895C51.4363 36.7889 52.1026 37.4978 52.8858 38.0091C54.3937 38.9736 56.3691 39.1595 59.2797 39.1595V37.1259C56.9419 37.1259 55.5275 37.0446 54.3937 36.3125C53.7975 35.929 53.2832 35.3712 52.7455 34.5577C51.074 32.0012 49.7414 26.7486 49.0167 24.1572C48.5491 22.4606 46.3165 13.6985 45.7905 11.63C45.3931 11.3976 45.206 11.3163 45.0424 11.1768C44.8904 11.0606 44.7502 10.9909 44.2826 10.7236L44.2943 10.7353Z" fill="#797E88"/>
<path fill-rule="evenodd" clip-rule="evenodd" d="M59.2798 39.2525C52.278 39.2525 50.4545 37.9858 47.6842 26.2257C44.9255 14.4655 44.3177 10.7236 44.3177 10.7236C44.3177 10.7236 43.102 10.8863 41.8864 11.3279C40.6707 11.7695 40.3551 12.3157 40.3551 12.3157C40.3551 12.3157 40.0979 20.6245 41.5941 35.7779C43.0787 50.9313 43.3826 53.5111 43.3826 53.5111C43.3826 53.5111 45.7671 54.9056 46.9127 55.0683C47.9296 55.2077 48.4089 55.1845 48.4089 55.1845C48.4089 55.1845 49.0985 51.8493 50.1272 48.7234C51.6468 44.1216 51.9974 41.9369 59.2798 41.9369V39.2409V39.2525Z" fill="#797E88"/>
<path fill-rule="evenodd" clip-rule="evenodd" d="M59.2798 41.9369C54.873 41.9369 52.8625 42.8433 51.7871 44.5283C51.1091 45.5974 50.6883 47.0267 50.0921 48.8163C49.5194 50.5594 49.4843 51.001 49.2038 51.861C48.9349 52.7209 48.3972 55.1845 48.3972 55.1845C48.3972 55.1845 46.7724 55.1729 45.9776 54.9172C44.5749 54.464 44.0606 54.2548 43.2306 53.8016C43.2306 53.8016 43.3826 53.6506 43.3592 53.4646C43.2306 52.0934 42.1085 41.1931 41.9916 39.9962C41.7695 37.7418 41.9098 39.2176 41.5825 35.7779C41.1032 30.9437 40.811 26.8067 40.624 23.4134C40.2265 16.1737 40.3434 12.3157 40.3434 12.3157C40.3434 12.3157 40.624 11.8392 41.6526 11.4092C41.8396 11.3395 43.3358 10.6888 43.3709 11.0141C43.3943 11.2814 43.4878 12.0368 43.7333 13.4894C44.1073 15.7205 44.8554 19.5902 46.3166 25.8189C46.3516 25.9468 46.375 26.0862 46.4101 26.214C47.7894 32.1638 47.8595 35.4293 49.4376 37.614C50.0805 38.4971 50.6883 39.1363 51.3779 39.6243C53.0144 40.7516 55.1185 41.4837 59.2681 41.9369H59.2798Z" fill="#797E88"/>
<path fill-rule="evenodd" clip-rule="evenodd" d="M28.8764 19.8692C28.8764 19.8692 29.6011 12.8735 35.0482 11.0142C42.3656 8.51575 50.9805 8.79465 59.2915 8.79465V7.9231C56.6263 7.9231 40.8227 7.95796 34.5339 10.5842C28.9231 12.92 28.7478 19.8343 28.7478 19.8343C28.7478 19.8343 28.7478 19.8343 28.8881 19.8692H28.8764Z" fill="#797E88"/>
<path d="M48.5375 54.5454V55.6145H59.2798V54.5454H48.5375Z" fill="#797E88"/>
<path fill-rule="evenodd" clip-rule="evenodd" d="M48.5375 55.2078C48.8414 55.1032 49.2622 54.987 49.5311 54.8824C49.7765 54.7894 50.0337 54.6616 50.3025 54.5454C50.4311 54.6384 50.5948 54.65 50.7467 54.6616C51.1558 54.7081 52.1494 54.7662 54.3587 54.8127C57.3394 54.8708 59.2798 54.8708 59.2798 54.8708V55.5797C59.2798 55.5797 56.9069 55.6145 53.669 55.4983C51.3779 55.417 51.1208 55.4053 50.5012 55.3705C50.2441 55.3705 48.5492 55.2078 48.5492 55.2078H48.5375Z" fill="#797E88"/>
<path fill-rule="evenodd" clip-rule="evenodd" d="M33.8442 49.7926C34.043 50.3271 35.0833 51.9192 36.1937 52.814C38.6017 54.7546 43.8501 55.7075 46.0477 55.5216C46.3165 55.4983 47.5439 55.5448 47.7426 55.4867C46.936 55.3937 45.697 55.0567 44.3761 54.4641C44.0255 54.3014 43.5111 54.0574 43.1838 53.8714C43.1137 53.9412 42.9968 53.9876 42.8332 54.0109C42.2253 54.0922 38.3445 53.4182 36.8133 51.6984C36.3691 51.1987 35.5625 50.4201 35.0599 49.3394C34.8612 49.4207 34.6508 49.4904 34.4521 49.5718C34.2534 49.6531 34.043 49.7228 33.8442 49.8042V49.7926Z" fill="#797E88"/>
<path fill-rule="evenodd" clip-rule="evenodd" d="M45.814 11.5487C45.814 11.5487 45.814 11.4208 45.9309 11.386C46.0711 11.3395 46.3283 11.293 46.8777 11.2117C47.6141 11.1187 48.8765 11.0025 51.0273 10.9328C55.7965 10.7817 59.1045 10.7468 59.2798 10.7468V10.2007C59.2798 10.2007 54.2769 10.1077 50.6883 10.2588C47.3803 10.3982 45.2997 10.4912 44.4814 10.619C44.3412 10.6422 44.3295 10.6771 44.3295 10.6771C44.6918 10.8863 44.7035 10.8863 44.8087 10.9444C44.9256 11.0141 45.3698 11.2814 45.8257 11.5487H45.814Z" fill="#797E88"/>
<path fill-rule="evenodd" clip-rule="evenodd" d="M33.1078 15.2091C33.1429 15.1394 34.943 13.129 36.8717 12.4899C37.5146 12.2807 39.6303 11.7229 40.2616 11.8624C40.4369 11.8972 40.4135 11.9786 40.4135 12.0367C40.9395 11.6532 41.2084 11.4673 41.372 11.3975C41.9799 11.1535 42.0968 11.0489 44.119 10.6538C44.0255 10.6538 43.7449 10.6771 43.6163 10.6887C42.4124 10.7468 39.6654 11.107 36.7315 12.1877C34.4871 13.0128 33.0728 15.1045 33.026 15.1743C33.026 15.1743 33.0494 15.1859 33.0611 15.1975C33.0728 15.1975 33.0844 15.2091 33.0961 15.2208L33.1078 15.2091Z" fill="#797E88"/>
<path fill-rule="evenodd" clip-rule="evenodd" d="M70.1507 55.1844C70.139 55.1147 70.1507 55.1844 70.139 55.1147C69.6948 53.2321 69.4727 52.2095 69.0051 50.5245C68.4908 48.6884 68.07 47.4915 67.4037 45.76C66.9829 44.6676 66.0478 43.2267 64.6334 42.7037C63.2891 42.2157 62.2021 41.9368 59.2798 41.9368V43.215C59.2798 43.3313 59.2798 43.1802 59.2798 43.6101C61.6176 43.6101 63.032 43.7612 64.1658 44.4817C64.762 44.8652 65.4867 45.6322 65.9192 46.6896C66.5621 48.2701 66.8777 49.3624 67.3453 50.8499C67.8362 52.4419 68.07 53.2321 68.3155 54.1618C68.3155 54.1966 68.3505 54.3012 68.3505 54.3826C68.3505 54.429 68.3505 54.4639 68.3272 54.4871C68.8882 54.7428 69.0519 54.8009 69.1337 54.8241C69.2389 54.859 69.4727 54.952 69.7182 55.0333C69.8467 55.0798 69.9636 55.1147 70.1623 55.1728L70.1507 55.1844Z" fill="#797E88"/>
<path fill-rule="evenodd" clip-rule="evenodd" d="M74.2652 10.7353C73.5288 14.3725 71.6702 22.8324 71.2845 24.5523C70.8988 26.2722 68.8649 33.8721 67.7193 35.7895C67.1232 36.7889 66.4569 37.4978 65.6737 38.0091C64.1658 38.9736 62.1904 39.1595 59.2798 39.1595V37.1259C61.6176 37.1259 63.032 37.0446 64.1658 36.3125C64.762 35.929 65.2763 35.3712 65.814 34.5577C67.4855 32.0012 68.8181 26.7486 69.5428 24.1572C70.0104 22.4606 72.243 13.6985 72.769 11.63C73.1664 11.3976 73.3535 11.3163 73.5288 11.1768C73.6808 11.0606 73.821 10.9909 74.2769 10.7236L74.2652 10.7353Z" fill="#797E88"/>
<path fill-rule="evenodd" clip-rule="evenodd" d="M59.2798 39.2525C66.2816 39.2525 68.1051 37.9858 70.8754 26.2257C73.6457 14.4655 74.2535 10.7236 74.2535 10.7236C74.2535 10.7236 75.4692 10.8863 76.6849 11.3279C77.9005 11.7695 78.2161 12.3157 78.2161 12.3157C78.2161 12.3157 78.4733 20.6245 76.9771 35.7779C75.4926 50.9313 75.1887 53.5111 75.1887 53.5111C75.1887 53.5111 72.8041 54.9056 71.6586 55.0683C70.6416 55.2077 70.1623 55.1845 70.1623 55.1845C70.1623 55.1845 69.4727 51.8493 68.444 48.7234C66.9245 44.1216 66.5738 41.9369 59.2915 41.9369V39.2409L59.2798 39.2525Z" fill="#797E88"/>
<path fill-rule="evenodd" clip-rule="evenodd" d="M59.2798 41.9369C63.6866 41.9369 65.6971 42.8433 66.7725 44.5283C67.4505 45.5974 67.8713 47.0267 68.4674 48.8163C69.0402 50.5594 69.0753 51.001 69.3558 51.861C69.6247 52.7209 70.1623 55.1845 70.1623 55.1845C70.1623 55.1845 71.7871 55.1729 72.5703 54.9172C73.973 54.464 74.4873 54.2548 75.3172 53.8016C75.3172 53.8016 75.177 53.6506 75.1887 53.4646C75.3172 52.0934 76.4394 41.1931 76.5563 39.9962C76.7784 37.7418 76.6381 39.2176 76.9654 35.7779C77.4447 30.9437 77.7369 26.8067 77.9239 23.4134C78.3214 16.1737 78.2045 12.3157 78.2045 12.3157C78.2045 12.3157 77.9356 11.8392 76.8953 11.4092C76.7083 11.3395 75.212 10.6888 75.177 11.0141C75.1536 11.2814 75.0601 12.0368 74.8146 13.4894C74.4406 15.7205 73.6925 19.5902 72.2313 25.8189C72.1963 25.9468 72.1729 26.0862 72.1378 26.214C70.7585 32.1638 70.6884 35.4293 69.1103 37.614C68.4674 38.4971 67.8596 39.1363 67.1699 39.6243C65.5335 40.7516 63.4294 41.4837 59.2798 41.9369Z" fill="#797E88"/>
<path d="M59.2797 54.5454V55.6145H70.0103V54.5454H59.2797Z" fill="#797E88"/>
<path fill-rule="evenodd" clip-rule="evenodd" d="M70.0105 55.2078C69.7182 55.1032 69.2857 54.987 69.0169 54.8824C68.7714 54.7894 68.5142 54.6616 68.2454 54.5454C68.1168 54.6384 67.9532 54.65 67.8012 54.6616C67.3921 54.7081 66.3985 54.7662 64.1776 54.8127C61.1969 54.8708 59.2565 54.8708 59.2565 54.8708V55.5797C59.2565 55.5797 61.6294 55.6145 64.8672 55.4983C67.1583 55.417 67.4155 55.4053 68.035 55.3705C68.2922 55.3705 69.9871 55.2078 69.9871 55.2078H70.0105Z" fill="#797E88"/>
<path fill-rule="evenodd" clip-rule="evenodd" d="M84.7037 49.7926C84.5049 50.3271 83.4646 51.9192 82.3541 52.814C79.9462 54.7546 74.6978 55.7075 72.5002 55.5216C72.2314 55.4983 71.004 55.5448 70.8053 55.4867C71.6235 55.3937 72.8509 55.0567 74.1718 54.4641C74.5224 54.3014 75.0251 54.0574 75.3641 53.8714C75.4342 53.9412 75.5511 53.9876 75.7147 54.0109C76.3226 54.0922 80.2033 53.4182 81.7346 51.6984C82.1788 51.1987 82.9854 50.4201 83.488 49.3394C83.6867 49.4207 83.8971 49.4904 84.0958 49.5718C84.2945 49.6531 84.5049 49.7228 84.7037 49.8042V49.7926Z" fill="#797E88"/>
<path fill-rule="evenodd" clip-rule="evenodd" d="M83.5581 49.1881C83.6633 48.9557 84.1659 47.4334 84.4114 46.3759C84.4698 46.1202 84.9374 43.6218 85.0192 43.157C85.3114 41.8206 85.6621 39.5662 85.9076 36.9864C86.3985 31.8616 86.7024 26.0629 86.7024 24.2268C86.7609 24.4825 86.8076 27.3063 86.831 27.6898C86.8427 27.9222 86.8544 29.4445 86.8544 29.735C86.8544 37.0909 85.2647 48.4328 83.5464 49.1881H83.5581Z" fill="#797E88"/>
<path fill-rule="evenodd" clip-rule="evenodd" d="M72.7456 11.5487C72.7456 11.5487 72.7456 11.4208 72.6287 11.386C72.4885 11.3395 72.2313 11.293 71.6819 11.2117C70.9455 11.1187 69.6831 11.0025 67.5323 10.9328C62.7631 10.7817 59.4551 10.7468 59.2798 10.7468V10.2007C59.2798 10.2007 64.2827 10.1077 67.8713 10.2588C71.1793 10.3982 73.26 10.4912 74.0782 10.619C74.2185 10.6422 74.2302 10.6771 74.2302 10.6771C73.8678 10.8863 73.8561 10.8863 73.7509 10.9444C73.634 11.0141 73.1898 11.2814 72.7339 11.5487H72.7456Z" fill="#797E88"/>
<path fill-rule="evenodd" clip-rule="evenodd" d="M24.1902 90.9671C24.165 90.6408 24.1397 90.4526 24.1397 90.1389V83.814C24.1397 83.4375 24.0135 82.8351 24.7709 82.7222L26.6265 82.5339V81.0657H16.7425V82.5339C17.1591 82.5339 18.3204 82.672 18.6486 82.7975C18.8379 82.8728 19.2293 83.0108 19.2293 83.8265V86.0854H11.3776V83.7261C11.3776 83.425 11.4407 82.9481 11.9962 82.7598C12.337 82.6343 13.41 82.5967 13.9149 82.5465V81.0782H3.90466V82.5465C4.62419 82.6218 5.21748 82.6218 5.89913 82.7724C6.4798 82.9104 6.44193 83.5254 6.44193 83.8642V90.4024C6.42931 91.0424 6.42931 90.9044 6.42931 90.9044C6.42931 91.4817 5.84864 91.6573 5.43207 91.6699L3.91729 91.7828V93.2511H13.9149V91.7828C13.5993 91.7828 12.6147 91.6448 12.1855 91.5946C11.3902 91.4817 11.3776 91.0048 11.3776 90.5655V88.4071H19.2293V90.2644C19.2293 90.6659 19.406 91.4189 18.5476 91.5569C17.8155 91.6699 17.0076 91.7828 16.7425 91.7828V93.2511H26.6896V91.7828C26.0963 91.7201 25.8817 91.7201 24.7582 91.5569C24.4174 91.5067 24.2407 91.2432 24.2154 91.0048L24.1902 90.9671Z" fill="#797E88"/>
<path fill-rule="evenodd" clip-rule="evenodd" d="M44.6778 82.2579C42.6959 80.9653 40.0577 80.7144 37.2805 80.7144C34.8316 80.7144 31.9157 81.0908 30.1737 82.1952C28.2297 83.425 27.2577 85.5082 27.2577 87.2526C27.2577 88.8338 28.3307 90.9421 29.9969 92.0966C31.7642 93.3265 34.5287 93.6779 37.1291 93.6779C39.8935 93.6779 42.4182 93.4896 44.4505 92.2472C46.3314 91.1178 47.4801 89.1852 47.4422 87.2024C47.417 85.2447 46.4703 83.4752 44.6778 82.2579ZM32.9129 88.4699C32.5216 86.9514 32.8624 85.3576 33.7334 84.3537C35.1851 82.4964 39.5022 82.6219 40.8908 84.429C42.0016 85.7341 42.0016 87.7797 41.2569 89.4487C40.3859 91.0927 38.6565 91.4315 36.4979 91.3562C34.6297 91.1805 33.3926 90.3146 32.9129 88.4824V88.4699Z" fill="#797E88"/>
<path fill-rule="evenodd" clip-rule="evenodd" d="M62.1987 81.0155V82.534C64.4078 82.5465 64.6476 83.0736 64.6476 84.454V90.3397L57.3766 81.0029H48.2374V82.4712C49.3609 82.4712 50.7495 82.8979 50.7495 84.4038V89.8C50.6485 91.2683 50.7242 91.695 48.3005 91.7577V93.226H55.9376V91.7577C53.5518 91.7201 53.5771 91.0173 53.5771 89.5993V84.1403L60.6713 93.3515H67.5005V85.1191C67.5005 84.6297 67.4879 84.0524 67.6141 83.5756C67.8792 82.6218 68.6871 82.5967 69.9873 82.4838V81.0155H62.1861H62.1987Z" fill="#797E88"/>
<path fill-rule="evenodd" clip-rule="evenodd" d="M89.2629 82.5968C88.5055 82.0697 87.4956 81.7309 86.4605 81.4548C85.1477 81.1034 83.3426 81.0658 82.0172 81.0532H79.5935L71.0097 81.0658V82.534L72.6886 82.6972C73.1304 82.7976 73.4334 83.1239 73.4207 83.7388V90.7539C73.4207 90.7539 73.3576 91.3688 72.8779 91.557C72.3982 91.7453 71.704 91.7704 70.9971 91.7704V93.2387H80.0353C81.2976 93.2261 84.0495 93.3014 85.7789 93.0128C87.685 92.699 89.6163 91.7578 90.4369 90.5531C91.472 89.0221 91.5856 88.0809 91.5856 87.0142C91.5856 85.4079 90.9544 83.8141 89.2629 82.5968ZM85.8041 86.964C85.8925 88.7585 85.5895 91.2182 81.6006 91.0174H78.0156V83.4H81.7647C83.1154 83.4 83.8601 83.5631 84.668 84.178C85.5769 84.8808 85.7536 85.9098 85.8041 86.9514V86.964Z" fill="#797E88"/>
<path fill-rule="evenodd" clip-rule="evenodd" d="M94.9939 81.0279V82.5966C94.9939 82.5966 98.642 82.3331 97.0515 84.7049L94.1355 89.4611C93.214 90.9168 92.9363 91.7576 90.6262 91.7702V93.2385H98.5284V91.7702C97.4554 91.6949 95.8775 91.5067 96.7611 90.1513C96.7611 90.1513 97.1777 89.549 97.1651 89.5239H104.916L105.37 90.1513C106.645 91.9961 103.527 91.7702 103.527 91.7702V93.2385H114.08V91.7702C112.338 91.7325 111.985 91.469 111.354 90.5027L104.752 81.0154H94.9812L94.9939 81.0279ZM98.2759 87.4783L100.939 83.3496L103.679 87.4783H98.2759Z" fill="#797E88"/>
</svg>
